%FSLAX34Y34*%
%MOMM*%
%LNCOPPER_BOTTOM*%
G71*
G01*
%ADD10C,5.300*%
%ADD11C,3.800*%
%ADD12C,2.800*%
%ADD13C,4.800*%
%ADD14C,1.118*%
%ADD15R,2.200X2.100*%
%ADD16R,2.400X2.100*%
%ADD17C,1.100*%
%ADD18C,2.800*%
%ADD19R,2.070X1.359*%
%ADD20R,1.359X2.070*%
%ADD21C,1.610*%
%ADD22C,1.300*%
%ADD23R,2.100X2.400*%
%ADD24R,2.700X1.400*%
%ADD25C,1.200*%
%ADD26C,2.100*%
%ADD27R,2.100X2.200*%
%ADD28R,7.800X6.800*%
%ADD29R,3.340X2.070*%
%ADD30R,1.800X2.400*%
%ADD31R,3.200X2.400*%
%ADD32C,1.600*%
%ADD33C,1.400*%
%ADD34C,1.000*%
%ADD35C,1.800*%
%ADD36C,2.600*%
%ADD37C,2.370*%
%ADD38C,2.145*%
%ADD39C,2.000*%
%ADD40C,1.320*%
%ADD41C,2.187*%
%ADD42C,2.147*%
%ADD43C,0.871*%
%ADD44C,1.260*%
%ADD45C,0.559*%
%ADD46C,1.447*%
%ADD47C,1.427*%
%ADD48C,0.600*%
%ADD49C,0.845*%
%ADD50C,1.232*%
%ADD51C,1.057*%
%ADD52C,0.500*%
%ADD53C,1.269*%
%ADD54C,0.930*%
%ADD55C,4.500*%
%ADD56C,3.000*%
%ADD57C,2.000*%
%ADD58C,4.000*%
%ADD59C,0.318*%
%ADD60R,1.400X1.300*%
%ADD61R,1.600X1.300*%
%ADD62C,0.300*%
%ADD63R,1.270X0.559*%
%ADD64R,0.559X1.270*%
%ADD65C,0.810*%
%ADD66R,1.300X1.600*%
%ADD67R,1.900X0.600*%
%ADD68C,0.400*%
%ADD69C,1.300*%
%ADD70R,1.300X1.400*%
%ADD71R,7.000X6.000*%
%ADD72R,2.540X1.270*%
%ADD73R,1.000X1.600*%
%ADD74R,2.400X1.600*%
%ADD75C,0.800*%
%ADD76C,0.200*%
%ADD77C,1.800*%
%LPD*%
G36*
X-9524Y493572D02*
X454476Y493572D01*
X454476Y-16428D01*
X-9524Y-16428D01*
X-9524Y493572D01*
G37*
%LPC*%
X80486Y375347D02*
G54D10*
D03*
X83661Y443609D02*
G54D10*
D03*
X48956Y262092D02*
G54D11*
D03*
X48956Y314092D02*
G54D11*
D03*
X33651Y403582D02*
G54D10*
D03*
X367517Y170289D02*
G54D12*
D03*
X317517Y170289D02*
G54D12*
D03*
X342517Y170289D02*
G54D12*
D03*
X367517Y20289D02*
G54D12*
D03*
X317517Y20289D02*
G54D12*
D03*
X405018Y95289D02*
G54D13*
D03*
X280018Y95289D02*
G54D13*
D03*
G54D14*
X51909Y459519D02*
X48354Y449519D01*
X44798Y459519D01*
G54D14*
X33243Y449519D02*
X33243Y467297D01*
X38576Y456185D01*
X38576Y453963D01*
X31465Y453963D01*
G54D14*
X25243Y449519D02*
X25243Y449519D01*
G54D14*
X11910Y463963D02*
X11910Y452852D01*
X12799Y450630D01*
X14577Y449519D01*
X16355Y449519D01*
X18132Y450630D01*
X19021Y452852D01*
X19021Y463963D01*
X18132Y466185D01*
X16355Y467297D01*
X14577Y467297D01*
X12799Y466185D01*
X11910Y463963D01*
X365702Y59406D02*
G54D15*
D03*
X365702Y78406D02*
G54D15*
D03*
X320061Y59803D02*
G54D15*
D03*
X320061Y78803D02*
G54D15*
D03*
X320855Y118938D02*
G54D16*
D03*
X320855Y140319D02*
G54D16*
D03*
X363718Y118938D02*
G54D16*
D03*
X363718Y140319D02*
G54D16*
D03*
G54D17*
X320061Y78803D02*
X320061Y118144D01*
X320855Y118938D01*
G54D18*
X31058Y168141D02*
X31058Y148141D01*
G36*
X121057Y182141D02*
X121057Y134141D01*
X93057Y134141D01*
X93057Y182141D01*
X121057Y182141D01*
G37*
X318254Y458963D02*
G54D12*
D03*
X292854Y458963D02*
G54D12*
D03*
X267454Y458963D02*
G54D12*
D03*
X242055Y458962D02*
G54D12*
D03*
X325442Y338218D02*
G54D19*
D03*
X325442Y330217D02*
G54D19*
D03*
X325443Y322216D02*
G54D19*
D03*
X325442Y314215D02*
G54D19*
D03*
X325443Y306214D02*
G54D19*
D03*
X325442Y298213D02*
G54D19*
D03*
X325442Y290212D02*
G54D19*
D03*
X325442Y282211D02*
G54D19*
D03*
X239590Y282211D02*
G54D19*
D03*
X239590Y290212D02*
G54D19*
D03*
X239590Y298213D02*
G54D19*
D03*
X239590Y306214D02*
G54D19*
D03*
X239591Y314215D02*
G54D19*
D03*
X239590Y322216D02*
G54D19*
D03*
X239590Y330217D02*
G54D19*
D03*
X239590Y338218D02*
G54D19*
D03*
X254526Y353153D02*
G54D20*
D03*
X262527Y353153D02*
G54D20*
D03*
X270528Y353153D02*
G54D20*
D03*
X278529Y353153D02*
G54D20*
D03*
X286530Y353153D02*
G54D20*
D03*
X294531Y353153D02*
G54D20*
D03*
X302532Y353153D02*
G54D20*
D03*
X310533Y353153D02*
G54D20*
D03*
X310533Y267301D02*
G54D20*
D03*
X302532Y267301D02*
G54D20*
D03*
X294531Y267301D02*
G54D20*
D03*
X286530Y267301D02*
G54D20*
D03*
X278529Y267301D02*
G54D20*
D03*
X270528Y267301D02*
G54D20*
D03*
X262527Y267301D02*
G54D20*
D03*
X254526Y267301D02*
G54D20*
D03*
G36*
X239180Y386214D02*
X239180Y414214D01*
X267180Y414214D01*
X267180Y386214D01*
X239180Y386214D01*
G37*
X278579Y400214D02*
G54D12*
D03*
X303980Y400213D02*
G54D12*
D03*
X329380Y400213D02*
G54D12*
D03*
X354780Y400213D02*
G54D12*
D03*
X380180Y400213D02*
G54D12*
D03*
X277246Y290580D02*
G54D21*
D03*
G54D22*
X329411Y314215D02*
X335685Y314215D01*
X340746Y309154D01*
X340746Y304059D01*
X334844Y298156D01*
X318572Y298156D01*
X310634Y290219D01*
X243559Y290212D01*
X361882Y354512D02*
G54D23*
D03*
X383263Y354512D02*
G54D23*
D03*
G54D17*
X383263Y354512D02*
X383263Y397130D01*
X380180Y400213D01*
X286771Y367177D02*
G54D21*
D03*
G54D17*
X286530Y353153D02*
X286530Y366936D01*
X286771Y367177D01*
G54D17*
X294531Y355137D02*
X294531Y376509D01*
X301506Y383484D01*
X320953Y383484D01*
X328890Y391422D01*
X328890Y400915D01*
X329380Y401403D01*
G54D17*
X302532Y350375D02*
X302532Y372604D01*
X305475Y375547D01*
X346353Y375547D01*
X354290Y383484D01*
X354290Y396946D01*
X354780Y397435D01*
X364558Y374718D02*
G54D21*
D03*
X367388Y286647D02*
G54D24*
D03*
X367388Y298553D02*
G54D24*
D03*
X367784Y310459D02*
G54D24*
D03*
G54D25*
X361882Y354512D02*
X361882Y338191D01*
X365800Y334272D01*
X396756Y334272D01*
X404694Y342210D01*
X404694Y421585D01*
X395566Y430713D01*
X366569Y430687D01*
G54D25*
X396756Y334272D02*
X396756Y319191D01*
X403900Y312047D01*
X410698Y312047D01*
X407074Y290616D02*
G54D26*
D03*
X406703Y312814D02*
G54D26*
D03*
X366569Y430687D02*
G54D27*
D03*
X347569Y430687D02*
G54D27*
D03*
X205808Y345088D02*
G54D16*
D03*
X205807Y366470D02*
G54D16*
D03*
X262378Y207924D02*
G54D27*
D03*
X281378Y207924D02*
G54D27*
D03*
X118336Y319551D02*
G54D16*
D03*
X118336Y298170D02*
G54D16*
D03*
X157428Y319551D02*
G54D16*
D03*
X157428Y298170D02*
G54D16*
D03*
X146964Y222187D02*
G54D28*
D03*
X208454Y244487D02*
G54D29*
D03*
X208454Y199986D02*
G54D29*
D03*
X281380Y172206D02*
G54D27*
D03*
X262380Y172206D02*
G54D27*
D03*
X152141Y352876D02*
G54D30*
D03*
X137042Y352876D02*
G54D30*
D03*
X121941Y352876D02*
G54D30*
D03*
X137042Y391776D02*
G54D31*
D03*
G54D32*
X137141Y359876D02*
X137141Y384876D01*
G54D33*
X118336Y319551D02*
X118336Y349270D01*
X121941Y352876D01*
G54D32*
X157428Y319551D02*
X157428Y347589D01*
X152141Y352876D01*
X189795Y287454D02*
G54D23*
D03*
X211176Y287454D02*
G54D23*
D03*
G54D34*
X14288Y479410D02*
X419085Y479412D01*
G54D34*
G75*
G01X14288Y479410D02*
G03X0Y465122I0J-14288D01*
G01*
G54D34*
G75*
G01X1Y14288D02*
G03X14289Y0I14288J0D01*
G01*
G54D34*
X0Y465122D02*
X1Y14288D01*
G54D34*
X14289Y0D02*
X419086Y0D01*
G54D34*
G75*
G01X419086Y0D02*
G03X433374Y14288I0J14288D01*
G01*
G54D34*
G75*
G01X433373Y465124D02*
G03X419085Y479412I-14288J0D01*
G01*
G54D34*
X433374Y14288D02*
X433373Y465124D01*
G54D35*
X48956Y307742D02*
X48956Y343816D01*
X77312Y372172D01*
G54D32*
X161956Y321226D02*
X175647Y321226D01*
X188120Y308754D01*
X188120Y289129D01*
X189795Y287454D01*
G54D17*
X365702Y78406D02*
X365702Y116953D01*
X363718Y118938D01*
G54D17*
X363718Y118938D02*
X377636Y118938D01*
X384997Y126299D01*
X384997Y152809D01*
X367517Y170289D01*
G54D17*
X321497Y118938D02*
X307579Y118938D01*
X300218Y126299D01*
X300218Y152809D01*
X317698Y170289D01*
X287338Y335741D02*
G54D21*
D03*
G54D22*
X347569Y430687D02*
X274942Y430687D01*
X268288Y437341D01*
X268288Y458129D01*
X267454Y458963D01*
G54D22*
X303980Y400213D02*
X303980Y428582D01*
X304801Y429404D01*
X296864Y324628D02*
G54D21*
D03*
G54D17*
X270528Y353153D02*
X270528Y331914D01*
X277814Y324628D01*
X296864Y324628D01*
G54D17*
X278529Y353153D02*
X278529Y339788D01*
X282576Y335741D01*
X288926Y335741D01*
G54D17*
X325442Y290212D02*
X350330Y290212D01*
X354014Y286528D01*
X367269Y286528D01*
X367388Y286647D01*
G54D17*
X325442Y282211D02*
X344044Y282211D01*
X352426Y273828D01*
X376223Y273828D01*
X383212Y280817D01*
X383212Y307336D01*
X379294Y311253D01*
X368578Y311253D01*
X367784Y310459D01*
X308247Y334509D02*
G54D21*
D03*
G54D17*
X310533Y353153D02*
X310533Y336795D01*
X308247Y334509D01*
G54D17*
X361882Y354512D02*
X361882Y365834D01*
X365126Y369078D01*
X365126Y374150D01*
X364558Y374718D01*
X344759Y339272D02*
G54D21*
D03*
G54D17*
X325442Y338218D02*
X343705Y338218D01*
X344759Y339272D01*
X266972Y250372D02*
G54D21*
D03*
X278084Y250372D02*
G54D21*
D03*
X289197Y250372D02*
G54D21*
D03*
X300309Y250372D02*
G54D21*
D03*
G54D17*
X270528Y267301D02*
X270528Y253928D01*
X266972Y250372D01*
G54D17*
X278529Y267301D02*
X278529Y250816D01*
X278084Y250372D01*
G54D17*
X286530Y267301D02*
X286530Y253039D01*
X289197Y250372D01*
G54D17*
X294531Y267301D02*
X294531Y256150D01*
X300309Y250372D01*
X331788Y254778D02*
G54D21*
D03*
G54D17*
X310533Y267301D02*
X310533Y266509D01*
X322264Y254778D01*
X331788Y254778D01*
X320061Y59803D02*
G54D21*
D03*
G54D22*
X320061Y59803D02*
X365305Y59803D01*
X365702Y59406D01*
X101537Y73010D02*
G54D36*
D03*
X36513Y73010D02*
G54D36*
D03*
X36513Y28001D02*
G54D36*
D03*
X101537Y28002D02*
G54D36*
D03*
X165100Y73010D02*
G54D36*
D03*
X230124Y73010D02*
G54D36*
D03*
X230124Y28001D02*
G54D36*
D03*
X165101Y28002D02*
G54D36*
D03*
X165562Y163468D02*
G54D36*
D03*
X230586Y163468D02*
G54D36*
D03*
X230586Y118459D02*
G54D36*
D03*
X165562Y118460D02*
G54D36*
D03*
G54D33*
X118336Y319551D02*
X54415Y319551D01*
X48956Y314092D01*
G54D35*
X48956Y262092D02*
X84834Y262092D01*
X124738Y222187D01*
G54D17*
X205808Y345088D02*
X205808Y319656D01*
X219075Y306388D01*
X239416Y306388D01*
X239590Y306214D01*
G54D22*
X239590Y290212D02*
X213934Y290212D01*
X211176Y287454D01*
G54D17*
X208454Y244487D02*
X231764Y244487D01*
X239712Y236538D01*
X239712Y194873D01*
X262380Y172206D01*
G54D17*
X262378Y207924D02*
X262378Y229748D01*
X239590Y252536D01*
X239590Y282211D01*
G54D17*
X262380Y172206D02*
X262380Y175068D01*
X280988Y193676D01*
X280988Y207533D01*
X281378Y207924D01*
%LPD*%
G54D37*
G36*
X83661Y455459D02*
X110661Y455459D01*
X110661Y431759D01*
X83661Y431759D01*
X83661Y455459D01*
G37*
G36*
X95511Y443609D02*
X95511Y416609D01*
X71811Y416609D01*
X71811Y443609D01*
X95511Y443609D01*
G37*
G36*
X83661Y431759D02*
X56661Y431759D01*
X56661Y455459D01*
X83661Y455459D01*
X83661Y431759D01*
G37*
G54D38*
G36*
X22926Y403582D02*
X22926Y430582D01*
X44376Y430582D01*
X44376Y403582D01*
X22926Y403582D01*
G37*
G36*
X33651Y414307D02*
X60651Y414307D01*
X60651Y392857D01*
X33651Y392857D01*
X33651Y414307D01*
G37*
G36*
X44376Y403582D02*
X44376Y376582D01*
X22926Y376582D01*
X22926Y403582D01*
X44376Y403582D01*
G37*
G54D39*
G36*
X352517Y170289D02*
X352517Y155789D01*
X332517Y155789D01*
X332517Y170289D01*
X352517Y170289D01*
G37*
G36*
X332517Y170289D02*
X332517Y184789D01*
X352517Y184789D01*
X352517Y170289D01*
X332517Y170289D01*
G37*
G54D40*
G36*
X324117Y20289D02*
X324117Y5789D01*
X310917Y5789D01*
X310917Y20289D01*
X324117Y20289D01*
G37*
G36*
X317517Y13689D02*
X303017Y13689D01*
X303017Y26889D01*
X317517Y26889D01*
X317517Y13689D01*
G37*
G36*
X310917Y20289D02*
X310917Y34789D01*
X324117Y34789D01*
X324117Y20289D01*
X310917Y20289D01*
G37*
G36*
X317517Y26889D02*
X332017Y26889D01*
X332017Y13689D01*
X317517Y13689D01*
X317517Y26889D01*
G37*
G54D41*
G36*
X415951Y95289D02*
X415951Y70789D01*
X394085Y70789D01*
X394085Y95289D01*
X415951Y95289D01*
G37*
G36*
X405018Y84355D02*
X380518Y84355D01*
X380518Y106222D01*
X405018Y106222D01*
X405018Y84355D01*
G37*
G36*
X394085Y95289D02*
X394085Y119789D01*
X415951Y119789D01*
X415951Y95289D01*
X394085Y95289D01*
G37*
G54D42*
G36*
X290752Y95289D02*
X290752Y70789D01*
X269285Y70789D01*
X269285Y95289D01*
X290752Y95289D01*
G37*
G36*
X280018Y84555D02*
X255518Y84555D01*
X255518Y106022D01*
X280018Y106022D01*
X280018Y84555D01*
G37*
G36*
X269285Y95289D02*
X269285Y119789D01*
X290752Y119789D01*
X290752Y95289D01*
X269285Y95289D01*
G37*
G36*
X280018Y106022D02*
X304518Y106022D01*
X304518Y84555D01*
X280018Y84555D01*
X280018Y106022D01*
G37*
G54D43*
G36*
X320855Y135964D02*
X308355Y135964D01*
X308355Y144674D01*
X320855Y144674D01*
X320855Y135964D01*
G37*
G36*
X316500Y140319D02*
X316500Y151319D01*
X325210Y151319D01*
X325210Y140319D01*
X316500Y140319D01*
G37*
G36*
X320855Y144674D02*
X333355Y144674D01*
X333355Y135964D01*
X320855Y135964D01*
X320855Y144674D01*
G37*
G54D43*
G36*
X363718Y135964D02*
X351218Y135964D01*
X351218Y144674D01*
X363718Y144674D01*
X363718Y135964D01*
G37*
G36*
X359362Y140319D02*
X359362Y151319D01*
X368072Y151319D01*
X368072Y140319D01*
X359362Y140319D01*
G37*
G36*
X363718Y144674D02*
X376218Y144674D01*
X376218Y135964D01*
X363718Y135964D01*
X363718Y144674D01*
G37*
G54D25*
G36*
X31058Y164141D02*
X45558Y164141D01*
X45558Y152141D01*
X31058Y152141D01*
X31058Y164141D01*
G37*
G36*
X37058Y158141D02*
X37058Y133641D01*
X25058Y133641D01*
X25058Y158141D01*
X37058Y158141D01*
G37*
G36*
X31058Y152141D02*
X16558Y152141D01*
X16558Y164141D01*
X31058Y164141D01*
X31058Y152141D01*
G37*
G36*
X25058Y158141D02*
X25058Y182641D01*
X37058Y182641D01*
X37058Y158141D01*
X25058Y158141D01*
G37*
G54D44*
G36*
X248355Y458962D02*
X248355Y444462D01*
X235755Y444462D01*
X235755Y458962D01*
X248355Y458962D01*
G37*
G36*
X242055Y452662D02*
X227555Y452662D01*
X227555Y465262D01*
X242055Y465262D01*
X242055Y452662D01*
G37*
G54D45*
G36*
X325443Y319422D02*
X314593Y319422D01*
X314593Y325010D01*
X325443Y325010D01*
X325443Y319422D01*
G37*
G36*
X325443Y325010D02*
X336293Y325010D01*
X336293Y319422D01*
X325443Y319422D01*
X325443Y325010D01*
G37*
G54D45*
G36*
X325443Y303420D02*
X314593Y303420D01*
X314593Y309008D01*
X325443Y309008D01*
X325443Y303420D01*
G37*
G54D45*
G36*
X239591Y311421D02*
X228741Y311421D01*
X228741Y317009D01*
X239591Y317009D01*
X239591Y311421D01*
G37*
G36*
X239591Y317009D02*
X250441Y317009D01*
X250441Y311421D01*
X239591Y311421D01*
X239591Y317009D01*
G37*
G54D46*
G36*
X253180Y392980D02*
X238680Y392980D01*
X238680Y407447D01*
X253180Y407447D01*
X253180Y392980D01*
G37*
G36*
X245947Y400214D02*
X245947Y414714D01*
X260413Y414714D01*
X260413Y400214D01*
X245947Y400214D01*
G37*
G36*
X253180Y407447D02*
X267680Y407447D01*
X267680Y392980D01*
X253180Y392980D01*
X253180Y407447D01*
G37*
G36*
X260413Y400214D02*
X260413Y385714D01*
X245947Y385714D01*
X245947Y400214D01*
X260413Y400214D01*
G37*
G54D47*
G36*
X278579Y393080D02*
X264079Y393080D01*
X264079Y407347D01*
X278579Y407347D01*
X278579Y393080D01*
G37*
G36*
X271445Y400214D02*
X271445Y414714D01*
X285712Y414714D01*
X285712Y400214D01*
X271445Y400214D01*
G37*
G36*
X285712Y400214D02*
X285712Y385714D01*
X271445Y385714D01*
X271445Y400214D01*
X285712Y400214D01*
G37*
G54D48*
G36*
X367388Y295553D02*
X353388Y295553D01*
X353388Y301553D01*
X367388Y301553D01*
X367388Y295553D01*
G37*
G54D49*
G36*
X407074Y286391D02*
X396074Y286391D01*
X396074Y294841D01*
X407074Y294841D01*
X407074Y286391D01*
G37*
G36*
X402850Y290616D02*
X402850Y301616D01*
X411300Y301616D01*
X411300Y290616D01*
X402850Y290616D01*
G37*
G36*
X407074Y294841D02*
X418074Y294841D01*
X418074Y286391D01*
X407074Y286391D01*
X407074Y294841D01*
G37*
G36*
X411300Y290616D02*
X411300Y279616D01*
X402850Y279616D01*
X402850Y290616D01*
X411300Y290616D01*
G37*
G54D22*
G36*
X205807Y359970D02*
X193307Y359970D01*
X193307Y372970D01*
X205807Y372970D01*
X205807Y359970D01*
G37*
G36*
X199307Y366470D02*
X199307Y377470D01*
X212307Y377470D01*
X212307Y366470D01*
X199307Y366470D01*
G37*
G36*
X205807Y372970D02*
X218307Y372970D01*
X218307Y359970D01*
X205807Y359970D01*
X205807Y372970D01*
G37*
G54D43*
G36*
X118336Y302525D02*
X130836Y302525D01*
X130836Y293815D01*
X118336Y293815D01*
X118336Y302525D01*
G37*
G36*
X122691Y298170D02*
X122691Y287170D01*
X113981Y287170D01*
X113981Y298170D01*
X122691Y298170D01*
G37*
G36*
X118336Y293815D02*
X105836Y293815D01*
X105836Y302525D01*
X118336Y302525D01*
X118336Y293815D01*
G37*
G54D43*
G36*
X157428Y302524D02*
X169928Y302524D01*
X169928Y293814D01*
X157428Y293814D01*
X157428Y302524D01*
G37*
G36*
X161782Y298170D02*
X161782Y287170D01*
X153072Y287170D01*
X153072Y298170D01*
X161782Y298170D01*
G37*
G36*
X157428Y293814D02*
X144928Y293814D01*
X144928Y302524D01*
X157428Y302524D01*
X157428Y293814D01*
G37*
G54D50*
G36*
X214614Y199986D02*
X214614Y189136D01*
X202295Y189136D01*
X202295Y199986D01*
X214614Y199986D01*
G37*
G36*
X208454Y193827D02*
X191254Y193827D01*
X191254Y206146D01*
X208454Y206146D01*
X208454Y193827D01*
G37*
G36*
X202295Y199986D02*
X202295Y210836D01*
X214614Y210836D01*
X214614Y199986D01*
X202295Y199986D01*
G37*
G36*
X208454Y206146D02*
X225654Y206146D01*
X225654Y193827D01*
X208454Y193827D01*
X208454Y206146D01*
G37*
G54D51*
G36*
X286666Y172206D02*
X286666Y160706D01*
X276093Y160706D01*
X276093Y172206D01*
X286666Y172206D01*
G37*
G36*
X276093Y172206D02*
X276093Y183706D01*
X286666Y183706D01*
X286666Y172206D01*
X276093Y172206D01*
G37*
G36*
X281380Y177492D02*
X292380Y177492D01*
X292380Y166920D01*
X281380Y166920D01*
X281380Y177492D01*
G37*
G54D52*
G36*
X139542Y352876D02*
X139542Y340376D01*
X134542Y340376D01*
X134542Y352876D01*
X139542Y352876D01*
G37*
G36*
X134542Y352876D02*
X134542Y365376D01*
X139542Y365376D01*
X139542Y352876D01*
X134542Y352876D01*
G37*
G54D53*
G36*
X137042Y385429D02*
X120542Y385429D01*
X120542Y398122D01*
X137042Y398122D01*
X137042Y385429D01*
G37*
G36*
X130695Y391776D02*
X130695Y404276D01*
X143388Y404276D01*
X143388Y391776D01*
X130695Y391776D01*
G37*
G36*
X137042Y398122D02*
X153542Y398122D01*
X153542Y385429D01*
X137042Y385429D01*
X137042Y398122D01*
G37*
G54D54*
G36*
X106187Y28002D02*
X106187Y14502D01*
X96887Y14502D01*
X96887Y28002D01*
X106187Y28002D01*
G37*
G36*
X101537Y23352D02*
X88037Y23352D01*
X88037Y32652D01*
X101537Y32652D01*
X101537Y23352D01*
G37*
G36*
X96887Y28002D02*
X96887Y41502D01*
X106187Y41502D01*
X106187Y28002D01*
X96887Y28002D01*
G37*
G36*
X101537Y32652D02*
X115037Y32652D01*
X115037Y23352D01*
X101537Y23352D01*
X101537Y32652D01*
G37*
G54D54*
G36*
X160451Y28002D02*
X160451Y41502D01*
X169751Y41502D01*
X169751Y28002D01*
X160451Y28002D01*
G37*
G36*
X165101Y32652D02*
X178601Y32652D01*
X178601Y23352D01*
X165101Y23352D01*
X165101Y32652D01*
G37*
G36*
X169751Y28002D02*
X169751Y14502D01*
X160451Y14502D01*
X160451Y28002D01*
X169751Y28002D01*
G37*
G36*
X165101Y23352D02*
X151601Y23352D01*
X151601Y32652D01*
X165101Y32652D01*
X165101Y23352D01*
G37*
G54D54*
G36*
X160912Y118460D02*
X160912Y131960D01*
X170212Y131960D01*
X170212Y118460D01*
X160912Y118460D01*
G37*
G36*
X165562Y123110D02*
X179062Y123110D01*
X179062Y113810D01*
X165562Y113810D01*
X165562Y123110D01*
G37*
G36*
X170212Y118460D02*
X170212Y104960D01*
X160912Y104960D01*
X160912Y118460D01*
X170212Y118460D01*
G37*
G36*
X165562Y113810D02*
X152062Y113810D01*
X152062Y123110D01*
X165562Y123110D01*
X165562Y113810D01*
G37*
X80486Y375347D02*
G54D55*
D03*
X83661Y443609D02*
G54D55*
D03*
X48956Y262092D02*
G54D56*
D03*
X48956Y314092D02*
G54D56*
D03*
X33651Y403582D02*
G54D55*
D03*
X367517Y170289D02*
G54D57*
D03*
X317517Y170289D02*
G54D57*
D03*
X342517Y170289D02*
G54D57*
D03*
X367517Y20289D02*
G54D57*
D03*
X317517Y20289D02*
G54D57*
D03*
X405018Y95289D02*
G54D58*
D03*
X280018Y95289D02*
G54D58*
D03*
G54D59*
X51909Y459519D02*
X48354Y449519D01*
X44798Y459519D01*
G54D59*
X33243Y449519D02*
X33243Y467297D01*
X38576Y456185D01*
X38576Y453963D01*
X31465Y453963D01*
G54D59*
X25243Y449519D02*
X25243Y449519D01*
G54D59*
X11910Y463963D02*
X11910Y452852D01*
X12799Y450630D01*
X14577Y449519D01*
X16355Y449519D01*
X18132Y450630D01*
X19021Y452852D01*
X19021Y463963D01*
X18132Y466185D01*
X16355Y467297D01*
X14577Y467297D01*
X12799Y466185D01*
X11910Y463963D01*
X365702Y59406D02*
G54D60*
D03*
X365702Y78406D02*
G54D60*
D03*
X320061Y59803D02*
G54D60*
D03*
X320061Y78803D02*
G54D60*
D03*
X320855Y118938D02*
G54D61*
D03*
X320855Y140319D02*
G54D61*
D03*
X363718Y118938D02*
G54D61*
D03*
X363718Y140319D02*
G54D61*
D03*
G54D62*
X320061Y78803D02*
X320061Y118144D01*
X320855Y118938D01*
G54D39*
X31058Y168141D02*
X31058Y148141D01*
G36*
X117057Y178141D02*
X117057Y138141D01*
X97057Y138141D01*
X97057Y178141D01*
X117057Y178141D01*
G37*
X318254Y458963D02*
G54D57*
D03*
X292854Y458963D02*
G54D57*
D03*
X267454Y458963D02*
G54D57*
D03*
X242055Y458962D02*
G54D57*
D03*
X325442Y338218D02*
G54D63*
D03*
X325442Y330217D02*
G54D63*
D03*
X325443Y322216D02*
G54D63*
D03*
X325442Y314215D02*
G54D63*
D03*
X325443Y306214D02*
G54D63*
D03*
X325442Y298213D02*
G54D63*
D03*
X325442Y290212D02*
G54D63*
D03*
X325442Y282211D02*
G54D63*
D03*
X239590Y282211D02*
G54D63*
D03*
X239590Y290212D02*
G54D63*
D03*
X239590Y298213D02*
G54D63*
D03*
X239590Y306214D02*
G54D63*
D03*
X239591Y314215D02*
G54D63*
D03*
X239590Y322216D02*
G54D63*
D03*
X239590Y330217D02*
G54D63*
D03*
X239590Y338218D02*
G54D63*
D03*
X254526Y353153D02*
G54D64*
D03*
X262527Y353153D02*
G54D64*
D03*
X270528Y353153D02*
G54D64*
D03*
X278529Y353153D02*
G54D64*
D03*
X286530Y353153D02*
G54D64*
D03*
X294531Y353153D02*
G54D64*
D03*
X302532Y353153D02*
G54D64*
D03*
X310533Y353153D02*
G54D64*
D03*
X310533Y267301D02*
G54D64*
D03*
X302532Y267301D02*
G54D64*
D03*
X294531Y267301D02*
G54D64*
D03*
X286530Y267301D02*
G54D64*
D03*
X278529Y267301D02*
G54D64*
D03*
X270528Y267301D02*
G54D64*
D03*
X262527Y267301D02*
G54D64*
D03*
X254526Y267301D02*
G54D64*
D03*
G36*
X243180Y390214D02*
X243180Y410214D01*
X263180Y410214D01*
X263180Y390214D01*
X243180Y390214D01*
G37*
X278579Y400214D02*
G54D57*
D03*
X303980Y400213D02*
G54D57*
D03*
X329380Y400213D02*
G54D57*
D03*
X354780Y400213D02*
G54D57*
D03*
X380180Y400213D02*
G54D57*
D03*
X277246Y290580D02*
G54D65*
D03*
G54D52*
X329411Y314215D02*
X335685Y314215D01*
X340746Y309154D01*
X340746Y304059D01*
X334844Y298156D01*
X318572Y298156D01*
X310634Y290219D01*
X243559Y290212D01*
X361882Y354512D02*
G54D66*
D03*
X383263Y354512D02*
G54D66*
D03*
G54D62*
X383263Y354512D02*
X383263Y397130D01*
X380180Y400213D01*
X286771Y367177D02*
G54D65*
D03*
G54D62*
X286530Y353153D02*
X286530Y366936D01*
X286771Y367177D01*
G54D62*
X294531Y355137D02*
X294531Y376509D01*
X301506Y383484D01*
X320953Y383484D01*
X328890Y391422D01*
X328890Y400915D01*
X329380Y401403D01*
G54D62*
X302532Y350375D02*
X302532Y372604D01*
X305475Y375547D01*
X346353Y375547D01*
X354290Y383484D01*
X354290Y396946D01*
X354780Y397435D01*
X364558Y374718D02*
G54D65*
D03*
X367388Y286647D02*
G54D67*
D03*
X367388Y298553D02*
G54D67*
D03*
X367784Y310459D02*
G54D67*
D03*
G54D68*
X361882Y354512D02*
X361882Y338191D01*
X365800Y334272D01*
X396756Y334272D01*
X404694Y342210D01*
X404694Y421585D01*
X395566Y430713D01*
X366569Y430687D01*
G54D68*
X396756Y334272D02*
X396756Y319191D01*
X403900Y312047D01*
X410698Y312047D01*
X407074Y290616D02*
G54D69*
D03*
X406703Y312814D02*
G54D69*
D03*
X366569Y430687D02*
G54D70*
D03*
X347569Y430687D02*
G54D70*
D03*
X205808Y345088D02*
G54D61*
D03*
X205807Y366470D02*
G54D61*
D03*
X262378Y207924D02*
G54D70*
D03*
X281378Y207924D02*
G54D70*
D03*
X118336Y319551D02*
G54D61*
D03*
X118336Y298170D02*
G54D61*
D03*
X157428Y319551D02*
G54D61*
D03*
X157428Y298170D02*
G54D61*
D03*
X146964Y222187D02*
G54D71*
D03*
X208454Y244487D02*
G54D72*
D03*
X208454Y199986D02*
G54D72*
D03*
X281380Y172206D02*
G54D70*
D03*
X262380Y172206D02*
G54D70*
D03*
X152141Y352876D02*
G54D73*
D03*
X137042Y352876D02*
G54D73*
D03*
X121941Y352876D02*
G54D73*
D03*
X137042Y391776D02*
G54D74*
D03*
G54D75*
X137141Y359876D02*
X137141Y384876D01*
G54D48*
X118336Y319551D02*
X118336Y349270D01*
X121941Y352876D01*
G54D75*
X157428Y319551D02*
X157428Y347589D01*
X152141Y352876D01*
X189795Y287454D02*
G54D66*
D03*
X211176Y287454D02*
G54D66*
D03*
G54D76*
X14288Y479410D02*
X419085Y479412D01*
G54D76*
G75*
G01X14288Y479410D02*
G03X0Y465122I0J-14288D01*
G01*
G54D76*
G75*
G01X1Y14288D02*
G03X14289Y0I14288J0D01*
G01*
G54D76*
X0Y465122D02*
X1Y14288D01*
G54D76*
X14289Y0D02*
X419086Y0D01*
G54D76*
G75*
G01X419086Y0D02*
G03X433374Y14288I0J14288D01*
G01*
G54D76*
G75*
G01X433373Y465124D02*
G03X419085Y479412I-14288J0D01*
G01*
G54D76*
X433374Y14288D02*
X433373Y465124D01*
G54D34*
X48956Y307742D02*
X48956Y343816D01*
X77312Y372172D01*
G54D75*
X161956Y321226D02*
X175647Y321226D01*
X188120Y308754D01*
X188120Y289129D01*
X189795Y287454D01*
G54D62*
X365702Y78406D02*
X365702Y116953D01*
X363718Y118938D01*
G54D62*
X363718Y118938D02*
X377636Y118938D01*
X384997Y126299D01*
X384997Y152809D01*
X367517Y170289D01*
G54D62*
X321497Y118938D02*
X307579Y118938D01*
X300218Y126299D01*
X300218Y152809D01*
X317698Y170289D01*
X287338Y335741D02*
G54D65*
D03*
G54D52*
X347569Y430687D02*
X274942Y430687D01*
X268288Y437341D01*
X268288Y458129D01*
X267454Y458963D01*
G54D52*
X303980Y400213D02*
X303980Y428582D01*
X304801Y429404D01*
X296864Y324628D02*
G54D65*
D03*
G54D62*
X270528Y353153D02*
X270528Y331914D01*
X277814Y324628D01*
X296864Y324628D01*
G54D62*
X278529Y353153D02*
X278529Y339788D01*
X282576Y335741D01*
X288926Y335741D01*
G54D62*
X325442Y290212D02*
X350330Y290212D01*
X354014Y286528D01*
X367269Y286528D01*
X367388Y286647D01*
G54D62*
X325442Y282211D02*
X344044Y282211D01*
X352426Y273828D01*
X376223Y273828D01*
X383212Y280817D01*
X383212Y307336D01*
X379294Y311253D01*
X368578Y311253D01*
X367784Y310459D01*
X308247Y334509D02*
G54D65*
D03*
G54D62*
X310533Y353153D02*
X310533Y336795D01*
X308247Y334509D01*
G54D62*
X361882Y354512D02*
X361882Y365834D01*
X365126Y369078D01*
X365126Y374150D01*
X364558Y374718D01*
X344759Y339272D02*
G54D65*
D03*
G54D62*
X325442Y338218D02*
X343705Y338218D01*
X344759Y339272D01*
X266972Y250372D02*
G54D65*
D03*
X278084Y250372D02*
G54D65*
D03*
X289197Y250372D02*
G54D65*
D03*
X300309Y250372D02*
G54D65*
D03*
G54D62*
X270528Y267301D02*
X270528Y253928D01*
X266972Y250372D01*
G54D62*
X278529Y267301D02*
X278529Y250816D01*
X278084Y250372D01*
G54D62*
X286530Y267301D02*
X286530Y253039D01*
X289197Y250372D01*
G54D62*
X294531Y267301D02*
X294531Y256150D01*
X300309Y250372D01*
X331788Y254778D02*
G54D65*
D03*
G54D62*
X310533Y267301D02*
X310533Y266509D01*
X322264Y254778D01*
X331788Y254778D01*
X320061Y59803D02*
G54D65*
D03*
G54D52*
X320061Y59803D02*
X365305Y59803D01*
X365702Y59406D01*
X101537Y73010D02*
G54D77*
D03*
X36513Y73010D02*
G54D77*
D03*
X36513Y28001D02*
G54D77*
D03*
X101537Y28002D02*
G54D77*
D03*
X165100Y73010D02*
G54D77*
D03*
X230124Y73010D02*
G54D77*
D03*
X230124Y28001D02*
G54D77*
D03*
X165101Y28002D02*
G54D77*
D03*
X165562Y163468D02*
G54D77*
D03*
X230586Y163468D02*
G54D77*
D03*
X230586Y118459D02*
G54D77*
D03*
X165562Y118460D02*
G54D77*
D03*
G54D48*
X118336Y319551D02*
X54415Y319551D01*
X48956Y314092D01*
G54D34*
X48956Y262092D02*
X84834Y262092D01*
X124738Y222187D01*
G54D62*
X205808Y345088D02*
X205808Y319656D01*
X219075Y306388D01*
X239416Y306388D01*
X239590Y306214D01*
G54D52*
X239590Y290212D02*
X213934Y290212D01*
X211176Y287454D01*
G54D62*
X208454Y244487D02*
X231764Y244487D01*
X239712Y236538D01*
X239712Y194873D01*
X262380Y172206D01*
G54D62*
X262378Y207924D02*
X262378Y229748D01*
X239590Y252536D01*
X239590Y282211D01*
G54D62*
X262380Y172206D02*
X262380Y175068D01*
X280988Y193676D01*
X280988Y207533D01*
X281378Y207924D01*
M02*
