%FSLAX34Y34*%
%MOMM*%
%LNCOPPER_TOP*%
G71*
G01*
%ADD10C,2.600*%
%ADD11C,1.400*%
%ADD12C,1.600*%
%ADD13C,1.000*%
%ADD14C,7.200*%
%ADD15C,0.600*%
%ADD16C,2.133*%
%ADD17C,0.200*%
%ADD18C,1.800*%
%ADD19C,0.600*%
%ADD20C,0.800*%
%ADD21C,6.400*%
%LPD*%
G36*
X-31353Y1025400D02*
X1062647Y1025400D01*
X1062647Y-54600D01*
X-31353Y-54600D01*
X-31353Y1025400D01*
G37*
%LPC*%
X435372Y571500D02*
G54D10*
D03*
X435372Y546100D02*
G54D10*
D03*
X686197Y571500D02*
G54D10*
D03*
X686197Y546100D02*
G54D10*
D03*
X935434Y571500D02*
G54D10*
D03*
X935434Y546100D02*
G54D10*
D03*
X186134Y571500D02*
G54D10*
D03*
X186134Y546100D02*
G54D10*
D03*
X435372Y320675D02*
G54D10*
D03*
X435372Y295275D02*
G54D10*
D03*
X686197Y320675D02*
G54D10*
D03*
X686197Y295275D02*
G54D10*
D03*
X935434Y320675D02*
G54D10*
D03*
X935434Y295275D02*
G54D10*
D03*
X186134Y320675D02*
G54D10*
D03*
X186134Y295275D02*
G54D10*
D03*
X435372Y69850D02*
G54D10*
D03*
X435372Y44450D02*
G54D10*
D03*
X686197Y69850D02*
G54D10*
D03*
X686197Y44450D02*
G54D10*
D03*
X935434Y69850D02*
G54D10*
D03*
X935434Y44450D02*
G54D10*
D03*
X186134Y69850D02*
G54D10*
D03*
X186134Y44450D02*
G54D10*
D03*
X309960Y196850D02*
G54D10*
D03*
X309960Y171450D02*
G54D10*
D03*
X560784Y196850D02*
G54D10*
D03*
X560784Y171450D02*
G54D10*
D03*
X810022Y196850D02*
G54D10*
D03*
X810022Y171450D02*
G54D10*
D03*
X60722Y196850D02*
G54D10*
D03*
X60722Y171450D02*
G54D10*
D03*
X309960Y446088D02*
G54D10*
D03*
X309960Y420688D02*
G54D10*
D03*
X560784Y446088D02*
G54D10*
D03*
X560784Y420688D02*
G54D10*
D03*
X810022Y446088D02*
G54D10*
D03*
X810022Y420688D02*
G54D10*
D03*
X60722Y446088D02*
G54D10*
D03*
X60722Y420688D02*
G54D10*
D03*
X309960Y695325D02*
G54D10*
D03*
X309960Y669925D02*
G54D10*
D03*
X560784Y695325D02*
G54D10*
D03*
X560784Y669925D02*
G54D10*
D03*
X810022Y695325D02*
G54D10*
D03*
X810022Y669925D02*
G54D10*
D03*
X60722Y695325D02*
G54D10*
D03*
X60722Y669925D02*
G54D10*
D03*
X435372Y820738D02*
G54D10*
D03*
X435372Y795338D02*
G54D10*
D03*
X686197Y820738D02*
G54D10*
D03*
X686197Y795338D02*
G54D10*
D03*
X935434Y820738D02*
G54D10*
D03*
X935434Y795338D02*
G54D10*
D03*
X186134Y820738D02*
G54D10*
D03*
X186134Y795338D02*
G54D10*
D03*
X309960Y946150D02*
G54D10*
D03*
X309960Y920750D02*
G54D10*
D03*
X560784Y946150D02*
G54D10*
D03*
X560784Y920750D02*
G54D10*
D03*
X810022Y946150D02*
G54D10*
D03*
X810022Y920750D02*
G54D10*
D03*
X60722Y946150D02*
G54D10*
D03*
X60722Y920750D02*
G54D10*
D03*
X362346Y946942D02*
G54D11*
D03*
X362346Y969167D02*
G54D11*
D03*
G54D12*
X186134Y795338D02*
X186134Y571500D01*
G54D12*
X309960Y669925D02*
X309960Y446088D01*
G54D12*
X435372Y795338D02*
X435372Y571500D01*
G54D12*
X560784Y669925D02*
X560784Y446088D01*
G54D12*
X810022Y669925D02*
X810022Y446088D01*
G54D12*
X686197Y795338D02*
X686197Y571500D01*
G54D12*
X935434Y795338D02*
X935434Y571500D01*
G54D12*
X935434Y546100D02*
X935434Y322262D01*
G54D12*
X60722Y669925D02*
X60722Y446088D01*
G54D12*
X60722Y420688D02*
X60722Y196850D01*
G54D13*
X0Y996156D02*
X998141Y996156D01*
X998141Y0D01*
X0Y0D01*
X0Y996156D01*
X811118Y808133D02*
G54D14*
D03*
X835118Y808133D02*
G54D11*
D03*
X828088Y791162D02*
G54D11*
D03*
X811118Y784133D02*
G54D11*
D03*
X794147Y791162D02*
G54D11*
D03*
X787118Y808133D02*
G54D11*
D03*
X794147Y825104D02*
G54D11*
D03*
X811118Y832133D02*
G54D11*
D03*
X828088Y825104D02*
G54D11*
D03*
X308559Y808038D02*
G54D14*
D03*
X332559Y808038D02*
G54D11*
D03*
X325530Y791068D02*
G54D11*
D03*
X308559Y784038D02*
G54D11*
D03*
X291588Y791068D02*
G54D11*
D03*
X284559Y808038D02*
G54D11*
D03*
X291588Y825009D02*
G54D11*
D03*
X308559Y832038D02*
G54D11*
D03*
X325530Y825009D02*
G54D11*
D03*
X686613Y183149D02*
G54D14*
D03*
X710613Y183149D02*
G54D11*
D03*
X703584Y166179D02*
G54D11*
D03*
X686613Y159149D02*
G54D11*
D03*
X669642Y166179D02*
G54D11*
D03*
X662613Y183149D02*
G54D11*
D03*
X669642Y200120D02*
G54D11*
D03*
X686613Y207150D02*
G54D11*
D03*
X703584Y200120D02*
G54D11*
D03*
X184054Y183054D02*
G54D14*
D03*
X208054Y183054D02*
G54D11*
D03*
X201025Y166084D02*
G54D11*
D03*
X184054Y159054D02*
G54D11*
D03*
X167084Y166084D02*
G54D11*
D03*
X160054Y183054D02*
G54D11*
D03*
X167084Y200025D02*
G54D11*
D03*
X184054Y207054D02*
G54D11*
D03*
X201025Y200025D02*
G54D11*
D03*
X383381Y946942D02*
G54D11*
D03*
X383381Y969167D02*
G54D11*
D03*
X23416Y380602D02*
G54D11*
D03*
X45640Y380602D02*
G54D11*
D03*
X23416Y359568D02*
G54D11*
D03*
X45640Y359568D02*
G54D11*
D03*
X364332Y22225D02*
G54D11*
D03*
X364332Y44450D02*
G54D11*
D03*
X385366Y22225D02*
G54D11*
D03*
X385366Y44450D02*
G54D11*
D03*
X951310Y379015D02*
G54D11*
D03*
X973535Y379015D02*
G54D11*
D03*
X951310Y357981D02*
G54D11*
D03*
X973535Y357981D02*
G54D11*
D03*
%LPD*%
G54D15*
G36*
X359346Y946942D02*
X359346Y954442D01*
X365346Y954442D01*
X365346Y946942D01*
X359346Y946942D01*
G37*
G36*
X362346Y949942D02*
X369846Y949942D01*
X369846Y943942D01*
X362346Y943942D01*
X362346Y949942D01*
G37*
G36*
X365346Y946942D02*
X365346Y939442D01*
X359346Y939442D01*
X359346Y946942D01*
X365346Y946942D01*
G37*
G36*
X362346Y943942D02*
X354846Y943942D01*
X354846Y949942D01*
X362346Y949942D01*
X362346Y943942D01*
G37*
G54D15*
G36*
X359346Y969167D02*
X359346Y976667D01*
X365346Y976667D01*
X365346Y969167D01*
X359346Y969167D01*
G37*
G36*
X362346Y972167D02*
X369846Y972167D01*
X369846Y966167D01*
X362346Y966167D01*
X362346Y972167D01*
G37*
G36*
X365346Y969167D02*
X365346Y961667D01*
X359346Y961667D01*
X359346Y969167D01*
X365346Y969167D01*
G37*
G36*
X362346Y966167D02*
X354846Y966167D01*
X354846Y972167D01*
X362346Y972167D01*
X362346Y966167D01*
G37*
G54D16*
G36*
X800451Y808133D02*
X800451Y844633D01*
X821784Y844633D01*
X821784Y808133D01*
X800451Y808133D01*
G37*
G36*
X811118Y818800D02*
X847618Y818800D01*
X847618Y797466D01*
X811118Y797466D01*
X811118Y818800D01*
G37*
G36*
X821784Y808133D02*
X821784Y771633D01*
X800451Y771633D01*
X800451Y808133D01*
X821784Y808133D01*
G37*
G36*
X811118Y797466D02*
X774618Y797466D01*
X774618Y818800D01*
X811118Y818800D01*
X811118Y797466D01*
G37*
G54D17*
G36*
X834118Y808133D02*
X834118Y815633D01*
X836118Y815633D01*
X836118Y808133D01*
X834118Y808133D01*
G37*
G36*
X835118Y809133D02*
X842618Y809133D01*
X842618Y807133D01*
X835118Y807133D01*
X835118Y809133D01*
G37*
G36*
X836118Y808133D02*
X836118Y800633D01*
X834118Y800633D01*
X834118Y808133D01*
X836118Y808133D01*
G37*
G36*
X835118Y807133D02*
X827618Y807133D01*
X827618Y809133D01*
X835118Y809133D01*
X835118Y807133D01*
G37*
G54D17*
G36*
X827088Y791162D02*
X827088Y798662D01*
X829088Y798662D01*
X829088Y791162D01*
X827088Y791162D01*
G37*
G36*
X828088Y792162D02*
X835588Y792162D01*
X835588Y790162D01*
X828088Y790162D01*
X828088Y792162D01*
G37*
G36*
X829088Y791162D02*
X829088Y783662D01*
X827088Y783662D01*
X827088Y791162D01*
X829088Y791162D01*
G37*
G36*
X828088Y790162D02*
X820588Y790162D01*
X820588Y792162D01*
X828088Y792162D01*
X828088Y790162D01*
G37*
G54D17*
G36*
X810118Y784133D02*
X810118Y791633D01*
X812118Y791633D01*
X812118Y784133D01*
X810118Y784133D01*
G37*
G36*
X811118Y785133D02*
X818618Y785133D01*
X818618Y783133D01*
X811118Y783133D01*
X811118Y785133D01*
G37*
G36*
X812118Y784133D02*
X812118Y776633D01*
X810118Y776633D01*
X810118Y784133D01*
X812118Y784133D01*
G37*
G36*
X811118Y783133D02*
X803618Y783133D01*
X803618Y785133D01*
X811118Y785133D01*
X811118Y783133D01*
G37*
G54D17*
G36*
X793147Y791162D02*
X793147Y798662D01*
X795147Y798662D01*
X795147Y791162D01*
X793147Y791162D01*
G37*
G36*
X794147Y792162D02*
X801647Y792162D01*
X801647Y790162D01*
X794147Y790162D01*
X794147Y792162D01*
G37*
G36*
X795147Y791162D02*
X795147Y783662D01*
X793147Y783662D01*
X793147Y791162D01*
X795147Y791162D01*
G37*
G36*
X794147Y790162D02*
X786647Y790162D01*
X786647Y792162D01*
X794147Y792162D01*
X794147Y790162D01*
G37*
G54D17*
G36*
X786118Y808133D02*
X786118Y815633D01*
X788118Y815633D01*
X788118Y808133D01*
X786118Y808133D01*
G37*
G36*
X787118Y809133D02*
X794618Y809133D01*
X794618Y807133D01*
X787118Y807133D01*
X787118Y809133D01*
G37*
G36*
X788118Y808133D02*
X788118Y800633D01*
X786118Y800633D01*
X786118Y808133D01*
X788118Y808133D01*
G37*
G36*
X787118Y807133D02*
X779618Y807133D01*
X779618Y809133D01*
X787118Y809133D01*
X787118Y807133D01*
G37*
G54D17*
G36*
X793147Y825104D02*
X793147Y832604D01*
X795147Y832604D01*
X795147Y825104D01*
X793147Y825104D01*
G37*
G36*
X794147Y826104D02*
X801647Y826104D01*
X801647Y824104D01*
X794147Y824104D01*
X794147Y826104D01*
G37*
G36*
X795147Y825104D02*
X795147Y817604D01*
X793147Y817604D01*
X793147Y825104D01*
X795147Y825104D01*
G37*
G36*
X794147Y824104D02*
X786647Y824104D01*
X786647Y826104D01*
X794147Y826104D01*
X794147Y824104D01*
G37*
G54D17*
G36*
X810118Y832133D02*
X810118Y839633D01*
X812118Y839633D01*
X812118Y832133D01*
X810118Y832133D01*
G37*
G36*
X811118Y833133D02*
X818618Y833133D01*
X818618Y831133D01*
X811118Y831133D01*
X811118Y833133D01*
G37*
G36*
X812118Y832133D02*
X812118Y824633D01*
X810118Y824633D01*
X810118Y832133D01*
X812118Y832133D01*
G37*
G36*
X811118Y831133D02*
X803618Y831133D01*
X803618Y833133D01*
X811118Y833133D01*
X811118Y831133D01*
G37*
G54D17*
G36*
X827088Y825104D02*
X827088Y832604D01*
X829088Y832604D01*
X829088Y825104D01*
X827088Y825104D01*
G37*
G36*
X828088Y826104D02*
X835588Y826104D01*
X835588Y824104D01*
X828088Y824104D01*
X828088Y826104D01*
G37*
G36*
X829088Y825104D02*
X829088Y817604D01*
X827088Y817604D01*
X827088Y825104D01*
X829088Y825104D01*
G37*
G36*
X828088Y824104D02*
X820588Y824104D01*
X820588Y826104D01*
X828088Y826104D01*
X828088Y824104D01*
G37*
G54D16*
G36*
X297892Y808038D02*
X297892Y844538D01*
X319226Y844538D01*
X319226Y808038D01*
X297892Y808038D01*
G37*
G36*
X308559Y818705D02*
X345059Y818705D01*
X345059Y797371D01*
X308559Y797371D01*
X308559Y818705D01*
G37*
G36*
X319226Y808038D02*
X319226Y771538D01*
X297892Y771538D01*
X297892Y808038D01*
X319226Y808038D01*
G37*
G36*
X308559Y797371D02*
X272059Y797371D01*
X272059Y818705D01*
X308559Y818705D01*
X308559Y797371D01*
G37*
G54D17*
G36*
X331559Y808038D02*
X331559Y815538D01*
X333559Y815538D01*
X333559Y808038D01*
X331559Y808038D01*
G37*
G36*
X332559Y809038D02*
X340059Y809038D01*
X340059Y807038D01*
X332559Y807038D01*
X332559Y809038D01*
G37*
G36*
X333559Y808038D02*
X333559Y800538D01*
X331559Y800538D01*
X331559Y808038D01*
X333559Y808038D01*
G37*
G36*
X332559Y807038D02*
X325059Y807038D01*
X325059Y809038D01*
X332559Y809038D01*
X332559Y807038D01*
G37*
G54D17*
G36*
X324530Y791068D02*
X324530Y798568D01*
X326530Y798568D01*
X326530Y791068D01*
X324530Y791068D01*
G37*
G36*
X325530Y792068D02*
X333030Y792068D01*
X333030Y790068D01*
X325530Y790068D01*
X325530Y792068D01*
G37*
G36*
X326530Y791068D02*
X326530Y783568D01*
X324530Y783568D01*
X324530Y791068D01*
X326530Y791068D01*
G37*
G36*
X325530Y790068D02*
X318030Y790068D01*
X318030Y792068D01*
X325530Y792068D01*
X325530Y790068D01*
G37*
G54D17*
G36*
X307559Y784038D02*
X307559Y791538D01*
X309559Y791538D01*
X309559Y784038D01*
X307559Y784038D01*
G37*
G36*
X308559Y785038D02*
X316059Y785038D01*
X316059Y783038D01*
X308559Y783038D01*
X308559Y785038D01*
G37*
G36*
X309559Y784038D02*
X309559Y776538D01*
X307559Y776538D01*
X307559Y784038D01*
X309559Y784038D01*
G37*
G36*
X308559Y783038D02*
X301059Y783038D01*
X301059Y785038D01*
X308559Y785038D01*
X308559Y783038D01*
G37*
G54D17*
G36*
X290588Y791068D02*
X290588Y798568D01*
X292588Y798568D01*
X292588Y791068D01*
X290588Y791068D01*
G37*
G36*
X291588Y792068D02*
X299088Y792068D01*
X299088Y790068D01*
X291588Y790068D01*
X291588Y792068D01*
G37*
G36*
X292588Y791068D02*
X292588Y783568D01*
X290588Y783568D01*
X290588Y791068D01*
X292588Y791068D01*
G37*
G36*
X291588Y790068D02*
X284088Y790068D01*
X284088Y792068D01*
X291588Y792068D01*
X291588Y790068D01*
G37*
G54D17*
G36*
X283559Y808038D02*
X283559Y815538D01*
X285559Y815538D01*
X285559Y808038D01*
X283559Y808038D01*
G37*
G36*
X284559Y809038D02*
X292059Y809038D01*
X292059Y807038D01*
X284559Y807038D01*
X284559Y809038D01*
G37*
G36*
X285559Y808038D02*
X285559Y800538D01*
X283559Y800538D01*
X283559Y808038D01*
X285559Y808038D01*
G37*
G36*
X284559Y807038D02*
X277059Y807038D01*
X277059Y809038D01*
X284559Y809038D01*
X284559Y807038D01*
G37*
G54D17*
G36*
X290588Y825009D02*
X290588Y832509D01*
X292588Y832509D01*
X292588Y825009D01*
X290588Y825009D01*
G37*
G36*
X291588Y826009D02*
X299088Y826009D01*
X299088Y824009D01*
X291588Y824009D01*
X291588Y826009D01*
G37*
G36*
X292588Y825009D02*
X292588Y817509D01*
X290588Y817509D01*
X290588Y825009D01*
X292588Y825009D01*
G37*
G36*
X291588Y824009D02*
X284088Y824009D01*
X284088Y826009D01*
X291588Y826009D01*
X291588Y824009D01*
G37*
G54D17*
G36*
X307559Y832038D02*
X307559Y839538D01*
X309559Y839538D01*
X309559Y832038D01*
X307559Y832038D01*
G37*
G36*
X308559Y833038D02*
X316059Y833038D01*
X316059Y831038D01*
X308559Y831038D01*
X308559Y833038D01*
G37*
G36*
X309559Y832038D02*
X309559Y824538D01*
X307559Y824538D01*
X307559Y832038D01*
X309559Y832038D01*
G37*
G36*
X308559Y831038D02*
X301059Y831038D01*
X301059Y833038D01*
X308559Y833038D01*
X308559Y831038D01*
G37*
G54D17*
G36*
X324530Y825009D02*
X324530Y832509D01*
X326530Y832509D01*
X326530Y825009D01*
X324530Y825009D01*
G37*
G36*
X325530Y826009D02*
X333030Y826009D01*
X333030Y824009D01*
X325530Y824009D01*
X325530Y826009D01*
G37*
G36*
X326530Y825009D02*
X326530Y817509D01*
X324530Y817509D01*
X324530Y825009D01*
X326530Y825009D01*
G37*
G36*
X325530Y824009D02*
X318030Y824009D01*
X318030Y826009D01*
X325530Y826009D01*
X325530Y824009D01*
G37*
G54D16*
G36*
X675946Y183149D02*
X675946Y219649D01*
X697280Y219649D01*
X697280Y183149D01*
X675946Y183149D01*
G37*
G36*
X686613Y193816D02*
X723113Y193816D01*
X723113Y172483D01*
X686613Y172483D01*
X686613Y193816D01*
G37*
G36*
X697280Y183149D02*
X697280Y146649D01*
X675946Y146649D01*
X675946Y183149D01*
X697280Y183149D01*
G37*
G36*
X686613Y172483D02*
X650113Y172483D01*
X650113Y193816D01*
X686613Y193816D01*
X686613Y172483D01*
G37*
G54D17*
G36*
X709613Y183149D02*
X709613Y190649D01*
X711613Y190649D01*
X711613Y183149D01*
X709613Y183149D01*
G37*
G36*
X710613Y184149D02*
X718113Y184149D01*
X718113Y182149D01*
X710613Y182149D01*
X710613Y184149D01*
G37*
G36*
X711613Y183149D02*
X711613Y175649D01*
X709613Y175649D01*
X709613Y183149D01*
X711613Y183149D01*
G37*
G36*
X710613Y182149D02*
X703113Y182149D01*
X703113Y184149D01*
X710613Y184149D01*
X710613Y182149D01*
G37*
G54D17*
G36*
X702584Y166179D02*
X702584Y173679D01*
X704584Y173679D01*
X704584Y166179D01*
X702584Y166179D01*
G37*
G36*
X703584Y167179D02*
X711084Y167179D01*
X711084Y165179D01*
X703584Y165179D01*
X703584Y167179D01*
G37*
G36*
X704584Y166179D02*
X704584Y158679D01*
X702584Y158679D01*
X702584Y166179D01*
X704584Y166179D01*
G37*
G36*
X703584Y165179D02*
X696084Y165179D01*
X696084Y167179D01*
X703584Y167179D01*
X703584Y165179D01*
G37*
G54D17*
G36*
X685613Y159149D02*
X685613Y166649D01*
X687613Y166649D01*
X687613Y159149D01*
X685613Y159149D01*
G37*
G36*
X686613Y160149D02*
X694113Y160149D01*
X694113Y158149D01*
X686613Y158149D01*
X686613Y160149D01*
G37*
G36*
X687613Y159149D02*
X687613Y151649D01*
X685613Y151649D01*
X685613Y159149D01*
X687613Y159149D01*
G37*
G36*
X686613Y158149D02*
X679113Y158149D01*
X679113Y160149D01*
X686613Y160149D01*
X686613Y158149D01*
G37*
G54D17*
G36*
X668642Y166179D02*
X668642Y173679D01*
X670642Y173679D01*
X670642Y166179D01*
X668642Y166179D01*
G37*
G36*
X669642Y167179D02*
X677142Y167179D01*
X677142Y165179D01*
X669642Y165179D01*
X669642Y167179D01*
G37*
G36*
X670642Y166179D02*
X670642Y158679D01*
X668642Y158679D01*
X668642Y166179D01*
X670642Y166179D01*
G37*
G36*
X669642Y165179D02*
X662142Y165179D01*
X662142Y167179D01*
X669642Y167179D01*
X669642Y165179D01*
G37*
G54D17*
G36*
X661613Y183149D02*
X661613Y190649D01*
X663613Y190649D01*
X663613Y183149D01*
X661613Y183149D01*
G37*
G36*
X662613Y184149D02*
X670113Y184149D01*
X670113Y182149D01*
X662613Y182149D01*
X662613Y184149D01*
G37*
G36*
X663613Y183149D02*
X663613Y175649D01*
X661613Y175649D01*
X661613Y183149D01*
X663613Y183149D01*
G37*
G36*
X662613Y182149D02*
X655113Y182149D01*
X655113Y184149D01*
X662613Y184149D01*
X662613Y182149D01*
G37*
G54D17*
G36*
X668642Y200120D02*
X668642Y207620D01*
X670642Y207620D01*
X670642Y200120D01*
X668642Y200120D01*
G37*
G36*
X669642Y201120D02*
X677142Y201120D01*
X677142Y199120D01*
X669642Y199120D01*
X669642Y201120D01*
G37*
G36*
X670642Y200120D02*
X670642Y192620D01*
X668642Y192620D01*
X668642Y200120D01*
X670642Y200120D01*
G37*
G36*
X669642Y199120D02*
X662142Y199120D01*
X662142Y201120D01*
X669642Y201120D01*
X669642Y199120D01*
G37*
G54D17*
G36*
X685613Y207150D02*
X685613Y214650D01*
X687613Y214650D01*
X687613Y207150D01*
X685613Y207150D01*
G37*
G36*
X686613Y208150D02*
X694113Y208150D01*
X694113Y206150D01*
X686613Y206150D01*
X686613Y208150D01*
G37*
G36*
X687613Y207150D02*
X687613Y199650D01*
X685613Y199650D01*
X685613Y207150D01*
X687613Y207150D01*
G37*
G36*
X686613Y206150D02*
X679113Y206150D01*
X679113Y208150D01*
X686613Y208150D01*
X686613Y206150D01*
G37*
G54D17*
G36*
X702584Y200120D02*
X702584Y207620D01*
X704584Y207620D01*
X704584Y200120D01*
X702584Y200120D01*
G37*
G36*
X703584Y201120D02*
X711084Y201120D01*
X711084Y199120D01*
X703584Y199120D01*
X703584Y201120D01*
G37*
G36*
X704584Y200120D02*
X704584Y192620D01*
X702584Y192620D01*
X702584Y200120D01*
X704584Y200120D01*
G37*
G36*
X703584Y199120D02*
X696084Y199120D01*
X696084Y201120D01*
X703584Y201120D01*
X703584Y199120D01*
G37*
G54D16*
G36*
X173388Y183054D02*
X173388Y219554D01*
X194721Y219554D01*
X194721Y183054D01*
X173388Y183054D01*
G37*
G36*
X184054Y193721D02*
X220554Y193721D01*
X220554Y172388D01*
X184054Y172388D01*
X184054Y193721D01*
G37*
G36*
X194721Y183054D02*
X194721Y146554D01*
X173388Y146554D01*
X173388Y183054D01*
X194721Y183054D01*
G37*
G36*
X184054Y172388D02*
X147554Y172388D01*
X147554Y193721D01*
X184054Y193721D01*
X184054Y172388D01*
G37*
G54D17*
G36*
X207054Y183054D02*
X207054Y190554D01*
X209054Y190554D01*
X209054Y183054D01*
X207054Y183054D01*
G37*
G36*
X208054Y184054D02*
X215554Y184054D01*
X215554Y182054D01*
X208054Y182054D01*
X208054Y184054D01*
G37*
G36*
X209054Y183054D02*
X209054Y175554D01*
X207054Y175554D01*
X207054Y183054D01*
X209054Y183054D01*
G37*
G36*
X208054Y182054D02*
X200554Y182054D01*
X200554Y184054D01*
X208054Y184054D01*
X208054Y182054D01*
G37*
G54D17*
G36*
X200025Y166084D02*
X200025Y173584D01*
X202025Y173584D01*
X202025Y166084D01*
X200025Y166084D01*
G37*
G36*
X201025Y167084D02*
X208525Y167084D01*
X208525Y165084D01*
X201025Y165084D01*
X201025Y167084D01*
G37*
G36*
X202025Y166084D02*
X202025Y158584D01*
X200025Y158584D01*
X200025Y166084D01*
X202025Y166084D01*
G37*
G36*
X201025Y165084D02*
X193525Y165084D01*
X193525Y167084D01*
X201025Y167084D01*
X201025Y165084D01*
G37*
G54D17*
G36*
X183054Y159054D02*
X183054Y166554D01*
X185054Y166554D01*
X185054Y159054D01*
X183054Y159054D01*
G37*
G36*
X184054Y160054D02*
X191554Y160054D01*
X191554Y158054D01*
X184054Y158054D01*
X184054Y160054D01*
G37*
G36*
X185054Y159054D02*
X185054Y151554D01*
X183054Y151554D01*
X183054Y159054D01*
X185054Y159054D01*
G37*
G36*
X184054Y158054D02*
X176554Y158054D01*
X176554Y160054D01*
X184054Y160054D01*
X184054Y158054D01*
G37*
G54D17*
G36*
X166084Y166084D02*
X166084Y173584D01*
X168084Y173584D01*
X168084Y166084D01*
X166084Y166084D01*
G37*
G36*
X167084Y167084D02*
X174584Y167084D01*
X174584Y165084D01*
X167084Y165084D01*
X167084Y167084D01*
G37*
G36*
X168084Y166084D02*
X168084Y158584D01*
X166084Y158584D01*
X166084Y166084D01*
X168084Y166084D01*
G37*
G36*
X167084Y165084D02*
X159584Y165084D01*
X159584Y167084D01*
X167084Y167084D01*
X167084Y165084D01*
G37*
G54D17*
G36*
X159054Y183054D02*
X159054Y190554D01*
X161054Y190554D01*
X161054Y183054D01*
X159054Y183054D01*
G37*
G36*
X160054Y184054D02*
X167554Y184054D01*
X167554Y182054D01*
X160054Y182054D01*
X160054Y184054D01*
G37*
G36*
X161054Y183054D02*
X161054Y175554D01*
X159054Y175554D01*
X159054Y183054D01*
X161054Y183054D01*
G37*
G36*
X160054Y182054D02*
X152554Y182054D01*
X152554Y184054D01*
X160054Y184054D01*
X160054Y182054D01*
G37*
G54D17*
G36*
X166084Y200025D02*
X166084Y207525D01*
X168084Y207525D01*
X168084Y200025D01*
X166084Y200025D01*
G37*
G36*
X167084Y201025D02*
X174584Y201025D01*
X174584Y199025D01*
X167084Y199025D01*
X167084Y201025D01*
G37*
G36*
X168084Y200025D02*
X168084Y192525D01*
X166084Y192525D01*
X166084Y200025D01*
X168084Y200025D01*
G37*
G36*
X167084Y199025D02*
X159584Y199025D01*
X159584Y201025D01*
X167084Y201025D01*
X167084Y199025D01*
G37*
G54D17*
G36*
X183054Y207054D02*
X183054Y214554D01*
X185054Y214554D01*
X185054Y207054D01*
X183054Y207054D01*
G37*
G36*
X184054Y208054D02*
X191554Y208054D01*
X191554Y206054D01*
X184054Y206054D01*
X184054Y208054D01*
G37*
G36*
X185054Y207054D02*
X185054Y199554D01*
X183054Y199554D01*
X183054Y207054D01*
X185054Y207054D01*
G37*
G36*
X184054Y206054D02*
X176554Y206054D01*
X176554Y208054D01*
X184054Y208054D01*
X184054Y206054D01*
G37*
G54D17*
G36*
X200025Y200025D02*
X200025Y207525D01*
X202025Y207525D01*
X202025Y200025D01*
X200025Y200025D01*
G37*
G36*
X201025Y201025D02*
X208525Y201025D01*
X208525Y199025D01*
X201025Y199025D01*
X201025Y201025D01*
G37*
G36*
X202025Y200025D02*
X202025Y192525D01*
X200025Y192525D01*
X200025Y200025D01*
X202025Y200025D01*
G37*
G36*
X201025Y199025D02*
X193525Y199025D01*
X193525Y201025D01*
X201025Y201025D01*
X201025Y199025D01*
G37*
G54D15*
G36*
X380381Y946942D02*
X380381Y954442D01*
X386381Y954442D01*
X386381Y946942D01*
X380381Y946942D01*
G37*
G36*
X383381Y949942D02*
X390881Y949942D01*
X390881Y943942D01*
X383381Y943942D01*
X383381Y949942D01*
G37*
G36*
X386381Y946942D02*
X386381Y939442D01*
X380381Y939442D01*
X380381Y946942D01*
X386381Y946942D01*
G37*
G36*
X383381Y943942D02*
X375881Y943942D01*
X375881Y949942D01*
X383381Y949942D01*
X383381Y943942D01*
G37*
G54D15*
G36*
X380381Y969167D02*
X380381Y976667D01*
X386381Y976667D01*
X386381Y969167D01*
X380381Y969167D01*
G37*
G36*
X383381Y972167D02*
X390881Y972167D01*
X390881Y966167D01*
X383381Y966167D01*
X383381Y972167D01*
G37*
G36*
X386381Y969167D02*
X386381Y961667D01*
X380381Y961667D01*
X380381Y969167D01*
X386381Y969167D01*
G37*
G36*
X383381Y966167D02*
X375881Y966167D01*
X375881Y972167D01*
X383381Y972167D01*
X383381Y966167D01*
G37*
G54D15*
G36*
X23416Y383602D02*
X30916Y383602D01*
X30916Y377602D01*
X23416Y377602D01*
X23416Y383602D01*
G37*
G36*
X26416Y380602D02*
X26416Y373102D01*
X20416Y373102D01*
X20416Y380602D01*
X26416Y380602D01*
G37*
G36*
X23416Y377602D02*
X15916Y377602D01*
X15916Y383602D01*
X23416Y383602D01*
X23416Y377602D01*
G37*
G36*
X20416Y380602D02*
X20416Y388102D01*
X26416Y388102D01*
X26416Y380602D01*
X20416Y380602D01*
G37*
G54D15*
G36*
X45640Y383602D02*
X53140Y383602D01*
X53140Y377602D01*
X45640Y377602D01*
X45640Y383602D01*
G37*
G36*
X48640Y380602D02*
X48640Y373102D01*
X42640Y373102D01*
X42640Y380602D01*
X48640Y380602D01*
G37*
G36*
X45640Y377602D02*
X38140Y377602D01*
X38140Y383602D01*
X45640Y383602D01*
X45640Y377602D01*
G37*
G36*
X42640Y380602D02*
X42640Y388102D01*
X48640Y388102D01*
X48640Y380602D01*
X42640Y380602D01*
G37*
G54D15*
G36*
X23416Y362568D02*
X30916Y362568D01*
X30916Y356568D01*
X23416Y356568D01*
X23416Y362568D01*
G37*
G36*
X26416Y359568D02*
X26416Y352068D01*
X20416Y352068D01*
X20416Y359568D01*
X26416Y359568D01*
G37*
G36*
X23416Y356568D02*
X15916Y356568D01*
X15916Y362568D01*
X23416Y362568D01*
X23416Y356568D01*
G37*
G36*
X20416Y359568D02*
X20416Y367068D01*
X26416Y367068D01*
X26416Y359568D01*
X20416Y359568D01*
G37*
G54D15*
G36*
X45640Y362568D02*
X53140Y362568D01*
X53140Y356568D01*
X45640Y356568D01*
X45640Y362568D01*
G37*
G36*
X48640Y359568D02*
X48640Y352068D01*
X42640Y352068D01*
X42640Y359568D01*
X48640Y359568D01*
G37*
G36*
X45640Y356568D02*
X38140Y356568D01*
X38140Y362568D01*
X45640Y362568D01*
X45640Y356568D01*
G37*
G36*
X42640Y359568D02*
X42640Y367068D01*
X48640Y367068D01*
X48640Y359568D01*
X42640Y359568D01*
G37*
G54D15*
G36*
X361332Y22225D02*
X361332Y29725D01*
X367332Y29725D01*
X367332Y22225D01*
X361332Y22225D01*
G37*
G36*
X364332Y25225D02*
X371832Y25225D01*
X371832Y19225D01*
X364332Y19225D01*
X364332Y25225D01*
G37*
G36*
X367332Y22225D02*
X367332Y14725D01*
X361332Y14725D01*
X361332Y22225D01*
X367332Y22225D01*
G37*
G36*
X364332Y19225D02*
X356832Y19225D01*
X356832Y25225D01*
X364332Y25225D01*
X364332Y19225D01*
G37*
G54D15*
G36*
X361332Y44450D02*
X361332Y51950D01*
X367332Y51950D01*
X367332Y44450D01*
X361332Y44450D01*
G37*
G36*
X364332Y47450D02*
X371832Y47450D01*
X371832Y41450D01*
X364332Y41450D01*
X364332Y47450D01*
G37*
G36*
X367332Y44450D02*
X367332Y36950D01*
X361332Y36950D01*
X361332Y44450D01*
X367332Y44450D01*
G37*
G36*
X364332Y41450D02*
X356832Y41450D01*
X356832Y47450D01*
X364332Y47450D01*
X364332Y41450D01*
G37*
G54D15*
G36*
X382366Y22225D02*
X382366Y29725D01*
X388366Y29725D01*
X388366Y22225D01*
X382366Y22225D01*
G37*
G36*
X385366Y25225D02*
X392866Y25225D01*
X392866Y19225D01*
X385366Y19225D01*
X385366Y25225D01*
G37*
G36*
X388366Y22225D02*
X388366Y14725D01*
X382366Y14725D01*
X382366Y22225D01*
X388366Y22225D01*
G37*
G36*
X385366Y19225D02*
X377866Y19225D01*
X377866Y25225D01*
X385366Y25225D01*
X385366Y19225D01*
G37*
G54D15*
G36*
X382366Y44450D02*
X382366Y51950D01*
X388366Y51950D01*
X388366Y44450D01*
X382366Y44450D01*
G37*
G36*
X385366Y47450D02*
X392866Y47450D01*
X392866Y41450D01*
X385366Y41450D01*
X385366Y47450D01*
G37*
G36*
X388366Y44450D02*
X388366Y36950D01*
X382366Y36950D01*
X382366Y44450D01*
X388366Y44450D01*
G37*
G36*
X385366Y41450D02*
X377866Y41450D01*
X377866Y47450D01*
X385366Y47450D01*
X385366Y41450D01*
G37*
G54D15*
G36*
X951310Y382015D02*
X958810Y382015D01*
X958810Y376015D01*
X951310Y376015D01*
X951310Y382015D01*
G37*
G36*
X954310Y379015D02*
X954310Y371515D01*
X948310Y371515D01*
X948310Y379015D01*
X954310Y379015D01*
G37*
G36*
X951310Y376015D02*
X943810Y376015D01*
X943810Y382015D01*
X951310Y382015D01*
X951310Y376015D01*
G37*
G36*
X948310Y379015D02*
X948310Y386515D01*
X954310Y386515D01*
X954310Y379015D01*
X948310Y379015D01*
G37*
G54D15*
G36*
X973535Y382015D02*
X981035Y382015D01*
X981035Y376015D01*
X973535Y376015D01*
X973535Y382015D01*
G37*
G36*
X976535Y379015D02*
X976535Y371515D01*
X970535Y371515D01*
X970535Y379015D01*
X976535Y379015D01*
G37*
G36*
X973535Y376015D02*
X966035Y376015D01*
X966035Y382015D01*
X973535Y382015D01*
X973535Y376015D01*
G37*
G36*
X970535Y379015D02*
X970535Y386515D01*
X976535Y386515D01*
X976535Y379015D01*
X970535Y379015D01*
G37*
G54D15*
G36*
X951310Y360981D02*
X958810Y360981D01*
X958810Y354981D01*
X951310Y354981D01*
X951310Y360981D01*
G37*
G36*
X954310Y357981D02*
X954310Y350481D01*
X948310Y350481D01*
X948310Y357981D01*
X954310Y357981D01*
G37*
G36*
X951310Y354981D02*
X943810Y354981D01*
X943810Y360981D01*
X951310Y360981D01*
X951310Y354981D01*
G37*
G36*
X948310Y357981D02*
X948310Y365481D01*
X954310Y365481D01*
X954310Y357981D01*
X948310Y357981D01*
G37*
G54D15*
G36*
X973535Y360981D02*
X981035Y360981D01*
X981035Y354981D01*
X973535Y354981D01*
X973535Y360981D01*
G37*
G36*
X976535Y357981D02*
X976535Y350481D01*
X970535Y350481D01*
X970535Y357981D01*
X976535Y357981D01*
G37*
G36*
X973535Y354981D02*
X966035Y354981D01*
X966035Y360981D01*
X973535Y360981D01*
X973535Y354981D01*
G37*
G36*
X970535Y357981D02*
X970535Y365481D01*
X976535Y365481D01*
X976535Y357981D01*
X970535Y357981D01*
G37*
X435372Y571500D02*
G54D18*
D03*
X435372Y546100D02*
G54D18*
D03*
X686197Y571500D02*
G54D18*
D03*
X686197Y546100D02*
G54D18*
D03*
X935434Y571500D02*
G54D18*
D03*
X935434Y546100D02*
G54D18*
D03*
X186134Y571500D02*
G54D18*
D03*
X186134Y546100D02*
G54D18*
D03*
X435372Y320675D02*
G54D18*
D03*
X435372Y295275D02*
G54D18*
D03*
X686197Y320675D02*
G54D18*
D03*
X686197Y295275D02*
G54D18*
D03*
X935434Y320675D02*
G54D18*
D03*
X935434Y295275D02*
G54D18*
D03*
X186134Y320675D02*
G54D18*
D03*
X186134Y295275D02*
G54D18*
D03*
X435372Y69850D02*
G54D18*
D03*
X435372Y44450D02*
G54D18*
D03*
X686197Y69850D02*
G54D18*
D03*
X686197Y44450D02*
G54D18*
D03*
X935434Y69850D02*
G54D18*
D03*
X935434Y44450D02*
G54D18*
D03*
X186134Y69850D02*
G54D18*
D03*
X186134Y44450D02*
G54D18*
D03*
X309960Y196850D02*
G54D18*
D03*
X309960Y171450D02*
G54D18*
D03*
X560784Y196850D02*
G54D18*
D03*
X560784Y171450D02*
G54D18*
D03*
X810022Y196850D02*
G54D18*
D03*
X810022Y171450D02*
G54D18*
D03*
X60722Y196850D02*
G54D18*
D03*
X60722Y171450D02*
G54D18*
D03*
X309960Y446088D02*
G54D18*
D03*
X309960Y420688D02*
G54D18*
D03*
X560784Y446088D02*
G54D18*
D03*
X560784Y420688D02*
G54D18*
D03*
X810022Y446088D02*
G54D18*
D03*
X810022Y420688D02*
G54D18*
D03*
X60722Y446088D02*
G54D18*
D03*
X60722Y420688D02*
G54D18*
D03*
X309960Y695325D02*
G54D18*
D03*
X309960Y669925D02*
G54D18*
D03*
X560784Y695325D02*
G54D18*
D03*
X560784Y669925D02*
G54D18*
D03*
X810022Y695325D02*
G54D18*
D03*
X810022Y669925D02*
G54D18*
D03*
X60722Y695325D02*
G54D18*
D03*
X60722Y669925D02*
G54D18*
D03*
X435372Y820738D02*
G54D18*
D03*
X435372Y795338D02*
G54D18*
D03*
X686197Y820738D02*
G54D18*
D03*
X686197Y795338D02*
G54D18*
D03*
X935434Y820738D02*
G54D18*
D03*
X935434Y795338D02*
G54D18*
D03*
X186134Y820738D02*
G54D18*
D03*
X186134Y795338D02*
G54D18*
D03*
X309960Y946150D02*
G54D18*
D03*
X309960Y920750D02*
G54D18*
D03*
X560784Y946150D02*
G54D18*
D03*
X560784Y920750D02*
G54D18*
D03*
X810022Y946150D02*
G54D18*
D03*
X810022Y920750D02*
G54D18*
D03*
X60722Y946150D02*
G54D18*
D03*
X60722Y920750D02*
G54D18*
D03*
X362346Y946942D02*
G54D19*
D03*
X362346Y969167D02*
G54D19*
D03*
G54D20*
X186134Y795338D02*
X186134Y571500D01*
G54D20*
X309960Y669925D02*
X309960Y446088D01*
G54D20*
X435372Y795338D02*
X435372Y571500D01*
G54D20*
X560784Y669925D02*
X560784Y446088D01*
G54D20*
X810022Y669925D02*
X810022Y446088D01*
G54D20*
X686197Y795338D02*
X686197Y571500D01*
G54D20*
X935434Y795338D02*
X935434Y571500D01*
G54D20*
X935434Y546100D02*
X935434Y322262D01*
G54D20*
X60722Y669925D02*
X60722Y446088D01*
G54D20*
X60722Y420688D02*
X60722Y196850D01*
G54D17*
X0Y996156D02*
X998141Y996156D01*
X998141Y0D01*
X0Y0D01*
X0Y996156D01*
X811118Y808133D02*
G54D21*
D03*
X835118Y808133D02*
G54D19*
D03*
X828088Y791162D02*
G54D19*
D03*
X811118Y784133D02*
G54D19*
D03*
X794147Y791162D02*
G54D19*
D03*
X787118Y808133D02*
G54D19*
D03*
X794147Y825104D02*
G54D19*
D03*
X811118Y832133D02*
G54D19*
D03*
X828088Y825104D02*
G54D19*
D03*
X308559Y808038D02*
G54D21*
D03*
X332559Y808038D02*
G54D19*
D03*
X325530Y791068D02*
G54D19*
D03*
X308559Y784038D02*
G54D19*
D03*
X291588Y791068D02*
G54D19*
D03*
X284559Y808038D02*
G54D19*
D03*
X291588Y825009D02*
G54D19*
D03*
X308559Y832038D02*
G54D19*
D03*
X325530Y825009D02*
G54D19*
D03*
X686613Y183149D02*
G54D21*
D03*
X710613Y183149D02*
G54D19*
D03*
X703584Y166179D02*
G54D19*
D03*
X686613Y159149D02*
G54D19*
D03*
X669642Y166179D02*
G54D19*
D03*
X662613Y183149D02*
G54D19*
D03*
X669642Y200120D02*
G54D19*
D03*
X686613Y207150D02*
G54D19*
D03*
X703584Y200120D02*
G54D19*
D03*
X184054Y183054D02*
G54D21*
D03*
X208054Y183054D02*
G54D19*
D03*
X201025Y166084D02*
G54D19*
D03*
X184054Y159054D02*
G54D19*
D03*
X167084Y166084D02*
G54D19*
D03*
X160054Y183054D02*
G54D19*
D03*
X167084Y200025D02*
G54D19*
D03*
X184054Y207054D02*
G54D19*
D03*
X201025Y200025D02*
G54D19*
D03*
X383381Y946942D02*
G54D19*
D03*
X383381Y969167D02*
G54D19*
D03*
X23416Y380602D02*
G54D19*
D03*
X45640Y380602D02*
G54D19*
D03*
X23416Y359568D02*
G54D19*
D03*
X45640Y359568D02*
G54D19*
D03*
X364332Y22225D02*
G54D19*
D03*
X364332Y44450D02*
G54D19*
D03*
X385366Y22225D02*
G54D19*
D03*
X385366Y44450D02*
G54D19*
D03*
X951310Y379015D02*
G54D19*
D03*
X973535Y379015D02*
G54D19*
D03*
X951310Y357981D02*
G54D19*
D03*
X973535Y357981D02*
G54D19*
D03*
M02*
