%FSLAX34Y34*%
%MOMM*%
%LNSOLDERMASK_BOTTOM*%
G71*
G01*
%ADD10R,1.600X1.500*%
%ADD11C,2.000*%
%ADD12R,6.200X5.200*%
%ADD13R,5.200X6.200*%
%ADD14C,6.600*%
%ADD15C,0.800*%
%LPD*%
X261937Y926357D02*
G54D10*
D03*
X261937Y946151D02*
G54D10*
D03*
X435372Y571500D02*
G54D11*
D03*
X435372Y546100D02*
G54D11*
D03*
X686196Y571500D02*
G54D11*
D03*
X686196Y546100D02*
G54D11*
D03*
X935434Y571500D02*
G54D11*
D03*
X935434Y546100D02*
G54D11*
D03*
X186134Y571500D02*
G54D11*
D03*
X186134Y546100D02*
G54D11*
D03*
X435372Y320675D02*
G54D11*
D03*
X435372Y295275D02*
G54D11*
D03*
X686196Y320675D02*
G54D11*
D03*
X686196Y295275D02*
G54D11*
D03*
X935434Y320675D02*
G54D11*
D03*
X935434Y295275D02*
G54D11*
D03*
X186134Y320675D02*
G54D11*
D03*
X186134Y295275D02*
G54D11*
D03*
X435372Y69850D02*
G54D11*
D03*
X435372Y44450D02*
G54D11*
D03*
X686196Y69850D02*
G54D11*
D03*
X686196Y44450D02*
G54D11*
D03*
X935434Y69850D02*
G54D11*
D03*
X935434Y44450D02*
G54D11*
D03*
X186134Y69850D02*
G54D11*
D03*
X186134Y44450D02*
G54D11*
D03*
X309959Y196850D02*
G54D11*
D03*
X309959Y171450D02*
G54D11*
D03*
X560784Y196850D02*
G54D11*
D03*
X560784Y171450D02*
G54D11*
D03*
X810022Y196850D02*
G54D11*
D03*
X810022Y171450D02*
G54D11*
D03*
X60722Y196850D02*
G54D11*
D03*
X60722Y171450D02*
G54D11*
D03*
X309959Y446088D02*
G54D11*
D03*
X309959Y420688D02*
G54D11*
D03*
X560784Y446088D02*
G54D11*
D03*
X560784Y420688D02*
G54D11*
D03*
X810022Y446088D02*
G54D11*
D03*
X810022Y420688D02*
G54D11*
D03*
X60722Y446088D02*
G54D11*
D03*
X60722Y420688D02*
G54D11*
D03*
X309959Y695325D02*
G54D11*
D03*
X309959Y669925D02*
G54D11*
D03*
X560784Y695325D02*
G54D11*
D03*
X560784Y669925D02*
G54D11*
D03*
X810022Y695325D02*
G54D11*
D03*
X810022Y669925D02*
G54D11*
D03*
X60722Y695325D02*
G54D11*
D03*
X60722Y669925D02*
G54D11*
D03*
X435372Y820738D02*
G54D11*
D03*
X435372Y795338D02*
G54D11*
D03*
X686196Y820738D02*
G54D11*
D03*
X686196Y795338D02*
G54D11*
D03*
X935434Y820738D02*
G54D11*
D03*
X935434Y795338D02*
G54D11*
D03*
X186134Y820738D02*
G54D11*
D03*
X186134Y795338D02*
G54D11*
D03*
X309959Y946150D02*
G54D11*
D03*
X309959Y920750D02*
G54D11*
D03*
X560784Y946150D02*
G54D11*
D03*
X560784Y920750D02*
G54D11*
D03*
X810022Y946150D02*
G54D11*
D03*
X810022Y920750D02*
G54D11*
D03*
X60722Y946150D02*
G54D11*
D03*
X60722Y920750D02*
G54D11*
D03*
X37703Y620712D02*
G54D12*
D03*
X623490Y956469D02*
G54D13*
D03*
X960040Y622300D02*
G54D12*
D03*
X372666Y37306D02*
G54D13*
D03*
X623490Y37306D02*
G54D13*
D03*
X960040Y370681D02*
G54D12*
D03*
X37702Y371474D02*
G54D12*
D03*
X373458Y956467D02*
G54D13*
D03*
X811117Y808133D02*
G54D14*
D03*
X835117Y808133D02*
G54D15*
D03*
X828088Y791162D02*
G54D15*
D03*
X811117Y784133D02*
G54D15*
D03*
X794146Y791162D02*
G54D15*
D03*
X787117Y808133D02*
G54D15*
D03*
X794146Y825104D02*
G54D15*
D03*
X811117Y832133D02*
G54D15*
D03*
X828088Y825104D02*
G54D15*
D03*
X308558Y808038D02*
G54D14*
D03*
X332558Y808038D02*
G54D15*
D03*
X325529Y791068D02*
G54D15*
D03*
X308558Y784038D02*
G54D15*
D03*
X291588Y791068D02*
G54D15*
D03*
X284558Y808038D02*
G54D15*
D03*
X291588Y825009D02*
G54D15*
D03*
X308558Y832038D02*
G54D15*
D03*
X325529Y825009D02*
G54D15*
D03*
X686612Y183149D02*
G54D14*
D03*
X710612Y183149D02*
G54D15*
D03*
X703583Y166179D02*
G54D15*
D03*
X686612Y159149D02*
G54D15*
D03*
X669642Y166179D02*
G54D15*
D03*
X662612Y183149D02*
G54D15*
D03*
X669642Y200120D02*
G54D15*
D03*
X686612Y207150D02*
G54D15*
D03*
X703583Y200120D02*
G54D15*
D03*
X184054Y183054D02*
G54D14*
D03*
X208054Y183054D02*
G54D15*
D03*
X201025Y166084D02*
G54D15*
D03*
X184054Y159054D02*
G54D15*
D03*
X167084Y166084D02*
G54D15*
D03*
X160054Y183054D02*
G54D15*
D03*
X167084Y200025D02*
G54D15*
D03*
X184054Y207054D02*
G54D15*
D03*
X201025Y200025D02*
G54D15*
D03*
X512762Y926357D02*
G54D10*
D03*
X512762Y946151D02*
G54D10*
D03*
X762000Y926357D02*
G54D10*
D03*
X762000Y946151D02*
G54D10*
D03*
X887412Y800944D02*
G54D10*
D03*
X887412Y820738D02*
G54D10*
D03*
X138112Y800944D02*
G54D10*
D03*
X138112Y820738D02*
G54D10*
D03*
X108743Y926357D02*
G54D10*
D03*
X108743Y946151D02*
G54D10*
D03*
X483393Y800945D02*
G54D10*
D03*
X483393Y820738D02*
G54D10*
D03*
X734218Y800945D02*
G54D10*
D03*
X734218Y820738D02*
G54D10*
D03*
M02*
