%FSLAX34Y34*%
%MOMM*%
%LNCOPPER_TOP*%
G71*
G01*
%ADD10C,4.500*%
%ADD11C,3.000*%
%ADD12C,2.000*%
%ADD13C,4.000*%
%ADD14C,2.000*%
%ADD15C,0.810*%
%ADD16C,0.500*%
%ADD17C,0.300*%
%ADD18C,1.800*%
%LPD*%
X80486Y375347D02*
G54D10*
D03*
X83661Y443609D02*
G54D10*
D03*
X48956Y262092D02*
G54D11*
D03*
X48956Y314092D02*
G54D11*
D03*
X33651Y403582D02*
G54D10*
D03*
X367517Y170289D02*
G54D12*
D03*
X317517Y170289D02*
G54D12*
D03*
X342517Y170289D02*
G54D12*
D03*
X367517Y20289D02*
G54D12*
D03*
X317517Y20289D02*
G54D12*
D03*
X405018Y95289D02*
G54D13*
D03*
X280018Y95289D02*
G54D13*
D03*
G54D14*
X31058Y168141D02*
X31058Y148141D01*
G36*
X117057Y178141D02*
X117057Y138141D01*
X97057Y138141D01*
X97057Y178141D01*
X117057Y178141D01*
G37*
X318254Y458963D02*
G54D12*
D03*
X292854Y458963D02*
G54D12*
D03*
X267454Y458963D02*
G54D12*
D03*
X242055Y458962D02*
G54D12*
D03*
G36*
X243180Y390214D02*
X243180Y410214D01*
X263180Y410214D01*
X263180Y390214D01*
X243180Y390214D01*
G37*
X278579Y400214D02*
G54D12*
D03*
X303980Y400213D02*
G54D12*
D03*
X329380Y400213D02*
G54D12*
D03*
X354780Y400213D02*
G54D12*
D03*
X380180Y400213D02*
G54D12*
D03*
X277246Y290580D02*
G54D15*
D03*
X286771Y367177D02*
G54D15*
D03*
X364558Y374718D02*
G54D15*
D03*
G54D16*
X277246Y289786D02*
X277246Y375464D01*
X301995Y400213D01*
X287338Y335741D02*
G54D15*
D03*
X296864Y324628D02*
G54D15*
D03*
G54D17*
X286771Y367177D02*
X286771Y368749D01*
X294531Y376509D01*
X362768Y376509D01*
X364558Y374718D01*
G54D17*
X296864Y324628D02*
X296864Y342091D01*
X306388Y351616D01*
X387351Y351616D01*
X407988Y372254D01*
X407988Y418291D01*
X392114Y434166D01*
X323851Y434166D01*
X318254Y439762D01*
X318254Y458963D01*
G54D17*
X287338Y335741D02*
X287338Y350028D01*
X301626Y364316D01*
X382588Y364316D01*
X395288Y377016D01*
X395288Y411941D01*
X382588Y424641D01*
X303214Y424641D01*
X292101Y435754D01*
X292101Y458209D01*
X292854Y458963D01*
X308247Y334509D02*
G54D15*
D03*
X344759Y339272D02*
G54D15*
D03*
X266972Y250372D02*
G54D15*
D03*
X278084Y250372D02*
G54D15*
D03*
X289197Y250372D02*
G54D15*
D03*
X300309Y250372D02*
G54D15*
D03*
X331788Y254778D02*
G54D15*
D03*
G54D17*
X317517Y170289D02*
X317517Y325239D01*
X308247Y334509D01*
X320061Y59803D02*
G54D15*
D03*
X101537Y73010D02*
G54D18*
D03*
X36513Y73010D02*
G54D18*
D03*
X36513Y28001D02*
G54D18*
D03*
X101537Y28002D02*
G54D18*
D03*
X165100Y73010D02*
G54D18*
D03*
X230124Y73010D02*
G54D18*
D03*
X230124Y28001D02*
G54D18*
D03*
X165101Y28002D02*
G54D18*
D03*
X165562Y163468D02*
G54D18*
D03*
X230586Y163468D02*
G54D18*
D03*
X230586Y118459D02*
G54D18*
D03*
X165562Y118460D02*
G54D18*
D03*
G54D17*
X165100Y71422D02*
X193659Y71422D01*
X211138Y88901D01*
X211138Y173038D01*
X222250Y184151D01*
X279400Y184151D01*
X300038Y204788D01*
X300038Y250100D01*
X300309Y250372D01*
G54D17*
X101537Y73010D02*
X101584Y73010D01*
X115888Y87314D01*
X184150Y87314D01*
X196850Y100014D01*
X196850Y180976D01*
X212725Y196851D01*
X271462Y196851D01*
X288925Y214314D01*
X288925Y250100D01*
X289197Y250372D01*
G54D17*
X163974Y163468D02*
X163974Y170325D01*
X204788Y211138D01*
X261938Y211138D01*
X277812Y227014D01*
X277812Y250100D01*
X278084Y250372D01*
G54D17*
X107057Y158141D02*
X121627Y158141D01*
X187325Y223838D01*
X250825Y223838D01*
X266700Y239714D01*
X266700Y250100D01*
X266972Y250372D01*
G54D16*
X277246Y290580D02*
X224557Y237892D01*
X133116Y237892D01*
X76200Y180976D01*
X76200Y65088D01*
X93662Y47626D01*
X307885Y47626D01*
X320061Y59803D01*
G54D17*
X367517Y170289D02*
X367517Y181759D01*
X330200Y219076D01*
X330200Y253190D01*
X331788Y254778D01*
G54D17*
X367517Y20289D02*
X367517Y108756D01*
X384175Y125414D01*
X384175Y184151D01*
X344488Y223838D01*
X344488Y339000D01*
X344759Y339272D01*
M02*
