; Drill file
; Format: 3.3 (000.000)
M48
METRIC
T01C0.4
T02C0.8
T03C3.2
%
G05
G90
T01
X016710Y016610
X018410Y015910
X020100Y016610
X020810Y018310
X020100Y020000
X018410Y020710
X016710Y020000
X016010Y018310
X004560Y035960
X004560Y038060
X002340Y038060
X002340Y035960
X036430Y004440
X038540Y004440
X038540Y002220
X036430Y002220
X066960Y016620
X068660Y015910
X070360Y016620
X071060Y018310
X070360Y020010
X068660Y020720
X066960Y020010
X066260Y018310
X095130Y035800
X095130Y037900
X097350Y037900
X097350Y035800
X081110Y078410
X079410Y079120
X078710Y080810
X079410Y082510
X081110Y083210
X082810Y082510
X083510Y080810
X082810Y079120
X038340Y094690
X036230Y094690
X036230Y096920
X038340Y096920
X032550Y082500
X033260Y080800
X032550Y079110
X030860Y078400
X029160Y079110
X028460Y080800
X029160Y082500
X030860Y083200
T02
X006070Y017140
X006070Y019680
X018610Y029530
X018610Y032070
X031000Y042070
X031000Y044610
X018610Y054610
X018610Y057150
X031000Y066990
X031000Y069530
X018610Y079530
X018610Y082070
X031000Y092080
X031000Y094620
X043540Y082070
X043540Y079530
X056080Y069530
X056080Y066990
X043540Y057150
X043540Y054610
X056080Y044610
X056080Y042070
X043540Y032070
X043540Y029530
X031000Y019680
X031000Y017140
X018610Y006980
X018610Y004440
X043540Y004440
X043540Y006980
X056080Y017140
X056080Y019680
X068620Y029530
X068620Y032070
X081000Y042070
X081000Y044610
X068620Y054610
X068620Y057150
X081000Y066990
X081000Y069530
X068620Y079530
X068620Y082070
X081000Y092080
X081000Y094620
X093540Y082070
X093540Y079530
X093540Y057150
X093540Y054610
X093540Y032070
X093540Y029530
X081000Y019680
X081000Y017140
X068620Y006980
X068620Y004440
X093540Y004440
X093540Y006980
X056080Y092080
X056080Y094620
X006070Y094620
X006070Y092080
X006070Y069530
X006070Y066990
X006070Y044610
X006070Y042070
T03
X018410Y018310
X068660Y018310
X081110Y080810
X030860Y080800
M30
