%FSLAX34Y34*%
%MOMM*%
%LNSILK_TOP*%
G71*
G01*
%ADD10C,0.175*%
%ADD11C,0.100*%
%ADD12C,0.200*%
%ADD13C,0.111*%
%LPD*%
G54D10*
X158279Y895017D02*
X148501Y895017D01*
X148501Y898683D01*
X149112Y900150D01*
X150334Y900883D01*
X156446Y900883D01*
X157668Y900150D01*
X158279Y898683D01*
X158279Y895017D01*
G54D10*
X157668Y908706D02*
X158279Y907532D01*
X158279Y906066D01*
X157668Y904599D01*
X156446Y904306D01*
X154368Y904306D01*
X153146Y905039D01*
X152779Y906506D01*
X153146Y907972D01*
X154001Y908706D01*
X155223Y908706D01*
X155223Y904306D01*
G54D10*
X158279Y912128D02*
X152779Y912128D01*
G54D10*
X153757Y912128D02*
X152779Y913594D01*
X153146Y915061D01*
X154001Y915794D01*
X158279Y915794D01*
G54D10*
X153757Y915794D02*
X152779Y917261D01*
X153146Y918728D01*
X154001Y919461D01*
X158279Y919461D01*
G54D10*
X157668Y927283D02*
X158279Y926109D01*
X158279Y924643D01*
X157668Y923176D01*
X156446Y922883D01*
X154368Y922883D01*
X153146Y923616D01*
X152779Y925083D01*
X153146Y926549D01*
X154001Y927283D01*
X155223Y927283D01*
X155223Y922883D01*
G54D10*
X158279Y930705D02*
X152779Y930705D01*
G54D10*
X154001Y930705D02*
X153146Y931438D01*
X152779Y932905D01*
X153146Y934371D01*
X154001Y935105D01*
X158279Y935105D01*
G54D10*
X148501Y939993D02*
X157668Y939993D01*
X158279Y940727D01*
X158034Y941460D01*
G54D10*
X152779Y938527D02*
X152779Y941460D01*
G54D10*
X158279Y944882D02*
X152779Y944882D01*
G54D10*
X150946Y944882D02*
X150946Y944882D01*
G54D10*
X157668Y952704D02*
X158279Y951530D01*
X158279Y950064D01*
X157668Y948597D01*
X156446Y948304D01*
X154368Y948304D01*
X153146Y949037D01*
X152779Y950504D01*
X153146Y951970D01*
X154001Y952704D01*
X155223Y952704D01*
X155223Y948304D01*
G54D10*
X152779Y956126D02*
X158279Y959059D01*
X152779Y961992D01*
G54D11*
G75*
G01X198938Y911942D02*
G03X198938Y941387I-8500J14723D01*
G01*
G36*
G75*
G01X198938Y911942D02*
G03X198938Y941387I-8500J14723D01*
G01*
G37*
X198938Y911942D01*
G36*
X198938Y941387D02*
X180179Y941387D01*
X180166Y941374D01*
X180166Y935818D01*
X184135Y937405D01*
X180563Y932643D01*
X180563Y925896D01*
X186913Y929468D01*
X180563Y922324D01*
X180563Y918355D01*
X186119Y920340D01*
X186119Y917165D01*
X180960Y913593D01*
X180960Y911212D01*
X198207Y911212D01*
X198938Y911942D01*
X198938Y941387D01*
G37*
G54D11*
X198938Y941387D02*
X180179Y941387D01*
X180166Y941374D01*
X180166Y935818D01*
X184135Y937405D01*
X180563Y932643D01*
X180563Y925896D01*
X186913Y929468D01*
X180563Y922324D01*
X180563Y918355D01*
X186119Y920340D01*
X186119Y917165D01*
X180960Y913593D01*
X180960Y911212D01*
X198207Y911212D01*
X198938Y911942D01*
X198938Y941387D01*
G36*
X188500Y961218D02*
X195644Y962408D01*
X201597Y961218D01*
X199613Y965583D01*
X188500Y961218D01*
G37*
G54D11*
X188500Y961218D02*
X195644Y962408D01*
X201597Y961218D01*
X199613Y965583D01*
X188500Y961218D01*
G54D11*
G75*
G01X210993Y897247D02*
G03X188480Y961177I-17355J29818D01*
G01*
G36*
X201597Y961218D02*
X207154Y964790D01*
X210329Y961218D01*
X207550Y958837D01*
X201597Y961218D01*
G37*
G54D11*
X201597Y961218D02*
X207154Y964790D01*
X210329Y961218D01*
X207550Y958837D01*
X201597Y961218D01*
G36*
X209535Y958043D02*
X217076Y963202D01*
X219854Y959233D01*
X215488Y954074D01*
X229379Y962012D01*
X231363Y956852D01*
X220250Y949708D01*
X215885Y954471D01*
X209535Y958043D01*
G37*
G54D11*
X209535Y958043D02*
X217076Y963202D01*
X219854Y959233D01*
X215488Y954074D01*
X229379Y962012D01*
X231363Y956852D01*
X220250Y949708D01*
X215885Y954471D01*
X209535Y958043D01*
G36*
X222235Y947327D02*
X226204Y940183D01*
X227791Y932643D01*
X230172Y937008D01*
X228188Y941771D01*
X225410Y942168D01*
X231363Y947327D01*
X228982Y952090D01*
X222235Y947327D01*
G37*
G54D11*
X222235Y947327D02*
X226204Y940183D01*
X227791Y932643D01*
X230172Y937008D01*
X228188Y941771D01*
X225410Y942168D01*
X231363Y947327D01*
X228982Y952090D01*
X222235Y947327D01*
G36*
X228585Y927483D02*
X232157Y929865D01*
X234141Y924308D01*
X228188Y921133D01*
X228585Y927483D01*
G37*
G54D11*
X228585Y927483D02*
X232157Y929865D01*
X234141Y924308D01*
X228188Y921133D01*
X228585Y927483D01*
G36*
X210992Y897247D02*
X214694Y898908D01*
X220647Y904068D01*
X225410Y912005D01*
X226997Y917958D01*
X229379Y912402D01*
X226997Y910418D01*
X229379Y905655D01*
X226997Y904862D01*
X228188Y903671D01*
X228188Y896527D01*
X210992Y897247D01*
G37*
G54D11*
X210992Y897247D02*
X214694Y898908D01*
X220647Y904068D01*
X225410Y912005D01*
X226997Y917958D01*
X229379Y912402D01*
X226997Y910418D01*
X229379Y905655D01*
X226997Y904862D01*
X228188Y903671D01*
X228188Y896527D01*
X210992Y897247D01*
G54D12*
G75*
G01X907516Y837568D02*
G03X963377Y837568I27930J-27931D01*
G01*
G54D12*
X963256Y838000D02*
X907516Y837568D01*
G54D13*
X923120Y854629D02*
X923120Y845740D01*
X927787Y845740D01*
G54D13*
X934898Y845740D02*
X930231Y845740D01*
X930231Y854629D01*
X934898Y854629D01*
G54D13*
X930231Y850185D02*
X934898Y850185D01*
G54D13*
X937342Y845740D02*
X937342Y854629D01*
X940675Y854629D01*
X942009Y854074D01*
X942675Y852962D01*
X942675Y847407D01*
X942009Y846296D01*
X940675Y845740D01*
X937342Y845740D01*
G54D13*
X949119Y845740D02*
X949119Y854629D01*
X945119Y849074D01*
X945119Y847962D01*
X950452Y847962D01*
G54D12*
G75*
G01X782103Y963377D02*
G03X837965Y963377I27931J-27931D01*
G01*
G54D12*
X838240Y963809D02*
X782500Y963377D01*
G54D13*
X796008Y979645D02*
X796008Y970756D01*
X800675Y970756D01*
G54D13*
X807786Y970756D02*
X803119Y970756D01*
X803119Y979645D01*
X807786Y979645D01*
G54D13*
X803119Y975200D02*
X807786Y975200D01*
G54D13*
X810230Y970756D02*
X810230Y979645D01*
X813564Y979645D01*
X814897Y979089D01*
X815564Y977978D01*
X815564Y972423D01*
X814897Y971311D01*
X813564Y970756D01*
X810230Y970756D01*
G54D13*
X821341Y975200D02*
X820007Y975200D01*
X818674Y975756D01*
X818007Y976867D01*
X818007Y977978D01*
X818674Y979089D01*
X820007Y979645D01*
X821341Y979645D01*
X822674Y979089D01*
X823341Y977978D01*
X823341Y976867D01*
X822674Y975756D01*
X821341Y975200D01*
X822674Y974645D01*
X823341Y973534D01*
X823341Y972423D01*
X822674Y971311D01*
X821341Y970756D01*
X820007Y970756D01*
X818674Y971311D01*
X818007Y972423D01*
X818007Y973534D01*
X818674Y974645D01*
X820007Y975200D01*
G54D12*
G75*
G01X658278Y836774D02*
G03X714140Y836774I27931J-27931D01*
G01*
G54D12*
X714018Y837206D02*
X658278Y836774D01*
G54D13*
X667881Y853835D02*
X667881Y844946D01*
X672547Y844946D01*
G54D13*
X679658Y844946D02*
X674992Y844946D01*
X674992Y853835D01*
X679658Y853835D01*
G54D13*
X674992Y849391D02*
X679658Y849391D01*
G54D13*
X682103Y844946D02*
X682103Y853835D01*
X685436Y853835D01*
X686769Y853280D01*
X687436Y852169D01*
X687436Y846613D01*
X686769Y845502D01*
X685436Y844946D01*
X682103Y844946D01*
G54D13*
X689880Y850502D02*
X693213Y853835D01*
X693213Y844946D01*
G54D13*
X700990Y844946D02*
X695657Y844946D01*
X695657Y845502D01*
X696323Y846613D01*
X700323Y849946D01*
X700990Y851058D01*
X700990Y852169D01*
X700323Y853280D01*
X698990Y853835D01*
X697657Y853835D01*
X696323Y853280D01*
X695657Y852169D01*
G54D12*
G75*
G01X782103Y712552D02*
G03X837965Y712552I27931J-27931D01*
G01*
G54D12*
X837843Y712984D02*
X782103Y712552D01*
G54D13*
X796906Y728026D02*
X796906Y719137D01*
X801573Y719137D01*
G54D13*
X808684Y719137D02*
X804017Y719137D01*
X804017Y728026D01*
X808684Y728026D01*
G54D13*
X804017Y723582D02*
X808684Y723582D01*
G54D13*
X811128Y719137D02*
X811128Y728026D01*
X814461Y728026D01*
X815795Y727470D01*
X816461Y726359D01*
X816461Y720804D01*
X815795Y719693D01*
X814461Y719137D01*
X811128Y719137D01*
G54D13*
X818905Y728026D02*
X824238Y728026D01*
X823572Y726915D01*
X822238Y725248D01*
X820905Y723026D01*
X820238Y721359D01*
X820238Y719137D01*
G54D12*
G75*
G01X533660Y712155D02*
G03X589521Y712155I27930J-27931D01*
G01*
G54D12*
X589400Y712587D02*
X533660Y712155D01*
G54D13*
X545247Y727629D02*
X545247Y718740D01*
X549914Y718740D01*
G54D13*
X557025Y718740D02*
X552358Y718740D01*
X552358Y727629D01*
X557025Y727629D01*
G54D13*
X552358Y723185D02*
X557025Y723185D01*
G54D13*
X559469Y718740D02*
X559469Y727629D01*
X562802Y727629D01*
X564136Y727074D01*
X564802Y725962D01*
X564802Y720407D01*
X564136Y719296D01*
X562802Y718740D01*
X559469Y718740D01*
G54D13*
X567246Y724296D02*
X570579Y727629D01*
X570579Y718740D01*
G54D13*
X578356Y727629D02*
X573023Y727629D01*
X573023Y723740D01*
X573690Y723740D01*
X575023Y724296D01*
X576356Y724296D01*
X577690Y723740D01*
X578356Y722629D01*
X578356Y720407D01*
X577690Y719296D01*
X576356Y718740D01*
X575023Y718740D01*
X573690Y719296D01*
X573023Y720407D01*
G54D12*
G75*
G01X533263Y964965D02*
G03X589124Y964965I27930J-27931D01*
G01*
G54D12*
X589003Y965396D02*
X533263Y964965D01*
G54D13*
X544454Y979645D02*
X544454Y970756D01*
X549121Y970756D01*
G54D13*
X556232Y970756D02*
X551565Y970756D01*
X551565Y979645D01*
X556232Y979645D01*
G54D13*
X551565Y975200D02*
X556232Y975200D01*
G54D13*
X558676Y970756D02*
X558676Y979645D01*
X562009Y979645D01*
X563343Y979089D01*
X564009Y977978D01*
X564009Y972423D01*
X563343Y971311D01*
X562009Y970756D01*
X558676Y970756D01*
G54D13*
X566453Y976311D02*
X569786Y979645D01*
X569786Y970756D01*
G54D13*
X577563Y977978D02*
X576897Y979089D01*
X575563Y979645D01*
X574230Y979645D01*
X572897Y979089D01*
X572230Y977978D01*
X572230Y975200D01*
X572230Y974645D01*
X574230Y975756D01*
X575563Y975756D01*
X576897Y975200D01*
X577563Y974089D01*
X577563Y972423D01*
X576897Y971311D01*
X575563Y970756D01*
X574230Y970756D01*
X572897Y971311D01*
X572230Y972423D01*
X572230Y975200D01*
G54D12*
G75*
G01X407453Y837171D02*
G03X463315Y837171I27931J-27931D01*
G01*
G54D12*
X463193Y837603D02*
X407453Y837171D01*
G54D13*
X417232Y854232D02*
X417232Y845343D01*
X421898Y845343D01*
G54D13*
X429009Y845343D02*
X424343Y845343D01*
X424343Y854232D01*
X429009Y854232D01*
G54D13*
X424343Y849788D02*
X429009Y849788D01*
G54D13*
X431454Y845343D02*
X431454Y854232D01*
X434787Y854232D01*
X436120Y853677D01*
X436787Y852566D01*
X436787Y847010D01*
X436120Y845899D01*
X434787Y845343D01*
X431454Y845343D01*
G54D13*
X444564Y845343D02*
X439231Y845343D01*
X439231Y845899D01*
X439897Y847010D01*
X443897Y850343D01*
X444564Y851454D01*
X444564Y852566D01*
X443897Y853677D01*
X442564Y854232D01*
X441231Y854232D01*
X439897Y853677D01*
X439231Y852566D01*
G54D13*
X452341Y852566D02*
X452341Y847010D01*
X451674Y845899D01*
X450341Y845343D01*
X449008Y845343D01*
X447674Y845899D01*
X447008Y847010D01*
X447008Y852566D01*
X447674Y853677D01*
X449008Y854232D01*
X450341Y854232D01*
X451674Y853677D01*
X452341Y852566D01*
G54D12*
G75*
G01X282041Y963377D02*
G03X337902Y963377I27931J-27931D01*
G01*
G54D12*
X337781Y963809D02*
X282041Y963377D01*
G54D13*
X293915Y979645D02*
X293915Y970756D01*
X298581Y970756D01*
G54D13*
X305692Y970756D02*
X301026Y970756D01*
X301026Y979645D01*
X305692Y979645D01*
G54D13*
X301026Y975200D02*
X305692Y975200D01*
G54D13*
X308137Y970756D02*
X308137Y979645D01*
X311470Y979645D01*
X312803Y979089D01*
X313470Y977978D01*
X313470Y972423D01*
X312803Y971311D01*
X311470Y970756D01*
X308137Y970756D01*
G54D13*
X321247Y970756D02*
X315914Y970756D01*
X315914Y971311D01*
X316580Y972423D01*
X320580Y975756D01*
X321247Y976867D01*
X321247Y977978D01*
X320580Y979089D01*
X319247Y979645D01*
X317914Y979645D01*
X316580Y979089D01*
X315914Y977978D01*
G54D13*
X327691Y970756D02*
X327691Y979645D01*
X323691Y974089D01*
X323691Y972978D01*
X329024Y972978D01*
G54D12*
G75*
G01X282041Y712949D02*
G03X337902Y712949I27931J-27931D01*
G01*
G54D12*
X337781Y713381D02*
X282041Y712949D01*
G54D13*
X291819Y728423D02*
X291819Y719534D01*
X296486Y719534D01*
G54D13*
X303597Y719534D02*
X298930Y719534D01*
X298930Y728423D01*
X303597Y728423D01*
G54D13*
X298930Y723978D02*
X303597Y723978D01*
G54D13*
X306041Y719534D02*
X306041Y728423D01*
X309375Y728423D01*
X310708Y727867D01*
X311375Y726756D01*
X311375Y721201D01*
X310708Y720090D01*
X309375Y719534D01*
X306041Y719534D01*
G54D13*
X319152Y719534D02*
X313818Y719534D01*
X313818Y720090D01*
X314485Y721201D01*
X318485Y724534D01*
X319152Y725645D01*
X319152Y726756D01*
X318485Y727867D01*
X317152Y728423D01*
X315818Y728423D01*
X314485Y727867D01*
X313818Y726756D01*
G54D13*
X321595Y726756D02*
X322262Y727867D01*
X323595Y728423D01*
X324929Y728423D01*
X326262Y727867D01*
X326929Y726756D01*
X326929Y725645D01*
X326262Y724534D01*
X324929Y723978D01*
X326262Y723423D01*
X326929Y722312D01*
X326929Y721201D01*
X326262Y720090D01*
X324929Y719534D01*
X323595Y719534D01*
X322262Y720090D01*
X321595Y721201D01*
G54D12*
G75*
G01X159010Y837171D02*
G03X214871Y837171I27930J-27931D01*
G01*
G54D12*
X214750Y837603D02*
X159010Y837171D01*
G54D13*
X167994Y854232D02*
X167994Y845343D01*
X172660Y845343D01*
G54D13*
X179771Y845343D02*
X175105Y845343D01*
X175105Y854232D01*
X179771Y854232D01*
G54D13*
X175105Y849788D02*
X179771Y849788D01*
G54D13*
X182216Y845343D02*
X182216Y854232D01*
X185549Y854232D01*
X186882Y853677D01*
X187549Y852566D01*
X187549Y847010D01*
X186882Y845899D01*
X185549Y845343D01*
X182216Y845343D01*
G54D13*
X195326Y845343D02*
X189993Y845343D01*
X189993Y845899D01*
X190659Y847010D01*
X194659Y850343D01*
X195326Y851454D01*
X195326Y852566D01*
X194659Y853677D01*
X193326Y854232D01*
X191993Y854232D01*
X190659Y853677D01*
X189993Y852566D01*
G54D13*
X201103Y849788D02*
X199770Y849788D01*
X198436Y850343D01*
X197770Y851454D01*
X197770Y852566D01*
X198436Y853677D01*
X199770Y854232D01*
X201103Y854232D01*
X202436Y853677D01*
X203103Y852566D01*
X203103Y851454D01*
X202436Y850343D01*
X201103Y849788D01*
X202436Y849232D01*
X203103Y848121D01*
X203103Y847010D01*
X202436Y845899D01*
X201103Y845343D01*
X199770Y845343D01*
X198436Y845899D01*
X197770Y847010D01*
X197770Y848121D01*
X198436Y849232D01*
X199770Y849788D01*
G54D12*
G75*
G01X33200Y964965D02*
G03X89062Y964965I27931J-27931D01*
G01*
G54D12*
X88940Y965396D02*
X33200Y964965D01*
G54D13*
X41390Y980439D02*
X41390Y971550D01*
X46057Y971550D01*
G54D13*
X53168Y971550D02*
X48501Y971550D01*
X48501Y980439D01*
X53168Y980439D01*
G54D13*
X48501Y975994D02*
X53168Y975994D01*
G54D13*
X55612Y971550D02*
X55612Y980439D01*
X58946Y980439D01*
X60279Y979883D01*
X60946Y978772D01*
X60946Y973216D01*
X60279Y972105D01*
X58946Y971550D01*
X55612Y971550D01*
G54D13*
X63389Y978772D02*
X64056Y979883D01*
X65389Y980439D01*
X66723Y980439D01*
X68056Y979883D01*
X68723Y978772D01*
X68723Y977661D01*
X68056Y976550D01*
X66723Y975994D01*
X68056Y975439D01*
X68723Y974327D01*
X68723Y973216D01*
X68056Y972105D01*
X66723Y971550D01*
X65389Y971550D01*
X64056Y972105D01*
X63389Y973216D01*
G54D13*
X76500Y971550D02*
X71166Y971550D01*
X71166Y972105D01*
X71833Y973216D01*
X75833Y976550D01*
X76500Y977661D01*
X76500Y978772D01*
X75833Y979883D01*
X74500Y980439D01*
X73166Y980439D01*
X71833Y979883D01*
X71166Y978772D01*
G54D12*
G75*
G01X32406Y712949D02*
G03X88268Y712949I27931J-27931D01*
G01*
G54D12*
X88146Y713381D02*
X32406Y712949D01*
G54D13*
X44789Y730010D02*
X44789Y721122D01*
X49456Y721122D01*
G54D13*
X56566Y721122D02*
X51900Y721122D01*
X51900Y730010D01*
X56566Y730010D01*
G54D13*
X51900Y725566D02*
X56566Y725566D01*
G54D13*
X59011Y721122D02*
X59011Y730010D01*
X62344Y730010D01*
X63678Y729455D01*
X64344Y728344D01*
X64344Y722788D01*
X63678Y721677D01*
X62344Y721122D01*
X59011Y721122D01*
G54D13*
X66788Y728344D02*
X67454Y729455D01*
X68788Y730010D01*
X70121Y730010D01*
X71454Y729455D01*
X72121Y728344D01*
X72121Y727233D01*
X71454Y726122D01*
X70121Y725566D01*
X71454Y725010D01*
X72121Y723899D01*
X72121Y722788D01*
X71454Y721677D01*
X70121Y721122D01*
X68788Y721122D01*
X67454Y721677D01*
X66788Y722788D01*
G54D13*
X74565Y726677D02*
X77898Y730010D01*
X77898Y721122D01*
G54D12*
G75*
G01X157819Y587536D02*
G03X213680Y587536I27931J-27930D01*
G01*
G54D12*
X213559Y587968D02*
X157819Y587536D01*
G54D13*
X169686Y604598D02*
X169686Y595709D01*
X174353Y595709D01*
G54D13*
X181464Y595709D02*
X176798Y595709D01*
X176798Y604598D01*
X181464Y604598D01*
G54D13*
X176798Y600153D02*
X181464Y600153D01*
G54D13*
X183908Y595709D02*
X183908Y604598D01*
X187242Y604598D01*
X188575Y604042D01*
X189242Y602931D01*
X189242Y597376D01*
X188575Y596265D01*
X187242Y595709D01*
X183908Y595709D01*
G54D13*
X197019Y595709D02*
X191686Y595709D01*
X191686Y596265D01*
X192352Y597376D01*
X196352Y600709D01*
X197019Y601820D01*
X197019Y602931D01*
X196352Y604042D01*
X195019Y604598D01*
X193686Y604598D01*
X192352Y604042D01*
X191686Y602931D01*
G54D13*
X199462Y604598D02*
X204796Y604598D01*
X204129Y603487D01*
X202796Y601820D01*
X201462Y599598D01*
X200796Y597931D01*
X200796Y595709D01*
G54D12*
G75*
G01X407453Y588727D02*
G03X463315Y588727I27931J-27931D01*
G01*
G54D12*
X463193Y589159D02*
X407453Y588727D01*
G54D13*
X420628Y605788D02*
X420628Y596900D01*
X425294Y596900D01*
G54D13*
X432405Y596900D02*
X427739Y596900D01*
X427739Y605788D01*
X432405Y605788D01*
G54D13*
X427739Y601344D02*
X432405Y601344D01*
G54D13*
X434850Y596900D02*
X434850Y605788D01*
X438183Y605788D01*
X439516Y605233D01*
X440183Y604122D01*
X440183Y598566D01*
X439516Y597455D01*
X438183Y596900D01*
X434850Y596900D01*
G54D13*
X442627Y602455D02*
X445960Y605788D01*
X445960Y596900D01*
G54D13*
X448404Y598566D02*
X449070Y597455D01*
X450404Y596900D01*
X451737Y596900D01*
X453070Y597455D01*
X453737Y598566D01*
X453737Y601344D01*
X453737Y601900D01*
X451737Y600788D01*
X450404Y600788D01*
X449070Y601344D01*
X448404Y602455D01*
X448404Y604122D01*
X449070Y605233D01*
X450404Y605788D01*
X451737Y605788D01*
X453070Y605233D01*
X453737Y604122D01*
X453737Y601344D01*
G54D12*
G75*
G01X659072Y588330D02*
G03X714933Y588330I27931J-27930D01*
G01*
G54D12*
X714812Y588762D02*
X659072Y588330D01*
G54D13*
X671279Y605392D02*
X671279Y596503D01*
X675946Y596503D01*
G54D13*
X683057Y596503D02*
X678390Y596503D01*
X678390Y605392D01*
X683057Y605392D01*
G54D13*
X678390Y600947D02*
X683057Y600947D01*
G54D13*
X685501Y596503D02*
X685501Y605392D01*
X688834Y605392D01*
X690168Y604836D01*
X690834Y603725D01*
X690834Y598169D01*
X690168Y597058D01*
X688834Y596503D01*
X685501Y596503D01*
G54D13*
X693278Y602058D02*
X696611Y605392D01*
X696611Y596503D01*
G54D13*
X699055Y602058D02*
X702388Y605392D01*
X702388Y596503D01*
G54D12*
G75*
G01X533263Y463711D02*
G03X589124Y463711I27930J-27930D01*
G01*
G54D12*
X589003Y464143D02*
X533263Y463711D01*
G54D13*
X545756Y480773D02*
X545756Y471884D01*
X550422Y471884D01*
G54D13*
X557533Y471884D02*
X552866Y471884D01*
X552866Y480773D01*
X557533Y480773D01*
G54D13*
X552866Y476328D02*
X557533Y476328D01*
G54D13*
X559978Y471884D02*
X559978Y480773D01*
X563311Y480773D01*
X564644Y480217D01*
X565311Y479106D01*
X565311Y473551D01*
X564644Y472440D01*
X563311Y471884D01*
X559978Y471884D01*
G54D13*
X567754Y477440D02*
X571088Y480773D01*
X571088Y471884D01*
G54D13*
X577532Y471884D02*
X577532Y480773D01*
X573532Y475217D01*
X573532Y474106D01*
X578865Y474106D01*
G54D12*
G75*
G01X658675Y339093D02*
G03X714537Y339093I27931J-27931D01*
G01*
G54D12*
X714415Y339524D02*
X658675Y339093D01*
G54D13*
X667484Y355360D02*
X667484Y346472D01*
X672151Y346472D01*
G54D13*
X679262Y346472D02*
X674595Y346472D01*
X674595Y355360D01*
X679262Y355360D01*
G54D13*
X674595Y350916D02*
X679262Y350916D01*
G54D13*
X681706Y346472D02*
X681706Y355360D01*
X685039Y355360D01*
X686373Y354805D01*
X687039Y353694D01*
X687039Y348138D01*
X686373Y347027D01*
X685039Y346472D01*
X681706Y346472D01*
G54D13*
X689483Y352027D02*
X692816Y355360D01*
X692816Y346472D01*
G54D13*
X700593Y353694D02*
X700593Y348138D01*
X699927Y347027D01*
X698593Y346472D01*
X697260Y346472D01*
X695927Y347027D01*
X695260Y348138D01*
X695260Y353694D01*
X695927Y354805D01*
X697260Y355360D01*
X698593Y355360D01*
X699927Y354805D01*
X700593Y353694D01*
G54D12*
G75*
G01X407056Y338696D02*
G03X462918Y338696I27931J-27931D01*
G01*
G54D12*
X462796Y339128D02*
X407056Y338696D01*
G54D13*
X419041Y354964D02*
X419041Y346075D01*
X423708Y346075D01*
G54D13*
X430818Y346075D02*
X426152Y346075D01*
X426152Y354964D01*
X430818Y354964D01*
G54D13*
X426152Y350519D02*
X430818Y350519D01*
G54D13*
X433263Y346075D02*
X433263Y354964D01*
X436596Y354964D01*
X437930Y354408D01*
X438596Y353297D01*
X438596Y347741D01*
X437930Y346630D01*
X436596Y346075D01*
X433263Y346075D01*
G54D13*
X441040Y351630D02*
X444373Y354964D01*
X444373Y346075D01*
G54D13*
X450150Y350519D02*
X448817Y350519D01*
X447484Y351075D01*
X446817Y352186D01*
X446817Y353297D01*
X447484Y354408D01*
X448817Y354964D01*
X450150Y354964D01*
X451484Y354408D01*
X452150Y353297D01*
X452150Y352186D01*
X451484Y351075D01*
X450150Y350519D01*
X451484Y349964D01*
X452150Y348852D01*
X452150Y347741D01*
X451484Y346630D01*
X450150Y346075D01*
X448817Y346075D01*
X447484Y346630D01*
X446817Y347741D01*
X446817Y348852D01*
X447484Y349964D01*
X448817Y350519D01*
G54D12*
G75*
G01X282041Y462124D02*
G03X337902Y462124I27931J-27931D01*
G01*
G54D12*
X337781Y462556D02*
X282041Y462124D01*
G54D13*
X293406Y479185D02*
X293406Y470296D01*
X298072Y470296D01*
G54D13*
X305183Y470296D02*
X300517Y470296D01*
X300517Y479185D01*
X305183Y479185D01*
G54D13*
X300517Y474741D02*
X305183Y474741D01*
G54D13*
X307628Y470296D02*
X307628Y479185D01*
X310961Y479185D01*
X312294Y478630D01*
X312961Y477519D01*
X312961Y471963D01*
X312294Y470852D01*
X310961Y470296D01*
X307628Y470296D01*
G54D13*
X320738Y470296D02*
X315405Y470296D01*
X315405Y470852D01*
X316071Y471963D01*
X320071Y475296D01*
X320738Y476408D01*
X320738Y477519D01*
X320071Y478630D01*
X318738Y479185D01*
X317405Y479185D01*
X316071Y478630D01*
X315405Y477519D01*
G54D13*
X328515Y470296D02*
X323182Y470296D01*
X323182Y470852D01*
X323848Y471963D01*
X327848Y475296D01*
X328515Y476408D01*
X328515Y477519D01*
X327848Y478630D01*
X326515Y479185D01*
X325182Y479185D01*
X323848Y478630D01*
X323182Y477519D01*
G54D12*
G75*
G01X33597Y462918D02*
G03X89458Y462918I27931J-27931D01*
G01*
G54D12*
X89337Y463350D02*
X33597Y462918D01*
G54D13*
X46153Y480376D02*
X46153Y471487D01*
X50819Y471487D01*
G54D13*
X57930Y471487D02*
X53264Y471487D01*
X53264Y480376D01*
X57930Y480376D01*
G54D13*
X53264Y475932D02*
X57930Y475932D01*
G54D13*
X60375Y471487D02*
X60375Y480376D01*
X63708Y480376D01*
X65041Y479820D01*
X65708Y478709D01*
X65708Y473154D01*
X65041Y472043D01*
X63708Y471487D01*
X60375Y471487D01*
G54D13*
X68152Y478709D02*
X68818Y479820D01*
X70152Y480376D01*
X71485Y480376D01*
X72818Y479820D01*
X73485Y478709D01*
X73485Y477598D01*
X72818Y476487D01*
X71485Y475932D01*
X72818Y475376D01*
X73485Y474265D01*
X73485Y473154D01*
X72818Y472043D01*
X71485Y471487D01*
X70152Y471487D01*
X68818Y472043D01*
X68152Y473154D01*
G54D13*
X81262Y478709D02*
X81262Y473154D01*
X80595Y472043D01*
X79262Y471487D01*
X77929Y471487D01*
X76595Y472043D01*
X75929Y473154D01*
X75929Y478709D01*
X76595Y479820D01*
X77929Y480376D01*
X79262Y480376D01*
X80595Y479820D01*
X81262Y478709D01*
G54D12*
G75*
G01X157819Y338299D02*
G03X213680Y338299I27931J-27931D01*
G01*
G54D12*
X213559Y338731D02*
X157819Y338299D01*
G54D13*
X169582Y354567D02*
X169582Y345678D01*
X174249Y345678D01*
G54D13*
X181360Y345678D02*
X176694Y345678D01*
X176694Y354567D01*
X181360Y354567D01*
G54D13*
X176694Y350122D02*
X181360Y350122D01*
G54D13*
X183804Y345678D02*
X183804Y354567D01*
X187138Y354567D01*
X188471Y354011D01*
X189138Y352900D01*
X189138Y347344D01*
X188471Y346233D01*
X187138Y345678D01*
X183804Y345678D01*
G54D13*
X196915Y345678D02*
X191582Y345678D01*
X191582Y346233D01*
X192248Y347344D01*
X196248Y350678D01*
X196915Y351789D01*
X196915Y352900D01*
X196248Y354011D01*
X194915Y354567D01*
X193582Y354567D01*
X192248Y354011D01*
X191582Y352900D01*
G54D13*
X204692Y352900D02*
X204025Y354011D01*
X202692Y354567D01*
X201358Y354567D01*
X200025Y354011D01*
X199358Y352900D01*
X199358Y350122D01*
X199358Y349567D01*
X201358Y350678D01*
X202692Y350678D01*
X204025Y350122D01*
X204692Y349011D01*
X204692Y347344D01*
X204025Y346233D01*
X202692Y345678D01*
X201358Y345678D01*
X200025Y346233D01*
X199358Y347344D01*
X199358Y350122D01*
G54D12*
G75*
G01X906722Y588330D02*
G03X962583Y588330I27931J-27930D01*
G01*
G54D12*
X962462Y588762D02*
X906722Y588330D01*
G54D13*
X919833Y605392D02*
X919833Y596503D01*
X924499Y596503D01*
G54D13*
X931610Y596503D02*
X926944Y596503D01*
X926944Y605392D01*
X931610Y605392D01*
G54D13*
X926944Y600947D02*
X931610Y600947D01*
G54D13*
X934055Y596503D02*
X934055Y605392D01*
X937388Y605392D01*
X938721Y604836D01*
X939388Y603725D01*
X939388Y598169D01*
X938721Y597058D01*
X937388Y596503D01*
X934055Y596503D01*
G54D13*
X941832Y603725D02*
X942498Y604836D01*
X943832Y605392D01*
X945165Y605392D01*
X946498Y604836D01*
X947165Y603725D01*
X947165Y602614D01*
X946498Y601503D01*
X945165Y600947D01*
X946498Y600392D01*
X947165Y599281D01*
X947165Y598169D01*
X946498Y597058D01*
X945165Y596503D01*
X943832Y596503D01*
X942498Y597058D01*
X941832Y598169D01*
G54D12*
G75*
G01X782500Y462918D02*
G03X838362Y462918I27931J-27931D01*
G01*
G54D12*
X838240Y463350D02*
X782500Y462918D01*
G54D13*
X797198Y479979D02*
X797198Y471090D01*
X801865Y471090D01*
G54D13*
X808976Y471090D02*
X804309Y471090D01*
X804309Y479979D01*
X808976Y479979D01*
G54D13*
X804309Y475535D02*
X808976Y475535D01*
G54D13*
X811420Y471090D02*
X811420Y479979D01*
X814753Y479979D01*
X816087Y479424D01*
X816753Y478312D01*
X816753Y472757D01*
X816087Y471646D01*
X814753Y471090D01*
X811420Y471090D01*
G54D13*
X824530Y478312D02*
X823864Y479424D01*
X822530Y479979D01*
X821197Y479979D01*
X819864Y479424D01*
X819197Y478312D01*
X819197Y475535D01*
X819197Y474979D01*
X821197Y476090D01*
X822530Y476090D01*
X823864Y475535D01*
X824530Y474424D01*
X824530Y472757D01*
X823864Y471646D01*
X822530Y471090D01*
X821197Y471090D01*
X819864Y471646D01*
X819197Y472757D01*
X819197Y475535D01*
G54D12*
G75*
G01X907119Y339093D02*
G03X962980Y339093I27931J-27931D01*
G01*
G54D12*
X962859Y339524D02*
X907119Y339093D01*
G54D13*
X921817Y355360D02*
X921817Y346472D01*
X926484Y346472D01*
G54D13*
X933595Y346472D02*
X928928Y346472D01*
X928928Y355360D01*
X933595Y355360D01*
G54D13*
X928928Y350916D02*
X933595Y350916D01*
G54D13*
X936039Y346472D02*
X936039Y355360D01*
X939373Y355360D01*
X940706Y354805D01*
X941373Y353694D01*
X941373Y348138D01*
X940706Y347027D01*
X939373Y346472D01*
X936039Y346472D01*
G54D13*
X949150Y346472D02*
X943816Y346472D01*
X943816Y347027D01*
X944483Y348138D01*
X948483Y351472D01*
X949150Y352583D01*
X949150Y353694D01*
X948483Y354805D01*
X947150Y355360D01*
X945816Y355360D01*
X944483Y354805D01*
X943816Y353694D01*
G54D12*
G75*
G01X906722Y89855D02*
G03X962583Y89855I27931J-27931D01*
G01*
G54D12*
X962462Y90287D02*
X906722Y89855D01*
G54D13*
X921642Y107314D02*
X921642Y98425D01*
X926309Y98425D01*
G54D13*
X933420Y98425D02*
X928753Y98425D01*
X928753Y107314D01*
X933420Y107314D01*
G54D13*
X928753Y102869D02*
X933420Y102869D01*
G54D13*
X935864Y98425D02*
X935864Y107314D01*
X939198Y107314D01*
X940531Y106758D01*
X941198Y105647D01*
X941198Y100091D01*
X940531Y98980D01*
X939198Y98425D01*
X935864Y98425D01*
G54D13*
X943641Y103980D02*
X946975Y107314D01*
X946975Y98425D01*
G54D12*
G75*
G01X781310Y214077D02*
G03X837171Y214077I27930J-27931D01*
G01*
G54D12*
X837050Y214509D02*
X781310Y214077D01*
G54D13*
X793230Y231535D02*
X793230Y222646D01*
X797896Y222646D01*
G54D13*
X805007Y222646D02*
X800340Y222646D01*
X800340Y231535D01*
X805007Y231535D01*
G54D13*
X800340Y227091D02*
X805007Y227091D01*
G54D13*
X807452Y222646D02*
X807452Y231535D01*
X810785Y231535D01*
X812118Y230980D01*
X812785Y229869D01*
X812785Y224313D01*
X812118Y223202D01*
X810785Y222646D01*
X807452Y222646D01*
G54D13*
X820562Y231535D02*
X815228Y231535D01*
X815228Y227646D01*
X815895Y227646D01*
X817228Y228202D01*
X818562Y228202D01*
X819895Y227646D01*
X820562Y226535D01*
X820562Y224313D01*
X819895Y223202D01*
X818562Y222646D01*
X817228Y222646D01*
X815895Y223202D01*
X815228Y224313D01*
G54D12*
G75*
G01X658675Y87474D02*
G03X714537Y87474I27931J-27931D01*
G01*
G54D12*
X714415Y87906D02*
X658675Y87474D01*
G54D13*
X671389Y104932D02*
X671389Y96043D01*
X676056Y96043D01*
G54D13*
X683167Y96043D02*
X678500Y96043D01*
X678500Y104932D01*
X683167Y104932D01*
G54D13*
X678500Y100488D02*
X683167Y100488D01*
G54D13*
X685611Y96043D02*
X685611Y104932D01*
X688944Y104932D01*
X690278Y104377D01*
X690944Y103266D01*
X690944Y97710D01*
X690278Y96599D01*
X688944Y96043D01*
X685611Y96043D01*
G54D13*
X693388Y97710D02*
X694055Y96599D01*
X695388Y96043D01*
X696721Y96043D01*
X698055Y96599D01*
X698721Y97710D01*
X698721Y100488D01*
X698721Y101043D01*
X696721Y99932D01*
X695388Y99932D01*
X694055Y100488D01*
X693388Y101599D01*
X693388Y103266D01*
X694055Y104377D01*
X695388Y104932D01*
X696721Y104932D01*
X698055Y104377D01*
X698721Y103266D01*
X698721Y100488D01*
G54D12*
G75*
G01X407453Y87871D02*
G03X463315Y87871I27931J-27931D01*
G01*
G54D12*
X463193Y88303D02*
X407453Y87871D01*
G54D13*
X418748Y105329D02*
X418748Y96440D01*
X423415Y96440D01*
G54D13*
X430526Y96440D02*
X425860Y96440D01*
X425860Y105329D01*
X430526Y105329D01*
G54D13*
X425860Y100885D02*
X430526Y100885D01*
G54D13*
X432970Y96440D02*
X432970Y105329D01*
X436304Y105329D01*
X437637Y104774D01*
X438304Y103662D01*
X438304Y98107D01*
X437637Y96996D01*
X436304Y96440D01*
X432970Y96440D01*
G54D13*
X440748Y101996D02*
X444081Y105329D01*
X444081Y96440D01*
G54D13*
X446524Y105329D02*
X451858Y105329D01*
X451191Y104218D01*
X449858Y102551D01*
X448524Y100329D01*
X447858Y98662D01*
X447858Y96440D01*
G54D12*
G75*
G01X531675Y213283D02*
G03X587537Y213283I27931J-27930D01*
G01*
G54D12*
X587415Y213715D02*
X531675Y213283D01*
G54D13*
X542073Y230742D02*
X542073Y221853D01*
X546739Y221853D01*
G54D13*
X553850Y221853D02*
X549184Y221853D01*
X549184Y230742D01*
X553850Y230742D01*
G54D13*
X549184Y226297D02*
X553850Y226297D01*
G54D13*
X556295Y221853D02*
X556295Y230742D01*
X559628Y230742D01*
X560961Y230186D01*
X561628Y229075D01*
X561628Y223519D01*
X560961Y222408D01*
X559628Y221853D01*
X556295Y221853D01*
G54D13*
X564072Y227408D02*
X567405Y230742D01*
X567405Y221853D01*
G54D13*
X569849Y229075D02*
X570515Y230186D01*
X571849Y230742D01*
X573182Y230742D01*
X574515Y230186D01*
X575182Y229075D01*
X575182Y227964D01*
X574515Y226853D01*
X573182Y226297D01*
X574515Y225742D01*
X575182Y224630D01*
X575182Y223519D01*
X574515Y222408D01*
X573182Y221853D01*
X571849Y221853D01*
X570515Y222408D01*
X569849Y223519D01*
G54D12*
G75*
G01X281247Y214077D02*
G03X337108Y214077I27931J-27931D01*
G01*
G54D12*
X336987Y214509D02*
X281247Y214077D01*
G54D13*
X289659Y231535D02*
X289659Y222646D01*
X294326Y222646D01*
G54D13*
X301437Y222646D02*
X296770Y222646D01*
X296770Y231535D01*
X301437Y231535D01*
G54D13*
X296770Y227091D02*
X301437Y227091D01*
G54D13*
X303881Y222646D02*
X303881Y231535D01*
X307215Y231535D01*
X308548Y230980D01*
X309215Y229869D01*
X309215Y224313D01*
X308548Y223202D01*
X307215Y222646D01*
X303881Y222646D01*
G54D13*
X316992Y222646D02*
X311658Y222646D01*
X311658Y223202D01*
X312325Y224313D01*
X316325Y227646D01*
X316992Y228758D01*
X316992Y229869D01*
X316325Y230980D01*
X314992Y231535D01*
X313658Y231535D01*
X312325Y230980D01*
X311658Y229869D01*
G54D13*
X319435Y228202D02*
X322769Y231535D01*
X322769Y222646D01*
G54D12*
G75*
G01X157422Y86680D02*
G03X213283Y86680I27931J-27930D01*
G01*
G54D12*
X214750Y87112D02*
X159010Y86680D01*
G54D13*
X169582Y104138D02*
X169582Y95250D01*
X174248Y95250D01*
G54D13*
X181359Y95250D02*
X176692Y95250D01*
X176692Y104138D01*
X181359Y104138D01*
G54D13*
X176692Y99694D02*
X181359Y99694D01*
G54D13*
X183804Y95250D02*
X183804Y104138D01*
X187137Y104138D01*
X188470Y103583D01*
X189137Y102472D01*
X189137Y96916D01*
X188470Y95805D01*
X187137Y95250D01*
X183804Y95250D01*
G54D13*
X196914Y95250D02*
X191580Y95250D01*
X191580Y95805D01*
X192247Y96916D01*
X196247Y100250D01*
X196914Y101361D01*
X196914Y102472D01*
X196247Y103583D01*
X194914Y104138D01*
X193580Y104138D01*
X192247Y103583D01*
X191580Y102472D01*
G54D13*
X204691Y104138D02*
X199358Y104138D01*
X199358Y100250D01*
X200024Y100250D01*
X201358Y100805D01*
X202691Y100805D01*
X204024Y100250D01*
X204691Y99138D01*
X204691Y96916D01*
X204024Y95805D01*
X202691Y95250D01*
X201358Y95250D01*
X200024Y95805D01*
X199358Y96916D01*
G54D12*
G75*
G01X32406Y214474D02*
G03X88268Y214474I27931J-27931D01*
G01*
G54D12*
X88146Y214906D02*
X32406Y214474D01*
G54D13*
X42977Y231932D02*
X42977Y223043D01*
X47644Y223043D01*
G54D13*
X54755Y223043D02*
X50088Y223043D01*
X50088Y231932D01*
X54755Y231932D01*
G54D13*
X50088Y227488D02*
X54755Y227488D01*
G54D13*
X57199Y223043D02*
X57199Y231932D01*
X60533Y231932D01*
X61866Y231377D01*
X62533Y230266D01*
X62533Y224710D01*
X61866Y223599D01*
X60533Y223043D01*
X57199Y223043D01*
G54D13*
X70310Y223043D02*
X64976Y223043D01*
X64976Y223599D01*
X65643Y224710D01*
X69643Y228043D01*
X70310Y229154D01*
X70310Y230266D01*
X69643Y231377D01*
X68310Y231932D01*
X66976Y231932D01*
X65643Y231377D01*
X64976Y230266D01*
G54D13*
X72753Y224710D02*
X73420Y223599D01*
X74753Y223043D01*
X76087Y223043D01*
X77420Y223599D01*
X78087Y224710D01*
X78087Y227488D01*
X78087Y228043D01*
X76087Y226932D01*
X74753Y226932D01*
X73420Y227488D01*
X72753Y228599D01*
X72753Y230266D01*
X73420Y231377D01*
X74753Y231932D01*
X76087Y231932D01*
X77420Y231377D01*
X78087Y230266D01*
X78087Y227488D01*
M02*
