%FSLAX34Y34*%
%MOMM*%
%LNCOPPER_TOP*%
G71*
G01*
%ADD10C,2.600*%
%ADD11C,1.400*%
%ADD12C,1.600*%
%ADD13C,1.000*%
%ADD14C,7.200*%
%ADD15C,0.600*%
%ADD16C,2.133*%
%ADD17C,0.200*%
%ADD18C,1.800*%
%ADD19C,0.600*%
%ADD20C,0.800*%
%ADD21C,6.400*%
%LPD*%
G36*
X-7541Y1003175D02*
X1008459Y1003175D01*
X1008459Y-11825D01*
X-7541Y-11825D01*
X-7541Y1003175D01*
G37*
%LPC*%
X435372Y571500D02*
G54D10*
D03*
X435372Y546100D02*
G54D10*
D03*
X686196Y571500D02*
G54D10*
D03*
X686196Y546100D02*
G54D10*
D03*
X935434Y571500D02*
G54D10*
D03*
X935434Y546100D02*
G54D10*
D03*
X186134Y571500D02*
G54D10*
D03*
X186134Y546100D02*
G54D10*
D03*
X435372Y320675D02*
G54D10*
D03*
X435372Y295275D02*
G54D10*
D03*
X686196Y320675D02*
G54D10*
D03*
X686196Y295275D02*
G54D10*
D03*
X935434Y320675D02*
G54D10*
D03*
X935434Y295275D02*
G54D10*
D03*
X186134Y320675D02*
G54D10*
D03*
X186134Y295275D02*
G54D10*
D03*
X435372Y69850D02*
G54D10*
D03*
X435372Y44450D02*
G54D10*
D03*
X686196Y69850D02*
G54D10*
D03*
X686196Y44450D02*
G54D10*
D03*
X935434Y69850D02*
G54D10*
D03*
X935434Y44450D02*
G54D10*
D03*
X186134Y69850D02*
G54D10*
D03*
X186134Y44450D02*
G54D10*
D03*
X309959Y196850D02*
G54D10*
D03*
X309959Y171450D02*
G54D10*
D03*
X560784Y196850D02*
G54D10*
D03*
X560784Y171450D02*
G54D10*
D03*
X810022Y196850D02*
G54D10*
D03*
X810022Y171450D02*
G54D10*
D03*
X60722Y196850D02*
G54D10*
D03*
X60722Y171450D02*
G54D10*
D03*
X309959Y446088D02*
G54D10*
D03*
X309959Y420688D02*
G54D10*
D03*
X560784Y446088D02*
G54D10*
D03*
X560784Y420688D02*
G54D10*
D03*
X810022Y446088D02*
G54D10*
D03*
X810022Y420688D02*
G54D10*
D03*
X60722Y446088D02*
G54D10*
D03*
X60722Y420688D02*
G54D10*
D03*
X309959Y695325D02*
G54D10*
D03*
X309959Y669925D02*
G54D10*
D03*
X560784Y695325D02*
G54D10*
D03*
X560784Y669925D02*
G54D10*
D03*
X810022Y695325D02*
G54D10*
D03*
X810022Y669925D02*
G54D10*
D03*
X60722Y695325D02*
G54D10*
D03*
X60722Y669925D02*
G54D10*
D03*
X435372Y820738D02*
G54D10*
D03*
X435372Y795338D02*
G54D10*
D03*
X686196Y820738D02*
G54D10*
D03*
X686196Y795338D02*
G54D10*
D03*
X935434Y820738D02*
G54D10*
D03*
X935434Y795338D02*
G54D10*
D03*
X186134Y820738D02*
G54D10*
D03*
X186134Y795338D02*
G54D10*
D03*
X309959Y946150D02*
G54D10*
D03*
X309959Y920750D02*
G54D10*
D03*
X560784Y946150D02*
G54D10*
D03*
X560784Y920750D02*
G54D10*
D03*
X810022Y946150D02*
G54D10*
D03*
X810022Y920750D02*
G54D10*
D03*
X60722Y946150D02*
G54D10*
D03*
X60722Y920750D02*
G54D10*
D03*
X362346Y946942D02*
G54D11*
D03*
X362346Y969167D02*
G54D11*
D03*
G54D12*
X186134Y795338D02*
X186134Y571500D01*
G54D12*
X309959Y669925D02*
X309959Y446088D01*
G54D12*
X435372Y795338D02*
X435372Y571500D01*
G54D12*
X560784Y669925D02*
X560784Y446088D01*
G54D12*
X810022Y669925D02*
X810022Y446088D01*
G54D12*
X686196Y795338D02*
X686196Y571500D01*
G54D12*
X935434Y795338D02*
X935434Y571500D01*
G54D12*
X935434Y546100D02*
X935434Y322262D01*
G54D12*
X60722Y669925D02*
X60722Y446088D01*
G54D12*
X60722Y420688D02*
X60722Y196850D01*
G54D13*
X0Y996156D02*
X998140Y996156D01*
X998140Y0D01*
X0Y0D01*
X0Y996156D01*
X811117Y808133D02*
G54D14*
D03*
X835117Y808133D02*
G54D11*
D03*
X828088Y791162D02*
G54D11*
D03*
X811117Y784133D02*
G54D11*
D03*
X794146Y791162D02*
G54D11*
D03*
X787117Y808133D02*
G54D11*
D03*
X794146Y825104D02*
G54D11*
D03*
X811117Y832133D02*
G54D11*
D03*
X828088Y825104D02*
G54D11*
D03*
X308558Y808038D02*
G54D14*
D03*
X332558Y808038D02*
G54D11*
D03*
X325529Y791068D02*
G54D11*
D03*
X308558Y784038D02*
G54D11*
D03*
X291588Y791068D02*
G54D11*
D03*
X284558Y808038D02*
G54D11*
D03*
X291588Y825009D02*
G54D11*
D03*
X308558Y832038D02*
G54D11*
D03*
X325529Y825009D02*
G54D11*
D03*
X686612Y183149D02*
G54D14*
D03*
X710612Y183149D02*
G54D11*
D03*
X703583Y166179D02*
G54D11*
D03*
X686612Y159149D02*
G54D11*
D03*
X669642Y166179D02*
G54D11*
D03*
X662612Y183149D02*
G54D11*
D03*
X669642Y200120D02*
G54D11*
D03*
X686612Y207150D02*
G54D11*
D03*
X703583Y200120D02*
G54D11*
D03*
X184054Y183054D02*
G54D14*
D03*
X208054Y183054D02*
G54D11*
D03*
X201025Y166084D02*
G54D11*
D03*
X184054Y159054D02*
G54D11*
D03*
X167084Y166084D02*
G54D11*
D03*
X160054Y183054D02*
G54D11*
D03*
X167084Y200025D02*
G54D11*
D03*
X184054Y207054D02*
G54D11*
D03*
X201025Y200025D02*
G54D11*
D03*
X383380Y946942D02*
G54D11*
D03*
X383380Y969167D02*
G54D11*
D03*
X23415Y380602D02*
G54D11*
D03*
X45640Y380602D02*
G54D11*
D03*
X23415Y359568D02*
G54D11*
D03*
X45640Y359568D02*
G54D11*
D03*
X364331Y22225D02*
G54D11*
D03*
X364331Y44450D02*
G54D11*
D03*
X385366Y22225D02*
G54D11*
D03*
X385366Y44450D02*
G54D11*
D03*
X951309Y379015D02*
G54D11*
D03*
X973534Y379015D02*
G54D11*
D03*
X951309Y357981D02*
G54D11*
D03*
X973534Y357981D02*
G54D11*
D03*
%LPD*%
G54D15*
G36*
X359346Y946942D02*
X359346Y954442D01*
X365346Y954442D01*
X365346Y946942D01*
X359346Y946942D01*
G37*
G36*
X362346Y949942D02*
X369846Y949942D01*
X369846Y943942D01*
X362346Y943942D01*
X362346Y949942D01*
G37*
G36*
X365346Y946942D02*
X365346Y939442D01*
X359346Y939442D01*
X359346Y946942D01*
X365346Y946942D01*
G37*
G36*
X362346Y943942D02*
X354846Y943942D01*
X354846Y949942D01*
X362346Y949942D01*
X362346Y943942D01*
G37*
G54D15*
G36*
X359346Y969167D02*
X359346Y976667D01*
X365346Y976667D01*
X365346Y969167D01*
X359346Y969167D01*
G37*
G36*
X362346Y972167D02*
X369846Y972167D01*
X369846Y966167D01*
X362346Y966167D01*
X362346Y972167D01*
G37*
G36*
X365346Y969167D02*
X365346Y961667D01*
X359346Y961667D01*
X359346Y969167D01*
X365346Y969167D01*
G37*
G36*
X362346Y966167D02*
X354846Y966167D01*
X354846Y972167D01*
X362346Y972167D01*
X362346Y966167D01*
G37*
G54D16*
G36*
X800450Y808133D02*
X800450Y844633D01*
X821784Y844633D01*
X821784Y808133D01*
X800450Y808133D01*
G37*
G36*
X811117Y818800D02*
X847617Y818800D01*
X847617Y797466D01*
X811117Y797466D01*
X811117Y818800D01*
G37*
G36*
X821784Y808133D02*
X821784Y771633D01*
X800450Y771633D01*
X800450Y808133D01*
X821784Y808133D01*
G37*
G36*
X811117Y797466D02*
X774617Y797466D01*
X774617Y818800D01*
X811117Y818800D01*
X811117Y797466D01*
G37*
G54D17*
G36*
X834117Y808133D02*
X834117Y815633D01*
X836117Y815633D01*
X836117Y808133D01*
X834117Y808133D01*
G37*
G36*
X835117Y809133D02*
X842617Y809133D01*
X842617Y807133D01*
X835117Y807133D01*
X835117Y809133D01*
G37*
G36*
X836117Y808133D02*
X836117Y800633D01*
X834117Y800633D01*
X834117Y808133D01*
X836117Y808133D01*
G37*
G36*
X835117Y807133D02*
X827617Y807133D01*
X827617Y809133D01*
X835117Y809133D01*
X835117Y807133D01*
G37*
G54D17*
G36*
X827088Y791162D02*
X827088Y798662D01*
X829088Y798662D01*
X829088Y791162D01*
X827088Y791162D01*
G37*
G36*
X828088Y792162D02*
X835588Y792162D01*
X835588Y790162D01*
X828088Y790162D01*
X828088Y792162D01*
G37*
G36*
X829088Y791162D02*
X829088Y783662D01*
X827088Y783662D01*
X827088Y791162D01*
X829088Y791162D01*
G37*
G36*
X828088Y790162D02*
X820588Y790162D01*
X820588Y792162D01*
X828088Y792162D01*
X828088Y790162D01*
G37*
G54D17*
G36*
X810117Y784133D02*
X810117Y791633D01*
X812117Y791633D01*
X812117Y784133D01*
X810117Y784133D01*
G37*
G36*
X811117Y785133D02*
X818617Y785133D01*
X818617Y783133D01*
X811117Y783133D01*
X811117Y785133D01*
G37*
G36*
X812117Y784133D02*
X812117Y776633D01*
X810117Y776633D01*
X810117Y784133D01*
X812117Y784133D01*
G37*
G36*
X811117Y783133D02*
X803617Y783133D01*
X803617Y785133D01*
X811117Y785133D01*
X811117Y783133D01*
G37*
G54D17*
G36*
X793146Y791162D02*
X793146Y798662D01*
X795146Y798662D01*
X795146Y791162D01*
X793146Y791162D01*
G37*
G36*
X794146Y792162D02*
X801646Y792162D01*
X801646Y790162D01*
X794146Y790162D01*
X794146Y792162D01*
G37*
G36*
X795146Y791162D02*
X795146Y783662D01*
X793146Y783662D01*
X793146Y791162D01*
X795146Y791162D01*
G37*
G36*
X794146Y790162D02*
X786646Y790162D01*
X786646Y792162D01*
X794146Y792162D01*
X794146Y790162D01*
G37*
G54D17*
G36*
X786117Y808133D02*
X786117Y815633D01*
X788117Y815633D01*
X788117Y808133D01*
X786117Y808133D01*
G37*
G36*
X787117Y809133D02*
X794617Y809133D01*
X794617Y807133D01*
X787117Y807133D01*
X787117Y809133D01*
G37*
G36*
X788117Y808133D02*
X788117Y800633D01*
X786117Y800633D01*
X786117Y808133D01*
X788117Y808133D01*
G37*
G36*
X787117Y807133D02*
X779617Y807133D01*
X779617Y809133D01*
X787117Y809133D01*
X787117Y807133D01*
G37*
G54D17*
G36*
X793146Y825104D02*
X793146Y832604D01*
X795146Y832604D01*
X795146Y825104D01*
X793146Y825104D01*
G37*
G36*
X794146Y826104D02*
X801646Y826104D01*
X801646Y824104D01*
X794146Y824104D01*
X794146Y826104D01*
G37*
G36*
X795146Y825104D02*
X795146Y817604D01*
X793146Y817604D01*
X793146Y825104D01*
X795146Y825104D01*
G37*
G36*
X794146Y824104D02*
X786646Y824104D01*
X786646Y826104D01*
X794146Y826104D01*
X794146Y824104D01*
G37*
G54D17*
G36*
X810117Y832133D02*
X810117Y839633D01*
X812117Y839633D01*
X812117Y832133D01*
X810117Y832133D01*
G37*
G36*
X811117Y833133D02*
X818617Y833133D01*
X818617Y831133D01*
X811117Y831133D01*
X811117Y833133D01*
G37*
G36*
X812117Y832133D02*
X812117Y824633D01*
X810117Y824633D01*
X810117Y832133D01*
X812117Y832133D01*
G37*
G36*
X811117Y831133D02*
X803617Y831133D01*
X803617Y833133D01*
X811117Y833133D01*
X811117Y831133D01*
G37*
G54D17*
G36*
X827088Y825104D02*
X827088Y832604D01*
X829088Y832604D01*
X829088Y825104D01*
X827088Y825104D01*
G37*
G36*
X828088Y826104D02*
X835588Y826104D01*
X835588Y824104D01*
X828088Y824104D01*
X828088Y826104D01*
G37*
G36*
X829088Y825104D02*
X829088Y817604D01*
X827088Y817604D01*
X827088Y825104D01*
X829088Y825104D01*
G37*
G36*
X828088Y824104D02*
X820588Y824104D01*
X820588Y826104D01*
X828088Y826104D01*
X828088Y824104D01*
G37*
G54D16*
G36*
X297892Y808038D02*
X297892Y844538D01*
X319225Y844538D01*
X319225Y808038D01*
X297892Y808038D01*
G37*
G36*
X308558Y818705D02*
X345058Y818705D01*
X345058Y797371D01*
X308558Y797371D01*
X308558Y818705D01*
G37*
G36*
X319225Y808038D02*
X319225Y771538D01*
X297892Y771538D01*
X297892Y808038D01*
X319225Y808038D01*
G37*
G36*
X308558Y797371D02*
X272058Y797371D01*
X272058Y818705D01*
X308558Y818705D01*
X308558Y797371D01*
G37*
G54D17*
G36*
X331558Y808038D02*
X331558Y815538D01*
X333558Y815538D01*
X333558Y808038D01*
X331558Y808038D01*
G37*
G36*
X332558Y809038D02*
X340058Y809038D01*
X340058Y807038D01*
X332558Y807038D01*
X332558Y809038D01*
G37*
G36*
X333558Y808038D02*
X333558Y800538D01*
X331558Y800538D01*
X331558Y808038D01*
X333558Y808038D01*
G37*
G36*
X332558Y807038D02*
X325058Y807038D01*
X325058Y809038D01*
X332558Y809038D01*
X332558Y807038D01*
G37*
G54D17*
G36*
X324529Y791068D02*
X324529Y798568D01*
X326529Y798568D01*
X326529Y791068D01*
X324529Y791068D01*
G37*
G36*
X325529Y792068D02*
X333029Y792068D01*
X333029Y790068D01*
X325529Y790068D01*
X325529Y792068D01*
G37*
G36*
X326529Y791068D02*
X326529Y783568D01*
X324529Y783568D01*
X324529Y791068D01*
X326529Y791068D01*
G37*
G36*
X325529Y790068D02*
X318029Y790068D01*
X318029Y792068D01*
X325529Y792068D01*
X325529Y790068D01*
G37*
G54D17*
G36*
X307558Y784038D02*
X307558Y791538D01*
X309558Y791538D01*
X309558Y784038D01*
X307558Y784038D01*
G37*
G36*
X308558Y785038D02*
X316058Y785038D01*
X316058Y783038D01*
X308558Y783038D01*
X308558Y785038D01*
G37*
G36*
X309558Y784038D02*
X309558Y776538D01*
X307558Y776538D01*
X307558Y784038D01*
X309558Y784038D01*
G37*
G36*
X308558Y783038D02*
X301058Y783038D01*
X301058Y785038D01*
X308558Y785038D01*
X308558Y783038D01*
G37*
G54D17*
G36*
X290588Y791068D02*
X290588Y798568D01*
X292588Y798568D01*
X292588Y791068D01*
X290588Y791068D01*
G37*
G36*
X291588Y792068D02*
X299088Y792068D01*
X299088Y790068D01*
X291588Y790068D01*
X291588Y792068D01*
G37*
G36*
X292588Y791068D02*
X292588Y783568D01*
X290588Y783568D01*
X290588Y791068D01*
X292588Y791068D01*
G37*
G36*
X291588Y790068D02*
X284088Y790068D01*
X284088Y792068D01*
X291588Y792068D01*
X291588Y790068D01*
G37*
G54D17*
G36*
X283558Y808038D02*
X283558Y815538D01*
X285558Y815538D01*
X285558Y808038D01*
X283558Y808038D01*
G37*
G36*
X284558Y809038D02*
X292058Y809038D01*
X292058Y807038D01*
X284558Y807038D01*
X284558Y809038D01*
G37*
G36*
X285558Y808038D02*
X285558Y800538D01*
X283558Y800538D01*
X283558Y808038D01*
X285558Y808038D01*
G37*
G36*
X284558Y807038D02*
X277058Y807038D01*
X277058Y809038D01*
X284558Y809038D01*
X284558Y807038D01*
G37*
G54D17*
G36*
X290588Y825009D02*
X290588Y832509D01*
X292588Y832509D01*
X292588Y825009D01*
X290588Y825009D01*
G37*
G36*
X291588Y826009D02*
X299088Y826009D01*
X299088Y824009D01*
X291588Y824009D01*
X291588Y826009D01*
G37*
G36*
X292588Y825009D02*
X292588Y817509D01*
X290588Y817509D01*
X290588Y825009D01*
X292588Y825009D01*
G37*
G36*
X291588Y824009D02*
X284088Y824009D01*
X284088Y826009D01*
X291588Y826009D01*
X291588Y824009D01*
G37*
G54D17*
G36*
X307558Y832038D02*
X307558Y839538D01*
X309558Y839538D01*
X309558Y832038D01*
X307558Y832038D01*
G37*
G36*
X308558Y833038D02*
X316058Y833038D01*
X316058Y831038D01*
X308558Y831038D01*
X308558Y833038D01*
G37*
G36*
X309558Y832038D02*
X309558Y824538D01*
X307558Y824538D01*
X307558Y832038D01*
X309558Y832038D01*
G37*
G36*
X308558Y831038D02*
X301058Y831038D01*
X301058Y833038D01*
X308558Y833038D01*
X308558Y831038D01*
G37*
G54D17*
G36*
X324529Y825009D02*
X324529Y832509D01*
X326529Y832509D01*
X326529Y825009D01*
X324529Y825009D01*
G37*
G36*
X325529Y826009D02*
X333029Y826009D01*
X333029Y824009D01*
X325529Y824009D01*
X325529Y826009D01*
G37*
G36*
X326529Y825009D02*
X326529Y817509D01*
X324529Y817509D01*
X324529Y825009D01*
X326529Y825009D01*
G37*
G36*
X325529Y824009D02*
X318029Y824009D01*
X318029Y826009D01*
X325529Y826009D01*
X325529Y824009D01*
G37*
G54D16*
G36*
X675946Y183149D02*
X675946Y219649D01*
X697279Y219649D01*
X697279Y183149D01*
X675946Y183149D01*
G37*
G36*
X686612Y193816D02*
X723112Y193816D01*
X723112Y172483D01*
X686612Y172483D01*
X686612Y193816D01*
G37*
G36*
X697279Y183149D02*
X697279Y146649D01*
X675946Y146649D01*
X675946Y183149D01*
X697279Y183149D01*
G37*
G36*
X686612Y172483D02*
X650112Y172483D01*
X650112Y193816D01*
X686612Y193816D01*
X686612Y172483D01*
G37*
G54D17*
G36*
X709612Y183149D02*
X709612Y190649D01*
X711612Y190649D01*
X711612Y183149D01*
X709612Y183149D01*
G37*
G36*
X710612Y184149D02*
X718112Y184149D01*
X718112Y182149D01*
X710612Y182149D01*
X710612Y184149D01*
G37*
G36*
X711612Y183149D02*
X711612Y175649D01*
X709612Y175649D01*
X709612Y183149D01*
X711612Y183149D01*
G37*
G36*
X710612Y182149D02*
X703112Y182149D01*
X703112Y184149D01*
X710612Y184149D01*
X710612Y182149D01*
G37*
G54D17*
G36*
X702583Y166179D02*
X702583Y173679D01*
X704583Y173679D01*
X704583Y166179D01*
X702583Y166179D01*
G37*
G36*
X703583Y167179D02*
X711083Y167179D01*
X711083Y165179D01*
X703583Y165179D01*
X703583Y167179D01*
G37*
G36*
X704583Y166179D02*
X704583Y158679D01*
X702583Y158679D01*
X702583Y166179D01*
X704583Y166179D01*
G37*
G36*
X703583Y165179D02*
X696083Y165179D01*
X696083Y167179D01*
X703583Y167179D01*
X703583Y165179D01*
G37*
G54D17*
G36*
X685612Y159149D02*
X685612Y166649D01*
X687612Y166649D01*
X687612Y159149D01*
X685612Y159149D01*
G37*
G36*
X686612Y160149D02*
X694112Y160149D01*
X694112Y158149D01*
X686612Y158149D01*
X686612Y160149D01*
G37*
G36*
X687612Y159149D02*
X687612Y151649D01*
X685612Y151649D01*
X685612Y159149D01*
X687612Y159149D01*
G37*
G36*
X686612Y158149D02*
X679112Y158149D01*
X679112Y160149D01*
X686612Y160149D01*
X686612Y158149D01*
G37*
G54D17*
G36*
X668642Y166179D02*
X668642Y173679D01*
X670642Y173679D01*
X670642Y166179D01*
X668642Y166179D01*
G37*
G36*
X669642Y167179D02*
X677142Y167179D01*
X677142Y165179D01*
X669642Y165179D01*
X669642Y167179D01*
G37*
G36*
X670642Y166179D02*
X670642Y158679D01*
X668642Y158679D01*
X668642Y166179D01*
X670642Y166179D01*
G37*
G36*
X669642Y165179D02*
X662142Y165179D01*
X662142Y167179D01*
X669642Y167179D01*
X669642Y165179D01*
G37*
G54D17*
G36*
X661612Y183149D02*
X661612Y190649D01*
X663612Y190649D01*
X663612Y183149D01*
X661612Y183149D01*
G37*
G36*
X662612Y184149D02*
X670112Y184149D01*
X670112Y182149D01*
X662612Y182149D01*
X662612Y184149D01*
G37*
G36*
X663612Y183149D02*
X663612Y175649D01*
X661612Y175649D01*
X661612Y183149D01*
X663612Y183149D01*
G37*
G36*
X662612Y182149D02*
X655112Y182149D01*
X655112Y184149D01*
X662612Y184149D01*
X662612Y182149D01*
G37*
G54D17*
G36*
X668642Y200120D02*
X668642Y207620D01*
X670642Y207620D01*
X670642Y200120D01*
X668642Y200120D01*
G37*
G36*
X669642Y201120D02*
X677142Y201120D01*
X677142Y199120D01*
X669642Y199120D01*
X669642Y201120D01*
G37*
G36*
X670642Y200120D02*
X670642Y192620D01*
X668642Y192620D01*
X668642Y200120D01*
X670642Y200120D01*
G37*
G36*
X669642Y199120D02*
X662142Y199120D01*
X662142Y201120D01*
X669642Y201120D01*
X669642Y199120D01*
G37*
G54D17*
G36*
X685612Y207150D02*
X685612Y214650D01*
X687612Y214650D01*
X687612Y207150D01*
X685612Y207150D01*
G37*
G36*
X686612Y208150D02*
X694112Y208150D01*
X694112Y206150D01*
X686612Y206150D01*
X686612Y208150D01*
G37*
G36*
X687612Y207150D02*
X687612Y199650D01*
X685612Y199650D01*
X685612Y207150D01*
X687612Y207150D01*
G37*
G36*
X686612Y206150D02*
X679112Y206150D01*
X679112Y208150D01*
X686612Y208150D01*
X686612Y206150D01*
G37*
G54D17*
G36*
X702583Y200120D02*
X702583Y207620D01*
X704583Y207620D01*
X704583Y200120D01*
X702583Y200120D01*
G37*
G36*
X703583Y201120D02*
X711083Y201120D01*
X711083Y199120D01*
X703583Y199120D01*
X703583Y201120D01*
G37*
G36*
X704583Y200120D02*
X704583Y192620D01*
X702583Y192620D01*
X702583Y200120D01*
X704583Y200120D01*
G37*
G36*
X703583Y199120D02*
X696083Y199120D01*
X696083Y201120D01*
X703583Y201120D01*
X703583Y199120D01*
G37*
G54D16*
G36*
X173387Y183054D02*
X173387Y219554D01*
X194721Y219554D01*
X194721Y183054D01*
X173387Y183054D01*
G37*
G36*
X184054Y193721D02*
X220554Y193721D01*
X220554Y172388D01*
X184054Y172388D01*
X184054Y193721D01*
G37*
G36*
X194721Y183054D02*
X194721Y146554D01*
X173387Y146554D01*
X173387Y183054D01*
X194721Y183054D01*
G37*
G36*
X184054Y172388D02*
X147554Y172388D01*
X147554Y193721D01*
X184054Y193721D01*
X184054Y172388D01*
G37*
G54D17*
G36*
X207054Y183054D02*
X207054Y190554D01*
X209054Y190554D01*
X209054Y183054D01*
X207054Y183054D01*
G37*
G36*
X208054Y184054D02*
X215554Y184054D01*
X215554Y182054D01*
X208054Y182054D01*
X208054Y184054D01*
G37*
G36*
X209054Y183054D02*
X209054Y175554D01*
X207054Y175554D01*
X207054Y183054D01*
X209054Y183054D01*
G37*
G36*
X208054Y182054D02*
X200554Y182054D01*
X200554Y184054D01*
X208054Y184054D01*
X208054Y182054D01*
G37*
G54D17*
G36*
X200025Y166084D02*
X200025Y173584D01*
X202025Y173584D01*
X202025Y166084D01*
X200025Y166084D01*
G37*
G36*
X201025Y167084D02*
X208525Y167084D01*
X208525Y165084D01*
X201025Y165084D01*
X201025Y167084D01*
G37*
G36*
X202025Y166084D02*
X202025Y158584D01*
X200025Y158584D01*
X200025Y166084D01*
X202025Y166084D01*
G37*
G36*
X201025Y165084D02*
X193525Y165084D01*
X193525Y167084D01*
X201025Y167084D01*
X201025Y165084D01*
G37*
G54D17*
G36*
X183054Y159054D02*
X183054Y166554D01*
X185054Y166554D01*
X185054Y159054D01*
X183054Y159054D01*
G37*
G36*
X184054Y160054D02*
X191554Y160054D01*
X191554Y158054D01*
X184054Y158054D01*
X184054Y160054D01*
G37*
G36*
X185054Y159054D02*
X185054Y151554D01*
X183054Y151554D01*
X183054Y159054D01*
X185054Y159054D01*
G37*
G36*
X184054Y158054D02*
X176554Y158054D01*
X176554Y160054D01*
X184054Y160054D01*
X184054Y158054D01*
G37*
G54D17*
G36*
X166084Y166084D02*
X166084Y173584D01*
X168084Y173584D01*
X168084Y166084D01*
X166084Y166084D01*
G37*
G36*
X167084Y167084D02*
X174584Y167084D01*
X174584Y165084D01*
X167084Y165084D01*
X167084Y167084D01*
G37*
G36*
X168084Y166084D02*
X168084Y158584D01*
X166084Y158584D01*
X166084Y166084D01*
X168084Y166084D01*
G37*
G36*
X167084Y165084D02*
X159584Y165084D01*
X159584Y167084D01*
X167084Y167084D01*
X167084Y165084D01*
G37*
G54D17*
G36*
X159054Y183054D02*
X159054Y190554D01*
X161054Y190554D01*
X161054Y183054D01*
X159054Y183054D01*
G37*
G36*
X160054Y184054D02*
X167554Y184054D01*
X167554Y182054D01*
X160054Y182054D01*
X160054Y184054D01*
G37*
G36*
X161054Y183054D02*
X161054Y175554D01*
X159054Y175554D01*
X159054Y183054D01*
X161054Y183054D01*
G37*
G36*
X160054Y182054D02*
X152554Y182054D01*
X152554Y184054D01*
X160054Y184054D01*
X160054Y182054D01*
G37*
G54D17*
G36*
X166084Y200025D02*
X166084Y207525D01*
X168084Y207525D01*
X168084Y200025D01*
X166084Y200025D01*
G37*
G36*
X167084Y201025D02*
X174584Y201025D01*
X174584Y199025D01*
X167084Y199025D01*
X167084Y201025D01*
G37*
G36*
X168084Y200025D02*
X168084Y192525D01*
X166084Y192525D01*
X166084Y200025D01*
X168084Y200025D01*
G37*
G36*
X167084Y199025D02*
X159584Y199025D01*
X159584Y201025D01*
X167084Y201025D01*
X167084Y199025D01*
G37*
G54D17*
G36*
X183054Y207054D02*
X183054Y214554D01*
X185054Y214554D01*
X185054Y207054D01*
X183054Y207054D01*
G37*
G36*
X184054Y208054D02*
X191554Y208054D01*
X191554Y206054D01*
X184054Y206054D01*
X184054Y208054D01*
G37*
G36*
X185054Y207054D02*
X185054Y199554D01*
X183054Y199554D01*
X183054Y207054D01*
X185054Y207054D01*
G37*
G36*
X184054Y206054D02*
X176554Y206054D01*
X176554Y208054D01*
X184054Y208054D01*
X184054Y206054D01*
G37*
G54D17*
G36*
X200025Y200025D02*
X200025Y207525D01*
X202025Y207525D01*
X202025Y200025D01*
X200025Y200025D01*
G37*
G36*
X201025Y201025D02*
X208525Y201025D01*
X208525Y199025D01*
X201025Y199025D01*
X201025Y201025D01*
G37*
G36*
X202025Y200025D02*
X202025Y192525D01*
X200025Y192525D01*
X200025Y200025D01*
X202025Y200025D01*
G37*
G36*
X201025Y199025D02*
X193525Y199025D01*
X193525Y201025D01*
X201025Y201025D01*
X201025Y199025D01*
G37*
G54D15*
G36*
X380380Y946942D02*
X380380Y954442D01*
X386380Y954442D01*
X386380Y946942D01*
X380380Y946942D01*
G37*
G36*
X383380Y949942D02*
X390880Y949942D01*
X390880Y943942D01*
X383380Y943942D01*
X383380Y949942D01*
G37*
G36*
X386380Y946942D02*
X386380Y939442D01*
X380380Y939442D01*
X380380Y946942D01*
X386380Y946942D01*
G37*
G36*
X383380Y943942D02*
X375880Y943942D01*
X375880Y949942D01*
X383380Y949942D01*
X383380Y943942D01*
G37*
G54D15*
G36*
X380380Y969167D02*
X380380Y976667D01*
X386380Y976667D01*
X386380Y969167D01*
X380380Y969167D01*
G37*
G36*
X383380Y972167D02*
X390880Y972167D01*
X390880Y966167D01*
X383380Y966167D01*
X383380Y972167D01*
G37*
G36*
X386380Y969167D02*
X386380Y961667D01*
X380380Y961667D01*
X380380Y969167D01*
X386380Y969167D01*
G37*
G36*
X383380Y966167D02*
X375880Y966167D01*
X375880Y972167D01*
X383380Y972167D01*
X383380Y966167D01*
G37*
G54D15*
G36*
X23415Y383602D02*
X30915Y383602D01*
X30915Y377602D01*
X23415Y377602D01*
X23415Y383602D01*
G37*
G36*
X26415Y380602D02*
X26415Y373102D01*
X20415Y373102D01*
X20415Y380602D01*
X26415Y380602D01*
G37*
G36*
X23415Y377602D02*
X15915Y377602D01*
X15915Y383602D01*
X23415Y383602D01*
X23415Y377602D01*
G37*
G36*
X20415Y380602D02*
X20415Y388102D01*
X26415Y388102D01*
X26415Y380602D01*
X20415Y380602D01*
G37*
G54D15*
G36*
X45640Y383602D02*
X53140Y383602D01*
X53140Y377602D01*
X45640Y377602D01*
X45640Y383602D01*
G37*
G36*
X48640Y380602D02*
X48640Y373102D01*
X42640Y373102D01*
X42640Y380602D01*
X48640Y380602D01*
G37*
G36*
X45640Y377602D02*
X38140Y377602D01*
X38140Y383602D01*
X45640Y383602D01*
X45640Y377602D01*
G37*
G36*
X42640Y380602D02*
X42640Y388102D01*
X48640Y388102D01*
X48640Y380602D01*
X42640Y380602D01*
G37*
G54D15*
G36*
X23415Y362568D02*
X30915Y362568D01*
X30915Y356568D01*
X23415Y356568D01*
X23415Y362568D01*
G37*
G36*
X26415Y359568D02*
X26415Y352068D01*
X20415Y352068D01*
X20415Y359568D01*
X26415Y359568D01*
G37*
G36*
X23415Y356568D02*
X15915Y356568D01*
X15915Y362568D01*
X23415Y362568D01*
X23415Y356568D01*
G37*
G36*
X20415Y359568D02*
X20415Y367068D01*
X26415Y367068D01*
X26415Y359568D01*
X20415Y359568D01*
G37*
G54D15*
G36*
X45640Y362568D02*
X53140Y362568D01*
X53140Y356568D01*
X45640Y356568D01*
X45640Y362568D01*
G37*
G36*
X48640Y359568D02*
X48640Y352068D01*
X42640Y352068D01*
X42640Y359568D01*
X48640Y359568D01*
G37*
G36*
X45640Y356568D02*
X38140Y356568D01*
X38140Y362568D01*
X45640Y362568D01*
X45640Y356568D01*
G37*
G36*
X42640Y359568D02*
X42640Y367068D01*
X48640Y367068D01*
X48640Y359568D01*
X42640Y359568D01*
G37*
G54D15*
G36*
X361331Y22225D02*
X361331Y29725D01*
X367331Y29725D01*
X367331Y22225D01*
X361331Y22225D01*
G37*
G36*
X364331Y25225D02*
X371831Y25225D01*
X371831Y19225D01*
X364331Y19225D01*
X364331Y25225D01*
G37*
G36*
X367331Y22225D02*
X367331Y14725D01*
X361331Y14725D01*
X361331Y22225D01*
X367331Y22225D01*
G37*
G36*
X364331Y19225D02*
X356831Y19225D01*
X356831Y25225D01*
X364331Y25225D01*
X364331Y19225D01*
G37*
G54D15*
G36*
X361331Y44450D02*
X361331Y51950D01*
X367331Y51950D01*
X367331Y44450D01*
X361331Y44450D01*
G37*
G36*
X364331Y47450D02*
X371831Y47450D01*
X371831Y41450D01*
X364331Y41450D01*
X364331Y47450D01*
G37*
G36*
X367331Y44450D02*
X367331Y36950D01*
X361331Y36950D01*
X361331Y44450D01*
X367331Y44450D01*
G37*
G36*
X364331Y41450D02*
X356831Y41450D01*
X356831Y47450D01*
X364331Y47450D01*
X364331Y41450D01*
G37*
G54D15*
G36*
X382366Y22225D02*
X382366Y29725D01*
X388366Y29725D01*
X388366Y22225D01*
X382366Y22225D01*
G37*
G36*
X385366Y25225D02*
X392866Y25225D01*
X392866Y19225D01*
X385366Y19225D01*
X385366Y25225D01*
G37*
G36*
X388366Y22225D02*
X388366Y14725D01*
X382366Y14725D01*
X382366Y22225D01*
X388366Y22225D01*
G37*
G36*
X385366Y19225D02*
X377866Y19225D01*
X377866Y25225D01*
X385366Y25225D01*
X385366Y19225D01*
G37*
G54D15*
G36*
X382366Y44450D02*
X382366Y51950D01*
X388366Y51950D01*
X388366Y44450D01*
X382366Y44450D01*
G37*
G36*
X385366Y47450D02*
X392866Y47450D01*
X392866Y41450D01*
X385366Y41450D01*
X385366Y47450D01*
G37*
G36*
X388366Y44450D02*
X388366Y36950D01*
X382366Y36950D01*
X382366Y44450D01*
X388366Y44450D01*
G37*
G36*
X385366Y41450D02*
X377866Y41450D01*
X377866Y47450D01*
X385366Y47450D01*
X385366Y41450D01*
G37*
G54D15*
G36*
X951309Y382015D02*
X958809Y382015D01*
X958809Y376015D01*
X951309Y376015D01*
X951309Y382015D01*
G37*
G36*
X954309Y379015D02*
X954309Y371515D01*
X948309Y371515D01*
X948309Y379015D01*
X954309Y379015D01*
G37*
G36*
X951309Y376015D02*
X943809Y376015D01*
X943809Y382015D01*
X951309Y382015D01*
X951309Y376015D01*
G37*
G36*
X948309Y379015D02*
X948309Y386515D01*
X954309Y386515D01*
X954309Y379015D01*
X948309Y379015D01*
G37*
G54D15*
G36*
X973534Y382015D02*
X981034Y382015D01*
X981034Y376015D01*
X973534Y376015D01*
X973534Y382015D01*
G37*
G36*
X976534Y379015D02*
X976534Y371515D01*
X970534Y371515D01*
X970534Y379015D01*
X976534Y379015D01*
G37*
G36*
X973534Y376015D02*
X966034Y376015D01*
X966034Y382015D01*
X973534Y382015D01*
X973534Y376015D01*
G37*
G36*
X970534Y379015D02*
X970534Y386515D01*
X976534Y386515D01*
X976534Y379015D01*
X970534Y379015D01*
G37*
G54D15*
G36*
X951309Y360981D02*
X958809Y360981D01*
X958809Y354981D01*
X951309Y354981D01*
X951309Y360981D01*
G37*
G36*
X954309Y357981D02*
X954309Y350481D01*
X948309Y350481D01*
X948309Y357981D01*
X954309Y357981D01*
G37*
G36*
X951309Y354981D02*
X943809Y354981D01*
X943809Y360981D01*
X951309Y360981D01*
X951309Y354981D01*
G37*
G36*
X948309Y357981D02*
X948309Y365481D01*
X954309Y365481D01*
X954309Y357981D01*
X948309Y357981D01*
G37*
G54D15*
G36*
X973534Y360981D02*
X981034Y360981D01*
X981034Y354981D01*
X973534Y354981D01*
X973534Y360981D01*
G37*
G36*
X976534Y357981D02*
X976534Y350481D01*
X970534Y350481D01*
X970534Y357981D01*
X976534Y357981D01*
G37*
G36*
X973534Y354981D02*
X966034Y354981D01*
X966034Y360981D01*
X973534Y360981D01*
X973534Y354981D01*
G37*
G36*
X970534Y357981D02*
X970534Y365481D01*
X976534Y365481D01*
X976534Y357981D01*
X970534Y357981D01*
G37*
X435372Y571500D02*
G54D18*
D03*
X435372Y546100D02*
G54D18*
D03*
X686196Y571500D02*
G54D18*
D03*
X686196Y546100D02*
G54D18*
D03*
X935434Y571500D02*
G54D18*
D03*
X935434Y546100D02*
G54D18*
D03*
X186134Y571500D02*
G54D18*
D03*
X186134Y546100D02*
G54D18*
D03*
X435372Y320675D02*
G54D18*
D03*
X435372Y295275D02*
G54D18*
D03*
X686196Y320675D02*
G54D18*
D03*
X686196Y295275D02*
G54D18*
D03*
X935434Y320675D02*
G54D18*
D03*
X935434Y295275D02*
G54D18*
D03*
X186134Y320675D02*
G54D18*
D03*
X186134Y295275D02*
G54D18*
D03*
X435372Y69850D02*
G54D18*
D03*
X435372Y44450D02*
G54D18*
D03*
X686196Y69850D02*
G54D18*
D03*
X686196Y44450D02*
G54D18*
D03*
X935434Y69850D02*
G54D18*
D03*
X935434Y44450D02*
G54D18*
D03*
X186134Y69850D02*
G54D18*
D03*
X186134Y44450D02*
G54D18*
D03*
X309959Y196850D02*
G54D18*
D03*
X309959Y171450D02*
G54D18*
D03*
X560784Y196850D02*
G54D18*
D03*
X560784Y171450D02*
G54D18*
D03*
X810022Y196850D02*
G54D18*
D03*
X810022Y171450D02*
G54D18*
D03*
X60722Y196850D02*
G54D18*
D03*
X60722Y171450D02*
G54D18*
D03*
X309959Y446088D02*
G54D18*
D03*
X309959Y420688D02*
G54D18*
D03*
X560784Y446088D02*
G54D18*
D03*
X560784Y420688D02*
G54D18*
D03*
X810022Y446088D02*
G54D18*
D03*
X810022Y420688D02*
G54D18*
D03*
X60722Y446088D02*
G54D18*
D03*
X60722Y420688D02*
G54D18*
D03*
X309959Y695325D02*
G54D18*
D03*
X309959Y669925D02*
G54D18*
D03*
X560784Y695325D02*
G54D18*
D03*
X560784Y669925D02*
G54D18*
D03*
X810022Y695325D02*
G54D18*
D03*
X810022Y669925D02*
G54D18*
D03*
X60722Y695325D02*
G54D18*
D03*
X60722Y669925D02*
G54D18*
D03*
X435372Y820738D02*
G54D18*
D03*
X435372Y795338D02*
G54D18*
D03*
X686196Y820738D02*
G54D18*
D03*
X686196Y795338D02*
G54D18*
D03*
X935434Y820738D02*
G54D18*
D03*
X935434Y795338D02*
G54D18*
D03*
X186134Y820738D02*
G54D18*
D03*
X186134Y795338D02*
G54D18*
D03*
X309959Y946150D02*
G54D18*
D03*
X309959Y920750D02*
G54D18*
D03*
X560784Y946150D02*
G54D18*
D03*
X560784Y920750D02*
G54D18*
D03*
X810022Y946150D02*
G54D18*
D03*
X810022Y920750D02*
G54D18*
D03*
X60722Y946150D02*
G54D18*
D03*
X60722Y920750D02*
G54D18*
D03*
X362346Y946942D02*
G54D19*
D03*
X362346Y969167D02*
G54D19*
D03*
G54D20*
X186134Y795338D02*
X186134Y571500D01*
G54D20*
X309959Y669925D02*
X309959Y446088D01*
G54D20*
X435372Y795338D02*
X435372Y571500D01*
G54D20*
X560784Y669925D02*
X560784Y446088D01*
G54D20*
X810022Y669925D02*
X810022Y446088D01*
G54D20*
X686196Y795338D02*
X686196Y571500D01*
G54D20*
X935434Y795338D02*
X935434Y571500D01*
G54D20*
X935434Y546100D02*
X935434Y322262D01*
G54D20*
X60722Y669925D02*
X60722Y446088D01*
G54D20*
X60722Y420688D02*
X60722Y196850D01*
G54D17*
X0Y996156D02*
X998140Y996156D01*
X998140Y0D01*
X0Y0D01*
X0Y996156D01*
X811117Y808133D02*
G54D21*
D03*
X835117Y808133D02*
G54D19*
D03*
X828088Y791162D02*
G54D19*
D03*
X811117Y784133D02*
G54D19*
D03*
X794146Y791162D02*
G54D19*
D03*
X787117Y808133D02*
G54D19*
D03*
X794146Y825104D02*
G54D19*
D03*
X811117Y832133D02*
G54D19*
D03*
X828088Y825104D02*
G54D19*
D03*
X308558Y808038D02*
G54D21*
D03*
X332558Y808038D02*
G54D19*
D03*
X325529Y791068D02*
G54D19*
D03*
X308558Y784038D02*
G54D19*
D03*
X291588Y791068D02*
G54D19*
D03*
X284558Y808038D02*
G54D19*
D03*
X291588Y825009D02*
G54D19*
D03*
X308558Y832038D02*
G54D19*
D03*
X325529Y825009D02*
G54D19*
D03*
X686612Y183149D02*
G54D21*
D03*
X710612Y183149D02*
G54D19*
D03*
X703583Y166179D02*
G54D19*
D03*
X686612Y159149D02*
G54D19*
D03*
X669642Y166179D02*
G54D19*
D03*
X662612Y183149D02*
G54D19*
D03*
X669642Y200120D02*
G54D19*
D03*
X686612Y207150D02*
G54D19*
D03*
X703583Y200120D02*
G54D19*
D03*
X184054Y183054D02*
G54D21*
D03*
X208054Y183054D02*
G54D19*
D03*
X201025Y166084D02*
G54D19*
D03*
X184054Y159054D02*
G54D19*
D03*
X167084Y166084D02*
G54D19*
D03*
X160054Y183054D02*
G54D19*
D03*
X167084Y200025D02*
G54D19*
D03*
X184054Y207054D02*
G54D19*
D03*
X201025Y200025D02*
G54D19*
D03*
X383380Y946942D02*
G54D19*
D03*
X383380Y969167D02*
G54D19*
D03*
X23415Y380602D02*
G54D19*
D03*
X45640Y380602D02*
G54D19*
D03*
X23415Y359568D02*
G54D19*
D03*
X45640Y359568D02*
G54D19*
D03*
X364331Y22225D02*
G54D19*
D03*
X364331Y44450D02*
G54D19*
D03*
X385366Y22225D02*
G54D19*
D03*
X385366Y44450D02*
G54D19*
D03*
X951309Y379015D02*
G54D19*
D03*
X973534Y379015D02*
G54D19*
D03*
X951309Y357981D02*
G54D19*
D03*
X973534Y357981D02*
G54D19*
D03*
M02*
