; Drill file
; Format: 3.3 (000.000)
M48
METRIC
T01C0.4
T02C1.0
T03C2.5
%
G05
G90
T01
X032010Y005980
X030030Y025040
X028920Y025040
X027810Y025040
X026700Y025040
X027720Y029060
X029690Y032460
X028730Y033570
X030820Y033450
X034480Y033930
X036460Y037470
X028680Y036720
X033180Y025480
T02
X003650Y002800
X003650Y007300
X010150Y007300
X010150Y002800
X016510Y002800
X016510Y007300
X016560Y011850
X016560Y016350
X010710Y015810
X003110Y015810
X004900Y026210
X004900Y031410
X025320Y040020
X027860Y040020
X030400Y040020
X032940Y040020
X035480Y040020
X038020Y040020
X031830Y045900
X029290Y045900
X026750Y045900
X024210Y045900
X023060Y016350
X023060Y011850
X023010Y007300
X023010Y002800
X031750Y002030
X036750Y002030
X036750Y017030
X034250Y017030
X031750Y017030
T03
X028000Y009530
X040500Y009530
X008050Y037530
X003370Y040360
X008370Y044360
M30
