%FSLAX34Y34*%
%MOMM*%
%LNSILK_BOTTOM*%
G71*
G01*
%ADD10C,0.150*%
%ADD11C,0.111*%
%ADD12C,0.222*%
%ADD13C,0.200*%
%LPD*%
G54D10*
X271937Y917254D02*
X251937Y917254D01*
X251937Y955254D01*
X271937Y955254D01*
X271937Y917254D01*
G54D11*
X265224Y965675D02*
X263224Y964564D01*
X262557Y963453D01*
X262557Y961231D01*
G54D11*
X267890Y961231D02*
X267890Y970120D01*
X264557Y970120D01*
X263224Y969564D01*
X262557Y968453D01*
X262557Y967342D01*
X263224Y966231D01*
X264557Y965675D01*
X267890Y965675D01*
G54D11*
X254780Y968453D02*
X255446Y969564D01*
X256780Y970120D01*
X258113Y970120D01*
X259446Y969564D01*
X260113Y968453D01*
X260113Y965675D01*
X260113Y965120D01*
X258113Y966231D01*
X256780Y966231D01*
X255446Y965675D01*
X254780Y964564D01*
X254780Y962898D01*
X255446Y961786D01*
X256780Y961231D01*
X258113Y961231D01*
X259446Y961786D01*
X260113Y962898D01*
X260113Y965675D01*
G54D12*
X986234Y572578D02*
X978767Y572578D01*
G54D12*
X982501Y575690D02*
X982501Y569467D01*
G54D12*
X974411Y574912D02*
X969744Y579578D01*
X969744Y567134D01*
G54D12*
X957921Y567134D02*
X965388Y567134D01*
X965388Y567912D01*
X964455Y569467D01*
X958855Y574134D01*
X957921Y575690D01*
X957921Y577245D01*
X958855Y578801D01*
X960721Y579578D01*
X962588Y579578D01*
X964455Y578801D01*
X965388Y577245D01*
G54D12*
X953565Y574134D02*
X949832Y567134D01*
X946098Y574134D01*
G54D12*
X705246Y977788D02*
X697780Y977788D01*
G54D12*
X701513Y980899D02*
X701513Y974677D01*
G54D12*
X693423Y980121D02*
X688757Y984788D01*
X688757Y972343D01*
G54D12*
X676934Y972343D02*
X684400Y972343D01*
X684400Y973121D01*
X683467Y974677D01*
X677867Y979343D01*
X676934Y980899D01*
X676934Y982454D01*
X677867Y984010D01*
X679734Y984788D01*
X681600Y984788D01*
X683467Y984010D01*
X684400Y982454D01*
G54D12*
X672577Y979343D02*
X668844Y972343D01*
X665111Y979343D01*
G54D12*
X51196Y572182D02*
X43730Y572182D01*
G54D12*
X47463Y575293D02*
X47463Y569070D01*
G54D12*
X39373Y574515D02*
X34707Y579182D01*
X34707Y566737D01*
G54D12*
X22884Y566737D02*
X30350Y566737D01*
X30350Y567515D01*
X29417Y569070D01*
X23817Y573737D01*
X22884Y575293D01*
X22884Y576848D01*
X23817Y578404D01*
X25684Y579182D01*
X27550Y579182D01*
X29417Y578404D01*
X30350Y576848D01*
G54D12*
X18527Y573737D02*
X14794Y566737D01*
X11061Y573737D01*
G54D12*
X706834Y17350D02*
X699367Y17350D01*
G54D12*
X703101Y20461D02*
X703101Y14239D01*
G54D12*
X695011Y19684D02*
X690344Y24350D01*
X690344Y11906D01*
G54D12*
X678521Y11906D02*
X685988Y11906D01*
X685988Y12684D01*
X685055Y14239D01*
X679455Y18906D01*
X678521Y20461D01*
X678521Y22017D01*
X679455Y23573D01*
X681321Y24350D01*
X683188Y24350D01*
X685055Y23573D01*
X685988Y22017D01*
G54D12*
X674165Y18906D02*
X670432Y11906D01*
X666698Y18906D01*
G54D12*
X439972Y18128D02*
X436239Y18128D01*
X436239Y14239D01*
X437172Y12684D01*
X439039Y11906D01*
X440906Y11906D01*
X442772Y12684D01*
X443706Y14239D01*
X443706Y22017D01*
X442772Y23573D01*
X440906Y24350D01*
X439039Y24350D01*
X437172Y23573D01*
X436239Y22017D01*
G54D12*
X431883Y11906D02*
X431883Y24350D01*
X424416Y11906D01*
X424416Y24350D01*
G54D12*
X420060Y11906D02*
X420060Y24350D01*
X415393Y24350D01*
X413526Y23573D01*
X412593Y22017D01*
X412593Y14239D01*
X413526Y12684D01*
X415393Y11906D01*
X420060Y11906D01*
G54D12*
X38335Y417781D02*
X34602Y417781D01*
X34602Y413892D01*
X35535Y412337D01*
X37402Y411559D01*
X39268Y411559D01*
X41135Y412337D01*
X42068Y413892D01*
X42068Y421670D01*
X41135Y423226D01*
X39268Y424003D01*
X37402Y424003D01*
X35535Y423226D01*
X34602Y421670D01*
G54D12*
X30245Y411559D02*
X30245Y424003D01*
X22779Y411559D01*
X22779Y424003D01*
G54D12*
X18422Y411559D02*
X18422Y424003D01*
X13756Y424003D01*
X11889Y423226D01*
X10956Y421670D01*
X10956Y413892D01*
X11889Y412337D01*
X13756Y411559D01*
X18422Y411559D01*
G54D12*
X441560Y977375D02*
X437827Y977375D01*
X437827Y973486D01*
X438760Y971931D01*
X440627Y971153D01*
X442493Y971153D01*
X444360Y971931D01*
X445293Y973486D01*
X445293Y981264D01*
X444360Y982819D01*
X442493Y983597D01*
X440627Y983597D01*
X438760Y982819D01*
X437827Y981264D01*
G54D12*
X433470Y971153D02*
X433470Y983597D01*
X426004Y971153D01*
X426004Y983597D01*
G54D12*
X421647Y971153D02*
X421647Y983597D01*
X416981Y983597D01*
X415114Y982819D01*
X414181Y981264D01*
X414181Y973486D01*
X415114Y971931D01*
X416981Y971153D01*
X421647Y971153D01*
G54D12*
X980119Y418972D02*
X976386Y418972D01*
X976386Y415083D01*
X977319Y413527D01*
X979186Y412750D01*
X981053Y412750D01*
X982919Y413527D01*
X983853Y415083D01*
X983853Y422861D01*
X982919Y424416D01*
X981053Y425194D01*
X979186Y425194D01*
X977319Y424416D01*
X976386Y422861D01*
G54D12*
X972030Y412750D02*
X972030Y425194D01*
X964563Y412750D01*
X964563Y425194D01*
G54D12*
X960207Y412750D02*
X960207Y425194D01*
X955540Y425194D01*
X953673Y424416D01*
X952740Y422861D01*
X952740Y415083D01*
X953673Y413527D01*
X955540Y412750D01*
X960207Y412750D01*
G54D13*
X592534Y996156D02*
X654446Y996156D01*
X654446Y922734D01*
X592534Y922734D01*
X592534Y996156D01*
G54D13*
X342106Y996156D02*
X404018Y996156D01*
X404018Y922734D01*
X342106Y922734D01*
X342106Y996156D01*
G54D13*
X340915Y73818D02*
X402828Y73818D01*
X402828Y396D01*
X340915Y396D01*
X340915Y73818D01*
G54D13*
X594121Y73818D02*
X656034Y73818D01*
X656034Y396D01*
X594121Y396D01*
X594121Y73818D01*
G54D13*
X997346Y401637D02*
X997346Y339725D01*
X923925Y339725D01*
X923925Y401637D01*
X997346Y401637D01*
G54D13*
X997346Y652066D02*
X997346Y590153D01*
X923925Y590153D01*
X923925Y652066D01*
X997346Y652066D01*
G54D13*
X73422Y400447D02*
X73422Y338534D01*
X0Y338534D01*
X0Y400447D01*
X73422Y400447D01*
G54D13*
X73422Y650875D02*
X73422Y588962D01*
X0Y588962D01*
X0Y650875D01*
X73422Y650875D01*
G54D10*
X522762Y917254D02*
X502762Y917254D01*
X502762Y955254D01*
X522762Y955254D01*
X522762Y917254D01*
G54D11*
X516048Y965675D02*
X514048Y964564D01*
X513382Y963453D01*
X513382Y961231D01*
G54D11*
X518715Y961231D02*
X518715Y970120D01*
X515382Y970120D01*
X514048Y969564D01*
X513382Y968453D01*
X513382Y967342D01*
X514048Y966231D01*
X515382Y965675D01*
X518715Y965675D01*
G54D11*
X506938Y961231D02*
X506938Y970120D01*
X510938Y964564D01*
X510938Y963453D01*
X505605Y963453D01*
G54D10*
X772000Y917254D02*
X752000Y917254D01*
X752000Y955254D01*
X772000Y955254D01*
X772000Y917254D01*
G54D11*
X765286Y965675D02*
X763286Y964564D01*
X762619Y963453D01*
X762619Y961231D01*
G54D11*
X767953Y961231D02*
X767953Y970120D01*
X764619Y970120D01*
X763286Y969564D01*
X762619Y968453D01*
X762619Y967342D01*
X763286Y966231D01*
X764619Y965675D01*
X767953Y965675D01*
G54D11*
X754842Y961231D02*
X760176Y961231D01*
X760176Y961786D01*
X759509Y962898D01*
X755509Y966231D01*
X754842Y967342D01*
X754842Y968453D01*
X755509Y969564D01*
X756842Y970120D01*
X758176Y970120D01*
X759509Y969564D01*
X760176Y968453D01*
G54D10*
X897412Y791841D02*
X877412Y791841D01*
X877412Y829841D01*
X897412Y829841D01*
X897412Y791841D01*
G54D11*
X890698Y840263D02*
X888698Y839152D01*
X888032Y838041D01*
X888032Y835818D01*
G54D11*
X893365Y835818D02*
X893365Y844707D01*
X890032Y844707D01*
X888698Y844152D01*
X888032Y843041D01*
X888032Y841929D01*
X888698Y840818D01*
X890032Y840263D01*
X893365Y840263D01*
G54D11*
X885588Y841374D02*
X882255Y844707D01*
X882255Y835818D01*
G54D10*
X148112Y791841D02*
X128112Y791841D01*
X128112Y829841D01*
X148112Y829841D01*
X148112Y791841D01*
G54D11*
X141398Y840263D02*
X139398Y839152D01*
X138732Y838041D01*
X138732Y835818D01*
G54D11*
X144065Y835818D02*
X144065Y844707D01*
X140732Y844707D01*
X139398Y844152D01*
X138732Y843041D01*
X138732Y841929D01*
X139398Y840818D01*
X140732Y840263D01*
X144065Y840263D01*
G54D11*
X136288Y844707D02*
X130955Y844707D01*
X131621Y843596D01*
X132955Y841929D01*
X134288Y839707D01*
X134955Y838041D01*
X134955Y835818D01*
G54D10*
X98743Y917254D02*
X118743Y917254D01*
X118743Y955254D01*
X98743Y955254D01*
X98743Y917254D01*
G54D11*
X112228Y965675D02*
X110228Y964564D01*
X109561Y963453D01*
X109561Y961231D01*
G54D11*
X114895Y961231D02*
X114895Y970120D01*
X111561Y970120D01*
X110228Y969564D01*
X109561Y968453D01*
X109561Y967342D01*
X110228Y966231D01*
X111561Y965675D01*
X114895Y965675D01*
G54D11*
X103784Y965675D02*
X105118Y965675D01*
X106451Y966231D01*
X107118Y967342D01*
X107118Y968453D01*
X106451Y969564D01*
X105118Y970120D01*
X103784Y970120D01*
X102451Y969564D01*
X101784Y968453D01*
X101784Y967342D01*
X102451Y966231D01*
X103784Y965675D01*
X102451Y965120D01*
X101784Y964009D01*
X101784Y962898D01*
X102451Y961786D01*
X103784Y961231D01*
X105118Y961231D01*
X106451Y961786D01*
X107118Y962898D01*
X107118Y964009D01*
X106451Y965120D01*
X105118Y965675D01*
G54D10*
X473393Y791841D02*
X493393Y791841D01*
X493393Y829841D01*
X473393Y829841D01*
X473393Y791841D01*
G54D11*
X486878Y840263D02*
X484878Y839152D01*
X484211Y838041D01*
X484211Y835818D01*
G54D11*
X489545Y835818D02*
X489545Y844707D01*
X486211Y844707D01*
X484878Y844152D01*
X484211Y843041D01*
X484211Y841929D01*
X484878Y840818D01*
X486211Y840263D01*
X489545Y840263D01*
G54D11*
X476434Y844707D02*
X481768Y844707D01*
X481768Y840818D01*
X481101Y840818D01*
X479768Y841374D01*
X478434Y841374D01*
X477101Y840818D01*
X476434Y839707D01*
X476434Y837485D01*
X477101Y836374D01*
X478434Y835818D01*
X479768Y835818D01*
X481101Y836374D01*
X481768Y837485D01*
G54D10*
X724218Y791841D02*
X744218Y791841D01*
X744218Y829841D01*
X724218Y829841D01*
X724218Y791841D01*
G54D11*
X737703Y840263D02*
X735703Y839152D01*
X735036Y838041D01*
X735036Y835818D01*
G54D11*
X740370Y835818D02*
X740370Y844707D01*
X737036Y844707D01*
X735703Y844152D01*
X735036Y843041D01*
X735036Y841929D01*
X735703Y840818D01*
X737036Y840263D01*
X740370Y840263D01*
G54D11*
X732593Y843041D02*
X731926Y844152D01*
X730593Y844707D01*
X729259Y844707D01*
X727926Y844152D01*
X727259Y843041D01*
X727259Y841929D01*
X727926Y840818D01*
X729259Y840263D01*
X727926Y839707D01*
X727259Y838596D01*
X727259Y837485D01*
X727926Y836374D01*
X729259Y835818D01*
X730593Y835818D01*
X731926Y836374D01*
X732593Y837485D01*
M02*
