%FSLAX34Y34*%
%MOMM*%
%LNSILK_BOTTOM*%
G71*
G01*
%ADD10C,0.111*%
%ADD11C,0.150*%
%ADD12C,0.200*%
%ADD13C,0.100*%
%ADD14C,0.159*%
%LPD*%
G54D10*
X385650Y59467D02*
X388983Y62801D01*
X380094Y62801D01*
G54D10*
X387316Y70578D02*
X381760Y70578D01*
X380650Y69911D01*
X380094Y68578D01*
X380094Y67244D01*
X380650Y65911D01*
X381760Y65244D01*
X387316Y65244D01*
X388427Y65911D01*
X388983Y67244D01*
X388983Y68578D01*
X388427Y69911D01*
X387316Y70578D01*
G54D10*
X380094Y73021D02*
X388983Y73021D01*
G54D10*
X383427Y75021D02*
X380094Y77021D01*
G54D10*
X382316Y73021D02*
X385094Y77021D01*
G54D10*
X340802Y60656D02*
X344136Y63990D01*
X335246Y63990D01*
G54D10*
X342469Y71767D02*
X336913Y71767D01*
X335802Y71100D01*
X335246Y69767D01*
X335246Y68434D01*
X335802Y67100D01*
X336913Y66434D01*
X342469Y66434D01*
X343580Y67100D01*
X344136Y68434D01*
X344136Y69767D01*
X343580Y71100D01*
X342469Y71767D01*
G54D10*
X335246Y74210D02*
X344136Y74210D01*
G54D10*
X338580Y76210D02*
X335246Y78210D01*
G54D10*
X337469Y74210D02*
X340246Y78210D01*
G54D10*
X387035Y126294D02*
X381480Y126294D01*
X380368Y125627D01*
X379813Y124294D01*
X379813Y122960D01*
X380368Y121627D01*
X381480Y120960D01*
X387035Y120960D01*
X388146Y121627D01*
X388702Y122960D01*
X388702Y124294D01*
X388146Y125627D01*
X387035Y126294D01*
G54D10*
X379813Y128737D02*
X379813Y128737D01*
G54D10*
X385368Y131181D02*
X388702Y134514D01*
X379813Y134514D01*
G54D10*
X384813Y140958D02*
X379813Y140958D01*
G54D10*
X380924Y140958D02*
X380035Y140292D01*
X379813Y138958D01*
X380035Y137625D01*
X380924Y136958D01*
X384813Y136958D01*
G54D10*
X344572Y125896D02*
X339016Y125896D01*
X337906Y125230D01*
X337350Y123896D01*
X337350Y122563D01*
X337906Y121230D01*
X339016Y120563D01*
X344572Y120563D01*
X345683Y121230D01*
X346239Y122563D01*
X346239Y123896D01*
X345683Y125230D01*
X344572Y125896D01*
G54D10*
X337350Y128340D02*
X337350Y128340D01*
G54D10*
X342906Y130784D02*
X346239Y134117D01*
X337350Y134117D01*
G54D10*
X342350Y140561D02*
X337350Y140561D01*
G54D10*
X338461Y140561D02*
X337572Y139894D01*
X337350Y138561D01*
X337572Y137228D01*
X338461Y136561D01*
X342350Y136561D01*
G54D11*
X355702Y49906D02*
X375702Y49906D01*
X375702Y87906D01*
X355702Y87906D01*
X355702Y49906D01*
G54D11*
X310061Y50303D02*
X330061Y50303D01*
X330061Y88303D01*
X310061Y88303D01*
X310061Y50303D01*
G54D12*
X309855Y110628D02*
X331855Y110628D01*
X331855Y148628D01*
X309855Y148628D01*
X309855Y110628D01*
G54D13*
X320161Y125931D02*
X320161Y128772D01*
X325161Y128772D01*
X315161Y128772D01*
G54D13*
X325161Y130772D02*
X315161Y130772D01*
G54D13*
X320161Y130772D02*
X320161Y133216D01*
G54D12*
X352718Y110628D02*
X374718Y110628D01*
X374718Y148628D01*
X352718Y148628D01*
X352718Y110628D01*
G54D13*
X363024Y125931D02*
X363024Y128772D01*
X368024Y128772D01*
X358024Y128772D01*
G54D13*
X368024Y130772D02*
X358024Y130772D01*
G54D13*
X363024Y130772D02*
X363024Y133216D01*
G54D12*
X240479Y406563D02*
X240479Y393863D01*
X246830Y387513D01*
X259530Y387513D01*
X265880Y393863D01*
X272230Y387513D01*
X284930Y387513D01*
X291280Y393863D01*
X291280Y406563D01*
X284930Y412913D01*
X272230Y412913D01*
X265880Y406563D01*
X259530Y412913D01*
X246830Y412913D01*
X240479Y406563D01*
G54D12*
X265880Y393863D02*
X265880Y406563D01*
G54D12*
X291280Y406563D02*
X297630Y412913D01*
X310330Y412913D01*
X316680Y406563D01*
X323030Y412913D01*
X335730Y412913D01*
X342080Y406563D01*
X348430Y412913D01*
X361130Y412913D01*
X367480Y406563D01*
X373830Y412913D01*
X386530Y412913D01*
X392880Y406563D01*
X392880Y393863D01*
X386530Y387513D01*
X373830Y387513D01*
X367480Y393863D01*
X367480Y406563D01*
G54D12*
X367480Y393863D02*
X361130Y387513D01*
X348430Y387513D01*
X342080Y393863D01*
X342080Y406563D01*
G54D12*
X342080Y393863D02*
X335730Y387513D01*
X323030Y387513D01*
X316680Y393863D01*
X316680Y406563D01*
G54D12*
X316680Y394260D02*
X310330Y387910D01*
X297630Y387910D01*
X291280Y394260D01*
G54D12*
X247464Y345279D02*
X247464Y275175D01*
X317568Y275175D01*
X317568Y341723D01*
X314012Y345279D01*
X247464Y345279D01*
G54D12*
X309364Y334128D02*
X309948Y334078D01*
X310533Y334128D01*
X311117Y334281D01*
X311650Y334509D01*
X312158Y334840D01*
X312590Y335246D01*
X312946Y335703D01*
X313225Y336211D01*
X313428Y336770D01*
X313530Y337354D01*
X313530Y337964D01*
X313428Y338548D01*
X313225Y339107D01*
X312946Y339615D01*
X312590Y340072D01*
X312158Y340478D01*
X311650Y340809D01*
X311117Y341037D01*
X310533Y341190D01*
X309948Y341240D01*
X309364Y341190D01*
X308780Y341037D01*
X308247Y340809D01*
X307739Y340478D01*
X307307Y340072D01*
X306951Y339615D01*
X306672Y339107D01*
X306469Y338548D01*
X306367Y337964D01*
X306367Y337354D01*
X306469Y336770D01*
X306672Y336211D01*
X306951Y335703D01*
X307307Y335246D01*
X307739Y334840D01*
X308247Y334509D01*
X308780Y334281D01*
X309364Y334128D01*
G54D14*
X250594Y420061D02*
X250594Y428950D01*
X245927Y428950D01*
G54D14*
X250594Y424506D02*
X245927Y424506D01*
G54D14*
X240149Y420061D02*
X240149Y428950D01*
G54D14*
X242816Y428950D02*
X237482Y428950D01*
G54D14*
X234372Y420061D02*
X234372Y428950D01*
X231038Y428950D01*
X229705Y428395D01*
X229038Y427283D01*
X229038Y421728D01*
X229705Y420617D01*
X231038Y420061D01*
X234372Y420061D01*
G54D14*
X225928Y420061D02*
X225928Y428950D01*
G54D12*
X353572Y365512D02*
X353572Y343512D01*
X391572Y343512D01*
X391572Y365512D01*
X353572Y365512D01*
G54D13*
X368875Y355205D02*
X371716Y355205D01*
X371716Y350205D01*
X371716Y360205D01*
G54D13*
X373716Y350205D02*
X373716Y360205D01*
G54D13*
X373716Y355205D02*
X376160Y355205D01*
G54D10*
X311246Y367257D02*
X307913Y376146D01*
X304580Y367257D01*
G54D10*
X309913Y370590D02*
X305913Y370590D01*
G54D10*
X299469Y367257D02*
X299469Y376146D01*
G54D10*
X302136Y376146D02*
X296802Y376146D01*
G54D10*
X294358Y367257D02*
X294358Y372257D01*
G54D10*
X294358Y371368D02*
X293025Y372257D01*
X291692Y371924D01*
X291025Y371146D01*
X291025Y367257D01*
G54D10*
X291025Y371368D02*
X289692Y372257D01*
X288358Y371924D01*
X287692Y371146D01*
X287692Y367257D01*
G54D10*
X281248Y367813D02*
X282314Y367257D01*
X283648Y367257D01*
X284981Y367813D01*
X285248Y368924D01*
X285248Y370813D01*
X284581Y371924D01*
X283248Y372257D01*
X281914Y371924D01*
X281248Y371146D01*
X281248Y370035D01*
X285248Y370035D01*
G54D10*
X278804Y365590D02*
X277470Y365035D01*
X276537Y365035D01*
X275204Y365590D01*
X274804Y366702D01*
X274804Y372257D01*
G54D10*
X274804Y370813D02*
X275470Y371924D01*
X276804Y372257D01*
X278137Y371924D01*
X278804Y370813D01*
X278804Y368590D01*
X278137Y367480D01*
X276804Y367257D01*
X275470Y367480D01*
X274804Y368590D01*
G54D10*
X272360Y371702D02*
X271026Y372257D01*
X269426Y372257D01*
X268360Y371146D01*
X268360Y367257D01*
G54D10*
X268360Y368924D02*
X269026Y370035D01*
X270360Y370257D01*
X271693Y370035D01*
X272360Y368924D01*
X272093Y367813D01*
X271026Y367257D01*
X270360Y367257D01*
X270093Y367257D01*
X269026Y367813D01*
X268360Y368924D01*
G54D10*
X265916Y374480D02*
X265249Y375590D01*
X263916Y376146D01*
X262582Y376146D01*
X261249Y375590D01*
X260582Y374480D01*
X260582Y373368D01*
X261249Y372257D01*
X262582Y371702D01*
X261249Y371146D01*
X260582Y370035D01*
X260582Y368924D01*
X261249Y367813D01*
X262582Y367257D01*
X263916Y367257D01*
X265249Y367813D01*
X265916Y368924D01*
G54D10*
X252805Y367257D02*
X258138Y367257D01*
X258138Y367813D01*
X257472Y368924D01*
X253472Y372257D01*
X252805Y373368D01*
X252805Y374480D01*
X253472Y375590D01*
X254805Y376146D01*
X256138Y376146D01*
X257472Y375590D01*
X258138Y374480D01*
G54D10*
X247028Y371702D02*
X248362Y371702D01*
X249695Y372257D01*
X250362Y373368D01*
X250362Y374480D01*
X249695Y375590D01*
X248362Y376146D01*
X247028Y376146D01*
X245695Y375590D01*
X245028Y374480D01*
X245028Y373368D01*
X245695Y372257D01*
X247028Y371702D01*
X245695Y371146D01*
X245028Y370035D01*
X245028Y368924D01*
X245695Y367813D01*
X247028Y367257D01*
X248362Y367257D01*
X249695Y367813D01*
X250362Y368924D01*
X250362Y370035D01*
X249695Y371146D01*
X248362Y371702D01*
G54D12*
X355796Y280979D02*
X378846Y280979D01*
G54D12*
X356192Y316301D02*
X379243Y316301D01*
G54D10*
X386373Y268528D02*
X383040Y271861D01*
X383040Y262972D01*
G54D10*
X375262Y270194D02*
X375929Y271305D01*
X377262Y271861D01*
X378596Y271861D01*
X379929Y271305D01*
X380596Y270194D01*
X380596Y267416D01*
X380596Y266861D01*
X378596Y267972D01*
X377262Y267972D01*
X375929Y267416D01*
X375262Y266305D01*
X375262Y264639D01*
X375929Y263528D01*
X377262Y262972D01*
X378596Y262972D01*
X379929Y263528D01*
X380596Y264639D01*
X380596Y267416D01*
G54D10*
X372819Y262972D02*
X372819Y271861D01*
X369486Y266305D01*
X366152Y271861D01*
X366152Y262972D01*
G54D10*
X363708Y262972D02*
X363708Y271861D01*
G54D10*
X358374Y262972D02*
X358374Y271861D01*
G54D10*
X363708Y267416D02*
X358374Y267416D01*
G54D10*
X355931Y267972D02*
X351931Y267972D01*
X355931Y262972D01*
X351931Y262972D01*
G54D10*
X412722Y358076D02*
X412722Y352520D01*
X413389Y351409D01*
X414722Y350854D01*
X416055Y350854D01*
X417389Y351409D01*
X418055Y352520D01*
X418055Y358076D01*
X417389Y359187D01*
X416055Y359742D01*
X414722Y359742D01*
X413389Y359187D01*
X412722Y358076D01*
G54D10*
X410278Y350854D02*
X410278Y350854D01*
G54D10*
X407834Y356409D02*
X404501Y359742D01*
X404501Y350854D01*
G54D10*
X398057Y355854D02*
X398057Y350854D01*
G54D10*
X398057Y351964D02*
X398724Y351076D01*
X400057Y350854D01*
X401391Y351076D01*
X402057Y351964D01*
X402057Y355854D01*
G54D10*
X366044Y450181D02*
X362711Y453514D01*
X362711Y444625D01*
G54D10*
X354934Y451847D02*
X354934Y446292D01*
X355600Y445181D01*
X356934Y444625D01*
X358268Y444625D01*
X359600Y445181D01*
X360268Y446292D01*
X360268Y451847D01*
X359600Y452958D01*
X358268Y453514D01*
X356934Y453514D01*
X355600Y452958D01*
X354934Y451847D01*
G54D10*
X352490Y444625D02*
X352490Y453514D01*
G54D10*
X350490Y447958D02*
X348490Y444625D01*
G54D10*
X352490Y446847D02*
X348490Y449625D01*
G54D10*
X408056Y247953D02*
X406944Y249953D01*
X405833Y250620D01*
X403611Y250620D01*
G54D10*
X403611Y245287D02*
X412500Y245287D01*
X412500Y248620D01*
X411944Y249953D01*
X410833Y250620D01*
X409722Y250620D01*
X408611Y249953D01*
X408056Y248620D01*
X408056Y245287D01*
G54D10*
X404166Y257064D02*
X403611Y255997D01*
X403611Y254664D01*
X404166Y253330D01*
X405278Y253064D01*
X407166Y253064D01*
X408278Y253730D01*
X408611Y255064D01*
X408278Y256397D01*
X407500Y257064D01*
X406389Y257064D01*
X406389Y253064D01*
G54D10*
X404166Y259508D02*
X403611Y260841D01*
X403611Y262174D01*
X404166Y263508D01*
X405278Y263508D01*
X405833Y262841D01*
X406389Y260174D01*
X406944Y259508D01*
X408056Y259508D01*
X408611Y260841D01*
X408611Y262174D01*
X408056Y263508D01*
G54D10*
X404166Y269952D02*
X403611Y268885D01*
X403611Y267552D01*
X404166Y266218D01*
X405278Y265952D01*
X407166Y265952D01*
X408278Y266618D01*
X408611Y267952D01*
X408278Y269285D01*
X407500Y269952D01*
X406389Y269952D01*
X406389Y265952D01*
G54D10*
X412500Y273729D02*
X404166Y273729D01*
X403611Y274396D01*
X403833Y275062D01*
G54D10*
X408611Y272396D02*
X408611Y275062D01*
G54D11*
X376069Y420687D02*
X376069Y440687D01*
X338069Y440687D01*
X338069Y420687D01*
X376069Y420687D01*
G54D12*
X194808Y336779D02*
X216808Y336779D01*
X216808Y374779D01*
X194808Y374779D01*
X194808Y336779D01*
G54D13*
X205114Y352082D02*
X205114Y354923D01*
X210114Y354923D01*
X200114Y354923D01*
G54D13*
X210114Y356923D02*
X200114Y356923D01*
G54D13*
X205114Y356923D02*
X205114Y359367D01*
G54D10*
X211273Y389277D02*
X211273Y383722D01*
X211940Y382610D01*
X213273Y382055D01*
X214606Y382055D01*
X215940Y382610D01*
X216606Y383722D01*
X216606Y389277D01*
X215940Y390388D01*
X214606Y390944D01*
X213273Y390944D01*
X211940Y390388D01*
X211273Y389277D01*
G54D10*
X208830Y382055D02*
X208830Y382055D01*
G54D10*
X206386Y387610D02*
X203052Y390944D01*
X203052Y382055D01*
G54D10*
X196608Y387055D02*
X196608Y382055D01*
G54D10*
X196608Y383166D02*
X197275Y382277D01*
X198608Y382055D01*
X199942Y382277D01*
X200608Y383166D01*
X200608Y387055D01*
G54D10*
X104172Y215978D02*
X104172Y224867D01*
G54D10*
X99061Y220422D02*
X97061Y219311D01*
X96394Y218200D01*
X96394Y215978D01*
G54D10*
X101728Y215978D02*
X101728Y224867D01*
X98394Y224867D01*
X97061Y224311D01*
X96394Y223200D01*
X96394Y222089D01*
X97061Y220978D01*
X98394Y220422D01*
X101728Y220422D01*
G54D10*
X93950Y215978D02*
X93950Y224867D01*
X89284Y224867D01*
G54D10*
X93950Y220422D02*
X89284Y220422D01*
G54D10*
X81506Y224867D02*
X86840Y224867D01*
X86840Y220978D01*
X86173Y220978D01*
X84840Y221534D01*
X83506Y221534D01*
X82173Y220978D01*
X81506Y219867D01*
X81506Y217645D01*
X82173Y216534D01*
X83506Y215978D01*
X84840Y215978D01*
X86173Y216534D01*
X86840Y217645D01*
G54D10*
X79062Y223200D02*
X78396Y224311D01*
X77062Y224867D01*
X75729Y224867D01*
X74396Y224311D01*
X73729Y223200D01*
X73729Y222089D01*
X74396Y220978D01*
X75729Y220422D01*
X74396Y219867D01*
X73729Y218756D01*
X73729Y217645D01*
X74396Y216534D01*
X75729Y215978D01*
X77062Y215978D01*
X78396Y216534D01*
X79062Y217645D01*
G54D10*
X65952Y223200D02*
X65952Y217645D01*
X66619Y216534D01*
X67952Y215978D01*
X69286Y215978D01*
X70619Y216534D01*
X71286Y217645D01*
X71286Y223200D01*
X70619Y224311D01*
X69286Y224867D01*
X67952Y224867D01*
X66619Y224311D01*
X65952Y223200D01*
G54D10*
X63508Y215978D02*
X63508Y224867D01*
X58175Y215978D01*
X58175Y224867D01*
G54D10*
X286792Y229326D02*
X283458Y232659D01*
X283458Y223770D01*
G54D10*
X275681Y230992D02*
X275681Y225437D01*
X276348Y224326D01*
X277681Y223770D01*
X279014Y223770D01*
X280348Y224326D01*
X281014Y225437D01*
X281014Y230992D01*
X280348Y232103D01*
X279014Y232659D01*
X277681Y232659D01*
X276348Y232103D01*
X275681Y230992D01*
G54D10*
X267904Y230992D02*
X267904Y225437D01*
X268571Y224326D01*
X269904Y223770D01*
X271238Y223770D01*
X272571Y224326D01*
X273238Y225437D01*
X273238Y230992D01*
X272571Y232103D01*
X271238Y232659D01*
X269904Y232659D01*
X268571Y232103D01*
X267904Y230992D01*
G54D10*
X262794Y228214D02*
X260794Y227103D01*
X260127Y225992D01*
X260127Y223770D01*
G54D10*
X265460Y223770D02*
X265460Y232659D01*
X262127Y232659D01*
X260794Y232103D01*
X260127Y230992D01*
X260127Y229881D01*
X260794Y228770D01*
X262127Y228214D01*
X265460Y228214D01*
G54D10*
X275676Y149288D02*
X281010Y149288D01*
X281010Y149844D01*
X280344Y150955D01*
X276344Y154288D01*
X275676Y155399D01*
X275676Y156510D01*
X276344Y157621D01*
X277676Y158177D01*
X279010Y158177D01*
X280344Y157621D01*
X281010Y156510D01*
G54D10*
X267900Y149288D02*
X273233Y149288D01*
X273233Y149844D01*
X272566Y150955D01*
X268566Y154288D01*
X267900Y155399D01*
X267900Y156510D01*
X268566Y157621D01*
X269900Y158177D01*
X271233Y158177D01*
X272566Y157621D01*
X273233Y156510D01*
G54D10*
X265456Y149288D02*
X265456Y158177D01*
G54D10*
X263456Y152621D02*
X261456Y149288D01*
G54D10*
X265456Y151510D02*
X261456Y154288D01*
G54D10*
X124296Y279258D02*
X124296Y273703D01*
X124963Y272592D01*
X126296Y272036D01*
X127630Y272036D01*
X128963Y272592D01*
X129630Y273703D01*
X129630Y279258D01*
X128963Y280370D01*
X127630Y280925D01*
X126296Y280925D01*
X124963Y280370D01*
X124296Y279258D01*
G54D10*
X121852Y272036D02*
X121852Y272036D01*
G54D10*
X119408Y279258D02*
X118742Y280370D01*
X117408Y280925D01*
X116075Y280925D01*
X114742Y280370D01*
X114075Y279258D01*
X114075Y278148D01*
X114742Y277036D01*
X116075Y276480D01*
X114742Y275925D01*
X114075Y274814D01*
X114075Y273703D01*
X114742Y272592D01*
X116075Y272036D01*
X117408Y272036D01*
X118742Y272592D01*
X119408Y273703D01*
G54D10*
X111632Y279258D02*
X110965Y280370D01*
X109632Y280925D01*
X108298Y280925D01*
X106965Y280370D01*
X106298Y279258D01*
X106298Y278148D01*
X106965Y277036D01*
X108298Y276480D01*
X106965Y275925D01*
X106298Y274814D01*
X106298Y273703D01*
X106965Y272592D01*
X108298Y272036D01*
X109632Y272036D01*
X110965Y272592D01*
X111632Y273703D01*
G54D10*
X99854Y277036D02*
X99854Y272036D01*
G54D10*
X99854Y273148D02*
X100521Y272258D01*
X101854Y272036D01*
X103188Y272258D01*
X103854Y273148D01*
X103854Y277036D01*
G54D10*
X162470Y278592D02*
X162470Y273036D01*
X163136Y271925D01*
X164470Y271370D01*
X165803Y271370D01*
X167136Y271925D01*
X167803Y273036D01*
X167803Y278592D01*
X167136Y279703D01*
X165803Y280258D01*
X164470Y280258D01*
X163136Y279703D01*
X162470Y278592D01*
G54D10*
X160026Y271370D02*
X160026Y271370D01*
G54D10*
X157582Y276925D02*
X154248Y280258D01*
X154248Y271370D01*
G54D10*
X147805Y276370D02*
X147805Y271370D01*
G54D10*
X147805Y272481D02*
X148472Y271592D01*
X149805Y271370D01*
X151138Y271592D01*
X151805Y272481D01*
X151805Y276370D01*
G54D11*
X252878Y197924D02*
X252878Y217924D01*
X290878Y217924D01*
X290878Y197924D01*
X252878Y197924D01*
G54D12*
X129336Y327861D02*
X107336Y327861D01*
X107336Y289861D01*
X129336Y289861D01*
X129336Y327861D01*
G54D13*
X119030Y312558D02*
X119030Y309717D01*
X114030Y309717D01*
X124030Y309717D01*
G54D13*
X114030Y307717D02*
X124030Y307717D01*
G54D13*
X119030Y307717D02*
X119030Y305273D01*
G54D12*
X146428Y327860D02*
X168428Y327860D01*
X168428Y289860D01*
X146428Y289860D01*
X146428Y327860D01*
G54D13*
X156734Y312557D02*
X156734Y309716D01*
X161734Y309716D01*
X151734Y309716D01*
G54D13*
X161734Y307716D02*
X151734Y307716D01*
G54D13*
X156734Y307716D02*
X156734Y305273D01*
G54D12*
X190764Y255987D02*
X190764Y188487D01*
X128264Y188487D01*
X128264Y255987D01*
G54D12*
X190764Y255987D02*
X128264Y255987D01*
G54D12*
X191164Y227287D02*
X198664Y227287D01*
X198664Y217287D01*
X191164Y217287D01*
G54D11*
X252879Y162206D02*
X252879Y182206D01*
X290879Y182206D01*
X290879Y162206D01*
X252879Y162206D01*
G54D10*
X212101Y267340D02*
X206768Y267340D01*
G54D10*
X209434Y269562D02*
X209434Y265118D01*
G54D10*
X198990Y272340D02*
X204324Y272340D01*
X204324Y268451D01*
X203658Y268451D01*
X202324Y269007D01*
X200990Y269007D01*
X199658Y268451D01*
X198990Y267340D01*
X198990Y265118D01*
X199658Y264007D01*
X200990Y263451D01*
X202324Y263451D01*
X203658Y264007D01*
X204324Y265118D01*
G54D10*
X196547Y268451D02*
X193880Y263451D01*
X191214Y268451D01*
G54D12*
X159241Y359976D02*
X159241Y384576D01*
X114741Y384576D01*
X114741Y359976D01*
X159241Y359976D01*
G54D10*
X167486Y417933D02*
X167486Y409044D01*
X162820Y409044D01*
G54D10*
X160376Y417933D02*
X155042Y417933D01*
X155709Y416822D01*
X157042Y415155D01*
X158376Y412933D01*
X159042Y411266D01*
X159042Y409044D01*
G54D10*
X149265Y413488D02*
X150598Y413488D01*
X151932Y414044D01*
X152598Y415155D01*
X152598Y416266D01*
X151932Y417378D01*
X150598Y417933D01*
X149265Y417933D01*
X147932Y417378D01*
X147265Y416266D01*
X147265Y415155D01*
X147932Y414044D01*
X149265Y413488D01*
X147932Y412933D01*
X147265Y411822D01*
X147265Y410710D01*
X147932Y409600D01*
X149265Y409044D01*
X150598Y409044D01*
X151932Y409600D01*
X152598Y410710D01*
X152598Y411822D01*
X151932Y412933D01*
X150598Y413488D01*
G54D10*
X144822Y417933D02*
X144822Y409044D01*
X140155Y409044D01*
G54D10*
X132377Y416266D02*
X132377Y410710D01*
X133044Y409600D01*
X134377Y409044D01*
X135710Y409044D01*
X137044Y409600D01*
X137710Y410710D01*
X137710Y416266D01*
X137044Y417378D01*
X135710Y417933D01*
X134377Y417933D01*
X133044Y417378D01*
X132377Y416266D01*
G54D10*
X124600Y417933D02*
X129934Y417933D01*
X129934Y414044D01*
X129267Y414044D01*
X127934Y414600D01*
X126600Y414600D01*
X125267Y414044D01*
X124600Y412933D01*
X124600Y410710D01*
X125267Y409600D01*
X126600Y409044D01*
X127934Y409044D01*
X129267Y409600D01*
X129934Y410710D01*
G54D10*
X122156Y409044D02*
X118823Y417933D01*
X115490Y409044D01*
G54D10*
X120823Y412378D02*
X116823Y412378D01*
G54D10*
X107712Y410710D02*
X108379Y409600D01*
X109712Y409044D01*
X111046Y409044D01*
X112379Y409600D01*
X113046Y410710D01*
X113046Y416266D01*
X112379Y417378D01*
X111046Y417933D01*
X109712Y417933D01*
X108379Y417378D01*
X107712Y416266D01*
G54D12*
X189108Y301616D02*
X212158Y301616D01*
M02*
