%FSLAX34Y34*%
%MOMM*%
%LNSOLDERMASK_TOP*%
G71*
G01*
%ADD10C,2.000*%
%ADD11C,6.600*%
%ADD12C,0.800*%
%LPD*%
X435372Y571500D02*
G54D10*
D03*
X435372Y546100D02*
G54D10*
D03*
X686197Y571500D02*
G54D10*
D03*
X686197Y546100D02*
G54D10*
D03*
X935434Y571500D02*
G54D10*
D03*
X935434Y546100D02*
G54D10*
D03*
X186134Y571500D02*
G54D10*
D03*
X186134Y546100D02*
G54D10*
D03*
X435372Y320675D02*
G54D10*
D03*
X435372Y295275D02*
G54D10*
D03*
X686197Y320675D02*
G54D10*
D03*
X686197Y295275D02*
G54D10*
D03*
X935434Y320675D02*
G54D10*
D03*
X935434Y295275D02*
G54D10*
D03*
X186134Y320675D02*
G54D10*
D03*
X186134Y295275D02*
G54D10*
D03*
X435372Y69850D02*
G54D10*
D03*
X435372Y44450D02*
G54D10*
D03*
X686197Y69850D02*
G54D10*
D03*
X686197Y44450D02*
G54D10*
D03*
X935434Y69850D02*
G54D10*
D03*
X935434Y44450D02*
G54D10*
D03*
X186134Y69850D02*
G54D10*
D03*
X186134Y44450D02*
G54D10*
D03*
X309960Y196850D02*
G54D10*
D03*
X309960Y171450D02*
G54D10*
D03*
X560784Y196850D02*
G54D10*
D03*
X560784Y171450D02*
G54D10*
D03*
X810022Y196850D02*
G54D10*
D03*
X810022Y171450D02*
G54D10*
D03*
X60722Y196850D02*
G54D10*
D03*
X60722Y171450D02*
G54D10*
D03*
X309960Y446088D02*
G54D10*
D03*
X309960Y420688D02*
G54D10*
D03*
X560784Y446088D02*
G54D10*
D03*
X560784Y420688D02*
G54D10*
D03*
X810022Y446088D02*
G54D10*
D03*
X810022Y420688D02*
G54D10*
D03*
X60722Y446088D02*
G54D10*
D03*
X60722Y420688D02*
G54D10*
D03*
X309960Y695325D02*
G54D10*
D03*
X309960Y669925D02*
G54D10*
D03*
X560784Y695325D02*
G54D10*
D03*
X560784Y669925D02*
G54D10*
D03*
X810022Y695325D02*
G54D10*
D03*
X810022Y669925D02*
G54D10*
D03*
X60722Y695325D02*
G54D10*
D03*
X60722Y669925D02*
G54D10*
D03*
X435372Y820738D02*
G54D10*
D03*
X435372Y795338D02*
G54D10*
D03*
X686197Y820738D02*
G54D10*
D03*
X686197Y795338D02*
G54D10*
D03*
X935434Y820738D02*
G54D10*
D03*
X935434Y795338D02*
G54D10*
D03*
X186134Y820738D02*
G54D10*
D03*
X186134Y795338D02*
G54D10*
D03*
X309960Y946150D02*
G54D10*
D03*
X309960Y920750D02*
G54D10*
D03*
X560784Y946150D02*
G54D10*
D03*
X560784Y920750D02*
G54D10*
D03*
X810022Y946150D02*
G54D10*
D03*
X810022Y920750D02*
G54D10*
D03*
X60722Y946150D02*
G54D10*
D03*
X60722Y920750D02*
G54D10*
D03*
X811118Y808133D02*
G54D11*
D03*
X835118Y808133D02*
G54D12*
D03*
X828088Y791162D02*
G54D12*
D03*
X811118Y784133D02*
G54D12*
D03*
X794147Y791162D02*
G54D12*
D03*
X787118Y808133D02*
G54D12*
D03*
X794147Y825104D02*
G54D12*
D03*
X811118Y832133D02*
G54D12*
D03*
X828088Y825104D02*
G54D12*
D03*
X308559Y808038D02*
G54D11*
D03*
X332559Y808038D02*
G54D12*
D03*
X325530Y791068D02*
G54D12*
D03*
X308559Y784038D02*
G54D12*
D03*
X291588Y791068D02*
G54D12*
D03*
X284559Y808038D02*
G54D12*
D03*
X291588Y825009D02*
G54D12*
D03*
X308559Y832038D02*
G54D12*
D03*
X325530Y825009D02*
G54D12*
D03*
X686613Y183149D02*
G54D11*
D03*
X710613Y183149D02*
G54D12*
D03*
X703584Y166179D02*
G54D12*
D03*
X686613Y159149D02*
G54D12*
D03*
X669642Y166179D02*
G54D12*
D03*
X662613Y183149D02*
G54D12*
D03*
X669642Y200120D02*
G54D12*
D03*
X686613Y207150D02*
G54D12*
D03*
X703584Y200120D02*
G54D12*
D03*
X184054Y183054D02*
G54D11*
D03*
X208054Y183054D02*
G54D12*
D03*
X201025Y166084D02*
G54D12*
D03*
X184054Y159054D02*
G54D12*
D03*
X167084Y166084D02*
G54D12*
D03*
X160054Y183054D02*
G54D12*
D03*
X167084Y200025D02*
G54D12*
D03*
X184054Y207054D02*
G54D12*
D03*
X201025Y200025D02*
G54D12*
D03*
M02*
