%FSLAX34Y34*%
%MOMM*%
%LNCOPPER_TOP*%
G71*
G01*
%ADD10C,4.500*%
%ADD11C,4.000*%
%ADD12C,2.000*%
%ADD13C,2.500*%
%ADD14C,6.400*%
%ADD15C,0.600*%
%ADD16C,1.600*%
%ADD17C,0.810*%
%ADD18C,0.300*%
%ADD19C,0.800*%
%ADD20C,0.200*%
%LPD*%
X97020Y76019D02*
G54D10*
D03*
X28758Y79194D02*
G54D10*
D03*
X62844Y149916D02*
G54D11*
D03*
X62844Y201916D02*
G54D11*
D03*
X542924Y198562D02*
G54D12*
D03*
X477924Y198562D02*
G54D12*
D03*
X477924Y153562D02*
G54D12*
D03*
X542924Y153562D02*
G54D12*
D03*
X434974Y198562D02*
G54D12*
D03*
X369974Y198562D02*
G54D12*
D03*
X369974Y153562D02*
G54D12*
D03*
X434974Y153562D02*
G54D12*
D03*
X68785Y29184D02*
G54D10*
D03*
X620315Y201590D02*
G54D12*
D03*
X595315Y176590D02*
G54D12*
D03*
X645315Y176590D02*
G54D12*
D03*
X166865Y202506D02*
G54D13*
D03*
X141465Y177106D02*
G54D13*
D03*
X166865Y151705D02*
G54D13*
D03*
X728662Y37906D02*
G54D12*
D03*
X778662Y37906D02*
G54D12*
D03*
X753662Y37906D02*
G54D12*
D03*
X728662Y187906D02*
G54D12*
D03*
X778662Y187906D02*
G54D12*
D03*
X691162Y112906D02*
G54D11*
D03*
X816162Y112906D02*
G54D11*
D03*
X434974Y51963D02*
G54D12*
D03*
X369974Y51962D02*
G54D12*
D03*
X369974Y96963D02*
G54D12*
D03*
X434974Y96963D02*
G54D12*
D03*
X165675Y84237D02*
G54D13*
D03*
X140274Y58838D02*
G54D13*
D03*
X165675Y33437D02*
G54D13*
D03*
X101048Y576592D02*
G54D12*
D03*
X126448Y576592D02*
G54D12*
D03*
X151848Y576592D02*
G54D12*
D03*
X178439Y576592D02*
G54D12*
D03*
X203839Y576592D02*
G54D12*
D03*
X229239Y576592D02*
G54D12*
D03*
X357033Y576592D02*
G54D12*
D03*
X382433Y576592D02*
G54D12*
D03*
X407833Y576592D02*
G54D12*
D03*
X433233Y576592D02*
G54D12*
D03*
X458633Y576592D02*
G54D12*
D03*
X485223Y576592D02*
G54D12*
D03*
X796130Y263922D02*
G54D14*
D03*
X820130Y263922D02*
G54D15*
D03*
X813101Y246952D02*
G54D15*
D03*
X796130Y239922D02*
G54D15*
D03*
X779160Y246952D02*
G54D15*
D03*
X772130Y263922D02*
G54D15*
D03*
X779160Y280892D02*
G54D15*
D03*
X796130Y287922D02*
G54D15*
D03*
X813101Y280892D02*
G54D15*
D03*
X795337Y573881D02*
G54D14*
D03*
X819337Y573881D02*
G54D15*
D03*
X812307Y556911D02*
G54D15*
D03*
X795337Y549881D02*
G54D15*
D03*
X778366Y556911D02*
G54D15*
D03*
X771337Y573881D02*
G54D15*
D03*
X778366Y590852D02*
G54D15*
D03*
X795337Y597881D02*
G54D15*
D03*
X812307Y590852D02*
G54D15*
D03*
X44449Y573881D02*
G54D14*
D03*
X68449Y573881D02*
G54D15*
D03*
X61420Y556911D02*
G54D15*
D03*
X44449Y549881D02*
G54D15*
D03*
X27479Y556911D02*
G54D15*
D03*
X20449Y573881D02*
G54D15*
D03*
X27479Y590852D02*
G54D15*
D03*
X44449Y597881D02*
G54D15*
D03*
X61420Y590852D02*
G54D15*
D03*
X44052Y265510D02*
G54D14*
D03*
X68052Y265510D02*
G54D15*
D03*
X61023Y248539D02*
G54D15*
D03*
X44052Y241510D02*
G54D15*
D03*
X27082Y248539D02*
G54D15*
D03*
X20052Y265510D02*
G54D15*
D03*
X27082Y282480D02*
G54D15*
D03*
X44052Y289510D02*
G54D15*
D03*
X61023Y282480D02*
G54D15*
D03*
X542924Y51963D02*
G54D12*
D03*
X477924Y51962D02*
G54D12*
D03*
X477924Y96963D02*
G54D12*
D03*
X542924Y96963D02*
G54D12*
D03*
G36*
X391585Y330328D02*
X391585Y314328D01*
X375585Y314328D01*
X375585Y330328D01*
X391585Y330328D01*
G37*
X358185Y322328D02*
G54D16*
D03*
X332785Y322328D02*
G54D16*
D03*
X307385Y322328D02*
G54D16*
D03*
X281985Y322328D02*
G54D16*
D03*
X256585Y322328D02*
G54D16*
D03*
X350391Y355364D02*
G54D17*
D03*
X321419Y285117D02*
G54D17*
D03*
X265752Y404100D02*
G54D12*
D03*
X265752Y454100D02*
G54D12*
D03*
X408384Y545827D02*
G54D17*
D03*
G54D18*
X408384Y544240D02*
X407833Y576592D01*
X382984Y534715D02*
G54D17*
D03*
G54D18*
X382984Y534715D02*
X382433Y576592D01*
X367109Y512490D02*
G54D17*
D03*
G54D18*
X357033Y576592D02*
X357033Y522566D01*
X367109Y512490D01*
X382984Y469627D02*
G54D17*
D03*
X375046Y490265D02*
G54D17*
D03*
X396874Y456927D02*
G54D17*
D03*
X289321Y381124D02*
G54D17*
D03*
X112392Y341928D02*
G54D17*
D03*
X309165Y368821D02*
G54D17*
D03*
G54D18*
X229239Y576592D02*
X229636Y560269D01*
X241696Y548209D01*
X316309Y549002D01*
X375046Y490265D01*
G54D18*
X381396Y469627D02*
X311546Y538684D01*
X190896Y538684D01*
X178836Y550744D01*
X178836Y574608D01*
X178439Y575005D01*
G54D18*
X396874Y456927D02*
X379809Y456927D01*
X307578Y529159D01*
X125015Y528916D01*
X112955Y516856D01*
X113109Y342645D01*
X112392Y341928D01*
G54D18*
X319484Y285080D02*
X392509Y285080D01*
X408384Y300956D01*
X407987Y329773D01*
X395927Y341834D01*
X363128Y342230D01*
X349994Y355364D01*
X648890Y51168D02*
G54D12*
D03*
X583890Y51168D02*
G54D12*
D03*
X583890Y96168D02*
G54D12*
D03*
X648890Y96168D02*
G54D12*
D03*
X438100Y372827D02*
G54D17*
D03*
X438100Y358936D02*
G54D17*
D03*
X438100Y345839D02*
G54D17*
D03*
X438100Y332346D02*
G54D17*
D03*
X453975Y401402D02*
G54D17*
D03*
X453975Y387511D02*
G54D17*
D03*
G54D18*
X453975Y401402D02*
X473434Y401402D01*
X496490Y378346D01*
X496490Y283493D01*
X569515Y210865D01*
X570155Y154906D01*
X582215Y142845D01*
X647302Y142602D01*
X694134Y189830D01*
X726737Y189830D01*
X728662Y187906D01*
G54D18*
X453975Y387511D02*
X472127Y387474D01*
X485774Y374223D01*
X485774Y280318D01*
X541734Y224359D01*
X542131Y199356D01*
X542924Y198562D01*
G54D18*
X151848Y576592D02*
X151848Y587742D01*
X165099Y600993D01*
X492521Y600993D01*
X506809Y586706D01*
X506412Y288256D01*
X588962Y205706D01*
X616200Y205706D01*
X620315Y201590D01*
G54D18*
X778662Y37906D02*
X778662Y26709D01*
X770334Y18380D01*
G54D18*
X728662Y37906D02*
X719852Y29096D01*
X327818Y28942D01*
X316706Y39812D01*
X316309Y259923D01*
X299883Y275952D01*
X249634Y276349D01*
X238521Y287462D01*
X238124Y357709D01*
X249237Y368821D01*
X309165Y368821D01*
G54D18*
X778662Y37906D02*
X778662Y26709D01*
X770334Y18380D01*
X323056Y18380D01*
X307181Y34256D01*
X307181Y253573D01*
X295517Y265634D01*
X244871Y265634D01*
X228599Y281906D01*
X228599Y363265D01*
X246062Y380727D01*
X288924Y380727D01*
X289321Y381124D01*
G54D18*
X648890Y51168D02*
X648890Y57274D01*
X586184Y119980D01*
X530621Y119980D01*
X517524Y133078D01*
X518318Y234678D01*
X477440Y274762D01*
X477440Y341834D01*
X446447Y372827D01*
X438100Y372827D01*
G54D18*
X438100Y358936D02*
X446050Y358936D01*
X466724Y338262D01*
X466724Y271190D01*
X509190Y228724D01*
X508793Y85849D01*
X542924Y51963D01*
G54D18*
X438497Y345839D02*
X444066Y345839D01*
X455612Y334293D01*
X455612Y218803D01*
X435371Y198562D01*
G54D18*
X438100Y332346D02*
X438100Y328389D01*
X448468Y318021D01*
X448468Y241424D01*
X410368Y203324D01*
X410368Y76569D01*
X434974Y51963D01*
X392509Y285080D02*
G54D12*
D03*
X392509Y260080D02*
G54D12*
D03*
X525526Y429026D02*
G54D19*
D03*
X591804Y366319D02*
G54D19*
D03*
X524472Y347735D02*
G54D19*
D03*
X591011Y282579D02*
G54D19*
D03*
X343757Y415928D02*
G54D19*
D03*
X367966Y416327D02*
G54D19*
D03*
X234220Y229794D02*
G54D19*
D03*
X231589Y187595D02*
G54D19*
D03*
X131957Y23734D02*
G54D19*
D03*
X816436Y27388D02*
G54D19*
D03*
X341376Y118272D02*
G54D19*
D03*
X336217Y52391D02*
G54D19*
D03*
X420751Y515941D02*
G54D19*
D03*
X420751Y480222D02*
G54D19*
D03*
X751745Y111922D02*
G54D19*
D03*
X282770Y18575D02*
G54D19*
D03*
X660067Y295279D02*
G54D19*
D03*
X659273Y211538D02*
G54D19*
D03*
G54D20*
X11509Y615928D02*
X828262Y615928D01*
G54D20*
G75*
G01X11509Y615928D02*
G03X-1Y604418I0J-11510D01*
G01*
G54D20*
G75*
G01X839772Y604418D02*
G03X828262Y615928I-11510J0D01*
G01*
G54D20*
X-1Y604418D02*
X-1Y11503D01*
G54D20*
G75*
G01X828262Y-8D02*
G03X839772Y11502I0J11510D01*
G01*
G54D20*
X839772Y604418D02*
X839772Y11502D01*
G54D20*
G75*
G01X-1Y11503D02*
G03X11509Y-7I11510J0D01*
G01*
G54D20*
X828262Y-8D02*
X11509Y-7D01*
M02*
