%FSLAX34Y34*%
%MOMM*%
%LNSOLDERMASK_BOTTOM*%
G71*
G01*
%ADD10C,4.700*%
%ADD11C,3.200*%
%ADD12C,2.200*%
%ADD13C,4.200*%
%ADD14R,1.600X1.500*%
%ADD15R,1.800X1.500*%
%ADD16C,2.200*%
%ADD17R,1.470X0.759*%
%ADD18R,0.759X1.470*%
%ADD19R,1.500X1.800*%
%ADD20R,2.100X0.800*%
%ADD21C,1.500*%
%ADD22R,1.500X1.600*%
%ADD23R,7.200X6.200*%
%ADD24R,2.740X1.470*%
%ADD25R,1.200X1.800*%
%ADD26R,2.600X1.800*%
%ADD27C,2.000*%
%LPD*%
X80486Y375347D02*
G54D10*
D03*
X83661Y443609D02*
G54D10*
D03*
X48956Y262092D02*
G54D11*
D03*
X48956Y314092D02*
G54D11*
D03*
X33651Y403582D02*
G54D10*
D03*
X367517Y170289D02*
G54D12*
D03*
X317517Y170289D02*
G54D12*
D03*
X342517Y170289D02*
G54D12*
D03*
X367517Y20289D02*
G54D12*
D03*
X317517Y20289D02*
G54D12*
D03*
X405018Y95289D02*
G54D13*
D03*
X280018Y95289D02*
G54D13*
D03*
X365702Y59406D02*
G54D14*
D03*
X365702Y78406D02*
G54D14*
D03*
X320061Y59803D02*
G54D14*
D03*
X320061Y78803D02*
G54D14*
D03*
X320855Y118938D02*
G54D15*
D03*
X320855Y140319D02*
G54D15*
D03*
X363718Y118938D02*
G54D15*
D03*
X363718Y140319D02*
G54D15*
D03*
G54D16*
X31058Y168141D02*
X31058Y148141D01*
G36*
X118057Y179141D02*
X118057Y137141D01*
X96057Y137141D01*
X96057Y179141D01*
X118057Y179141D01*
G37*
X318254Y458963D02*
G54D12*
D03*
X292854Y458963D02*
G54D12*
D03*
X267454Y458963D02*
G54D12*
D03*
X242055Y458962D02*
G54D12*
D03*
X325442Y338218D02*
G54D17*
D03*
X325442Y330217D02*
G54D17*
D03*
X325443Y322216D02*
G54D17*
D03*
X325442Y314215D02*
G54D17*
D03*
X325443Y306214D02*
G54D17*
D03*
X325442Y298213D02*
G54D17*
D03*
X325442Y290212D02*
G54D17*
D03*
X325442Y282211D02*
G54D17*
D03*
X239590Y282211D02*
G54D17*
D03*
X239590Y290212D02*
G54D17*
D03*
X239590Y298213D02*
G54D17*
D03*
X239590Y306214D02*
G54D17*
D03*
X239591Y314215D02*
G54D17*
D03*
X239590Y322216D02*
G54D17*
D03*
X239590Y330217D02*
G54D17*
D03*
X239590Y338218D02*
G54D17*
D03*
X254526Y353153D02*
G54D18*
D03*
X262527Y353153D02*
G54D18*
D03*
X270528Y353153D02*
G54D18*
D03*
X278529Y353153D02*
G54D18*
D03*
X286530Y353153D02*
G54D18*
D03*
X294531Y353153D02*
G54D18*
D03*
X302532Y353153D02*
G54D18*
D03*
X310533Y353153D02*
G54D18*
D03*
X310533Y267301D02*
G54D18*
D03*
X302532Y267301D02*
G54D18*
D03*
X294531Y267301D02*
G54D18*
D03*
X286530Y267301D02*
G54D18*
D03*
X278529Y267301D02*
G54D18*
D03*
X270528Y267301D02*
G54D18*
D03*
X262527Y267301D02*
G54D18*
D03*
X254526Y267301D02*
G54D18*
D03*
G36*
X242180Y389214D02*
X242180Y411214D01*
X264180Y411214D01*
X264180Y389214D01*
X242180Y389214D01*
G37*
X278579Y400214D02*
G54D12*
D03*
X303980Y400213D02*
G54D12*
D03*
X329380Y400213D02*
G54D12*
D03*
X354780Y400213D02*
G54D12*
D03*
X380180Y400213D02*
G54D12*
D03*
X361882Y354512D02*
G54D19*
D03*
X383263Y354512D02*
G54D19*
D03*
X367388Y286647D02*
G54D20*
D03*
X367388Y298553D02*
G54D20*
D03*
X367784Y310459D02*
G54D20*
D03*
X407074Y290616D02*
G54D21*
D03*
X406703Y312814D02*
G54D21*
D03*
X366569Y430687D02*
G54D22*
D03*
X347569Y430687D02*
G54D22*
D03*
X205808Y345088D02*
G54D15*
D03*
X205807Y366470D02*
G54D15*
D03*
X262378Y207924D02*
G54D22*
D03*
X281378Y207924D02*
G54D22*
D03*
X118336Y319551D02*
G54D15*
D03*
X118336Y298170D02*
G54D15*
D03*
X157428Y319551D02*
G54D15*
D03*
X157428Y298170D02*
G54D15*
D03*
X146964Y222187D02*
G54D23*
D03*
X208454Y244487D02*
G54D24*
D03*
X208454Y199986D02*
G54D24*
D03*
X281380Y172206D02*
G54D22*
D03*
X262380Y172206D02*
G54D22*
D03*
X152141Y352876D02*
G54D25*
D03*
X137042Y352876D02*
G54D25*
D03*
X121941Y352876D02*
G54D25*
D03*
X137042Y391776D02*
G54D26*
D03*
X189795Y287454D02*
G54D19*
D03*
X211176Y287454D02*
G54D19*
D03*
X101537Y73010D02*
G54D27*
D03*
X36513Y73010D02*
G54D27*
D03*
X36513Y28001D02*
G54D27*
D03*
X101537Y28002D02*
G54D27*
D03*
X165100Y73010D02*
G54D27*
D03*
X230124Y73010D02*
G54D27*
D03*
X230124Y28001D02*
G54D27*
D03*
X165101Y28002D02*
G54D27*
D03*
X165562Y163468D02*
G54D27*
D03*
X230586Y163468D02*
G54D27*
D03*
X230586Y118459D02*
G54D27*
D03*
X165562Y118460D02*
G54D27*
D03*
M02*
