; Drill file
; Format: 3.3 (000.000)
M48
METRIC
T01C0.4
T02C1.0
T03C2.5
T04C3.2
%
G05
G90
T01
X013200Y002370
X028280Y001860
X033620Y005240
X034140Y011830
X023160Y018760
X023420Y022980
X032140Y028510
X035040Y035540
X030920Y036880
X028930Y038110
X034380Y041590
X036800Y041630
X039690Y045690
X038300Y046960
X037500Y049030
X036710Y051250
X038300Y053470
X040840Y054580
X042080Y051590
X042080Y048020
X045400Y040140
X045400Y038750
X043810Y037280
X043810Y035890
X043810Y034580
X043810Y033230
X052450Y034770
X059180Y036630
X059100Y028260
X066010Y029530
X065930Y021150
X077210Y026390
X077920Y024700
X079610Y023990
X081310Y024700
X082010Y026390
X081310Y028090
X079610Y028790
X077920Y028090
X075170Y011190
X081640Y002740
X052550Y042900
X077840Y055690
X079530Y054990
X081230Y055690
X081930Y057390
X081230Y059090
X079530Y059790
X077840Y059090
X077130Y057390
X011240Y034190
X006100Y028250
X006810Y026550
X006100Y024850
X004410Y024150
X002710Y024850
X002010Y026550
X002710Y028250
X004410Y028950
X004440Y054990
X002750Y055690
X002040Y057390
X002750Y059090
X004440Y059790
X006140Y059090
X006840Y057390
X006140Y055690
T02
X014030Y005880
X016570Y008420
X016570Y003340
X016690Y015170
X014150Y017710
X016690Y020250
X025660Y032230
X028200Y032230
X030740Y032230
X033280Y032230
X035820Y032230
X038360Y032230
X039250Y028510
X039250Y026010
X037000Y019860
X037000Y015360
X037000Y009700
X037000Y005200
X043500Y005200
X047790Y005200
X047790Y009700
X043500Y009700
X043500Y015360
X047790Y015360
X047790Y019860
X043500Y019860
X054290Y019860
X054290Y015360
X054290Y009700
X058390Y009620
X058390Y005120
X054290Y005200
X064890Y005120
X064890Y009620
X064530Y017660
X062030Y020160
X059530Y017660
X072870Y018790
X077870Y018790
X077870Y003790
X075370Y003790
X072870Y003790
X026580Y040410
X026580Y045410
X025420Y057660
X022920Y057660
X020380Y057660
X017840Y057660
X015180Y057660
X012640Y057660
X010100Y057660
X027960Y057660
X030500Y057660
X033040Y057660
X035700Y057660
X038240Y057660
X040780Y057660
X043320Y057660
X045860Y057660
X048520Y057660
T03
X006880Y002920
X009700Y007600
X002880Y007920
X006280Y014990
X006280Y020190
X069120Y011290
X081620Y011290
T04
X004410Y026550
X004440Y057390
X079530Y057390
X079610Y026390
M30
