%FSLAX34Y34*%
%MOMM*%
%LNSOLDERMASK_TOP*%
G71*
G01*
%ADD10C,4.700*%
%ADD11C,3.200*%
%ADD12C,2.200*%
%ADD13C,4.200*%
%ADD14C,2.200*%
%ADD15C,2.000*%
%LPD*%
X80486Y375347D02*
G54D10*
D03*
X83661Y443609D02*
G54D10*
D03*
X48956Y262092D02*
G54D11*
D03*
X48956Y314092D02*
G54D11*
D03*
X33651Y403582D02*
G54D10*
D03*
X367517Y170289D02*
G54D12*
D03*
X317517Y170289D02*
G54D12*
D03*
X342517Y170289D02*
G54D12*
D03*
X367517Y20289D02*
G54D12*
D03*
X317517Y20289D02*
G54D12*
D03*
X405018Y95289D02*
G54D13*
D03*
X280018Y95289D02*
G54D13*
D03*
G54D14*
X31058Y168141D02*
X31058Y148141D01*
G36*
X118057Y179141D02*
X118057Y137141D01*
X96057Y137141D01*
X96057Y179141D01*
X118057Y179141D01*
G37*
X318254Y458963D02*
G54D12*
D03*
X292854Y458963D02*
G54D12*
D03*
X267454Y458963D02*
G54D12*
D03*
X242055Y458962D02*
G54D12*
D03*
G36*
X242180Y389214D02*
X242180Y411214D01*
X264180Y411214D01*
X264180Y389214D01*
X242180Y389214D01*
G37*
X278579Y400214D02*
G54D12*
D03*
X303980Y400213D02*
G54D12*
D03*
X329380Y400213D02*
G54D12*
D03*
X354780Y400213D02*
G54D12*
D03*
X380180Y400213D02*
G54D12*
D03*
X101537Y73010D02*
G54D15*
D03*
X36513Y73010D02*
G54D15*
D03*
X36513Y28001D02*
G54D15*
D03*
X101537Y28002D02*
G54D15*
D03*
X165100Y73010D02*
G54D15*
D03*
X230124Y73010D02*
G54D15*
D03*
X230124Y28001D02*
G54D15*
D03*
X165101Y28002D02*
G54D15*
D03*
X165562Y163468D02*
G54D15*
D03*
X230586Y163468D02*
G54D15*
D03*
X230586Y118459D02*
G54D15*
D03*
X165562Y118460D02*
G54D15*
D03*
M02*
