%FSLAX34Y34*%
%MOMM*%
%LNSILK_TOP*%
G71*
G01*
%ADD10C,0.200*%
%ADD11C,0.175*%
%ADD12C,0.100*%
%ADD13C,0.270*%
%ADD14C,0.111*%
%ADD15C,0.286*%
%ADD16C,0.203*%
%ADD17C,0.349*%
%LPD*%
G54D10*
X28225Y469351D02*
X109225Y469351D01*
X109225Y490151D01*
X28225Y490151D01*
X28225Y469351D01*
G54D10*
X32925Y482151D02*
X32925Y363051D01*
X104525Y363051D01*
X104525Y482151D01*
X32925Y482151D01*
G54D10*
X13956Y337092D02*
X93956Y337092D01*
X93956Y237892D01*
X13956Y237892D01*
X13956Y337092D01*
G54D10*
X68956Y337092D02*
X68956Y237892D01*
G54D10*
X20256Y287092D02*
X61456Y287092D01*
G54D10*
G75*
G01X78956Y312092D02*
G03X78956Y312092I-2500J0D01*
G01*
G54D10*
G75*
G01X78956Y262092D02*
G03X78956Y262092I-2500J0D01*
G01*
G54D10*
X405017Y20289D02*
X405017Y170289D01*
G54D10*
X405017Y170289D02*
X280017Y170289D01*
G54D10*
X405017Y20289D02*
X280017Y20289D01*
X280017Y170289D01*
G54D10*
G75*
G01X377517Y95288D02*
G03X377517Y95288I-35000J0D01*
G01*
G54D10*
G75*
G01X352517Y95288D02*
G03X352517Y95288I-10000J0D01*
G01*
G54D10*
G75*
G01X353517Y136340D02*
G03X331517Y136340I-11000J-41052D01*
G01*
G54D10*
X355017Y135289D02*
X352517Y137789D01*
G54D10*
X355017Y135289D02*
X350017Y135289D01*
G54D10*
X330017Y135289D02*
X332517Y137789D01*
G54D10*
X330017Y135289D02*
X335017Y135289D01*
G54D10*
G75*
G01X345017Y95288D02*
G03X345017Y95288I-2500J0D01*
G01*
G54D11*
X166726Y300483D02*
X156948Y300483D01*
X156948Y304150D01*
X157559Y305616D01*
X158782Y306350D01*
X164892Y306350D01*
X166115Y305616D01*
X166726Y304150D01*
X166726Y300483D01*
G54D11*
X166115Y314172D02*
X166726Y312999D01*
X166726Y311532D01*
X166115Y310065D01*
X164892Y309772D01*
X162815Y309772D01*
X161592Y310505D01*
X161226Y311972D01*
X161592Y313439D01*
X162448Y314172D01*
X163670Y314172D01*
X163670Y309772D01*
G54D11*
X166726Y317594D02*
X161226Y317594D01*
G54D11*
X162204Y317594D02*
X161226Y319061D01*
X161592Y320527D01*
X162448Y321261D01*
X166726Y321261D01*
G54D11*
X162204Y321261D02*
X161226Y322727D01*
X161592Y324194D01*
X162448Y324927D01*
X166726Y324927D01*
G54D11*
X166115Y332749D02*
X166726Y331576D01*
X166726Y330109D01*
X166115Y328642D01*
X164892Y328349D01*
X162815Y328349D01*
X161592Y329082D01*
X161226Y330549D01*
X161592Y332016D01*
X162448Y332749D01*
X163670Y332749D01*
X163670Y328349D01*
G54D11*
X166726Y336171D02*
X161226Y336171D01*
G54D11*
X162448Y336171D02*
X161592Y336904D01*
X161226Y338371D01*
X161592Y339838D01*
X162448Y340571D01*
X166726Y340571D01*
G54D11*
X156948Y345460D02*
X166115Y345460D01*
X166726Y346193D01*
X166482Y346926D01*
G54D11*
X161226Y343993D02*
X161226Y346926D01*
G54D11*
X166726Y350348D02*
X161226Y350348D01*
G54D11*
X159392Y350348D02*
X159392Y350348D01*
G54D11*
X166115Y358170D02*
X166726Y356997D01*
X166726Y355530D01*
X166115Y354063D01*
X164892Y353770D01*
X162815Y353770D01*
X161592Y354503D01*
X161226Y355970D01*
X161592Y357437D01*
X162448Y358170D01*
X163670Y358170D01*
X163670Y353770D01*
G54D11*
X161226Y361592D02*
X166726Y364525D01*
X161226Y367459D01*
G54D12*
G75*
G01X207384Y317409D02*
G03X207384Y346854I-8500J14722D01*
G01*
G36*
G75*
G01X207384Y317409D02*
G03X207384Y346854I-8500J14722D01*
G01*
G37*
X207384Y317409D01*
G36*
X207385Y346854D02*
X188626Y346854D01*
X188613Y346840D01*
X188613Y341284D01*
X192582Y342872D01*
X189010Y338109D01*
X189010Y331362D01*
X195360Y334934D01*
X189010Y327790D01*
X189010Y323822D01*
X194566Y325806D01*
X194566Y322631D01*
X189407Y319059D01*
X189407Y316678D01*
X206654Y316678D01*
X207385Y317409D01*
X207385Y346854D01*
G37*
G54D12*
X207385Y346854D02*
X188626Y346854D01*
X188613Y346840D01*
X188613Y341284D01*
X192582Y342872D01*
X189010Y338109D01*
X189010Y331362D01*
X195360Y334934D01*
X189010Y327790D01*
X189010Y323822D01*
X194566Y325806D01*
X194566Y322631D01*
X189407Y319059D01*
X189407Y316678D01*
X206654Y316678D01*
X207385Y317409D01*
X207385Y346854D01*
G36*
X196948Y366684D02*
X204091Y367875D01*
X210044Y366684D01*
X208060Y371050D01*
X196948Y366684D01*
G37*
G54D12*
X196948Y366684D02*
X204091Y367875D01*
X210044Y366684D01*
X208060Y371050D01*
X196948Y366684D01*
G54D12*
G75*
G01X219439Y302714D02*
G03X196926Y366643I-17355J29817D01*
G01*
G36*
X210044Y366684D02*
X215601Y370256D01*
X218776Y366684D01*
X215998Y364303D01*
X210044Y366684D01*
G37*
G54D12*
X210044Y366684D02*
X215601Y370256D01*
X218776Y366684D01*
X215998Y364303D01*
X210044Y366684D01*
G36*
X217982Y363509D02*
X225522Y368669D01*
X228301Y364700D01*
X223935Y359540D01*
X237826Y367478D01*
X239810Y362319D01*
X228698Y355175D01*
X224332Y359937D01*
X217982Y363509D01*
G37*
G54D12*
X217982Y363509D02*
X225522Y368669D01*
X228301Y364700D01*
X223935Y359540D01*
X237826Y367478D01*
X239810Y362319D01*
X228698Y355175D01*
X224332Y359937D01*
X217982Y363509D01*
G36*
X230682Y352794D02*
X234651Y345650D01*
X236238Y338109D01*
X238619Y342475D01*
X236635Y347237D01*
X233857Y347634D01*
X239810Y352794D01*
X237429Y357556D01*
X230682Y352794D01*
G37*
G54D12*
X230682Y352794D02*
X234651Y345650D01*
X236238Y338109D01*
X238619Y342475D01*
X236635Y347237D01*
X233857Y347634D01*
X239810Y352794D01*
X237429Y357556D01*
X230682Y352794D01*
G36*
X237032Y332950D02*
X240604Y335331D01*
X242588Y329775D01*
X236635Y326600D01*
X237032Y332950D01*
G37*
G54D12*
X237032Y332950D02*
X240604Y335331D01*
X242588Y329775D01*
X236635Y326600D01*
X237032Y332950D01*
G36*
X219439Y302714D02*
X223141Y304375D01*
X229094Y309534D01*
X233857Y317472D01*
X235444Y323425D01*
X237826Y317869D01*
X235444Y315884D01*
X237826Y311122D01*
X235444Y310328D01*
X236635Y309137D01*
X236635Y301994D01*
X219439Y302714D01*
G37*
G54D12*
X219439Y302714D02*
X223141Y304375D01*
X229094Y309534D01*
X233857Y317472D01*
X235444Y323425D01*
X237826Y317869D01*
X235444Y315884D01*
X237826Y311122D01*
X235444Y310328D01*
X236635Y309137D01*
X236635Y301994D01*
X219439Y302714D01*
G54D10*
G75*
G01X130058Y158141D02*
G03X130058Y158141I-61000J0D01*
G01*
G54D13*
X98842Y123834D02*
X98842Y132901D01*
G54D13*
X102620Y128367D02*
X95064Y128367D01*
G54D10*
X138511Y194453D02*
X418705Y194453D01*
X418705Y474647D01*
X138511Y474647D01*
X138511Y194453D01*
G54D10*
G75*
G01X176661Y453613D02*
G03X176661Y453613I-12303J0D01*
G01*
G54D10*
G75*
G01X408039Y454406D02*
G03X408039Y454406I-12303J0D01*
G01*
G54D10*
G75*
G01X408039Y214694D02*
G03X408039Y214694I-12303J0D01*
G01*
G54D10*
G75*
G01X175867Y216678D02*
G03X175867Y216678I-12303J0D01*
G01*
G54D10*
X144514Y438532D02*
X416374Y438532D01*
X416374Y248032D01*
X144514Y248032D01*
X144514Y438532D01*
G54D10*
X330955Y464569D02*
X324654Y470869D01*
X311854Y470869D01*
X305554Y464569D01*
X305554Y451769D01*
X311854Y445469D01*
X324654Y445469D01*
X330955Y451769D01*
X330955Y464569D01*
G54D10*
X305554Y464569D02*
X299254Y470869D01*
X286454Y470869D01*
X280154Y464569D01*
X280154Y451769D01*
X286454Y445469D01*
X299254Y445469D01*
X305554Y451769D01*
X305554Y464569D01*
G54D10*
X280154Y464569D02*
X273854Y470869D01*
X261054Y470869D01*
X254754Y464569D01*
X254754Y451769D01*
X261054Y445469D01*
X273854Y445469D01*
X280154Y451769D01*
X280154Y464569D01*
G54D10*
X254754Y464569D02*
X248454Y470869D01*
X235654Y470869D01*
X229354Y464569D01*
X229354Y451769D01*
X235654Y445469D01*
X248454Y445469D01*
X254754Y451769D01*
X254754Y464569D01*
G54D14*
X224716Y430963D02*
X227384Y430963D01*
X227384Y428185D01*
X226716Y427074D01*
X225384Y426518D01*
X224050Y426518D01*
X222716Y427074D01*
X222050Y428185D01*
X222050Y433740D01*
X222716Y434852D01*
X224050Y435407D01*
X225384Y435407D01*
X226716Y434852D01*
X227384Y433740D01*
G54D14*
X229827Y426518D02*
X229827Y435407D01*
X235160Y426518D01*
X235160Y435407D01*
G54D14*
X237604Y426518D02*
X237604Y435407D01*
X240938Y435407D01*
X242270Y434852D01*
X242938Y433740D01*
X242938Y428185D01*
X242270Y427074D01*
X240938Y426518D01*
X237604Y426518D01*
G54D14*
X253112Y435407D02*
X256446Y426518D01*
X259778Y435407D01*
G54D14*
X267556Y428185D02*
X266890Y427074D01*
X265556Y426518D01*
X264223Y426518D01*
X262890Y427074D01*
X262223Y428185D01*
X262223Y433740D01*
X262890Y434852D01*
X264223Y435407D01*
X265556Y435407D01*
X266890Y434852D01*
X267556Y433740D01*
G54D14*
X275334Y428185D02*
X274666Y427074D01*
X273334Y426518D01*
X272000Y426518D01*
X270666Y427074D01*
X270000Y428185D01*
X270000Y433740D01*
X270666Y434852D01*
X272000Y435407D01*
X273334Y435407D01*
X274666Y434852D01*
X275334Y433740D01*
G54D14*
X285508Y428185D02*
X286174Y427074D01*
X287508Y426518D01*
X288842Y426518D01*
X290174Y427074D01*
X290842Y428185D01*
X290842Y429296D01*
X290174Y430407D01*
X288842Y430963D01*
X287508Y430963D01*
X286174Y431518D01*
X285508Y432629D01*
X285508Y433740D01*
X286174Y434852D01*
X287508Y435407D01*
X288842Y435407D01*
X290174Y434852D01*
X290842Y433740D01*
G54D14*
X298618Y428185D02*
X297952Y427074D01*
X296618Y426518D01*
X295285Y426518D01*
X293952Y427074D01*
X293285Y428185D01*
X293285Y433740D01*
X293952Y434852D01*
X295285Y435407D01*
X296618Y435407D01*
X297952Y434852D01*
X298618Y433740D01*
G54D14*
X301062Y435407D02*
X301062Y426518D01*
X305728Y426518D01*
G54D14*
X315904Y428185D02*
X316570Y427074D01*
X317904Y426518D01*
X319238Y426518D01*
X320570Y427074D01*
X321238Y428185D01*
X321238Y429296D01*
X320570Y430407D01*
X319238Y430963D01*
X317904Y430963D01*
X316570Y431518D01*
X315904Y432629D01*
X315904Y433740D01*
X316570Y434852D01*
X317904Y435407D01*
X319238Y435407D01*
X320570Y434852D01*
X321238Y433740D01*
G54D14*
X323681Y426518D02*
X323681Y435407D01*
X327014Y435407D01*
X328348Y434852D01*
X329014Y433740D01*
X329014Y428185D01*
X328348Y427074D01*
X327014Y426518D01*
X323681Y426518D01*
G54D14*
X331458Y426518D02*
X334792Y435407D01*
X338124Y426518D01*
G54D14*
X332792Y429852D02*
X336792Y429852D01*
G54D15*
X121468Y434766D02*
X121468Y428366D01*
G54D15*
X125468Y431566D02*
X117468Y431566D01*
G54D15*
X124468Y422766D02*
X130468Y418766D01*
X114468Y418766D01*
G54D15*
X114468Y406766D02*
X114468Y413166D01*
X115468Y413166D01*
X117468Y412366D01*
X123468Y407566D01*
X125468Y406766D01*
X127468Y406766D01*
X129468Y407566D01*
X130468Y409166D01*
X130468Y410766D01*
X129468Y412366D01*
X127468Y413166D01*
G54D15*
X123468Y401166D02*
X114468Y397966D01*
X123468Y394766D01*
G54D15*
X121340Y298637D02*
X105340Y298637D01*
X105340Y293037D01*
G54D15*
X105340Y281837D02*
X105340Y287437D01*
X121340Y287437D01*
X121340Y281837D01*
G54D15*
X113340Y287437D02*
X113340Y281837D01*
G54D15*
X105340Y276237D02*
X121340Y276237D01*
X121340Y272237D01*
X120340Y270637D01*
X118340Y269837D01*
X108340Y269837D01*
X106340Y270637D01*
X105340Y272237D01*
X105340Y276237D01*
G54D16*
X91682Y79512D02*
X46368Y79512D01*
G54D16*
X40018Y60462D02*
X40018Y40549D01*
G54D16*
X46368Y21499D02*
X91682Y21499D01*
G54D16*
X98032Y40549D02*
X98032Y60462D01*
G54D16*
X85484Y49236D02*
X85535Y50506D01*
X85484Y51776D01*
X85332Y53046D01*
X85078Y54316D01*
X84748Y55535D01*
X84316Y56754D01*
X83782Y57922D01*
X83173Y59040D01*
X82462Y60107D01*
X81674Y61123D01*
X80811Y62063D01*
X79871Y62952D01*
X78880Y63739D01*
X77839Y64476D01*
X76721Y65111D01*
X75553Y65669D01*
X74359Y66127D01*
X73140Y66482D01*
X71895Y66762D01*
X70625Y66939D01*
X69355Y67016D01*
X68060Y66990D01*
X66790Y66863D01*
X65520Y66635D01*
X64301Y66330D01*
X63082Y65898D01*
X61913Y65390D01*
X60770Y64806D01*
X59678Y64120D01*
X58662Y63358D01*
X57697Y62520D01*
X56808Y61605D01*
X55970Y60615D01*
X55233Y59573D01*
X54572Y58481D01*
X53988Y57338D01*
X53506Y56144D01*
X53125Y54925D01*
X52820Y53681D01*
X52617Y52411D01*
X52515Y51141D01*
X52515Y49871D01*
X52617Y48601D01*
X52820Y47331D01*
X53125Y46086D01*
X53506Y44867D01*
X53988Y43673D01*
X54572Y42530D01*
X55233Y41438D01*
X55970Y40396D01*
X56808Y39406D01*
X57697Y38491D01*
X58662Y37653D01*
X59678Y36891D01*
X60770Y36205D01*
X61913Y35621D01*
X63082Y35113D01*
X64301Y34681D01*
X65520Y34377D01*
X66790Y34148D01*
X68060Y34021D01*
X69355Y33996D01*
X70625Y34072D01*
X71895Y34250D01*
X73140Y34529D01*
X74359Y34885D01*
X75553Y35342D01*
X76721Y35901D01*
X77839Y36536D01*
X78880Y37272D01*
X79871Y38060D01*
X80811Y38949D01*
X81674Y39888D01*
X82462Y40904D01*
X83173Y41971D01*
X83782Y43089D01*
X84316Y44257D01*
X84748Y45476D01*
X85078Y46696D01*
X85332Y47966D01*
X85484Y49236D01*
G54D16*
X174956Y79512D02*
X220269Y79512D01*
G54D16*
X226619Y60462D02*
X226619Y40549D01*
G54D16*
X220269Y21499D02*
X174956Y21499D01*
G54D16*
X168606Y40549D02*
X168606Y60462D01*
G54D16*
X181153Y49236D02*
X181102Y50506D01*
X181153Y51776D01*
X181306Y53046D01*
X181560Y54316D01*
X181890Y55535D01*
X182322Y56754D01*
X182855Y57922D01*
X183465Y59040D01*
X184176Y60107D01*
X184963Y61123D01*
X185827Y62063D01*
X186767Y62952D01*
X187757Y63739D01*
X188799Y64476D01*
X189916Y65111D01*
X191085Y65669D01*
X192278Y66127D01*
X193498Y66482D01*
X194742Y66762D01*
X196012Y66939D01*
X197282Y67016D01*
X198578Y66990D01*
X199848Y66863D01*
X201118Y66635D01*
X202337Y66330D01*
X203556Y65898D01*
X204724Y65390D01*
X205868Y64806D01*
X206960Y64120D01*
X207976Y63358D01*
X208941Y62520D01*
X209830Y61605D01*
X210668Y60615D01*
X211405Y59573D01*
X212065Y58481D01*
X212649Y57338D01*
X213132Y56144D01*
X213513Y54925D01*
X213818Y53681D01*
X214021Y52411D01*
X214122Y51141D01*
X214122Y49871D01*
X214021Y48601D01*
X213818Y47331D01*
X213513Y46086D01*
X213132Y44867D01*
X212649Y43673D01*
X212065Y42530D01*
X211405Y41438D01*
X210668Y40396D01*
X209830Y39406D01*
X208941Y38491D01*
X207976Y37653D01*
X206960Y36891D01*
X205868Y36205D01*
X204724Y35621D01*
X203556Y35113D01*
X202337Y34681D01*
X201118Y34377D01*
X199848Y34148D01*
X198578Y34021D01*
X197282Y33996D01*
X196012Y34072D01*
X194742Y34250D01*
X193498Y34529D01*
X192278Y34885D01*
X191085Y35342D01*
X189916Y35901D01*
X188799Y36536D01*
X187757Y37272D01*
X186767Y38060D01*
X185827Y38949D01*
X184963Y39888D01*
X184176Y40904D01*
X183465Y41971D01*
X182855Y43089D01*
X182322Y44257D01*
X181890Y45476D01*
X181560Y46696D01*
X181306Y47966D01*
X181153Y49236D01*
G54D16*
X175417Y169970D02*
X220731Y169970D01*
G54D16*
X227081Y150920D02*
X227081Y131007D01*
G54D16*
X220731Y111957D02*
X175417Y111957D01*
G54D16*
X169067Y131007D02*
X169067Y150920D01*
G54D16*
X181615Y139694D02*
X181564Y140964D01*
X181615Y142234D01*
X181767Y143504D01*
X182021Y144774D01*
X182351Y145993D01*
X182783Y147212D01*
X183316Y148380D01*
X183926Y149498D01*
X184637Y150565D01*
X185425Y151581D01*
X186288Y152521D01*
X187228Y153410D01*
X188219Y154197D01*
X189260Y154934D01*
X190378Y155569D01*
X191546Y156127D01*
X192740Y156585D01*
X193959Y156940D01*
X195204Y157220D01*
X196474Y157397D01*
X197744Y157474D01*
X199039Y157448D01*
X200309Y157321D01*
X201579Y157093D01*
X202798Y156788D01*
X204017Y156356D01*
X205186Y155848D01*
X206329Y155264D01*
X207421Y154578D01*
X208437Y153816D01*
X209402Y152978D01*
X210291Y152063D01*
X211129Y151073D01*
X211866Y150031D01*
X212526Y148939D01*
X213111Y147796D01*
X213593Y146602D01*
X213974Y145383D01*
X214279Y144139D01*
X214482Y142869D01*
X214584Y141599D01*
X214584Y140329D01*
X214482Y139059D01*
X214279Y137789D01*
X213974Y136544D01*
X213593Y135325D01*
X213111Y134131D01*
X212526Y132988D01*
X211866Y131896D01*
X211129Y130854D01*
X210291Y129864D01*
X209402Y128949D01*
X208437Y128111D01*
X207421Y127349D01*
X206329Y126663D01*
X205186Y126079D01*
X204017Y125571D01*
X202798Y125139D01*
X201579Y124835D01*
X200309Y124606D01*
X199039Y124479D01*
X197744Y124454D01*
X196474Y124530D01*
X195204Y124708D01*
X193959Y124987D01*
X192740Y125343D01*
X191546Y125800D01*
X190378Y126359D01*
X189260Y126994D01*
X188219Y127730D01*
X187228Y128518D01*
X186288Y129407D01*
X185425Y130346D01*
X184637Y131362D01*
X183926Y132429D01*
X183316Y133547D01*
X182783Y134715D01*
X182351Y135934D01*
X182021Y137154D01*
X181767Y138424D01*
X181615Y139694D01*
G54D14*
X52152Y154066D02*
X52152Y162954D01*
X55485Y162954D01*
X56819Y162399D01*
X57485Y161288D01*
X57485Y160177D01*
X56819Y159066D01*
X55485Y158510D01*
X56819Y157954D01*
X57485Y156843D01*
X57485Y155732D01*
X56819Y154621D01*
X55485Y154066D01*
X52152Y154066D01*
G54D14*
X52152Y158510D02*
X55485Y158510D01*
G54D14*
X63929Y159066D02*
X63929Y154066D01*
G54D14*
X63929Y155177D02*
X63262Y154288D01*
X61929Y154066D01*
X60596Y154288D01*
X59929Y155177D01*
X59929Y159066D01*
G54D14*
X66373Y159066D02*
X70373Y159066D01*
X66373Y154066D01*
X70373Y154066D01*
G54D14*
X72817Y159066D02*
X76817Y159066D01*
X72817Y154066D01*
X76817Y154066D01*
G54D14*
X83261Y154621D02*
X82194Y154066D01*
X80861Y154066D01*
X79528Y154621D01*
X79261Y155732D01*
X79261Y157621D01*
X79928Y158732D01*
X81261Y159066D01*
X82594Y158732D01*
X83261Y157954D01*
X83261Y156843D01*
X79261Y156843D01*
G54D14*
X85705Y154066D02*
X85705Y159066D01*
G54D14*
X85705Y157954D02*
X87038Y159066D01*
X88372Y159066D01*
G54D14*
X328281Y38178D02*
X323614Y38178D01*
X323614Y47067D01*
X328281Y47067D01*
G54D14*
X323614Y42622D02*
X328281Y42622D01*
G54D14*
X330726Y38178D02*
X330726Y43178D01*
G54D14*
X330726Y42067D02*
X331392Y42845D01*
X332726Y43178D01*
X334059Y42845D01*
X334726Y42067D01*
X334726Y38178D01*
G54D14*
X340503Y42845D02*
X339170Y43178D01*
X337836Y42845D01*
X337170Y41734D01*
X337170Y39511D01*
X337836Y38400D01*
X339170Y38178D01*
X340503Y38400D01*
G54D14*
X346946Y39511D02*
X346946Y41734D01*
X346280Y42845D01*
X344946Y43178D01*
X343613Y42845D01*
X342946Y41734D01*
X342946Y39511D01*
X343613Y38400D01*
X344946Y38178D01*
X346280Y38400D01*
X346946Y39511D01*
G54D14*
X353390Y38178D02*
X353390Y47067D01*
G54D14*
X353390Y41734D02*
X352724Y42845D01*
X351390Y43178D01*
X350057Y42845D01*
X349390Y41734D01*
X349390Y39511D01*
X350057Y38400D01*
X351390Y38178D01*
X352724Y38400D01*
X353390Y39511D01*
G54D14*
X359834Y38734D02*
X358768Y38178D01*
X357434Y38178D01*
X356101Y38734D01*
X355834Y39845D01*
X355834Y41734D01*
X356501Y42845D01*
X357834Y43178D01*
X359168Y42845D01*
X359834Y42067D01*
X359834Y40956D01*
X355834Y40956D01*
G54D14*
X362278Y38178D02*
X362278Y43178D01*
G54D14*
X362278Y42067D02*
X363612Y43178D01*
X364945Y43178D01*
G54D17*
X242940Y145540D02*
X251740Y145540D01*
G54D17*
X241962Y139429D02*
X250762Y139429D01*
G54D17*
X243918Y135762D02*
X245873Y149207D01*
G54D17*
X247829Y135762D02*
X249784Y149207D01*
G54D17*
X266406Y133318D02*
X258584Y133318D01*
X258584Y134540D01*
X259562Y136985D01*
X265429Y144318D01*
X266406Y146762D01*
X266406Y149207D01*
X265429Y151651D01*
X263473Y152874D01*
X261517Y152874D01*
X259562Y151651D01*
X258584Y149207D01*
G54D17*
X242940Y51878D02*
X251740Y51878D01*
G54D17*
X241962Y45767D02*
X250762Y45767D01*
G54D17*
X243918Y42100D02*
X245873Y55544D01*
G54D17*
X247829Y42100D02*
X249784Y55544D01*
G54D17*
X258584Y55544D02*
X259562Y57989D01*
X261517Y59211D01*
X263473Y59211D01*
X265429Y57989D01*
X266406Y55544D01*
X266406Y53100D01*
X265429Y50656D01*
X263473Y49433D01*
X265429Y48211D01*
X266406Y45767D01*
X266406Y43322D01*
X265429Y40878D01*
X263473Y39656D01*
X261517Y39656D01*
X259562Y40878D01*
X258584Y43322D01*
G54D17*
X114352Y53465D02*
X123152Y53465D01*
G54D17*
X113375Y47354D02*
X122175Y47354D01*
G54D17*
X115330Y43687D02*
X117286Y57132D01*
G54D17*
X119241Y43687D02*
X121197Y57132D01*
G54D17*
X129997Y53465D02*
X134886Y60799D01*
X134886Y41243D01*
G54D15*
X102816Y324037D02*
X102816Y317637D01*
G54D15*
X106816Y320837D02*
X98816Y320837D01*
M02*
