%FSLAX34Y34*%
%MOMM*%
%LNSILK_BOTTOM*%
G71*
G01*
%ADD10C,0.150*%
%ADD11C,0.111*%
%ADD12C,0.222*%
%ADD13C,0.200*%
%LPD*%
G54D10*
X925434Y875878D02*
X945434Y875878D01*
X945434Y837878D01*
X925434Y837878D01*
X925434Y875878D01*
G54D10*
X676197Y875878D02*
X696197Y875878D01*
X696197Y837878D01*
X676197Y837878D01*
X676197Y875878D01*
G54D10*
X425372Y875878D02*
X445372Y875878D01*
X445372Y837878D01*
X425372Y837878D01*
X425372Y875878D01*
G54D10*
X176134Y875878D02*
X196134Y875878D01*
X196134Y837878D01*
X176134Y837878D01*
X176134Y875878D01*
G54D10*
X287813Y915666D02*
X267813Y915666D01*
X267813Y953666D01*
X287813Y953666D01*
X287813Y915666D01*
G54D10*
X520225Y916856D02*
X540225Y916856D01*
X540225Y954856D01*
X520225Y954856D01*
X520225Y916856D01*
G54D10*
X873075Y957366D02*
X873075Y937366D01*
X835075Y937366D01*
X835075Y957366D01*
X873075Y957366D01*
G54D10*
X120600Y956572D02*
X120600Y936572D01*
X82600Y936572D01*
X82600Y956572D01*
X120600Y956572D01*
G54D11*
X938324Y885903D02*
X936324Y884792D01*
X935657Y883681D01*
X935657Y881459D01*
G54D11*
X940991Y881459D02*
X940991Y890348D01*
X937657Y890348D01*
X936324Y889792D01*
X935657Y888681D01*
X935657Y887570D01*
X936324Y886459D01*
X937657Y885903D01*
X940991Y885903D01*
G54D11*
X933214Y887015D02*
X929880Y890348D01*
X929880Y881459D01*
G54D11*
X891889Y947419D02*
X889889Y946308D01*
X889222Y945197D01*
X889222Y942975D01*
G54D11*
X894556Y942975D02*
X894556Y951864D01*
X891222Y951864D01*
X889889Y951308D01*
X889222Y950197D01*
X889222Y949086D01*
X889889Y947975D01*
X891222Y947419D01*
X894556Y947419D01*
G54D11*
X881445Y942975D02*
X886778Y942975D01*
X886778Y943530D01*
X886112Y944641D01*
X882112Y947975D01*
X881445Y949086D01*
X881445Y950197D01*
X882112Y951308D01*
X883445Y951864D01*
X884778Y951864D01*
X886112Y951308D01*
X886778Y950197D01*
G54D11*
X691070Y886300D02*
X689070Y885189D01*
X688404Y884078D01*
X688404Y881856D01*
G54D11*
X693737Y881856D02*
X693737Y890745D01*
X690404Y890745D01*
X689070Y890189D01*
X688404Y889078D01*
X688404Y887967D01*
X689070Y886856D01*
X690404Y886300D01*
X693737Y886300D01*
G54D11*
X685960Y889078D02*
X685293Y890189D01*
X683960Y890745D01*
X682627Y890745D01*
X681293Y890189D01*
X680627Y889078D01*
X680627Y887967D01*
X681293Y886856D01*
X682627Y886300D01*
X681293Y885745D01*
X680627Y884634D01*
X680627Y883523D01*
X681293Y882411D01*
X682627Y881856D01*
X683960Y881856D01*
X685293Y882411D01*
X685960Y883523D01*
G54D11*
X535099Y964882D02*
X533099Y963770D01*
X532433Y962659D01*
X532433Y960437D01*
G54D11*
X537766Y960437D02*
X537766Y969326D01*
X534433Y969326D01*
X533099Y968770D01*
X532433Y967659D01*
X532433Y966548D01*
X533099Y965437D01*
X534433Y964882D01*
X537766Y964882D01*
G54D11*
X525989Y960437D02*
X525989Y969326D01*
X529989Y963770D01*
X529989Y962659D01*
X524656Y962659D01*
G54D11*
X440246Y886697D02*
X438246Y885586D01*
X437579Y884475D01*
X437579Y882253D01*
G54D11*
X442912Y882253D02*
X442912Y891142D01*
X439579Y891142D01*
X438246Y890586D01*
X437579Y889475D01*
X437579Y888364D01*
X438246Y887253D01*
X439579Y886697D01*
X442912Y886697D01*
G54D11*
X429802Y891142D02*
X435136Y891142D01*
X435136Y887253D01*
X434469Y887253D01*
X433136Y887808D01*
X431802Y887808D01*
X430469Y887253D01*
X429802Y886142D01*
X429802Y883919D01*
X430469Y882808D01*
X431802Y882253D01*
X433136Y882253D01*
X434469Y882808D01*
X435136Y883919D01*
G54D11*
X281099Y964088D02*
X279099Y962977D01*
X278432Y961866D01*
X278432Y959643D01*
G54D11*
X283766Y959643D02*
X283766Y968532D01*
X280432Y968532D01*
X279099Y967977D01*
X278432Y966866D01*
X278432Y965754D01*
X279099Y964643D01*
X280432Y964088D01*
X283766Y964088D01*
G54D11*
X270655Y966866D02*
X271322Y967977D01*
X272655Y968532D01*
X273989Y968532D01*
X275322Y967977D01*
X275989Y966866D01*
X275989Y964088D01*
X275989Y963532D01*
X273989Y964643D01*
X272655Y964643D01*
X271322Y964088D01*
X270655Y962977D01*
X270655Y961310D01*
X271322Y960199D01*
X272655Y959643D01*
X273989Y959643D01*
X275322Y960199D01*
X275989Y961310D01*
X275989Y964088D01*
G54D11*
X189421Y885903D02*
X187421Y884792D01*
X186754Y883681D01*
X186754Y881459D01*
G54D11*
X192088Y881459D02*
X192088Y890348D01*
X188754Y890348D01*
X187421Y889792D01*
X186754Y888681D01*
X186754Y887570D01*
X187421Y886459D01*
X188754Y885903D01*
X192088Y885903D01*
G54D11*
X184310Y890348D02*
X178977Y890348D01*
X179644Y889237D01*
X180977Y887570D01*
X182310Y885348D01*
X182977Y883681D01*
X182977Y881459D01*
G54D11*
X135446Y945832D02*
X133446Y944720D01*
X132779Y943609D01*
X132779Y941387D01*
G54D11*
X138112Y941387D02*
X138112Y950276D01*
X134779Y950276D01*
X133446Y949720D01*
X132779Y948609D01*
X132779Y947498D01*
X133446Y946387D01*
X134779Y945832D01*
X138112Y945832D01*
G54D11*
X127002Y945832D02*
X128335Y945832D01*
X129669Y946387D01*
X130335Y947498D01*
X130335Y948609D01*
X129669Y949720D01*
X128335Y950276D01*
X127002Y950276D01*
X125669Y949720D01*
X125002Y948609D01*
X125002Y947498D01*
X125669Y946387D01*
X127002Y945832D01*
X125669Y945276D01*
X125002Y944165D01*
X125002Y943054D01*
X125669Y941943D01*
X127002Y941387D01*
X128335Y941387D01*
X129669Y941943D01*
X130335Y943054D01*
X130335Y944165D01*
X129669Y945276D01*
X128335Y945832D01*
G54D12*
X986234Y666241D02*
X978768Y666241D01*
G54D12*
X982501Y669352D02*
X982501Y663130D01*
G54D12*
X974411Y668574D02*
X969745Y673241D01*
X969745Y660796D01*
G54D12*
X957922Y660796D02*
X965388Y660796D01*
X965388Y661574D01*
X964455Y663130D01*
X958855Y667796D01*
X957922Y669352D01*
X957922Y670908D01*
X958855Y672463D01*
X960722Y673241D01*
X962588Y673241D01*
X964455Y672463D01*
X965388Y670908D01*
G54D12*
X953565Y667796D02*
X949832Y660796D01*
X946099Y667796D01*
G54D12*
X705247Y977788D02*
X697780Y977788D01*
G54D12*
X701514Y980899D02*
X701514Y974677D01*
G54D12*
X693424Y980121D02*
X688757Y984788D01*
X688757Y972343D01*
G54D12*
X676934Y972343D02*
X684401Y972343D01*
X684401Y973121D01*
X683468Y974677D01*
X677868Y979343D01*
X676934Y980899D01*
X676934Y982454D01*
X677868Y984010D01*
X679734Y984788D01*
X681601Y984788D01*
X683468Y984010D01*
X684401Y982454D01*
G54D12*
X672578Y979343D02*
X668845Y972343D01*
X665111Y979343D01*
G54D12*
X51197Y572182D02*
X43730Y572182D01*
G54D12*
X47464Y575293D02*
X47464Y569070D01*
G54D12*
X39374Y574515D02*
X34707Y579182D01*
X34707Y566737D01*
G54D12*
X22884Y566737D02*
X30351Y566737D01*
X30351Y567515D01*
X29418Y569070D01*
X23818Y573737D01*
X22884Y575293D01*
X22884Y576848D01*
X23818Y578404D01*
X25684Y579182D01*
X27551Y579182D01*
X29418Y578404D01*
X30351Y576848D01*
G54D12*
X18528Y573737D02*
X14795Y566737D01*
X11061Y573737D01*
G54D12*
X706834Y17350D02*
X699368Y17350D01*
G54D12*
X703101Y20462D02*
X703101Y14239D01*
G54D12*
X695011Y19684D02*
X690345Y24350D01*
X690345Y11906D01*
G54D12*
X678522Y11906D02*
X685988Y11906D01*
X685988Y12684D01*
X685055Y14239D01*
X679455Y18906D01*
X678522Y20462D01*
X678522Y22017D01*
X679455Y23572D01*
X681322Y24350D01*
X683188Y24350D01*
X685055Y23572D01*
X685988Y22017D01*
G54D12*
X674165Y18906D02*
X670432Y11906D01*
X666699Y18906D01*
G54D12*
X439973Y18128D02*
X436240Y18128D01*
X436240Y14239D01*
X437173Y12684D01*
X439040Y11906D01*
X440906Y11906D01*
X442773Y12684D01*
X443706Y14239D01*
X443706Y22017D01*
X442773Y23572D01*
X440906Y24350D01*
X439040Y24350D01*
X437173Y23572D01*
X436240Y22017D01*
G54D12*
X431883Y11906D02*
X431883Y24350D01*
X424417Y11906D01*
X424417Y24350D01*
G54D12*
X420060Y11906D02*
X420060Y24350D01*
X415394Y24350D01*
X413527Y23572D01*
X412594Y22017D01*
X412594Y14239D01*
X413527Y12684D01*
X415394Y11906D01*
X420060Y11906D01*
G54D12*
X38335Y417781D02*
X34602Y417781D01*
X34602Y413892D01*
X35535Y412337D01*
X37402Y411559D01*
X39269Y411559D01*
X41135Y412337D01*
X42069Y413892D01*
X42069Y421670D01*
X41135Y423226D01*
X39269Y424003D01*
X37402Y424003D01*
X35535Y423226D01*
X34602Y421670D01*
G54D12*
X30246Y411559D02*
X30246Y424003D01*
X22779Y411559D01*
X22779Y424003D01*
G54D12*
X18423Y411559D02*
X18423Y424003D01*
X13756Y424003D01*
X11889Y423226D01*
X10956Y421670D01*
X10956Y413892D01*
X11889Y412337D01*
X13756Y411559D01*
X18423Y411559D01*
G54D12*
X441560Y977375D02*
X437827Y977375D01*
X437827Y973486D01*
X438760Y971931D01*
X440627Y971153D01*
X442494Y971153D01*
X444360Y971931D01*
X445294Y973486D01*
X445294Y981264D01*
X444360Y982819D01*
X442494Y983597D01*
X440627Y983597D01*
X438760Y982819D01*
X437827Y981264D01*
G54D12*
X433471Y971153D02*
X433471Y983597D01*
X426004Y971153D01*
X426004Y983597D01*
G54D12*
X421648Y971153D02*
X421648Y983597D01*
X416981Y983597D01*
X415114Y982819D01*
X414181Y981264D01*
X414181Y973486D01*
X415114Y971931D01*
X416981Y971153D01*
X421648Y971153D01*
G54D12*
X980120Y418972D02*
X976386Y418972D01*
X976386Y415083D01*
X977320Y413527D01*
X979186Y412750D01*
X981053Y412750D01*
X982920Y413527D01*
X983853Y415083D01*
X983853Y422861D01*
X982920Y424416D01*
X981053Y425194D01*
X979186Y425194D01*
X977320Y424416D01*
X976386Y422861D01*
G54D12*
X972030Y412750D02*
X972030Y425194D01*
X964563Y412750D01*
X964563Y425194D01*
G54D12*
X960207Y412750D02*
X960207Y425194D01*
X955540Y425194D01*
X953674Y424416D01*
X952740Y422861D01*
X952740Y415083D01*
X953674Y413527D01*
X955540Y412750D01*
X960207Y412750D01*
G54D13*
X592534Y996156D02*
X654447Y996156D01*
X654447Y922734D01*
X592534Y922734D01*
X592534Y996156D01*
G54D13*
X342106Y996156D02*
X404019Y996156D01*
X404019Y922734D01*
X342106Y922734D01*
X342106Y996156D01*
G54D13*
X340916Y73818D02*
X402828Y73818D01*
X402828Y396D01*
X340916Y396D01*
X340916Y73818D01*
G54D13*
X594122Y73818D02*
X656034Y73818D01*
X656034Y396D01*
X594122Y396D01*
X594122Y73818D01*
G54D13*
X997347Y401637D02*
X997347Y339725D01*
X923925Y339725D01*
X923925Y401637D01*
X997347Y401637D01*
G54D13*
X997347Y652066D02*
X997347Y590153D01*
X923925Y590153D01*
X923925Y652066D01*
X997347Y652066D01*
G54D13*
X73422Y400447D02*
X73422Y338534D01*
X0Y338534D01*
X0Y400447D01*
X73422Y400447D01*
G54D13*
X73422Y650875D02*
X73422Y588962D01*
X0Y588962D01*
X0Y650875D01*
X73422Y650875D01*
M02*
