%FSLAX34Y34*%
%MOMM*%
%LNSILK_BOTTOM*%
G71*
G01*
%ADD10C,0.150*%
%ADD11C,0.100*%
%ADD12C,0.111*%
%ADD13C,0.175*%
%ADD14C,0.200*%
%ADD15C,0.397*%
%LPD*%
G54D10*
X123416Y332959D02*
X101416Y332959D01*
X101416Y282959D01*
X123416Y282959D01*
X123416Y332959D01*
G54D11*
X112695Y315000D02*
X112695Y311799D01*
X114295Y311799D01*
X114295Y303900D01*
X111095Y303899D01*
X111095Y311799D01*
X112695Y311799D01*
G54D11*
X112695Y303899D02*
X112695Y300700D01*
G54D12*
X133593Y299107D02*
X136926Y302440D01*
X128037Y302440D01*
G54D12*
X135259Y310217D02*
X129704Y310217D01*
X128593Y309551D01*
X128037Y308217D01*
X128037Y306884D01*
X128593Y305551D01*
X129704Y304884D01*
X135259Y304884D01*
X136370Y305551D01*
X136926Y306884D01*
X136926Y308217D01*
X136370Y309551D01*
X135259Y310217D01*
G54D12*
X135259Y317994D02*
X129704Y317994D01*
X128593Y317328D01*
X128037Y315994D01*
X128037Y314661D01*
X128593Y313328D01*
X129704Y312661D01*
X135259Y312661D01*
X136370Y313328D01*
X136926Y314661D01*
X136926Y315994D01*
X136370Y317328D01*
X135259Y317994D01*
G54D10*
X127865Y242306D02*
X127865Y264306D01*
X177865Y264306D01*
X177865Y242306D01*
X127865Y242306D01*
G54D11*
X145825Y253027D02*
X149025Y253027D01*
X149025Y251427D01*
X156925Y251427D01*
X156925Y254627D01*
X149025Y254627D01*
X149025Y253027D01*
G54D11*
X156925Y253027D02*
X160125Y253027D01*
G54D12*
X157826Y268880D02*
X163159Y268880D01*
X163159Y269435D01*
X162493Y270546D01*
X158493Y273880D01*
X157826Y274991D01*
X157826Y276102D01*
X158493Y277213D01*
X159826Y277769D01*
X161159Y277769D01*
X162493Y277213D01*
X163159Y276102D01*
G54D12*
X150049Y268880D02*
X155382Y268880D01*
X155382Y269435D01*
X154716Y270546D01*
X150716Y273880D01*
X150049Y274991D01*
X150049Y276102D01*
X150716Y277213D01*
X152049Y277769D01*
X153382Y277769D01*
X154716Y277213D01*
X155382Y276102D01*
G54D12*
X147605Y268880D02*
X147605Y277769D01*
G54D12*
X145605Y272213D02*
X143605Y268880D01*
G54D12*
X147605Y271102D02*
X143605Y273880D01*
G54D10*
X763682Y167664D02*
X785682Y167664D01*
X785682Y117664D01*
X763682Y117664D01*
X763682Y167664D01*
G54D11*
X774404Y149704D02*
X774404Y146504D01*
X772804Y146504D01*
X772804Y138604D01*
X776004Y138604D01*
X776004Y146504D01*
X774404Y146504D01*
G54D11*
X774404Y138604D02*
X774404Y135404D01*
G54D12*
X796606Y135148D02*
X799939Y138481D01*
X791050Y138481D01*
G54D12*
X798273Y146258D02*
X792717Y146258D01*
X791606Y145591D01*
X791050Y144258D01*
X791050Y142925D01*
X791606Y141591D01*
X792717Y140925D01*
X798273Y140925D01*
X799384Y141591D01*
X799939Y142925D01*
X799939Y144258D01*
X799384Y145591D01*
X798273Y146258D01*
G54D12*
X791050Y148702D02*
X799939Y148702D01*
G54D12*
X794384Y150702D02*
X791050Y152702D01*
G54D12*
X793273Y148702D02*
X796050Y152702D01*
G54D11*
X239560Y103705D02*
X231560Y103705D01*
X231560Y108705D01*
X231560Y98705D01*
G54D11*
X229560Y108705D02*
X229560Y98705D01*
G54D11*
X229560Y103705D02*
X221560Y103705D01*
G54D10*
X204899Y114709D02*
X204899Y92709D01*
X254899Y92709D01*
X254899Y114709D01*
X204899Y114709D01*
G54D12*
X239384Y126156D02*
X239384Y120600D01*
X240050Y119489D01*
X241384Y118933D01*
X242717Y118933D01*
X244050Y119489D01*
X244717Y120600D01*
X244717Y126156D01*
X244050Y127267D01*
X242717Y127822D01*
X241384Y127822D01*
X240050Y127267D01*
X239384Y126156D01*
G54D12*
X236940Y118933D02*
X236940Y118933D01*
G54D12*
X234496Y126156D02*
X233830Y127267D01*
X232496Y127822D01*
X231163Y127822D01*
X229830Y127267D01*
X229163Y126156D01*
X229163Y125044D01*
X229830Y123933D01*
X231163Y123378D01*
X229830Y122822D01*
X229163Y121711D01*
X229163Y120600D01*
X229830Y119489D01*
X231163Y118933D01*
X232496Y118933D01*
X233830Y119489D01*
X234496Y120600D01*
G54D12*
X226719Y126156D02*
X226052Y127267D01*
X224719Y127822D01*
X223386Y127822D01*
X222052Y127267D01*
X221386Y126156D01*
X221386Y125044D01*
X222052Y123933D01*
X223386Y123378D01*
X222052Y122822D01*
X221386Y121711D01*
X221386Y120600D01*
X222052Y119489D01*
X223386Y118933D01*
X224719Y118933D01*
X226052Y119489D01*
X226719Y120600D01*
G54D12*
X214942Y123933D02*
X214942Y118933D01*
G54D12*
X214942Y120044D02*
X215609Y119156D01*
X216942Y118933D01*
X218276Y119156D01*
X218942Y120044D01*
X218942Y123933D01*
G54D11*
X239560Y33061D02*
X231560Y33061D01*
X231560Y38061D01*
X231560Y28061D01*
G54D11*
X229560Y38061D02*
X229560Y28061D01*
G54D11*
X229560Y33061D02*
X221560Y33061D01*
G54D10*
X204899Y44065D02*
X204899Y22065D01*
X254899Y22065D01*
X254899Y44065D01*
X204899Y44065D01*
G54D12*
X233828Y55909D02*
X233828Y50353D01*
X234494Y49242D01*
X235828Y48686D01*
X237161Y48686D01*
X238494Y49242D01*
X239161Y50353D01*
X239161Y55909D01*
X238494Y57020D01*
X237161Y57575D01*
X235828Y57575D01*
X234494Y57020D01*
X233828Y55909D01*
G54D12*
X231384Y48686D02*
X231384Y48686D01*
G54D12*
X228940Y54242D02*
X225606Y57575D01*
X225606Y48686D01*
G54D12*
X219163Y53686D02*
X219163Y48686D01*
G54D12*
X219163Y49798D02*
X219830Y48909D01*
X221163Y48686D01*
X222496Y48909D01*
X223163Y49798D01*
X223163Y53686D01*
G54D13*
X738342Y374839D02*
X748120Y374839D01*
X748120Y378505D01*
X747509Y379972D01*
X746286Y380705D01*
X740175Y380705D01*
X738953Y379972D01*
X738342Y378505D01*
X738342Y374839D01*
G54D13*
X738953Y388528D02*
X738342Y387354D01*
X738342Y385888D01*
X738953Y384421D01*
X740175Y384128D01*
X742253Y384128D01*
X743475Y384861D01*
X743842Y386328D01*
X743475Y387794D01*
X742620Y388528D01*
X741398Y388528D01*
X741398Y384128D01*
G54D13*
X738342Y391950D02*
X743842Y391950D01*
G54D13*
X742864Y391950D02*
X743842Y393416D01*
X743475Y394883D01*
X742620Y395616D01*
X738342Y395616D01*
G54D13*
X742864Y395616D02*
X743842Y397083D01*
X743475Y398550D01*
X742620Y399283D01*
X738342Y399283D01*
G54D13*
X738953Y407105D02*
X738342Y405931D01*
X738342Y404465D01*
X738953Y402998D01*
X740175Y402705D01*
X742253Y402705D01*
X743475Y403438D01*
X743842Y404905D01*
X743475Y406371D01*
X742620Y407105D01*
X741398Y407105D01*
X741398Y402705D01*
G54D13*
X738342Y410527D02*
X743842Y410527D01*
G54D13*
X742620Y410527D02*
X743475Y411260D01*
X743842Y412727D01*
X743475Y414193D01*
X742620Y414927D01*
X738342Y414927D01*
G54D13*
X748120Y419815D02*
X738953Y419815D01*
X738342Y420549D01*
X738586Y421282D01*
G54D13*
X743842Y418349D02*
X743842Y421282D01*
G54D13*
X738342Y424704D02*
X743842Y424704D01*
G54D13*
X745675Y424704D02*
X745675Y424704D01*
G54D13*
X738953Y432526D02*
X738342Y431352D01*
X738342Y429886D01*
X738953Y428419D01*
X740175Y428126D01*
X742253Y428126D01*
X743475Y428859D01*
X743842Y430326D01*
X743475Y431792D01*
X742620Y432526D01*
X741398Y432526D01*
X741398Y428126D01*
G54D13*
X743842Y435948D02*
X738342Y438881D01*
X743842Y441814D01*
G54D11*
G75*
G01X697683Y421209D02*
G03X697683Y391764I8500J-14722D01*
G01*
G36*
G75*
G01X697683Y421209D02*
G03X697683Y391764I8500J-14722D01*
G01*
G37*
X697683Y421209D01*
G36*
X697683Y421209D02*
X716442Y421209D01*
X716455Y421196D01*
X716455Y415640D01*
X712486Y417227D01*
X716058Y412465D01*
X716058Y405718D01*
X709708Y409290D01*
X716058Y402146D01*
X716058Y398177D01*
X710502Y400162D01*
X710502Y396987D01*
X715661Y393415D01*
X715661Y391034D01*
X698414Y391034D01*
X697683Y391764D01*
X697683Y421209D01*
G37*
G54D11*
X697683Y421209D02*
X716442Y421209D01*
X716455Y421196D01*
X716455Y415640D01*
X712486Y417227D01*
X716058Y412465D01*
X716058Y405718D01*
X709708Y409290D01*
X716058Y402146D01*
X716058Y398177D01*
X710502Y400162D01*
X710502Y396987D01*
X715661Y393415D01*
X715661Y391034D01*
X698414Y391034D01*
X697683Y391764D01*
X697683Y421209D01*
G36*
X708120Y441040D02*
X700977Y442230D01*
X695024Y441040D01*
X697008Y445405D01*
X708120Y441040D01*
G37*
G54D11*
X708120Y441040D02*
X700977Y442230D01*
X695024Y441040D01*
X697008Y445405D01*
X708120Y441040D01*
G54D11*
G75*
G01X708142Y440999D02*
G03X685629Y377069I-5159J-34112D01*
G01*
G36*
X695024Y441040D02*
X689467Y444612D01*
X686292Y441040D01*
X689070Y438659D01*
X695024Y441040D01*
G37*
G54D11*
X695024Y441040D02*
X689467Y444612D01*
X686292Y441040D01*
X689070Y438659D01*
X695024Y441040D01*
G36*
X687086Y437865D02*
X679545Y443024D01*
X676767Y439055D01*
X681133Y433896D01*
X667242Y441834D01*
X665258Y436674D01*
X676370Y429530D01*
X680736Y434293D01*
X687086Y437865D01*
G37*
G54D11*
X687086Y437865D02*
X679545Y443024D01*
X676767Y439055D01*
X681133Y433896D01*
X667242Y441834D01*
X665258Y436674D01*
X676370Y429530D01*
X680736Y434293D01*
X687086Y437865D01*
G36*
X674386Y427149D02*
X670417Y420005D01*
X668830Y412465D01*
X666448Y416830D01*
X668433Y421593D01*
X671211Y421990D01*
X665258Y427149D01*
X667639Y431912D01*
X674386Y427149D01*
G37*
G54D11*
X674386Y427149D02*
X670417Y420005D01*
X668830Y412465D01*
X666448Y416830D01*
X668433Y421593D01*
X671211Y421990D01*
X665258Y427149D01*
X667639Y431912D01*
X674386Y427149D01*
G36*
X668036Y407305D02*
X664464Y409687D01*
X662480Y404130D01*
X668433Y400955D01*
X668036Y407305D01*
G37*
G54D11*
X668036Y407305D02*
X664464Y409687D01*
X662480Y404130D01*
X668433Y400955D01*
X668036Y407305D01*
G36*
X685629Y377069D02*
X681927Y378730D01*
X675974Y383890D01*
X671211Y391827D01*
X669624Y397780D01*
X667242Y392224D01*
X669624Y390240D01*
X667242Y385477D01*
X669624Y384684D01*
X668433Y383493D01*
X668433Y376349D01*
X685629Y377069D01*
G37*
G54D11*
X685629Y377069D02*
X681927Y378730D01*
X675974Y383890D01*
X671211Y391827D01*
X669624Y397780D01*
X667242Y392224D01*
X669624Y390240D01*
X667242Y385477D01*
X669624Y384684D01*
X668433Y383493D01*
X668433Y376349D01*
X685629Y377069D01*
G54D14*
X396285Y315978D02*
X396285Y328678D01*
X389935Y335028D01*
X377235Y335028D01*
X370885Y328678D01*
X364535Y335028D01*
X351835Y335028D01*
X345485Y328678D01*
X345485Y315978D01*
X351835Y309628D01*
X364535Y309628D01*
X370885Y315978D01*
X377235Y309628D01*
X389935Y309628D01*
X396285Y315978D01*
G54D14*
X370885Y328678D02*
X370885Y315978D01*
G54D14*
X345485Y315978D02*
X339135Y309628D01*
X326435Y309628D01*
X320085Y315978D01*
X313735Y309628D01*
X301035Y309628D01*
X294685Y315978D01*
X288335Y309628D01*
X275635Y309628D01*
X269285Y315978D01*
X262935Y309628D01*
X250235Y309628D01*
X243885Y315978D01*
X243885Y328678D01*
X250235Y335028D01*
X262935Y335028D01*
X269285Y328678D01*
X269285Y315978D01*
G54D14*
X269285Y328678D02*
X275635Y335028D01*
X288335Y335028D01*
X294685Y328678D01*
X294685Y315978D01*
G54D14*
X294685Y328678D02*
X301035Y335028D01*
X313735Y335028D01*
X320085Y328678D01*
X320085Y315978D01*
G54D14*
X320085Y328282D02*
X326435Y334632D01*
X339135Y334632D01*
X345485Y328282D01*
G54D14*
X389300Y377262D02*
X389300Y447366D01*
X319196Y447366D01*
X319196Y380818D01*
X322752Y377262D01*
X389300Y377262D01*
G54D14*
X327400Y388413D02*
X326816Y388464D01*
X326232Y388413D01*
X325648Y388260D01*
X325114Y388032D01*
X324606Y387702D01*
X324175Y387295D01*
X323819Y386838D01*
X323540Y386330D01*
X323336Y385771D01*
X323235Y385187D01*
X323235Y384578D01*
X323336Y383993D01*
X323540Y383434D01*
X323819Y382926D01*
X324175Y382469D01*
X324606Y382063D01*
X325114Y381733D01*
X325648Y381504D01*
X326232Y381352D01*
X326816Y381301D01*
X327400Y381352D01*
X327985Y381504D01*
X328518Y381733D01*
X329026Y382063D01*
X329458Y382469D01*
X329814Y382926D01*
X330093Y383434D01*
X330296Y383993D01*
X330398Y384578D01*
X330398Y385187D01*
X330296Y385771D01*
X330093Y386330D01*
X329814Y386838D01*
X329458Y387295D01*
X329026Y387702D01*
X328518Y388032D01*
X327985Y388260D01*
X327400Y388413D01*
G54D12*
X428281Y318991D02*
X428281Y327880D01*
X423614Y327880D01*
G54D12*
X428281Y323435D02*
X423614Y323435D01*
G54D12*
X418504Y318991D02*
X418504Y327880D01*
G54D12*
X421170Y327880D02*
X415837Y327880D01*
G54D12*
X413393Y318991D02*
X413393Y327880D01*
X410060Y327880D01*
X408726Y327324D01*
X408060Y326213D01*
X408060Y320658D01*
X408726Y319546D01*
X410060Y318991D01*
X413393Y318991D01*
G54D12*
X405616Y318991D02*
X405616Y327880D01*
G54D12*
X390069Y470551D02*
X386736Y479440D01*
X383402Y470551D01*
G54D12*
X388736Y473884D02*
X384736Y473884D01*
G54D12*
X378292Y470551D02*
X378292Y479440D01*
G54D12*
X380958Y479440D02*
X375625Y479440D01*
G54D12*
X373181Y470551D02*
X373181Y475551D01*
G54D12*
X373181Y474662D02*
X371848Y475551D01*
X370514Y475217D01*
X369848Y474440D01*
X369848Y470551D01*
G54D12*
X369848Y474662D02*
X368514Y475551D01*
X367181Y475217D01*
X366514Y474440D01*
X366514Y470551D01*
G54D12*
X360070Y471106D02*
X361137Y470551D01*
X362470Y470551D01*
X363804Y471106D01*
X364070Y472217D01*
X364070Y474106D01*
X363404Y475217D01*
X362070Y475551D01*
X360737Y475217D01*
X360070Y474440D01*
X360070Y473328D01*
X364070Y473328D01*
G54D12*
X357626Y468884D02*
X356293Y468328D01*
X355360Y468328D01*
X354026Y468884D01*
X353626Y469995D01*
X353626Y475551D01*
G54D12*
X353626Y474106D02*
X354293Y475217D01*
X355626Y475551D01*
X356960Y475217D01*
X357626Y474106D01*
X357626Y471884D01*
X356960Y470773D01*
X355626Y470551D01*
X354293Y470773D01*
X353626Y471884D01*
G54D12*
X351182Y474995D02*
X349849Y475551D01*
X348249Y475551D01*
X347182Y474440D01*
X347182Y470551D01*
G54D12*
X347182Y472217D02*
X347849Y473328D01*
X349182Y473551D01*
X350516Y473328D01*
X351182Y472217D01*
X350916Y471106D01*
X349849Y470551D01*
X349182Y470551D01*
X348916Y470551D01*
X347849Y471106D01*
X347182Y472217D01*
G54D12*
X344738Y477773D02*
X344072Y478884D01*
X342738Y479440D01*
X341405Y479440D01*
X340072Y478884D01*
X339405Y477773D01*
X339405Y476662D01*
X340072Y475551D01*
X341405Y474995D01*
X340072Y474440D01*
X339405Y473328D01*
X339405Y472217D01*
X340072Y471106D01*
X341405Y470551D01*
X342738Y470551D01*
X344072Y471106D01*
X344738Y472217D01*
G54D12*
X331628Y470551D02*
X336961Y470551D01*
X336961Y471106D01*
X336294Y472217D01*
X332294Y475551D01*
X331628Y476662D01*
X331628Y477773D01*
X332294Y478884D01*
X333628Y479440D01*
X334961Y479440D01*
X336294Y478884D01*
X336961Y477773D01*
G54D12*
X325851Y474995D02*
X327184Y474995D01*
X328518Y475551D01*
X329184Y476662D01*
X329184Y477773D01*
X328518Y478884D01*
X327184Y479440D01*
X325851Y479440D01*
X324518Y478884D01*
X323851Y477773D01*
X323851Y476662D01*
X324518Y475551D01*
X325851Y474995D01*
X324518Y474440D01*
X323851Y473328D01*
X323851Y472217D01*
X324518Y471106D01*
X325851Y470551D01*
X327184Y470551D01*
X328518Y471106D01*
X329184Y472217D01*
X329184Y473328D01*
X328518Y474440D01*
X327184Y474995D01*
G54D12*
X283458Y476827D02*
X280124Y480161D01*
X280124Y471272D01*
G54D12*
X272347Y478494D02*
X273014Y479605D01*
X274347Y480161D01*
X275680Y480161D01*
X277014Y479605D01*
X277680Y478494D01*
X277680Y475716D01*
X277680Y475161D01*
X275680Y476272D01*
X274347Y476272D01*
X273014Y475716D01*
X272347Y474605D01*
X272347Y472938D01*
X273014Y471827D01*
X274347Y471272D01*
X275680Y471272D01*
X277014Y471827D01*
X277680Y472938D01*
X277680Y475716D01*
G54D12*
X269904Y471272D02*
X269904Y480161D01*
X266570Y474605D01*
X263237Y480161D01*
X263237Y471272D01*
G54D12*
X260792Y471272D02*
X260792Y480161D01*
G54D12*
X255459Y471272D02*
X255459Y480161D01*
G54D12*
X260792Y475716D02*
X255459Y475716D01*
G54D12*
X253016Y476272D02*
X249016Y476272D01*
X253016Y471272D01*
X249016Y471272D01*
G54D14*
G75*
G01X252952Y404500D02*
G03X277952Y404500I12500J0D01*
G01*
G54D14*
G75*
G01X278352Y453700D02*
G03X253352Y453700I-12500J0D01*
G01*
G54D14*
X253152Y404600D02*
X253252Y453700D01*
G54D14*
X278252Y404600D02*
X278652Y454100D01*
G54D14*
X275652Y426700D02*
X256552Y426700D01*
X256552Y433100D01*
X275652Y433100D01*
X275652Y426700D01*
G54D14*
X272452Y423600D02*
X259752Y423600D01*
G54D14*
X272452Y436200D02*
X259752Y436200D01*
G54D14*
X266052Y436200D02*
X266052Y455300D01*
G54D14*
X266052Y404500D02*
X266052Y423600D01*
G54D12*
X213036Y470875D02*
X218369Y470875D01*
X218369Y471431D01*
X217703Y472542D01*
X213703Y475875D01*
X213036Y476986D01*
X213036Y478098D01*
X213703Y479209D01*
X215036Y479764D01*
X216369Y479764D01*
X217703Y479209D01*
X218369Y478098D01*
G54D12*
X205259Y470875D02*
X210592Y470875D01*
X210592Y471431D01*
X209926Y472542D01*
X205926Y475875D01*
X205259Y476986D01*
X205259Y478098D01*
X205926Y479209D01*
X207259Y479764D01*
X208592Y479764D01*
X209926Y479209D01*
X210592Y478098D01*
G54D12*
X202815Y475875D02*
X202815Y468653D01*
G54D12*
X202815Y472542D02*
X202149Y471098D01*
X200815Y470875D01*
X199482Y471098D01*
X198815Y472209D01*
X198815Y474431D01*
X199482Y475542D01*
X200815Y475875D01*
X202149Y475542D01*
X202815Y474209D01*
G54D12*
X211052Y376816D02*
X216385Y376816D01*
X216385Y377372D01*
X215718Y378483D01*
X211718Y381816D01*
X211052Y382927D01*
X211052Y384038D01*
X211718Y385149D01*
X213052Y385705D01*
X214385Y385705D01*
X215718Y385149D01*
X216385Y384038D01*
G54D12*
X203275Y376816D02*
X208608Y376816D01*
X208608Y377372D01*
X207941Y378483D01*
X203941Y381816D01*
X203275Y382927D01*
X203275Y384038D01*
X203941Y385149D01*
X205275Y385705D01*
X206608Y385705D01*
X207941Y385149D01*
X208608Y384038D01*
G54D12*
X200831Y381816D02*
X200831Y374594D01*
G54D12*
X200831Y378483D02*
X200164Y377038D01*
X198831Y376816D01*
X197498Y377038D01*
X196831Y378149D01*
X196831Y380372D01*
X197498Y381483D01*
X198831Y381816D01*
X200164Y381483D01*
X200831Y380149D01*
G54D12*
X294024Y267567D02*
X294024Y262012D01*
X294691Y260901D01*
X296024Y260345D01*
X297358Y260345D01*
X298691Y260901D01*
X299358Y262012D01*
X299358Y267567D01*
X298691Y268678D01*
X297358Y269234D01*
X296024Y269234D01*
X294691Y268678D01*
X294024Y267567D01*
G54D12*
X291581Y260345D02*
X291581Y260345D01*
G54D12*
X289137Y265901D02*
X285804Y269234D01*
X285804Y260345D01*
G54D12*
X279360Y265345D02*
X279360Y260345D01*
G54D12*
X279360Y261456D02*
X280026Y260567D01*
X281360Y260345D01*
X282693Y260567D01*
X283360Y261456D01*
X283360Y265345D01*
G54D10*
X391431Y201227D02*
X413431Y201227D01*
X413431Y151227D01*
X391431Y151227D01*
X391431Y201227D01*
G54D11*
X402152Y183267D02*
X402152Y180067D01*
X400552Y180067D01*
X400552Y172167D01*
X403752Y172167D01*
X403752Y180067D01*
X402152Y180067D01*
G54D11*
X402152Y172167D02*
X402152Y168967D01*
G54D12*
X424354Y167124D02*
X427688Y170457D01*
X418799Y170457D01*
G54D12*
X426021Y178234D02*
X420466Y178234D01*
X419354Y177568D01*
X418799Y176234D01*
X418799Y174901D01*
X419354Y173568D01*
X420466Y172901D01*
X426021Y172901D01*
X427132Y173568D01*
X427688Y174901D01*
X427688Y176234D01*
X427132Y177568D01*
X426021Y178234D01*
G54D12*
X418799Y180678D02*
X427688Y180678D01*
G54D12*
X422132Y182678D02*
X418799Y184678D01*
G54D12*
X421021Y180678D02*
X423799Y184678D01*
G54D10*
X498587Y200037D02*
X520587Y200037D01*
X520587Y150037D01*
X498587Y150037D01*
X498587Y200037D01*
G54D11*
X509308Y182077D02*
X509308Y178877D01*
X507708Y178877D01*
X507708Y170977D01*
X510908Y170977D01*
X510908Y178877D01*
X509308Y178877D01*
G54D11*
X509308Y170977D02*
X509308Y167777D01*
G54D12*
X531511Y165933D02*
X534844Y169267D01*
X525955Y169267D01*
G54D12*
X533177Y177044D02*
X527622Y177044D01*
X526511Y176377D01*
X525955Y175044D01*
X525955Y173710D01*
X526511Y172377D01*
X527622Y171710D01*
X533177Y171710D01*
X534288Y172377D01*
X534844Y173710D01*
X534844Y175044D01*
X534288Y176377D01*
X533177Y177044D01*
G54D12*
X525955Y179487D02*
X534844Y179487D01*
G54D12*
X529288Y181487D02*
X525955Y183487D01*
G54D12*
X528177Y179487D02*
X530955Y183487D01*
G54D10*
X390637Y101612D02*
X412637Y101612D01*
X412637Y51612D01*
X390637Y51612D01*
X390637Y101612D01*
G54D11*
X401358Y83652D02*
X401358Y80452D01*
X399758Y80452D01*
X399758Y72552D01*
X402958Y72552D01*
X402958Y80452D01*
X401358Y80452D01*
G54D11*
X401358Y72552D02*
X401358Y69352D01*
G54D12*
X423164Y67508D02*
X426497Y70842D01*
X417608Y70842D01*
G54D12*
X424830Y78619D02*
X419275Y78619D01*
X418164Y77952D01*
X417608Y76619D01*
X417608Y75285D01*
X418164Y73952D01*
X419275Y73285D01*
X424830Y73285D01*
X425942Y73952D01*
X426497Y75285D01*
X426497Y76619D01*
X425942Y77952D01*
X424830Y78619D01*
G54D12*
X417608Y81062D02*
X426497Y81062D01*
G54D12*
X420942Y83062D02*
X417608Y85062D01*
G54D12*
X419830Y81062D02*
X422608Y85062D01*
G54D10*
X498587Y101612D02*
X520587Y101612D01*
X520587Y51612D01*
X498587Y51612D01*
X498587Y101612D01*
G54D11*
X509308Y83652D02*
X509308Y80452D01*
X507708Y80452D01*
X507708Y72552D01*
X510908Y72552D01*
X510908Y80452D01*
X509308Y80452D01*
G54D11*
X509308Y72552D02*
X509308Y69352D01*
G54D12*
X531114Y67508D02*
X534447Y70842D01*
X525558Y70842D01*
G54D12*
X532780Y78619D02*
X527225Y78619D01*
X526114Y77952D01*
X525558Y76619D01*
X525558Y75285D01*
X526114Y73952D01*
X527225Y73285D01*
X532780Y73285D01*
X533892Y73952D01*
X534447Y75285D01*
X534447Y76619D01*
X533892Y77952D01*
X532780Y78619D01*
G54D12*
X525558Y81062D02*
X534447Y81062D01*
G54D12*
X528892Y83062D02*
X525558Y85062D01*
G54D12*
X527780Y81062D02*
X530558Y85062D01*
G54D10*
X606537Y98437D02*
X628537Y98437D01*
X628537Y48437D01*
X606537Y48437D01*
X606537Y98437D01*
G54D11*
X617258Y80477D02*
X617258Y77277D01*
X615658Y77277D01*
X615658Y69377D01*
X618858Y69377D01*
X618858Y77277D01*
X617258Y77277D01*
G54D11*
X617258Y69377D02*
X617258Y66177D01*
G54D12*
X639064Y64333D02*
X642397Y67667D01*
X633508Y67667D01*
G54D12*
X640730Y75444D02*
X635175Y75444D01*
X634064Y74777D01*
X633508Y73444D01*
X633508Y72110D01*
X634064Y70777D01*
X635175Y70110D01*
X640730Y70110D01*
X641842Y70777D01*
X642397Y72110D01*
X642397Y73444D01*
X641842Y74777D01*
X640730Y75444D01*
G54D12*
X633508Y77887D02*
X642397Y77887D01*
G54D12*
X636842Y79887D02*
X633508Y81887D01*
G54D12*
X635730Y77887D02*
X638508Y81887D01*
G54D10*
X719232Y167664D02*
X741232Y167664D01*
X741232Y117664D01*
X719232Y117664D01*
X719232Y167664D01*
G54D11*
X729954Y149704D02*
X729954Y146504D01*
X728354Y146504D01*
X728354Y138604D01*
X731554Y138604D01*
X731554Y146504D01*
X729954Y146504D01*
G54D11*
X729954Y138604D02*
X729954Y135404D01*
G54D12*
X751362Y132766D02*
X754696Y136100D01*
X745807Y136100D01*
G54D12*
X753029Y143877D02*
X747473Y143877D01*
X746362Y143210D01*
X745807Y141877D01*
X745807Y140543D01*
X746362Y139210D01*
X747473Y138543D01*
X753029Y138543D01*
X754140Y139210D01*
X754696Y140543D01*
X754696Y141877D01*
X754140Y143210D01*
X753029Y143877D01*
G54D12*
X745807Y146320D02*
X754696Y146320D01*
G54D12*
X749140Y148320D02*
X745807Y150320D01*
G54D12*
X748029Y146320D02*
X750807Y150320D01*
G54D11*
X774704Y93635D02*
X774704Y85635D01*
X769704Y85635D01*
X779704Y85635D01*
G54D11*
X769704Y83635D02*
X779704Y83635D01*
G54D11*
X774704Y83635D02*
X774704Y75635D01*
G54D10*
X763699Y58974D02*
X785699Y58974D01*
X785699Y108974D01*
X763699Y108974D01*
X763699Y58974D01*
G54D12*
X799084Y74580D02*
X793528Y74580D01*
X792417Y73914D01*
X791861Y72580D01*
X791861Y71247D01*
X792417Y69914D01*
X793528Y69247D01*
X799084Y69247D01*
X800195Y69914D01*
X800750Y71247D01*
X800750Y72580D01*
X800195Y73914D01*
X799084Y74580D01*
G54D12*
X791861Y77024D02*
X791861Y77024D01*
G54D12*
X797417Y79468D02*
X800750Y82802D01*
X791861Y82802D01*
G54D12*
X796861Y89245D02*
X791861Y89245D01*
G54D12*
X792972Y89245D02*
X792084Y88578D01*
X791861Y87245D01*
X792084Y85912D01*
X792972Y85245D01*
X796861Y85245D01*
G54D11*
X730254Y93635D02*
X730254Y85635D01*
X725254Y85635D01*
X735254Y85635D01*
G54D11*
X725254Y83635D02*
X735254Y83635D01*
G54D11*
X730254Y83635D02*
X730254Y75635D01*
G54D10*
X719249Y58974D02*
X741249Y58974D01*
X741249Y108974D01*
X719249Y108974D01*
X719249Y58974D01*
G54D12*
X753840Y79740D02*
X748284Y79740D01*
X747173Y79073D01*
X746618Y77740D01*
X746618Y76406D01*
X747173Y75073D01*
X748284Y74406D01*
X753840Y74406D01*
X754951Y75073D01*
X755506Y76406D01*
X755506Y77740D01*
X754951Y79073D01*
X753840Y79740D01*
G54D12*
X746618Y82184D02*
X746618Y82184D01*
G54D12*
X752173Y84628D02*
X755506Y87961D01*
X746618Y87961D01*
G54D12*
X751618Y94404D02*
X746618Y94404D01*
G54D12*
X747729Y94404D02*
X746840Y93738D01*
X746618Y92404D01*
X746840Y91071D01*
X747729Y90404D01*
X751618Y90404D01*
G54D10*
X281875Y229058D02*
X281875Y251058D01*
X331875Y251058D01*
X331875Y229058D01*
X281875Y229058D01*
G54D12*
X316376Y220707D02*
X313042Y224040D01*
X313042Y215151D01*
G54D12*
X305265Y222374D02*
X305265Y216818D01*
X305932Y215707D01*
X307265Y215151D01*
X308598Y215151D01*
X309932Y215707D01*
X310598Y216818D01*
X310598Y222374D01*
X309932Y223485D01*
X308598Y224040D01*
X307265Y224040D01*
X305932Y223485D01*
X305265Y222374D01*
G54D12*
X302822Y215151D02*
X302822Y224040D01*
G54D12*
X300822Y218485D02*
X298822Y215151D01*
G54D12*
X302822Y217374D02*
X298822Y220151D01*
G54D14*
X385967Y246922D02*
X398667Y246922D01*
X405017Y253272D01*
X405017Y265972D01*
X398667Y272322D01*
X405017Y278672D01*
X405017Y291372D01*
X398667Y297722D01*
X385967Y297722D01*
X379617Y291372D01*
X379617Y278672D01*
X385967Y272322D01*
X379617Y265972D01*
X379617Y253272D01*
X385967Y246922D01*
G54D12*
X415453Y262483D02*
X414342Y264483D01*
X413231Y265150D01*
X411009Y265150D01*
G54D12*
X411009Y259816D02*
X419898Y259816D01*
X419898Y263150D01*
X419342Y264483D01*
X418231Y265150D01*
X417120Y265150D01*
X416009Y264483D01*
X415453Y263150D01*
X415453Y259816D01*
G54D12*
X411564Y271593D02*
X411009Y270527D01*
X411009Y269193D01*
X411564Y267860D01*
X412676Y267593D01*
X414564Y267593D01*
X415676Y268260D01*
X416009Y269593D01*
X415676Y270927D01*
X414898Y271593D01*
X413787Y271593D01*
X413787Y267593D01*
G54D12*
X411564Y274037D02*
X411009Y275371D01*
X411009Y276704D01*
X411564Y278037D01*
X412676Y278037D01*
X413231Y277371D01*
X413787Y274704D01*
X414342Y274037D01*
X415453Y274037D01*
X416009Y275371D01*
X416009Y276704D01*
X415453Y278037D01*
G54D12*
X411564Y284481D02*
X411009Y283415D01*
X411009Y282081D01*
X411564Y280748D01*
X412676Y280481D01*
X414564Y280481D01*
X415676Y281148D01*
X416009Y282481D01*
X415676Y283815D01*
X414898Y284481D01*
X413787Y284481D01*
X413787Y280481D01*
G54D12*
X419898Y288259D02*
X411564Y288259D01*
X411009Y288925D01*
X411231Y289592D01*
G54D12*
X416009Y286925D02*
X416009Y289592D01*
G54D15*
X796649Y510967D02*
X796649Y488745D01*
X784983Y488745D01*
G54D15*
X765538Y488745D02*
X777204Y488745D01*
X777204Y510967D01*
X765538Y510967D01*
G54D15*
X777204Y499856D02*
X765538Y499856D01*
G54D15*
X757759Y488745D02*
X757759Y510967D01*
X749426Y510967D01*
X746093Y509578D01*
X744426Y506801D01*
X744426Y492912D01*
X746093Y490134D01*
X749426Y488745D01*
X757759Y488745D01*
G54D15*
X728537Y488745D02*
X728537Y510967D01*
X720204Y510967D01*
X716871Y509578D01*
X715204Y506801D01*
X715204Y504023D01*
X716871Y501245D01*
X720204Y499856D01*
X728537Y499856D01*
G54D15*
X707426Y488745D02*
X707426Y510967D01*
G54D15*
X707426Y497634D02*
X705760Y500412D01*
X702426Y501245D01*
X699093Y500412D01*
X697426Y497634D01*
X697426Y488745D01*
G54D15*
X679648Y492078D02*
X679648Y497634D01*
X681315Y500412D01*
X684648Y501245D01*
X687982Y500412D01*
X689648Y497634D01*
X689648Y492078D01*
X687982Y489301D01*
X684648Y488745D01*
X681315Y489301D01*
X679648Y492078D01*
G54D15*
X668537Y510967D02*
X668537Y490134D01*
X666870Y488745D01*
X665204Y489301D01*
G54D15*
X671870Y501245D02*
X665204Y501245D01*
G54D15*
X647425Y492078D02*
X647425Y497634D01*
X649092Y500412D01*
X652425Y501245D01*
X655759Y500412D01*
X657425Y497634D01*
X657425Y492078D01*
X655759Y489301D01*
X652425Y488745D01*
X649092Y489301D01*
X647425Y492078D01*
G54D15*
X639647Y488745D02*
X639647Y501245D01*
G54D15*
X639647Y498467D02*
X636314Y501245D01*
X632981Y501245D01*
G54D15*
X615202Y490134D02*
X617869Y488745D01*
X621202Y488745D01*
X624536Y490134D01*
X625202Y492912D01*
X625202Y497634D01*
X623536Y500412D01*
X620202Y501245D01*
X616869Y500412D01*
X615202Y498467D01*
X615202Y495690D01*
X625202Y495690D01*
G54D15*
X607424Y490134D02*
X604091Y488745D01*
X600758Y488745D01*
X597424Y490134D01*
X597424Y492912D01*
X599091Y494301D01*
X605758Y495690D01*
X607424Y497078D01*
X607424Y499856D01*
X604091Y501245D01*
X600758Y501245D01*
X597424Y499856D01*
G54D15*
X589646Y488745D02*
X589646Y501245D01*
G54D15*
X589646Y505412D02*
X589646Y505412D01*
G54D15*
X581868Y490134D02*
X578535Y488745D01*
X575202Y488745D01*
X571868Y490134D01*
X571868Y492912D01*
X573535Y494301D01*
X580202Y495690D01*
X581868Y497078D01*
X581868Y499856D01*
X578535Y501245D01*
X575202Y501245D01*
X571868Y499856D01*
G54D15*
X560757Y510967D02*
X560757Y490134D01*
X559090Y488745D01*
X557424Y489301D01*
G54D15*
X564090Y501245D02*
X557424Y501245D01*
G54D15*
X534868Y488745D02*
X534868Y510967D01*
G54D15*
X541534Y510967D02*
X528201Y510967D01*
G54D15*
X520423Y488745D02*
X520423Y501245D01*
G54D15*
X520423Y505412D02*
X520423Y505412D01*
G54D15*
X512645Y488745D02*
X512645Y501245D01*
G54D15*
X512645Y499023D02*
X509312Y501245D01*
X505979Y500412D01*
X504312Y498467D01*
X504312Y488745D01*
G54D15*
X504312Y499023D02*
X500979Y501245D01*
X497645Y500412D01*
X495979Y498467D01*
X495979Y488745D01*
G54D15*
X478200Y490134D02*
X480867Y488745D01*
X484200Y488745D01*
X487534Y490134D01*
X488200Y492912D01*
X488200Y497634D01*
X486534Y500412D01*
X483200Y501245D01*
X479867Y500412D01*
X478200Y498467D01*
X478200Y495690D01*
X488200Y495690D01*
G54D15*
X470422Y488745D02*
X470422Y501245D01*
G54D15*
X470422Y498467D02*
X467089Y501245D01*
X463756Y501245D01*
G54D11*
X218129Y452161D02*
X210129Y452161D01*
X210129Y457161D01*
X210129Y447161D01*
G54D11*
X208129Y457161D02*
X208129Y447161D01*
G54D11*
X208129Y452161D02*
X200129Y452161D01*
G54D10*
X183468Y463165D02*
X183468Y441165D01*
X233468Y441165D01*
X233468Y463165D01*
X183468Y463165D01*
G54D11*
X218526Y404139D02*
X210526Y404139D01*
X210526Y409139D01*
X210526Y399139D01*
G54D11*
X208526Y409139D02*
X208526Y399139D01*
G54D11*
X208526Y404139D02*
X200526Y404139D01*
G54D10*
X183865Y415144D02*
X183865Y393144D01*
X233865Y393144D01*
X233865Y415144D01*
X183865Y415144D01*
G54D11*
X300282Y284680D02*
X292282Y284680D01*
X292282Y289680D01*
X292282Y279680D01*
G54D11*
X290282Y289680D02*
X290282Y279680D01*
G54D11*
X290282Y284680D02*
X282282Y284680D01*
G54D10*
X265621Y295684D02*
X265621Y273684D01*
X315621Y273684D01*
X315621Y295684D01*
X265621Y295684D01*
M02*
