%FSLAX34Y34*%
%MOMM*%
%LNCOPPER_BOTTOM*%
G71*
G01*
%ADD10C,5.300*%
%ADD11C,4.800*%
%ADD12C,2.800*%
%ADD13C,3.300*%
%ADD14C,7.200*%
%ADD15C,1.400*%
%ADD16C,1.800*%
%ADD17R,2.400X2.400*%
%ADD18C,1.100*%
%ADD19C,1.118*%
%ADD20C,1.000*%
%ADD21R,2.070X1.359*%
%ADD22R,1.359X2.070*%
%ADD23C,2.400*%
%ADD24C,1.300*%
%ADD25C,1.200*%
%ADD26C,1.610*%
%ADD27C,1.600*%
%ADD28C,2.370*%
%ADD29C,0.933*%
%ADD30C,1.108*%
%ADD31C,2.000*%
%ADD32C,1.320*%
%ADD33C,1.333*%
%ADD34C,1.133*%
%ADD35C,1.153*%
%ADD36C,1.073*%
%ADD37C,2.133*%
%ADD38C,0.200*%
%ADD39C,0.976*%
%ADD40C,0.843*%
%ADD41C,0.427*%
%ADD42C,0.559*%
%ADD43C,1.157*%
%ADD44C,1.141*%
%ADD45C,0.533*%
%ADD46C,1.427*%
%ADD47C,0.800*%
%ADD48C,1.104*%
%ADD49C,4.500*%
%ADD50C,4.000*%
%ADD51C,2.000*%
%ADD52C,2.500*%
%ADD53C,6.400*%
%ADD54C,0.600*%
%ADD55R,1.600X1.600*%
%ADD56C,0.300*%
%ADD57C,0.318*%
%ADD58R,1.270X0.559*%
%ADD59R,0.559X1.270*%
%ADD60C,1.600*%
%ADD61C,0.500*%
%ADD62C,0.400*%
%ADD63C,0.810*%
%ADD64C,0.800*%
%LPD*%
G36*
X-24210Y631031D02*
X874790Y631031D01*
X874790Y-25969D01*
X-24210Y-25969D01*
X-24210Y631031D01*
G37*
%LPC*%
X97020Y76019D02*
G54D10*
D03*
X28758Y79194D02*
G54D10*
D03*
X62844Y149916D02*
G54D11*
D03*
X62844Y201916D02*
G54D11*
D03*
X542924Y198562D02*
G54D12*
D03*
X477924Y198562D02*
G54D12*
D03*
X477924Y153562D02*
G54D12*
D03*
X542924Y153562D02*
G54D12*
D03*
X434974Y198562D02*
G54D12*
D03*
X369974Y198562D02*
G54D12*
D03*
X369974Y153562D02*
G54D12*
D03*
X434974Y153562D02*
G54D12*
D03*
X68785Y29184D02*
G54D10*
D03*
X620315Y201590D02*
G54D12*
D03*
X595315Y176590D02*
G54D12*
D03*
X645315Y176590D02*
G54D12*
D03*
X166865Y202506D02*
G54D13*
D03*
X141465Y177106D02*
G54D13*
D03*
X166865Y151705D02*
G54D13*
D03*
X728662Y37906D02*
G54D12*
D03*
X778662Y37906D02*
G54D12*
D03*
X753662Y37906D02*
G54D12*
D03*
X728662Y187906D02*
G54D12*
D03*
X778662Y187906D02*
G54D12*
D03*
X691162Y112906D02*
G54D11*
D03*
X816162Y112906D02*
G54D11*
D03*
X434974Y51963D02*
G54D12*
D03*
X369974Y51962D02*
G54D12*
D03*
X369974Y96963D02*
G54D12*
D03*
X434974Y96963D02*
G54D12*
D03*
X165675Y84237D02*
G54D13*
D03*
X140274Y58838D02*
G54D13*
D03*
X165675Y33437D02*
G54D13*
D03*
X101048Y576592D02*
G54D12*
D03*
X126448Y576592D02*
G54D12*
D03*
X151848Y576592D02*
G54D12*
D03*
X178439Y576592D02*
G54D12*
D03*
X203839Y576592D02*
G54D12*
D03*
X229239Y576592D02*
G54D12*
D03*
X357033Y576592D02*
G54D12*
D03*
X382433Y576592D02*
G54D12*
D03*
X407833Y576592D02*
G54D12*
D03*
X433233Y576592D02*
G54D12*
D03*
X458633Y576592D02*
G54D12*
D03*
X485223Y576592D02*
G54D12*
D03*
X796130Y263922D02*
G54D14*
D03*
X820130Y263922D02*
G54D15*
D03*
X813101Y246952D02*
G54D15*
D03*
X796130Y239922D02*
G54D15*
D03*
X779160Y246952D02*
G54D15*
D03*
X772130Y263922D02*
G54D15*
D03*
X779160Y280892D02*
G54D15*
D03*
X796130Y287922D02*
G54D15*
D03*
X813101Y280892D02*
G54D15*
D03*
X795337Y573881D02*
G54D14*
D03*
X819337Y573881D02*
G54D15*
D03*
X812307Y556911D02*
G54D15*
D03*
X795337Y549881D02*
G54D15*
D03*
X778366Y556911D02*
G54D15*
D03*
X771337Y573881D02*
G54D15*
D03*
X778366Y590852D02*
G54D15*
D03*
X795337Y597881D02*
G54D15*
D03*
X812307Y590852D02*
G54D15*
D03*
X44449Y573881D02*
G54D14*
D03*
X68449Y573881D02*
G54D15*
D03*
X61420Y556911D02*
G54D15*
D03*
X44449Y549881D02*
G54D15*
D03*
X27479Y556911D02*
G54D15*
D03*
X20449Y573881D02*
G54D15*
D03*
X27479Y590852D02*
G54D15*
D03*
X44449Y597881D02*
G54D15*
D03*
X61420Y590852D02*
G54D15*
D03*
X44052Y265510D02*
G54D14*
D03*
X68052Y265510D02*
G54D15*
D03*
X61023Y248539D02*
G54D15*
D03*
X44052Y241510D02*
G54D15*
D03*
X27082Y248539D02*
G54D15*
D03*
X20052Y265510D02*
G54D15*
D03*
X27082Y282480D02*
G54D15*
D03*
X44052Y289510D02*
G54D15*
D03*
X61023Y282480D02*
G54D15*
D03*
G54D16*
X165675Y84237D02*
X112381Y84237D01*
X97020Y68875D01*
G54D16*
X62844Y146344D02*
X62844Y114957D01*
X97020Y80781D01*
G54D16*
X141465Y181868D02*
X138931Y181868D01*
X114299Y206500D01*
X63024Y206500D01*
X62844Y206679D01*
X112416Y321959D02*
G54D17*
D03*
X112416Y293959D02*
G54D17*
D03*
X138865Y253305D02*
G54D17*
D03*
X166865Y253306D02*
G54D17*
D03*
G54D18*
X166865Y253306D02*
X166865Y202506D01*
X774682Y156664D02*
G54D17*
D03*
X774682Y128664D02*
G54D17*
D03*
G54D19*
X745248Y590231D02*
X741693Y580231D01*
X738137Y590231D01*
G54D19*
X731915Y594675D02*
X731026Y596898D01*
X729249Y598009D01*
X727471Y598009D01*
X725693Y596898D01*
X724804Y594675D01*
X724804Y592453D01*
X725693Y590231D01*
X727471Y589120D01*
X725693Y588009D01*
X724804Y585786D01*
X724804Y583564D01*
X725693Y581342D01*
X727471Y580231D01*
X729249Y580231D01*
X731026Y581342D01*
X731915Y583564D01*
G54D19*
X718582Y580231D02*
X718582Y580231D01*
G54D19*
X705249Y594675D02*
X705249Y583564D01*
X706138Y581342D01*
X707916Y580231D01*
X709694Y580231D01*
X711472Y581342D01*
X712360Y583564D01*
X712360Y594675D01*
X711472Y596898D01*
X709694Y598009D01*
X707916Y598009D01*
X706138Y596898D01*
X705249Y594675D01*
X215899Y103709D02*
G54D17*
D03*
X243899Y103709D02*
G54D17*
D03*
X215899Y33065D02*
G54D17*
D03*
X243899Y33065D02*
G54D17*
D03*
G54D16*
X215899Y103709D02*
X185147Y103709D01*
X165675Y84237D01*
G54D16*
X215899Y33065D02*
X165675Y33437D01*
G54D20*
X11509Y615928D02*
X828262Y615928D01*
G54D20*
G75*
G01X11509Y615928D02*
G03X-1Y604418I0J-11510D01*
G01*
G54D20*
G75*
G01X839772Y604418D02*
G03X828262Y615928I-11510J0D01*
G01*
G54D20*
X-1Y604418D02*
X-1Y11503D01*
G54D20*
G75*
G01X828262Y-8D02*
G03X839772Y11502I0J11510D01*
G01*
G54D20*
X839772Y604418D02*
X839772Y11502D01*
G54D20*
G75*
G01X-1Y11503D02*
G03X11509Y-7I11510J0D01*
G01*
G54D20*
X828262Y-8D02*
X11509Y-7D01*
X542924Y51963D02*
G54D12*
D03*
X477924Y51962D02*
G54D12*
D03*
X477924Y96963D02*
G54D12*
D03*
X542924Y96963D02*
G54D12*
D03*
X311322Y384324D02*
G54D21*
D03*
X311322Y392324D02*
G54D21*
D03*
X311322Y400326D02*
G54D21*
D03*
X311322Y408326D02*
G54D21*
D03*
X311322Y416328D02*
G54D21*
D03*
X311322Y424328D02*
G54D21*
D03*
X311322Y432330D02*
G54D21*
D03*
X311322Y440330D02*
G54D21*
D03*
X397174Y440330D02*
G54D21*
D03*
X397174Y432330D02*
G54D21*
D03*
X397174Y424328D02*
G54D21*
D03*
X397174Y416328D02*
G54D21*
D03*
X397174Y408326D02*
G54D21*
D03*
X397174Y400326D02*
G54D21*
D03*
X397174Y392324D02*
G54D21*
D03*
X397174Y384324D02*
G54D21*
D03*
X382239Y369388D02*
G54D22*
D03*
X374238Y369388D02*
G54D22*
D03*
X366237Y369388D02*
G54D22*
D03*
X358236Y369388D02*
G54D22*
D03*
X350235Y369388D02*
G54D22*
D03*
X342234Y369388D02*
G54D22*
D03*
X334233Y369388D02*
G54D22*
D03*
X326232Y369388D02*
G54D22*
D03*
X326233Y455239D02*
G54D22*
D03*
X334234Y455239D02*
G54D22*
D03*
X342235Y455239D02*
G54D22*
D03*
X350236Y455239D02*
G54D22*
D03*
X358237Y455239D02*
G54D22*
D03*
X366238Y455239D02*
G54D22*
D03*
X374239Y455239D02*
G54D22*
D03*
X382240Y455239D02*
G54D22*
D03*
G36*
X395585Y334328D02*
X395585Y310328D01*
X371585Y310328D01*
X371585Y334328D01*
X395585Y334328D01*
G37*
X358185Y322328D02*
G54D23*
D03*
X332785Y322328D02*
G54D23*
D03*
X307385Y322328D02*
G54D23*
D03*
X281985Y322328D02*
G54D23*
D03*
X256585Y322328D02*
G54D23*
D03*
G54D24*
X306957Y408326D02*
X300683Y408326D01*
X295622Y413387D01*
X295622Y418483D01*
X301524Y424385D01*
X317796Y424385D01*
X326527Y433116D01*
X421034Y433152D01*
G54D25*
X311322Y416328D02*
X321885Y416328D01*
X324543Y413669D01*
X324543Y403335D01*
X321578Y400370D01*
X311322Y400326D01*
G54D25*
X311322Y416328D02*
X378682Y415931D01*
X386286Y408326D01*
X397174Y408326D01*
X350391Y355364D02*
G54D26*
D03*
G54D18*
X350235Y369388D02*
X350235Y355606D01*
X349994Y355364D01*
G54D18*
X342234Y367404D02*
X342234Y346032D01*
X335258Y339057D01*
X315812Y339057D01*
X307874Y331119D01*
X307874Y321627D01*
X307385Y321138D01*
G54D18*
X334233Y372166D02*
X334233Y349938D01*
X331290Y346994D01*
X290412Y346994D01*
X282474Y339057D01*
X282474Y325595D01*
X281985Y325106D01*
X321419Y285117D02*
G54D26*
D03*
G54D18*
X323006Y285117D02*
X307065Y285117D01*
X300283Y284289D01*
X265752Y404100D02*
G54D12*
D03*
X265752Y454100D02*
G54D12*
D03*
G54D18*
X265752Y454100D02*
X297552Y454100D01*
X311322Y440330D01*
G54D18*
X311322Y432330D02*
X293981Y432330D01*
X265752Y404100D01*
G54D18*
X228052Y402558D02*
X264210Y402558D01*
X265752Y404100D01*
G54D18*
X228449Y452961D02*
X264613Y452961D01*
X265752Y454100D01*
G54D18*
X342235Y455239D02*
X342348Y537736D01*
X360362Y555749D01*
X419496Y555352D01*
X432196Y568052D01*
X433233Y576592D01*
G54D18*
X350236Y455239D02*
X350286Y531386D01*
X364331Y545430D01*
X408384Y545827D01*
X408384Y545827D02*
G54D26*
D03*
G54D18*
X358237Y455239D02*
X358237Y524256D01*
X368696Y534715D01*
X382984Y534715D01*
X382984Y534715D02*
G54D26*
D03*
G54D18*
X366238Y455239D02*
X367109Y512490D01*
X367109Y512490D02*
G54D26*
D03*
X382984Y469627D02*
G54D26*
D03*
G54D18*
X382240Y455239D02*
X382240Y468784D01*
X381396Y469627D01*
X375046Y490265D02*
G54D26*
D03*
G54D18*
X374239Y455239D02*
X374239Y489458D01*
X375046Y490265D01*
G54D24*
X126448Y576592D02*
X126448Y593695D01*
X135334Y602580D01*
X445344Y602580D01*
X458633Y589292D01*
X458633Y576592D01*
X396874Y456927D02*
G54D26*
D03*
G54D25*
X397174Y440330D02*
X397174Y456628D01*
X396874Y456927D01*
X289321Y381124D02*
G54D26*
D03*
X112392Y341928D02*
G54D26*
D03*
G54D18*
X112416Y321959D02*
X112416Y340366D01*
X113979Y341928D01*
G54D18*
X311322Y384324D02*
X292520Y384324D01*
X289321Y381124D01*
X309165Y368821D02*
G54D26*
D03*
G54D18*
X326232Y369388D02*
X309732Y369388D01*
X309165Y368821D01*
G54D24*
X421034Y433152D02*
X433027Y433152D01*
X457199Y457324D01*
X457199Y575952D01*
X458633Y577385D01*
G54D24*
X369974Y153562D02*
X369974Y96963D01*
G54D18*
X256585Y322328D02*
X256585Y306606D01*
X278902Y284289D01*
G54D18*
X112416Y293959D02*
X148680Y293959D01*
X167084Y275555D01*
X167084Y253524D01*
X166865Y253306D01*
G54D24*
X477924Y153562D02*
X477924Y96963D01*
X648890Y51168D02*
G54D12*
D03*
X583890Y51168D02*
G54D12*
D03*
X583890Y96168D02*
G54D12*
D03*
X648890Y96168D02*
G54D12*
D03*
G54D24*
X595315Y176590D02*
X595315Y107594D01*
X583890Y96168D01*
X438100Y372827D02*
G54D26*
D03*
X438100Y358936D02*
G54D26*
D03*
X438100Y345839D02*
G54D26*
D03*
X438100Y332346D02*
G54D26*
D03*
G54D18*
X358236Y369388D02*
X358236Y347122D01*
X363128Y342230D01*
X412352Y342230D01*
X422274Y332309D01*
X438063Y332309D01*
X438100Y332346D01*
G54D18*
X366237Y369388D02*
X366237Y353024D01*
X369490Y349771D01*
X420290Y349771D01*
X425449Y344612D01*
X436872Y344612D01*
X438100Y345839D01*
G54D18*
X374238Y369388D02*
X374238Y360501D01*
X377824Y356915D01*
X436079Y356915D01*
X438100Y358936D01*
G54D18*
X382239Y369388D02*
X434662Y369388D01*
X438100Y372827D01*
X402430Y190228D02*
G54D17*
D03*
X402431Y162228D02*
G54D17*
D03*
X509587Y189037D02*
G54D17*
D03*
X509587Y161036D02*
G54D17*
D03*
X401637Y90612D02*
G54D17*
D03*
X401637Y62612D02*
G54D17*
D03*
X509587Y90612D02*
G54D17*
D03*
X509587Y62612D02*
G54D17*
D03*
X617537Y87436D02*
G54D17*
D03*
X617537Y59437D02*
G54D17*
D03*
G54D24*
X370284Y126330D02*
X595709Y126330D01*
G54D18*
X369974Y198562D02*
X394096Y198562D01*
X402430Y190228D01*
G54D18*
X477924Y198562D02*
X500061Y198562D01*
X509587Y189037D01*
G54D18*
X369974Y51962D02*
X390988Y51962D01*
X401637Y62612D01*
G54D18*
X477924Y51962D02*
X498938Y51962D01*
X509587Y62612D01*
G54D18*
X583890Y51168D02*
X609268Y51168D01*
X617537Y59437D01*
X453975Y401402D02*
G54D26*
D03*
X453975Y387511D02*
G54D26*
D03*
G54D18*
X397174Y384324D02*
X450787Y384324D01*
X453975Y387511D01*
G54D18*
X397174Y392324D02*
X436253Y392324D01*
X446484Y402556D01*
X452821Y402556D01*
X453975Y401402D01*
X730232Y156664D02*
G54D17*
D03*
X730232Y128664D02*
G54D17*
D03*
X774699Y97974D02*
G54D17*
D03*
X774699Y69975D02*
G54D17*
D03*
X730249Y97974D02*
G54D17*
D03*
X730249Y69975D02*
G54D17*
D03*
G54D24*
X595709Y126330D02*
X656828Y126330D01*
X689371Y158874D01*
X772471Y158874D01*
X774682Y156664D01*
G54D18*
X728662Y37906D02*
X721837Y37906D01*
X708818Y50924D01*
X708818Y76543D01*
X730249Y97974D01*
G54D18*
X778271Y38303D02*
X785096Y38303D01*
X798115Y51321D01*
X798115Y76940D01*
X776684Y98371D01*
G54D18*
X730232Y128664D02*
X730232Y97992D01*
X730249Y97974D01*
G54D18*
X774682Y128664D02*
X774682Y97992D01*
X774699Y97974D01*
X292875Y240058D02*
G54D17*
D03*
X320875Y240059D02*
G54D17*
D03*
G54D24*
X332785Y322328D02*
X341709Y313405D01*
X341709Y181828D01*
X369974Y153562D01*
G54D24*
X320875Y240059D02*
X340740Y240059D01*
X340915Y240234D01*
G54D18*
X300283Y284289D02*
X300283Y247466D01*
X292875Y240058D01*
X392509Y285080D02*
G54D12*
D03*
X392509Y260080D02*
G54D12*
D03*
G54D24*
X215899Y39812D02*
X215899Y74340D01*
X226615Y85056D01*
X358067Y85056D01*
X369974Y96963D01*
G54D24*
X457199Y456530D02*
X661590Y456530D01*
X687387Y430734D01*
X687387Y160859D01*
X689371Y158874D01*
X525526Y429026D02*
G54D27*
D03*
X591804Y366319D02*
G54D27*
D03*
X524472Y347735D02*
G54D27*
D03*
X591011Y282579D02*
G54D27*
D03*
X343757Y415928D02*
G54D27*
D03*
X367966Y416327D02*
G54D27*
D03*
X234220Y229794D02*
G54D27*
D03*
X231589Y187595D02*
G54D27*
D03*
X131957Y23734D02*
G54D27*
D03*
X816436Y27388D02*
G54D27*
D03*
X341376Y118272D02*
G54D27*
D03*
X336217Y52391D02*
G54D27*
D03*
X420751Y515941D02*
G54D27*
D03*
X420751Y480222D02*
G54D27*
D03*
X751745Y111922D02*
G54D27*
D03*
X282770Y18575D02*
G54D27*
D03*
X660067Y295279D02*
G54D27*
D03*
X659273Y211538D02*
G54D27*
D03*
X194468Y452165D02*
G54D17*
D03*
X222468Y452165D02*
G54D17*
D03*
X194865Y404143D02*
G54D17*
D03*
X222865Y404143D02*
G54D17*
D03*
X276621Y284684D02*
G54D17*
D03*
X304621Y284684D02*
G54D17*
D03*
%LPD*%
G54D28*
G36*
X16908Y79194D02*
X16908Y106194D01*
X40608Y106194D01*
X40608Y79194D01*
X16908Y79194D01*
G37*
G36*
X28758Y91044D02*
X55758Y91044D01*
X55758Y67344D01*
X28758Y67344D01*
X28758Y91044D01*
G37*
G36*
X40608Y79194D02*
X40608Y52194D01*
X16908Y52194D01*
X16908Y79194D01*
X40608Y79194D01*
G37*
G54D29*
G36*
X649982Y176590D02*
X649982Y162090D01*
X640648Y162090D01*
X640648Y176590D01*
X649982Y176590D01*
G37*
G36*
X645315Y171924D02*
X630815Y171924D01*
X630815Y181257D01*
X645315Y181257D01*
X645315Y171924D01*
G37*
G36*
X640648Y176590D02*
X640648Y191090D01*
X649982Y191090D01*
X649982Y176590D01*
X640648Y176590D01*
G37*
G36*
X645315Y181257D02*
X659815Y181257D01*
X659815Y171924D01*
X645315Y171924D01*
X645315Y181257D01*
G37*
G54D30*
G36*
X166865Y157247D02*
X183865Y157247D01*
X183865Y146164D01*
X166865Y146164D01*
X166865Y157247D01*
G37*
G36*
X172407Y151705D02*
X172407Y134705D01*
X161324Y134705D01*
X161324Y151705D01*
X172407Y151705D01*
G37*
G36*
X166865Y146164D02*
X149865Y146164D01*
X149865Y157247D01*
X166865Y157247D01*
X166865Y146164D01*
G37*
G36*
X161324Y151705D02*
X161324Y168705D01*
X172407Y168705D01*
X172407Y151705D01*
X161324Y151705D01*
G37*
G54D31*
G36*
X743662Y37906D02*
X743662Y52406D01*
X763662Y52406D01*
X763662Y37906D01*
X743662Y37906D01*
G37*
G36*
X763662Y37906D02*
X763662Y23406D01*
X743662Y23406D01*
X743662Y37906D01*
X763662Y37906D01*
G37*
G54D32*
G36*
X772062Y187906D02*
X772062Y202406D01*
X785262Y202406D01*
X785262Y187906D01*
X772062Y187906D01*
G37*
G36*
X778662Y194506D02*
X793162Y194506D01*
X793162Y181306D01*
X778662Y181306D01*
X778662Y194506D01*
G37*
G36*
X785262Y187906D02*
X785262Y173406D01*
X772062Y173406D01*
X772062Y187906D01*
X785262Y187906D01*
G37*
G36*
X778662Y181306D02*
X764162Y181306D01*
X764162Y194506D01*
X778662Y194506D01*
X778662Y181306D01*
G37*
G54D33*
G36*
X684495Y112906D02*
X684495Y137406D01*
X697828Y137406D01*
X697828Y112906D01*
X684495Y112906D01*
G37*
G36*
X691162Y119572D02*
X715662Y119572D01*
X715662Y106239D01*
X691162Y106239D01*
X691162Y119572D01*
G37*
G36*
X697828Y112906D02*
X697828Y88406D01*
X684495Y88406D01*
X684495Y112906D01*
X697828Y112906D01*
G37*
G36*
X691162Y106239D02*
X666662Y106239D01*
X666662Y119572D01*
X691162Y119572D01*
X691162Y106239D01*
G37*
G54D33*
G36*
X809495Y112906D02*
X809495Y137406D01*
X822828Y137406D01*
X822828Y112906D01*
X809495Y112906D01*
G37*
G36*
X822828Y112906D02*
X822828Y88406D01*
X809495Y88406D01*
X809495Y112906D01*
X822828Y112906D01*
G37*
G36*
X816162Y106239D02*
X791662Y106239D01*
X791662Y119572D01*
X816162Y119572D01*
X816162Y106239D01*
G37*
G54D34*
G36*
X140274Y64504D02*
X157274Y64504D01*
X157274Y53171D01*
X140274Y53171D01*
X140274Y64504D01*
G37*
G36*
X145941Y58838D02*
X145941Y41838D01*
X134608Y41838D01*
X134608Y58838D01*
X145941Y58838D01*
G37*
G36*
X140274Y53171D02*
X123274Y53171D01*
X123274Y64504D01*
X140274Y64504D01*
X140274Y53171D01*
G37*
G54D24*
G36*
X94548Y576592D02*
X94548Y591092D01*
X107548Y591092D01*
X107548Y576592D01*
X94548Y576592D01*
G37*
G36*
X107548Y576592D02*
X107548Y562092D01*
X94548Y562092D01*
X94548Y576592D01*
X107548Y576592D01*
G37*
G36*
X101048Y570092D02*
X86548Y570092D01*
X86548Y583092D01*
X101048Y583092D01*
X101048Y570092D01*
G37*
G54D35*
G36*
X198072Y576592D02*
X198072Y591092D01*
X209606Y591092D01*
X209606Y576592D01*
X198072Y576592D01*
G37*
G36*
X209606Y576592D02*
X209606Y562092D01*
X198072Y562092D01*
X198072Y576592D01*
X209606Y576592D01*
G37*
G54D36*
G36*
X479856Y576592D02*
X479856Y591092D01*
X490590Y591092D01*
X490590Y576592D01*
X479856Y576592D01*
G37*
G36*
X485223Y581958D02*
X499723Y581958D01*
X499723Y571225D01*
X485223Y571225D01*
X485223Y581958D01*
G37*
G36*
X490590Y576592D02*
X490590Y562092D01*
X479856Y562092D01*
X479856Y576592D01*
X490590Y576592D01*
G37*
G54D37*
G36*
X785464Y263922D02*
X785464Y300422D01*
X806797Y300422D01*
X806797Y263922D01*
X785464Y263922D01*
G37*
G36*
X796130Y274589D02*
X832630Y274589D01*
X832630Y253255D01*
X796130Y253255D01*
X796130Y274589D01*
G37*
G36*
X806797Y263922D02*
X806797Y227422D01*
X785464Y227422D01*
X785464Y263922D01*
X806797Y263922D01*
G37*
G36*
X796130Y253255D02*
X759630Y253255D01*
X759630Y274589D01*
X796130Y274589D01*
X796130Y253255D01*
G37*
G54D38*
G36*
X819130Y263922D02*
X819130Y271422D01*
X821130Y271422D01*
X821130Y263922D01*
X819130Y263922D01*
G37*
G36*
X820130Y264922D02*
X827630Y264922D01*
X827630Y262922D01*
X820130Y262922D01*
X820130Y264922D01*
G37*
G36*
X821130Y263922D02*
X821130Y256422D01*
X819130Y256422D01*
X819130Y263922D01*
X821130Y263922D01*
G37*
G36*
X820130Y262922D02*
X812630Y262922D01*
X812630Y264922D01*
X820130Y264922D01*
X820130Y262922D01*
G37*
G54D38*
G36*
X812101Y246952D02*
X812101Y254452D01*
X814101Y254452D01*
X814101Y246952D01*
X812101Y246952D01*
G37*
G36*
X813101Y247952D02*
X820601Y247952D01*
X820601Y245952D01*
X813101Y245952D01*
X813101Y247952D01*
G37*
G36*
X814101Y246952D02*
X814101Y239452D01*
X812101Y239452D01*
X812101Y246952D01*
X814101Y246952D01*
G37*
G36*
X813101Y245952D02*
X805601Y245952D01*
X805601Y247952D01*
X813101Y247952D01*
X813101Y245952D01*
G37*
G54D38*
G36*
X795130Y239922D02*
X795130Y247422D01*
X797130Y247422D01*
X797130Y239922D01*
X795130Y239922D01*
G37*
G36*
X796130Y240922D02*
X803630Y240922D01*
X803630Y238922D01*
X796130Y238922D01*
X796130Y240922D01*
G37*
G36*
X797130Y239922D02*
X797130Y232422D01*
X795130Y232422D01*
X795130Y239922D01*
X797130Y239922D01*
G37*
G36*
X796130Y238922D02*
X788630Y238922D01*
X788630Y240922D01*
X796130Y240922D01*
X796130Y238922D01*
G37*
G54D38*
G36*
X778160Y246952D02*
X778160Y254452D01*
X780160Y254452D01*
X780160Y246952D01*
X778160Y246952D01*
G37*
G36*
X779160Y247952D02*
X786660Y247952D01*
X786660Y245952D01*
X779160Y245952D01*
X779160Y247952D01*
G37*
G36*
X780160Y246952D02*
X780160Y239452D01*
X778160Y239452D01*
X778160Y246952D01*
X780160Y246952D01*
G37*
G36*
X779160Y245952D02*
X771660Y245952D01*
X771660Y247952D01*
X779160Y247952D01*
X779160Y245952D01*
G37*
G54D38*
G36*
X771130Y263922D02*
X771130Y271422D01*
X773130Y271422D01*
X773130Y263922D01*
X771130Y263922D01*
G37*
G36*
X772130Y264922D02*
X779630Y264922D01*
X779630Y262922D01*
X772130Y262922D01*
X772130Y264922D01*
G37*
G36*
X773130Y263922D02*
X773130Y256422D01*
X771130Y256422D01*
X771130Y263922D01*
X773130Y263922D01*
G37*
G36*
X772130Y262922D02*
X764630Y262922D01*
X764630Y264922D01*
X772130Y264922D01*
X772130Y262922D01*
G37*
G54D38*
G36*
X778160Y280892D02*
X778160Y288392D01*
X780160Y288392D01*
X780160Y280892D01*
X778160Y280892D01*
G37*
G36*
X779160Y281892D02*
X786660Y281892D01*
X786660Y279892D01*
X779160Y279892D01*
X779160Y281892D01*
G37*
G36*
X780160Y280892D02*
X780160Y273392D01*
X778160Y273392D01*
X778160Y280892D01*
X780160Y280892D01*
G37*
G36*
X779160Y279892D02*
X771660Y279892D01*
X771660Y281892D01*
X779160Y281892D01*
X779160Y279892D01*
G37*
G54D38*
G36*
X795130Y287922D02*
X795130Y295422D01*
X797130Y295422D01*
X797130Y287922D01*
X795130Y287922D01*
G37*
G36*
X796130Y288922D02*
X803630Y288922D01*
X803630Y286922D01*
X796130Y286922D01*
X796130Y288922D01*
G37*
G36*
X797130Y287922D02*
X797130Y280422D01*
X795130Y280422D01*
X795130Y287922D01*
X797130Y287922D01*
G37*
G36*
X796130Y286922D02*
X788630Y286922D01*
X788630Y288922D01*
X796130Y288922D01*
X796130Y286922D01*
G37*
G54D38*
G36*
X812101Y280892D02*
X812101Y288392D01*
X814101Y288392D01*
X814101Y280892D01*
X812101Y280892D01*
G37*
G36*
X813101Y281892D02*
X820601Y281892D01*
X820601Y279892D01*
X813101Y279892D01*
X813101Y281892D01*
G37*
G36*
X814101Y280892D02*
X814101Y273392D01*
X812101Y273392D01*
X812101Y280892D01*
X814101Y280892D01*
G37*
G36*
X813101Y279892D02*
X805601Y279892D01*
X805601Y281892D01*
X813101Y281892D01*
X813101Y279892D01*
G37*
G54D37*
G36*
X784670Y573881D02*
X784670Y610381D01*
X806004Y610381D01*
X806004Y573881D01*
X784670Y573881D01*
G37*
G36*
X795337Y584548D02*
X831837Y584548D01*
X831837Y563214D01*
X795337Y563214D01*
X795337Y584548D01*
G37*
G36*
X806004Y573881D02*
X806004Y537381D01*
X784670Y537381D01*
X784670Y573881D01*
X806004Y573881D01*
G37*
G36*
X795337Y563214D02*
X758837Y563214D01*
X758837Y584548D01*
X795337Y584548D01*
X795337Y563214D01*
G37*
G54D38*
G36*
X818337Y573881D02*
X818337Y581381D01*
X820337Y581381D01*
X820337Y573881D01*
X818337Y573881D01*
G37*
G36*
X819337Y574881D02*
X826837Y574881D01*
X826837Y572881D01*
X819337Y572881D01*
X819337Y574881D01*
G37*
G36*
X820337Y573881D02*
X820337Y566381D01*
X818337Y566381D01*
X818337Y573881D01*
X820337Y573881D01*
G37*
G36*
X819337Y572881D02*
X811837Y572881D01*
X811837Y574881D01*
X819337Y574881D01*
X819337Y572881D01*
G37*
G54D38*
G36*
X811307Y556911D02*
X811307Y564411D01*
X813307Y564411D01*
X813307Y556911D01*
X811307Y556911D01*
G37*
G36*
X812307Y557911D02*
X819807Y557911D01*
X819807Y555911D01*
X812307Y555911D01*
X812307Y557911D01*
G37*
G36*
X813307Y556911D02*
X813307Y549411D01*
X811307Y549411D01*
X811307Y556911D01*
X813307Y556911D01*
G37*
G36*
X812307Y555911D02*
X804807Y555911D01*
X804807Y557911D01*
X812307Y557911D01*
X812307Y555911D01*
G37*
G54D38*
G36*
X794337Y549881D02*
X794337Y557381D01*
X796337Y557381D01*
X796337Y549881D01*
X794337Y549881D01*
G37*
G36*
X795337Y550881D02*
X802837Y550881D01*
X802837Y548881D01*
X795337Y548881D01*
X795337Y550881D01*
G37*
G36*
X796337Y549881D02*
X796337Y542381D01*
X794337Y542381D01*
X794337Y549881D01*
X796337Y549881D01*
G37*
G36*
X795337Y548881D02*
X787837Y548881D01*
X787837Y550881D01*
X795337Y550881D01*
X795337Y548881D01*
G37*
G54D38*
G36*
X777366Y556911D02*
X777366Y564411D01*
X779366Y564411D01*
X779366Y556911D01*
X777366Y556911D01*
G37*
G36*
X778366Y557911D02*
X785866Y557911D01*
X785866Y555911D01*
X778366Y555911D01*
X778366Y557911D01*
G37*
G36*
X779366Y556911D02*
X779366Y549411D01*
X777366Y549411D01*
X777366Y556911D01*
X779366Y556911D01*
G37*
G36*
X778366Y555911D02*
X770866Y555911D01*
X770866Y557911D01*
X778366Y557911D01*
X778366Y555911D01*
G37*
G54D38*
G36*
X770337Y573881D02*
X770337Y581381D01*
X772337Y581381D01*
X772337Y573881D01*
X770337Y573881D01*
G37*
G36*
X771337Y574881D02*
X778837Y574881D01*
X778837Y572881D01*
X771337Y572881D01*
X771337Y574881D01*
G37*
G36*
X772337Y573881D02*
X772337Y566381D01*
X770337Y566381D01*
X770337Y573881D01*
X772337Y573881D01*
G37*
G36*
X771337Y572881D02*
X763837Y572881D01*
X763837Y574881D01*
X771337Y574881D01*
X771337Y572881D01*
G37*
G54D38*
G36*
X777366Y590852D02*
X777366Y598352D01*
X779366Y598352D01*
X779366Y590852D01*
X777366Y590852D01*
G37*
G36*
X778366Y591852D02*
X785866Y591852D01*
X785866Y589852D01*
X778366Y589852D01*
X778366Y591852D01*
G37*
G36*
X779366Y590852D02*
X779366Y583352D01*
X777366Y583352D01*
X777366Y590852D01*
X779366Y590852D01*
G37*
G36*
X778366Y589852D02*
X770866Y589852D01*
X770866Y591852D01*
X778366Y591852D01*
X778366Y589852D01*
G37*
G54D38*
G36*
X794337Y597881D02*
X794337Y605381D01*
X796337Y605381D01*
X796337Y597881D01*
X794337Y597881D01*
G37*
G36*
X795337Y598881D02*
X802837Y598881D01*
X802837Y596881D01*
X795337Y596881D01*
X795337Y598881D01*
G37*
G36*
X796337Y597881D02*
X796337Y590381D01*
X794337Y590381D01*
X794337Y597881D01*
X796337Y597881D01*
G37*
G36*
X795337Y596881D02*
X787837Y596881D01*
X787837Y598881D01*
X795337Y598881D01*
X795337Y596881D01*
G37*
G54D38*
G36*
X811307Y590852D02*
X811307Y598352D01*
X813307Y598352D01*
X813307Y590852D01*
X811307Y590852D01*
G37*
G36*
X812307Y591852D02*
X819807Y591852D01*
X819807Y589852D01*
X812307Y589852D01*
X812307Y591852D01*
G37*
G36*
X813307Y590852D02*
X813307Y583352D01*
X811307Y583352D01*
X811307Y590852D01*
X813307Y590852D01*
G37*
G36*
X812307Y589852D02*
X804807Y589852D01*
X804807Y591852D01*
X812307Y591852D01*
X812307Y589852D01*
G37*
G54D37*
G36*
X33783Y573881D02*
X33783Y610381D01*
X55116Y610381D01*
X55116Y573881D01*
X33783Y573881D01*
G37*
G36*
X44449Y584548D02*
X80949Y584548D01*
X80949Y563214D01*
X44449Y563214D01*
X44449Y584548D01*
G37*
G36*
X55116Y573881D02*
X55116Y537381D01*
X33783Y537381D01*
X33783Y573881D01*
X55116Y573881D01*
G37*
G36*
X44449Y563214D02*
X7949Y563214D01*
X7949Y584548D01*
X44449Y584548D01*
X44449Y563214D01*
G37*
G54D38*
G36*
X67449Y573881D02*
X67449Y581381D01*
X69449Y581381D01*
X69449Y573881D01*
X67449Y573881D01*
G37*
G36*
X68449Y574881D02*
X75949Y574881D01*
X75949Y572881D01*
X68449Y572881D01*
X68449Y574881D01*
G37*
G36*
X69449Y573881D02*
X69449Y566381D01*
X67449Y566381D01*
X67449Y573881D01*
X69449Y573881D01*
G37*
G36*
X68449Y572881D02*
X60949Y572881D01*
X60949Y574881D01*
X68449Y574881D01*
X68449Y572881D01*
G37*
G54D38*
G36*
X60420Y556911D02*
X60420Y564411D01*
X62420Y564411D01*
X62420Y556911D01*
X60420Y556911D01*
G37*
G36*
X61420Y557911D02*
X68920Y557911D01*
X68920Y555911D01*
X61420Y555911D01*
X61420Y557911D01*
G37*
G36*
X62420Y556911D02*
X62420Y549411D01*
X60420Y549411D01*
X60420Y556911D01*
X62420Y556911D01*
G37*
G36*
X61420Y555911D02*
X53920Y555911D01*
X53920Y557911D01*
X61420Y557911D01*
X61420Y555911D01*
G37*
G54D38*
G36*
X43449Y549881D02*
X43449Y557381D01*
X45449Y557381D01*
X45449Y549881D01*
X43449Y549881D01*
G37*
G36*
X44449Y550881D02*
X51949Y550881D01*
X51949Y548881D01*
X44449Y548881D01*
X44449Y550881D01*
G37*
G36*
X45449Y549881D02*
X45449Y542381D01*
X43449Y542381D01*
X43449Y549881D01*
X45449Y549881D01*
G37*
G36*
X44449Y548881D02*
X36949Y548881D01*
X36949Y550881D01*
X44449Y550881D01*
X44449Y548881D01*
G37*
G54D38*
G36*
X26479Y556911D02*
X26479Y564411D01*
X28479Y564411D01*
X28479Y556911D01*
X26479Y556911D01*
G37*
G36*
X27479Y557911D02*
X34979Y557911D01*
X34979Y555911D01*
X27479Y555911D01*
X27479Y557911D01*
G37*
G36*
X28479Y556911D02*
X28479Y549411D01*
X26479Y549411D01*
X26479Y556911D01*
X28479Y556911D01*
G37*
G36*
X27479Y555911D02*
X19979Y555911D01*
X19979Y557911D01*
X27479Y557911D01*
X27479Y555911D01*
G37*
G54D38*
G36*
X19449Y573881D02*
X19449Y581381D01*
X21449Y581381D01*
X21449Y573881D01*
X19449Y573881D01*
G37*
G36*
X20449Y574881D02*
X27949Y574881D01*
X27949Y572881D01*
X20449Y572881D01*
X20449Y574881D01*
G37*
G36*
X21449Y573881D02*
X21449Y566381D01*
X19449Y566381D01*
X19449Y573881D01*
X21449Y573881D01*
G37*
G36*
X20449Y572881D02*
X12949Y572881D01*
X12949Y574881D01*
X20449Y574881D01*
X20449Y572881D01*
G37*
G54D38*
G36*
X26479Y590852D02*
X26479Y598352D01*
X28479Y598352D01*
X28479Y590852D01*
X26479Y590852D01*
G37*
G36*
X27479Y591852D02*
X34979Y591852D01*
X34979Y589852D01*
X27479Y589852D01*
X27479Y591852D01*
G37*
G36*
X28479Y590852D02*
X28479Y583352D01*
X26479Y583352D01*
X26479Y590852D01*
X28479Y590852D01*
G37*
G36*
X27479Y589852D02*
X19979Y589852D01*
X19979Y591852D01*
X27479Y591852D01*
X27479Y589852D01*
G37*
G54D38*
G36*
X43449Y597881D02*
X43449Y605381D01*
X45449Y605381D01*
X45449Y597881D01*
X43449Y597881D01*
G37*
G36*
X44449Y598881D02*
X51949Y598881D01*
X51949Y596881D01*
X44449Y596881D01*
X44449Y598881D01*
G37*
G36*
X45449Y597881D02*
X45449Y590381D01*
X43449Y590381D01*
X43449Y597881D01*
X45449Y597881D01*
G37*
G36*
X44449Y596881D02*
X36949Y596881D01*
X36949Y598881D01*
X44449Y598881D01*
X44449Y596881D01*
G37*
G54D38*
G36*
X60420Y590852D02*
X60420Y598352D01*
X62420Y598352D01*
X62420Y590852D01*
X60420Y590852D01*
G37*
G36*
X61420Y591852D02*
X68920Y591852D01*
X68920Y589852D01*
X61420Y589852D01*
X61420Y591852D01*
G37*
G36*
X62420Y590852D02*
X62420Y583352D01*
X60420Y583352D01*
X60420Y590852D01*
X62420Y590852D01*
G37*
G36*
X61420Y589852D02*
X53920Y589852D01*
X53920Y591852D01*
X61420Y591852D01*
X61420Y589852D01*
G37*
G54D37*
G36*
X33386Y265510D02*
X33386Y302010D01*
X54719Y302010D01*
X54719Y265510D01*
X33386Y265510D01*
G37*
G36*
X44052Y276176D02*
X80552Y276176D01*
X80552Y254843D01*
X44052Y254843D01*
X44052Y276176D01*
G37*
G36*
X54719Y265510D02*
X54719Y229010D01*
X33386Y229010D01*
X33386Y265510D01*
X54719Y265510D01*
G37*
G36*
X44052Y254843D02*
X7552Y254843D01*
X7552Y276176D01*
X44052Y276176D01*
X44052Y254843D01*
G37*
G54D38*
G36*
X67052Y265510D02*
X67052Y273010D01*
X69052Y273010D01*
X69052Y265510D01*
X67052Y265510D01*
G37*
G36*
X68052Y266510D02*
X75552Y266510D01*
X75552Y264510D01*
X68052Y264510D01*
X68052Y266510D01*
G37*
G36*
X69052Y265510D02*
X69052Y258010D01*
X67052Y258010D01*
X67052Y265510D01*
X69052Y265510D01*
G37*
G36*
X68052Y264510D02*
X60552Y264510D01*
X60552Y266510D01*
X68052Y266510D01*
X68052Y264510D01*
G37*
G54D38*
G36*
X60023Y248539D02*
X60023Y256039D01*
X62023Y256039D01*
X62023Y248539D01*
X60023Y248539D01*
G37*
G36*
X61023Y249539D02*
X68523Y249539D01*
X68523Y247539D01*
X61023Y247539D01*
X61023Y249539D01*
G37*
G36*
X62023Y248539D02*
X62023Y241039D01*
X60023Y241039D01*
X60023Y248539D01*
X62023Y248539D01*
G37*
G36*
X61023Y247539D02*
X53523Y247539D01*
X53523Y249539D01*
X61023Y249539D01*
X61023Y247539D01*
G37*
G54D38*
G36*
X43052Y241510D02*
X43052Y249010D01*
X45052Y249010D01*
X45052Y241510D01*
X43052Y241510D01*
G37*
G36*
X44052Y242510D02*
X51552Y242510D01*
X51552Y240510D01*
X44052Y240510D01*
X44052Y242510D01*
G37*
G36*
X45052Y241510D02*
X45052Y234010D01*
X43052Y234010D01*
X43052Y241510D01*
X45052Y241510D01*
G37*
G36*
X44052Y240510D02*
X36552Y240510D01*
X36552Y242510D01*
X44052Y242510D01*
X44052Y240510D01*
G37*
G54D38*
G36*
X26082Y248539D02*
X26082Y256039D01*
X28082Y256039D01*
X28082Y248539D01*
X26082Y248539D01*
G37*
G36*
X27082Y249539D02*
X34582Y249539D01*
X34582Y247539D01*
X27082Y247539D01*
X27082Y249539D01*
G37*
G36*
X28082Y248539D02*
X28082Y241039D01*
X26082Y241039D01*
X26082Y248539D01*
X28082Y248539D01*
G37*
G36*
X27082Y247539D02*
X19582Y247539D01*
X19582Y249539D01*
X27082Y249539D01*
X27082Y247539D01*
G37*
G54D38*
G36*
X19052Y265510D02*
X19052Y273010D01*
X21052Y273010D01*
X21052Y265510D01*
X19052Y265510D01*
G37*
G36*
X20052Y266510D02*
X27552Y266510D01*
X27552Y264510D01*
X20052Y264510D01*
X20052Y266510D01*
G37*
G36*
X21052Y265510D02*
X21052Y258010D01*
X19052Y258010D01*
X19052Y265510D01*
X21052Y265510D01*
G37*
G36*
X20052Y264510D02*
X12552Y264510D01*
X12552Y266510D01*
X20052Y266510D01*
X20052Y264510D01*
G37*
G54D38*
G36*
X26082Y282480D02*
X26082Y289980D01*
X28082Y289980D01*
X28082Y282480D01*
X26082Y282480D01*
G37*
G36*
X27082Y283480D02*
X34582Y283480D01*
X34582Y281480D01*
X27082Y281480D01*
X27082Y283480D01*
G37*
G36*
X28082Y282480D02*
X28082Y274980D01*
X26082Y274980D01*
X26082Y282480D01*
X28082Y282480D01*
G37*
G36*
X27082Y281480D02*
X19582Y281480D01*
X19582Y283480D01*
X27082Y283480D01*
X27082Y281480D01*
G37*
G54D38*
G36*
X43052Y289510D02*
X43052Y297010D01*
X45052Y297010D01*
X45052Y289510D01*
X43052Y289510D01*
G37*
G36*
X44052Y290510D02*
X51552Y290510D01*
X51552Y288510D01*
X44052Y288510D01*
X44052Y290510D01*
G37*
G36*
X45052Y289510D02*
X45052Y282010D01*
X43052Y282010D01*
X43052Y289510D01*
X45052Y289510D01*
G37*
G36*
X44052Y288510D02*
X36552Y288510D01*
X36552Y290510D01*
X44052Y290510D01*
X44052Y288510D01*
G37*
G54D38*
G36*
X60023Y282480D02*
X60023Y289980D01*
X62023Y289980D01*
X62023Y282480D01*
X60023Y282480D01*
G37*
G36*
X61023Y283480D02*
X68523Y283480D01*
X68523Y281480D01*
X61023Y281480D01*
X61023Y283480D01*
G37*
G36*
X62023Y282480D02*
X62023Y274980D01*
X60023Y274980D01*
X60023Y282480D01*
X62023Y282480D01*
G37*
G36*
X61023Y281480D02*
X53523Y281480D01*
X53523Y283480D01*
X61023Y283480D01*
X61023Y281480D01*
G37*
G54D39*
G36*
X133985Y253305D02*
X133985Y265805D01*
X143745Y265805D01*
X143745Y253305D01*
X133985Y253305D01*
G37*
G36*
X138865Y258185D02*
X151365Y258185D01*
X151365Y248425D01*
X138865Y248425D01*
X138865Y258185D01*
G37*
G36*
X143745Y253305D02*
X143745Y240805D01*
X133985Y240805D01*
X133985Y253305D01*
X143745Y253305D01*
G37*
G36*
X138865Y248425D02*
X126365Y248425D01*
X126365Y258185D01*
X138865Y258185D01*
X138865Y248425D01*
G37*
G54D40*
G36*
X239686Y103709D02*
X239686Y116209D01*
X248113Y116209D01*
X248113Y103709D01*
X239686Y103709D01*
G37*
G36*
X243899Y107923D02*
X256399Y107923D01*
X256399Y99496D01*
X243899Y99496D01*
X243899Y107923D01*
G37*
G36*
X248113Y103709D02*
X248113Y91209D01*
X239686Y91209D01*
X239686Y103709D01*
X248113Y103709D01*
G37*
G36*
X243899Y99496D02*
X231399Y99496D01*
X231399Y107923D01*
X243899Y107923D01*
X243899Y99496D01*
G37*
G54D40*
G36*
X239686Y33065D02*
X239686Y45565D01*
X248113Y45565D01*
X248113Y33065D01*
X239686Y33065D01*
G37*
G36*
X243899Y37279D02*
X256399Y37279D01*
X256399Y28852D01*
X243899Y28852D01*
X243899Y37279D01*
G37*
G36*
X248113Y33065D02*
X248113Y20565D01*
X239686Y20565D01*
X239686Y33065D01*
X248113Y33065D01*
G37*
G36*
X243899Y28852D02*
X231399Y28852D01*
X231399Y37279D01*
X243899Y37279D01*
X243899Y28852D01*
G37*
G54D41*
G36*
X311322Y398192D02*
X300472Y398192D01*
X300472Y402458D01*
X311322Y402458D01*
X311322Y398192D01*
G37*
G54D42*
G36*
X397174Y411120D02*
X408024Y411120D01*
X408024Y405532D01*
X397174Y405532D01*
X397174Y411120D01*
G37*
G54D43*
G36*
X383585Y328115D02*
X396085Y328115D01*
X396085Y316542D01*
X383585Y316542D01*
X383585Y328115D01*
G37*
G36*
X389371Y322328D02*
X389371Y309828D01*
X377798Y309828D01*
X377798Y322328D01*
X389371Y322328D01*
G37*
G36*
X383585Y316542D02*
X371085Y316542D01*
X371085Y328115D01*
X383585Y328115D01*
X383585Y316542D01*
G37*
G36*
X377798Y322328D02*
X377798Y334828D01*
X389371Y334828D01*
X389371Y322328D01*
X377798Y322328D01*
G37*
G54D44*
G36*
X358185Y328035D02*
X370685Y328035D01*
X370685Y316621D01*
X358185Y316621D01*
X358185Y328035D01*
G37*
G36*
X363892Y322328D02*
X363892Y309828D01*
X352479Y309828D01*
X352479Y322328D01*
X363892Y322328D01*
G37*
G36*
X352479Y322328D02*
X352479Y334828D01*
X363892Y334828D01*
X363892Y322328D01*
X352479Y322328D01*
G37*
G54D45*
G36*
X402431Y164894D02*
X414931Y164894D01*
X414931Y159561D01*
X402431Y159561D01*
X402431Y164894D01*
G37*
G36*
X405097Y162228D02*
X405097Y149728D01*
X399764Y149728D01*
X399764Y162228D01*
X405097Y162228D01*
G37*
G36*
X402431Y159561D02*
X389931Y159561D01*
X389931Y164894D01*
X402431Y164894D01*
X402431Y159561D01*
G37*
G36*
X399764Y162228D02*
X399764Y174728D01*
X405097Y174728D01*
X405097Y162228D01*
X399764Y162228D01*
G37*
G54D45*
G36*
X509587Y163703D02*
X522087Y163703D01*
X522087Y158370D01*
X509587Y158370D01*
X509587Y163703D01*
G37*
G36*
X512253Y161036D02*
X512253Y148536D01*
X506920Y148536D01*
X506920Y161036D01*
X512253Y161036D01*
G37*
G36*
X509587Y158370D02*
X497087Y158370D01*
X497087Y163703D01*
X509587Y163703D01*
X509587Y158370D01*
G37*
G36*
X506920Y161036D02*
X506920Y173536D01*
X512253Y173536D01*
X512253Y161036D01*
X506920Y161036D01*
G37*
G54D39*
G36*
X401637Y95492D02*
X414137Y95492D01*
X414137Y85732D01*
X401637Y85732D01*
X401637Y95492D01*
G37*
G36*
X406517Y90612D02*
X406517Y78112D01*
X396757Y78112D01*
X396757Y90612D01*
X406517Y90612D01*
G37*
G36*
X401637Y85732D02*
X389137Y85732D01*
X389137Y95492D01*
X401637Y95492D01*
X401637Y85732D01*
G37*
G36*
X396757Y90612D02*
X396757Y103112D01*
X406517Y103112D01*
X406517Y90612D01*
X396757Y90612D01*
G37*
G54D39*
G36*
X509587Y95492D02*
X522087Y95492D01*
X522087Y85732D01*
X509587Y85732D01*
X509587Y95492D01*
G37*
G36*
X514467Y90612D02*
X514467Y78112D01*
X504707Y78112D01*
X504707Y90612D01*
X514467Y90612D01*
G37*
G36*
X509587Y85732D02*
X497087Y85732D01*
X497087Y95492D01*
X509587Y95492D01*
X509587Y85732D01*
G37*
G36*
X504707Y90612D02*
X504707Y103112D01*
X514467Y103112D01*
X514467Y90612D01*
X504707Y90612D01*
G37*
G54D39*
G36*
X617537Y92316D02*
X630037Y92316D01*
X630037Y82556D01*
X617537Y82556D01*
X617537Y92316D01*
G37*
G36*
X622417Y87436D02*
X622417Y74936D01*
X612657Y74936D01*
X612657Y87436D01*
X622417Y87436D01*
G37*
G36*
X617537Y82556D02*
X605037Y82556D01*
X605037Y92316D01*
X617537Y92316D01*
X617537Y82556D01*
G37*
G36*
X612657Y87436D02*
X612657Y99936D01*
X622417Y99936D01*
X622417Y87436D01*
X612657Y87436D01*
G37*
G54D40*
G36*
X774699Y74188D02*
X787199Y74188D01*
X787199Y65761D01*
X774699Y65761D01*
X774699Y74188D01*
G37*
G36*
X778913Y69975D02*
X778913Y57475D01*
X770486Y57475D01*
X770486Y69975D01*
X778913Y69975D01*
G37*
G36*
X774699Y65761D02*
X762199Y65761D01*
X762199Y74188D01*
X774699Y74188D01*
X774699Y65761D01*
G37*
G36*
X770486Y69975D02*
X770486Y82475D01*
X778913Y82475D01*
X778913Y69975D01*
X770486Y69975D01*
G37*
G54D40*
G36*
X730249Y74188D02*
X742749Y74188D01*
X742749Y65761D01*
X730249Y65761D01*
X730249Y74188D01*
G37*
G36*
X734463Y69975D02*
X734463Y57475D01*
X726036Y57475D01*
X726036Y69975D01*
X734463Y69975D01*
G37*
G36*
X730249Y65761D02*
X717749Y65761D01*
X717749Y74188D01*
X730249Y74188D01*
X730249Y65761D01*
G37*
G36*
X726036Y69975D02*
X726036Y82475D01*
X734463Y82475D01*
X734463Y69975D01*
X726036Y69975D01*
G37*
G54D46*
G36*
X392509Y252947D02*
X378009Y252947D01*
X378009Y267214D01*
X392509Y267214D01*
X392509Y252947D01*
G37*
G36*
X392509Y267214D02*
X407009Y267214D01*
X407009Y252947D01*
X392509Y252947D01*
X392509Y267214D01*
G37*
G36*
X399642Y260080D02*
X399642Y245580D01*
X385375Y245580D01*
X385375Y260080D01*
X399642Y260080D01*
G37*
G54D47*
G36*
X525526Y433026D02*
X534026Y433026D01*
X534026Y425026D01*
X525526Y425026D01*
X525526Y433026D01*
G37*
G36*
X529526Y429026D02*
X529526Y420526D01*
X521526Y420526D01*
X521526Y429026D01*
X529526Y429026D01*
G37*
G36*
X525526Y425026D02*
X517026Y425026D01*
X517026Y433026D01*
X525526Y433026D01*
X525526Y425026D01*
G37*
G36*
X521526Y429026D02*
X521526Y437526D01*
X529526Y437526D01*
X529526Y429026D01*
X521526Y429026D01*
G37*
G54D47*
G36*
X591804Y370319D02*
X600304Y370319D01*
X600304Y362319D01*
X591804Y362319D01*
X591804Y370319D01*
G37*
G36*
X595804Y366319D02*
X595804Y357819D01*
X587804Y357819D01*
X587804Y366319D01*
X595804Y366319D01*
G37*
G36*
X591804Y362319D02*
X583304Y362319D01*
X583304Y370319D01*
X591804Y370319D01*
X591804Y362319D01*
G37*
G36*
X587804Y366319D02*
X587804Y374819D01*
X595804Y374819D01*
X595804Y366319D01*
X587804Y366319D01*
G37*
G54D47*
G36*
X524472Y351735D02*
X532972Y351735D01*
X532972Y343735D01*
X524472Y343735D01*
X524472Y351735D01*
G37*
G36*
X528472Y347735D02*
X528472Y339235D01*
X520472Y339235D01*
X520472Y347735D01*
X528472Y347735D01*
G37*
G36*
X524472Y343735D02*
X515972Y343735D01*
X515972Y351735D01*
X524472Y351735D01*
X524472Y343735D01*
G37*
G36*
X520472Y347735D02*
X520472Y356235D01*
X528472Y356235D01*
X528472Y347735D01*
X520472Y347735D01*
G37*
G54D47*
G36*
X591011Y286579D02*
X599511Y286579D01*
X599511Y278579D01*
X591011Y278579D01*
X591011Y286579D01*
G37*
G36*
X595011Y282579D02*
X595011Y274079D01*
X587011Y274079D01*
X587011Y282579D01*
X595011Y282579D01*
G37*
G36*
X591011Y278579D02*
X582511Y278579D01*
X582511Y286579D01*
X591011Y286579D01*
X591011Y278579D01*
G37*
G36*
X587011Y282579D02*
X587011Y291079D01*
X595011Y291079D01*
X595011Y282579D01*
X587011Y282579D01*
G37*
G54D47*
G36*
X347757Y415928D02*
X347757Y407428D01*
X339757Y407428D01*
X339757Y415928D01*
X347757Y415928D01*
G37*
G36*
X339757Y415928D02*
X339757Y424428D01*
X347757Y424428D01*
X347757Y415928D01*
X339757Y415928D01*
G37*
G54D47*
G36*
X371966Y416327D02*
X371966Y407827D01*
X363966Y407827D01*
X363966Y416327D01*
X371966Y416327D01*
G37*
G36*
X363966Y416327D02*
X363966Y424827D01*
X371966Y424827D01*
X371966Y416327D01*
X363966Y416327D01*
G37*
G54D47*
G36*
X234220Y233794D02*
X242720Y233794D01*
X242720Y225794D01*
X234220Y225794D01*
X234220Y233794D01*
G37*
G36*
X238220Y229794D02*
X238220Y221294D01*
X230220Y221294D01*
X230220Y229794D01*
X238220Y229794D01*
G37*
G36*
X234220Y225794D02*
X225720Y225794D01*
X225720Y233794D01*
X234220Y233794D01*
X234220Y225794D01*
G37*
G36*
X230220Y229794D02*
X230220Y238294D01*
X238220Y238294D01*
X238220Y229794D01*
X230220Y229794D01*
G37*
G54D47*
G36*
X231589Y191595D02*
X240089Y191595D01*
X240089Y183595D01*
X231589Y183595D01*
X231589Y191595D01*
G37*
G36*
X235589Y187595D02*
X235589Y179095D01*
X227589Y179095D01*
X227589Y187595D01*
X235589Y187595D01*
G37*
G36*
X231589Y183595D02*
X223089Y183595D01*
X223089Y191595D01*
X231589Y191595D01*
X231589Y183595D01*
G37*
G36*
X227589Y187595D02*
X227589Y196095D01*
X235589Y196095D01*
X235589Y187595D01*
X227589Y187595D01*
G37*
G54D47*
G36*
X131957Y27734D02*
X140457Y27734D01*
X140457Y19734D01*
X131957Y19734D01*
X131957Y27734D01*
G37*
G36*
X135957Y23734D02*
X135957Y15234D01*
X127957Y15234D01*
X127957Y23734D01*
X135957Y23734D01*
G37*
G36*
X131957Y19734D02*
X123457Y19734D01*
X123457Y27734D01*
X131957Y27734D01*
X131957Y19734D01*
G37*
G36*
X127957Y23734D02*
X127957Y32234D01*
X135957Y32234D01*
X135957Y23734D01*
X127957Y23734D01*
G37*
G54D47*
G36*
X816436Y31388D02*
X824936Y31388D01*
X824936Y23388D01*
X816436Y23388D01*
X816436Y31388D01*
G37*
G36*
X820436Y27388D02*
X820436Y18888D01*
X812436Y18888D01*
X812436Y27388D01*
X820436Y27388D01*
G37*
G36*
X816436Y23388D02*
X807936Y23388D01*
X807936Y31388D01*
X816436Y31388D01*
X816436Y23388D01*
G37*
G36*
X812436Y27388D02*
X812436Y35888D01*
X820436Y35888D01*
X820436Y27388D01*
X812436Y27388D01*
G37*
G54D47*
G36*
X341376Y122272D02*
X349876Y122272D01*
X349876Y114272D01*
X341376Y114272D01*
X341376Y122272D01*
G37*
G36*
X345376Y118272D02*
X345376Y109772D01*
X337376Y109772D01*
X337376Y118272D01*
X345376Y118272D01*
G37*
G36*
X341376Y114272D02*
X332876Y114272D01*
X332876Y122272D01*
X341376Y122272D01*
X341376Y114272D01*
G37*
G36*
X337376Y118272D02*
X337376Y126772D01*
X345376Y126772D01*
X345376Y118272D01*
X337376Y118272D01*
G37*
G54D47*
G36*
X336217Y56391D02*
X344717Y56391D01*
X344717Y48391D01*
X336217Y48391D01*
X336217Y56391D01*
G37*
G36*
X340217Y52391D02*
X340217Y43891D01*
X332217Y43891D01*
X332217Y52391D01*
X340217Y52391D01*
G37*
G36*
X336217Y48391D02*
X327717Y48391D01*
X327717Y56391D01*
X336217Y56391D01*
X336217Y48391D01*
G37*
G36*
X332217Y52391D02*
X332217Y60891D01*
X340217Y60891D01*
X340217Y52391D01*
X332217Y52391D01*
G37*
G54D47*
G36*
X420751Y519941D02*
X429251Y519941D01*
X429251Y511941D01*
X420751Y511941D01*
X420751Y519941D01*
G37*
G36*
X424751Y515941D02*
X424751Y507441D01*
X416751Y507441D01*
X416751Y515941D01*
X424751Y515941D01*
G37*
G36*
X420751Y511941D02*
X412251Y511941D01*
X412251Y519941D01*
X420751Y519941D01*
X420751Y511941D01*
G37*
G36*
X416751Y515941D02*
X416751Y524441D01*
X424751Y524441D01*
X424751Y515941D01*
X416751Y515941D01*
G37*
G54D47*
G36*
X420751Y484222D02*
X429251Y484222D01*
X429251Y476222D01*
X420751Y476222D01*
X420751Y484222D01*
G37*
G36*
X424751Y480222D02*
X424751Y471722D01*
X416751Y471722D01*
X416751Y480222D01*
X424751Y480222D01*
G37*
G36*
X420751Y476222D02*
X412251Y476222D01*
X412251Y484222D01*
X420751Y484222D01*
X420751Y476222D01*
G37*
G36*
X416751Y480222D02*
X416751Y488722D01*
X424751Y488722D01*
X424751Y480222D01*
X416751Y480222D01*
G37*
G54D47*
G36*
X751745Y115922D02*
X760245Y115922D01*
X760245Y107922D01*
X751745Y107922D01*
X751745Y115922D01*
G37*
G36*
X755745Y111922D02*
X755745Y103422D01*
X747745Y103422D01*
X747745Y111922D01*
X755745Y111922D01*
G37*
G36*
X751745Y107922D02*
X743245Y107922D01*
X743245Y115922D01*
X751745Y115922D01*
X751745Y107922D01*
G37*
G36*
X747745Y111922D02*
X747745Y120422D01*
X755745Y120422D01*
X755745Y111922D01*
X747745Y111922D01*
G37*
G54D47*
G36*
X282770Y22575D02*
X291270Y22575D01*
X291270Y14575D01*
X282770Y14575D01*
X282770Y22575D01*
G37*
G36*
X286770Y18575D02*
X286770Y10075D01*
X278770Y10075D01*
X278770Y18575D01*
X286770Y18575D01*
G37*
G36*
X282770Y14575D02*
X274270Y14575D01*
X274270Y22575D01*
X282770Y22575D01*
X282770Y14575D01*
G37*
G36*
X278770Y18575D02*
X278770Y27075D01*
X286770Y27075D01*
X286770Y18575D01*
X278770Y18575D01*
G37*
G54D47*
G36*
X660067Y299279D02*
X668567Y299279D01*
X668567Y291279D01*
X660067Y291279D01*
X660067Y299279D01*
G37*
G36*
X664067Y295279D02*
X664067Y286779D01*
X656067Y286779D01*
X656067Y295279D01*
X664067Y295279D01*
G37*
G36*
X660067Y291279D02*
X651567Y291279D01*
X651567Y299279D01*
X660067Y299279D01*
X660067Y291279D01*
G37*
G36*
X656067Y295279D02*
X656067Y303779D01*
X664067Y303779D01*
X664067Y295279D01*
X656067Y295279D01*
G37*
G54D47*
G36*
X659273Y215538D02*
X667773Y215538D01*
X667773Y207538D01*
X659273Y207538D01*
X659273Y215538D01*
G37*
G36*
X663273Y211538D02*
X663273Y203038D01*
X655273Y203038D01*
X655273Y211538D01*
X663273Y211538D01*
G37*
G36*
X659273Y207538D02*
X650773Y207538D01*
X650773Y215538D01*
X659273Y215538D01*
X659273Y207538D01*
G37*
G36*
X655273Y211538D02*
X655273Y220038D01*
X663273Y220038D01*
X663273Y211538D01*
X655273Y211538D01*
G37*
G54D48*
G36*
X188948Y452165D02*
X188948Y464665D01*
X199988Y464665D01*
X199988Y452165D01*
X188948Y452165D01*
G37*
G36*
X199988Y452165D02*
X199988Y439665D01*
X188948Y439665D01*
X188948Y452165D01*
X199988Y452165D01*
G37*
G36*
X194468Y446645D02*
X181968Y446645D01*
X181968Y457685D01*
X194468Y457685D01*
X194468Y446645D01*
G37*
G54D48*
G36*
X189345Y404143D02*
X189345Y416643D01*
X200385Y416643D01*
X200385Y404143D01*
X189345Y404143D01*
G37*
G36*
X200385Y404143D02*
X200385Y391643D01*
X189345Y391643D01*
X189345Y404143D01*
X200385Y404143D01*
G37*
G36*
X194865Y398623D02*
X182365Y398623D01*
X182365Y409663D01*
X194865Y409663D01*
X194865Y398623D01*
G37*
X97020Y76019D02*
G54D49*
D03*
X28758Y79194D02*
G54D49*
D03*
X62844Y149916D02*
G54D50*
D03*
X62844Y201916D02*
G54D50*
D03*
X542924Y198562D02*
G54D51*
D03*
X477924Y198562D02*
G54D51*
D03*
X477924Y153562D02*
G54D51*
D03*
X542924Y153562D02*
G54D51*
D03*
X434974Y198562D02*
G54D51*
D03*
X369974Y198562D02*
G54D51*
D03*
X369974Y153562D02*
G54D51*
D03*
X434974Y153562D02*
G54D51*
D03*
X68785Y29184D02*
G54D49*
D03*
X620315Y201590D02*
G54D51*
D03*
X595315Y176590D02*
G54D51*
D03*
X645315Y176590D02*
G54D51*
D03*
X166865Y202506D02*
G54D52*
D03*
X141465Y177106D02*
G54D52*
D03*
X166865Y151705D02*
G54D52*
D03*
X728662Y37906D02*
G54D51*
D03*
X778662Y37906D02*
G54D51*
D03*
X753662Y37906D02*
G54D51*
D03*
X728662Y187906D02*
G54D51*
D03*
X778662Y187906D02*
G54D51*
D03*
X691162Y112906D02*
G54D50*
D03*
X816162Y112906D02*
G54D50*
D03*
X434974Y51963D02*
G54D51*
D03*
X369974Y51962D02*
G54D51*
D03*
X369974Y96963D02*
G54D51*
D03*
X434974Y96963D02*
G54D51*
D03*
X165675Y84237D02*
G54D52*
D03*
X140274Y58838D02*
G54D52*
D03*
X165675Y33437D02*
G54D52*
D03*
X101048Y576592D02*
G54D51*
D03*
X126448Y576592D02*
G54D51*
D03*
X151848Y576592D02*
G54D51*
D03*
X178439Y576592D02*
G54D51*
D03*
X203839Y576592D02*
G54D51*
D03*
X229239Y576592D02*
G54D51*
D03*
X357033Y576592D02*
G54D51*
D03*
X382433Y576592D02*
G54D51*
D03*
X407833Y576592D02*
G54D51*
D03*
X433233Y576592D02*
G54D51*
D03*
X458633Y576592D02*
G54D51*
D03*
X485223Y576592D02*
G54D51*
D03*
X796130Y263922D02*
G54D53*
D03*
X820130Y263922D02*
G54D54*
D03*
X813101Y246952D02*
G54D54*
D03*
X796130Y239922D02*
G54D54*
D03*
X779160Y246952D02*
G54D54*
D03*
X772130Y263922D02*
G54D54*
D03*
X779160Y280892D02*
G54D54*
D03*
X796130Y287922D02*
G54D54*
D03*
X813101Y280892D02*
G54D54*
D03*
X795337Y573881D02*
G54D53*
D03*
X819337Y573881D02*
G54D54*
D03*
X812307Y556911D02*
G54D54*
D03*
X795337Y549881D02*
G54D54*
D03*
X778366Y556911D02*
G54D54*
D03*
X771337Y573881D02*
G54D54*
D03*
X778366Y590852D02*
G54D54*
D03*
X795337Y597881D02*
G54D54*
D03*
X812307Y590852D02*
G54D54*
D03*
X44449Y573881D02*
G54D53*
D03*
X68449Y573881D02*
G54D54*
D03*
X61420Y556911D02*
G54D54*
D03*
X44449Y549881D02*
G54D54*
D03*
X27479Y556911D02*
G54D54*
D03*
X20449Y573881D02*
G54D54*
D03*
X27479Y590852D02*
G54D54*
D03*
X44449Y597881D02*
G54D54*
D03*
X61420Y590852D02*
G54D54*
D03*
X44052Y265510D02*
G54D53*
D03*
X68052Y265510D02*
G54D54*
D03*
X61023Y248539D02*
G54D54*
D03*
X44052Y241510D02*
G54D54*
D03*
X27082Y248539D02*
G54D54*
D03*
X20052Y265510D02*
G54D54*
D03*
X27082Y282480D02*
G54D54*
D03*
X44052Y289510D02*
G54D54*
D03*
X61023Y282480D02*
G54D54*
D03*
G54D20*
X165675Y84237D02*
X112381Y84237D01*
X97020Y68875D01*
G54D20*
X62844Y146344D02*
X62844Y114957D01*
X97020Y80781D01*
G54D20*
X141465Y181868D02*
X138931Y181868D01*
X114299Y206500D01*
X63024Y206500D01*
X62844Y206679D01*
X112416Y321959D02*
G54D55*
D03*
X112416Y293959D02*
G54D55*
D03*
X138865Y253305D02*
G54D55*
D03*
X166865Y253306D02*
G54D55*
D03*
G54D56*
X166865Y253306D02*
X166865Y202506D01*
X774682Y156664D02*
G54D55*
D03*
X774682Y128664D02*
G54D55*
D03*
G54D57*
X745248Y590231D02*
X741693Y580231D01*
X738137Y590231D01*
G54D57*
X731915Y594675D02*
X731026Y596898D01*
X729249Y598009D01*
X727471Y598009D01*
X725693Y596898D01*
X724804Y594675D01*
X724804Y592453D01*
X725693Y590231D01*
X727471Y589120D01*
X725693Y588009D01*
X724804Y585786D01*
X724804Y583564D01*
X725693Y581342D01*
X727471Y580231D01*
X729249Y580231D01*
X731026Y581342D01*
X731915Y583564D01*
G54D57*
X718582Y580231D02*
X718582Y580231D01*
G54D57*
X705249Y594675D02*
X705249Y583564D01*
X706138Y581342D01*
X707916Y580231D01*
X709694Y580231D01*
X711472Y581342D01*
X712360Y583564D01*
X712360Y594675D01*
X711472Y596898D01*
X709694Y598009D01*
X707916Y598009D01*
X706138Y596898D01*
X705249Y594675D01*
X215899Y103709D02*
G54D55*
D03*
X243899Y103709D02*
G54D55*
D03*
X215899Y33065D02*
G54D55*
D03*
X243899Y33065D02*
G54D55*
D03*
G54D20*
X215899Y103709D02*
X185147Y103709D01*
X165675Y84237D01*
G54D20*
X215899Y33065D02*
X165675Y33437D01*
G54D38*
X11509Y615928D02*
X828262Y615928D01*
G54D38*
G75*
G01X11509Y615928D02*
G03X-1Y604418I0J-11510D01*
G01*
G54D38*
G75*
G01X839772Y604418D02*
G03X828262Y615928I-11510J0D01*
G01*
G54D38*
X-1Y604418D02*
X-1Y11503D01*
G54D38*
G75*
G01X828262Y-8D02*
G03X839772Y11502I0J11510D01*
G01*
G54D38*
X839772Y604418D02*
X839772Y11502D01*
G54D38*
G75*
G01X-1Y11503D02*
G03X11509Y-7I11510J0D01*
G01*
G54D38*
X828262Y-8D02*
X11509Y-7D01*
X542924Y51963D02*
G54D51*
D03*
X477924Y51962D02*
G54D51*
D03*
X477924Y96963D02*
G54D51*
D03*
X542924Y96963D02*
G54D51*
D03*
X311322Y384324D02*
G54D58*
D03*
X311322Y392324D02*
G54D58*
D03*
X311322Y400326D02*
G54D58*
D03*
X311322Y408326D02*
G54D58*
D03*
X311322Y416328D02*
G54D58*
D03*
X311322Y424328D02*
G54D58*
D03*
X311322Y432330D02*
G54D58*
D03*
X311322Y440330D02*
G54D58*
D03*
X397174Y440330D02*
G54D58*
D03*
X397174Y432330D02*
G54D58*
D03*
X397174Y424328D02*
G54D58*
D03*
X397174Y416328D02*
G54D58*
D03*
X397174Y408326D02*
G54D58*
D03*
X397174Y400326D02*
G54D58*
D03*
X397174Y392324D02*
G54D58*
D03*
X397174Y384324D02*
G54D58*
D03*
X382239Y369388D02*
G54D59*
D03*
X374238Y369388D02*
G54D59*
D03*
X366237Y369388D02*
G54D59*
D03*
X358236Y369388D02*
G54D59*
D03*
X350235Y369388D02*
G54D59*
D03*
X342234Y369388D02*
G54D59*
D03*
X334233Y369388D02*
G54D59*
D03*
X326232Y369388D02*
G54D59*
D03*
X326233Y455239D02*
G54D59*
D03*
X334234Y455239D02*
G54D59*
D03*
X342235Y455239D02*
G54D59*
D03*
X350236Y455239D02*
G54D59*
D03*
X358237Y455239D02*
G54D59*
D03*
X366238Y455239D02*
G54D59*
D03*
X374239Y455239D02*
G54D59*
D03*
X382240Y455239D02*
G54D59*
D03*
G36*
X391585Y330328D02*
X391585Y314328D01*
X375585Y314328D01*
X375585Y330328D01*
X391585Y330328D01*
G37*
X358185Y322328D02*
G54D60*
D03*
X332785Y322328D02*
G54D60*
D03*
X307385Y322328D02*
G54D60*
D03*
X281985Y322328D02*
G54D60*
D03*
X256585Y322328D02*
G54D60*
D03*
G54D61*
X306957Y408326D02*
X300683Y408326D01*
X295622Y413387D01*
X295622Y418483D01*
X301524Y424385D01*
X317796Y424385D01*
X326527Y433116D01*
X421034Y433152D01*
G54D62*
X311322Y416328D02*
X321885Y416328D01*
X324543Y413669D01*
X324543Y403335D01*
X321578Y400370D01*
X311322Y400326D01*
G54D62*
X311322Y416328D02*
X378682Y415931D01*
X386286Y408326D01*
X397174Y408326D01*
X350391Y355364D02*
G54D63*
D03*
G54D56*
X350235Y369388D02*
X350235Y355606D01*
X349994Y355364D01*
G54D56*
X342234Y367404D02*
X342234Y346032D01*
X335258Y339057D01*
X315812Y339057D01*
X307874Y331119D01*
X307874Y321627D01*
X307385Y321138D01*
G54D56*
X334233Y372166D02*
X334233Y349938D01*
X331290Y346994D01*
X290412Y346994D01*
X282474Y339057D01*
X282474Y325595D01*
X281985Y325106D01*
X321419Y285117D02*
G54D63*
D03*
G54D56*
X323006Y285117D02*
X307065Y285117D01*
X300283Y284289D01*
X265752Y404100D02*
G54D51*
D03*
X265752Y454100D02*
G54D51*
D03*
G54D56*
X265752Y454100D02*
X297552Y454100D01*
X311322Y440330D01*
G54D56*
X311322Y432330D02*
X293981Y432330D01*
X265752Y404100D01*
G54D56*
X228052Y402558D02*
X264210Y402558D01*
X265752Y404100D01*
G54D56*
X228449Y452961D02*
X264613Y452961D01*
X265752Y454100D01*
G54D56*
X342235Y455239D02*
X342348Y537736D01*
X360362Y555749D01*
X419496Y555352D01*
X432196Y568052D01*
X433233Y576592D01*
G54D56*
X350236Y455239D02*
X350286Y531386D01*
X364331Y545430D01*
X408384Y545827D01*
X408384Y545827D02*
G54D63*
D03*
G54D56*
X358237Y455239D02*
X358237Y524256D01*
X368696Y534715D01*
X382984Y534715D01*
X382984Y534715D02*
G54D63*
D03*
G54D56*
X366238Y455239D02*
X367109Y512490D01*
X367109Y512490D02*
G54D63*
D03*
X382984Y469627D02*
G54D63*
D03*
G54D56*
X382240Y455239D02*
X382240Y468784D01*
X381396Y469627D01*
X375046Y490265D02*
G54D63*
D03*
G54D56*
X374239Y455239D02*
X374239Y489458D01*
X375046Y490265D01*
G54D61*
X126448Y576592D02*
X126448Y593695D01*
X135334Y602580D01*
X445344Y602580D01*
X458633Y589292D01*
X458633Y576592D01*
X396874Y456927D02*
G54D63*
D03*
G54D62*
X397174Y440330D02*
X397174Y456628D01*
X396874Y456927D01*
X289321Y381124D02*
G54D63*
D03*
X112392Y341928D02*
G54D63*
D03*
G54D56*
X112416Y321959D02*
X112416Y340366D01*
X113979Y341928D01*
G54D56*
X311322Y384324D02*
X292520Y384324D01*
X289321Y381124D01*
X309165Y368821D02*
G54D63*
D03*
G54D56*
X326232Y369388D02*
X309732Y369388D01*
X309165Y368821D01*
G54D61*
X421034Y433152D02*
X433027Y433152D01*
X457199Y457324D01*
X457199Y575952D01*
X458633Y577385D01*
G54D61*
X369974Y153562D02*
X369974Y96963D01*
G54D56*
X256585Y322328D02*
X256585Y306606D01*
X278902Y284289D01*
G54D56*
X112416Y293959D02*
X148680Y293959D01*
X167084Y275555D01*
X167084Y253524D01*
X166865Y253306D01*
G54D61*
X477924Y153562D02*
X477924Y96963D01*
X648890Y51168D02*
G54D51*
D03*
X583890Y51168D02*
G54D51*
D03*
X583890Y96168D02*
G54D51*
D03*
X648890Y96168D02*
G54D51*
D03*
G54D61*
X595315Y176590D02*
X595315Y107594D01*
X583890Y96168D01*
X438100Y372827D02*
G54D63*
D03*
X438100Y358936D02*
G54D63*
D03*
X438100Y345839D02*
G54D63*
D03*
X438100Y332346D02*
G54D63*
D03*
G54D56*
X358236Y369388D02*
X358236Y347122D01*
X363128Y342230D01*
X412352Y342230D01*
X422274Y332309D01*
X438063Y332309D01*
X438100Y332346D01*
G54D56*
X366237Y369388D02*
X366237Y353024D01*
X369490Y349771D01*
X420290Y349771D01*
X425449Y344612D01*
X436872Y344612D01*
X438100Y345839D01*
G54D56*
X374238Y369388D02*
X374238Y360501D01*
X377824Y356915D01*
X436079Y356915D01*
X438100Y358936D01*
G54D56*
X382239Y369388D02*
X434662Y369388D01*
X438100Y372827D01*
X402430Y190228D02*
G54D55*
D03*
X402431Y162228D02*
G54D55*
D03*
X509587Y189037D02*
G54D55*
D03*
X509587Y161036D02*
G54D55*
D03*
X401637Y90612D02*
G54D55*
D03*
X401637Y62612D02*
G54D55*
D03*
X509587Y90612D02*
G54D55*
D03*
X509587Y62612D02*
G54D55*
D03*
X617537Y87436D02*
G54D55*
D03*
X617537Y59437D02*
G54D55*
D03*
G54D61*
X370284Y126330D02*
X595709Y126330D01*
G54D56*
X369974Y198562D02*
X394096Y198562D01*
X402430Y190228D01*
G54D56*
X477924Y198562D02*
X500061Y198562D01*
X509587Y189037D01*
G54D56*
X369974Y51962D02*
X390988Y51962D01*
X401637Y62612D01*
G54D56*
X477924Y51962D02*
X498938Y51962D01*
X509587Y62612D01*
G54D56*
X583890Y51168D02*
X609268Y51168D01*
X617537Y59437D01*
X453975Y401402D02*
G54D63*
D03*
X453975Y387511D02*
G54D63*
D03*
G54D56*
X397174Y384324D02*
X450787Y384324D01*
X453975Y387511D01*
G54D56*
X397174Y392324D02*
X436253Y392324D01*
X446484Y402556D01*
X452821Y402556D01*
X453975Y401402D01*
X730232Y156664D02*
G54D55*
D03*
X730232Y128664D02*
G54D55*
D03*
X774699Y97974D02*
G54D55*
D03*
X774699Y69975D02*
G54D55*
D03*
X730249Y97974D02*
G54D55*
D03*
X730249Y69975D02*
G54D55*
D03*
G54D61*
X595709Y126330D02*
X656828Y126330D01*
X689371Y158874D01*
X772471Y158874D01*
X774682Y156664D01*
G54D56*
X728662Y37906D02*
X721837Y37906D01*
X708818Y50924D01*
X708818Y76543D01*
X730249Y97974D01*
G54D56*
X778271Y38303D02*
X785096Y38303D01*
X798115Y51321D01*
X798115Y76940D01*
X776684Y98371D01*
G54D56*
X730232Y128664D02*
X730232Y97992D01*
X730249Y97974D01*
G54D56*
X774682Y128664D02*
X774682Y97992D01*
X774699Y97974D01*
X292875Y240058D02*
G54D55*
D03*
X320875Y240059D02*
G54D55*
D03*
G54D61*
X332785Y322328D02*
X341709Y313405D01*
X341709Y181828D01*
X369974Y153562D01*
G54D61*
X320875Y240059D02*
X340740Y240059D01*
X340915Y240234D01*
G54D56*
X300283Y284289D02*
X300283Y247466D01*
X292875Y240058D01*
X392509Y285080D02*
G54D51*
D03*
X392509Y260080D02*
G54D51*
D03*
G54D61*
X215899Y39812D02*
X215899Y74340D01*
X226615Y85056D01*
X358067Y85056D01*
X369974Y96963D01*
G54D61*
X457199Y456530D02*
X661590Y456530D01*
X687387Y430734D01*
X687387Y160859D01*
X689371Y158874D01*
X525526Y429026D02*
G54D64*
D03*
X591804Y366319D02*
G54D64*
D03*
X524472Y347735D02*
G54D64*
D03*
X591011Y282579D02*
G54D64*
D03*
X343757Y415928D02*
G54D64*
D03*
X367966Y416327D02*
G54D64*
D03*
X234220Y229794D02*
G54D64*
D03*
X231589Y187595D02*
G54D64*
D03*
X131957Y23734D02*
G54D64*
D03*
X816436Y27388D02*
G54D64*
D03*
X341376Y118272D02*
G54D64*
D03*
X336217Y52391D02*
G54D64*
D03*
X420751Y515941D02*
G54D64*
D03*
X420751Y480222D02*
G54D64*
D03*
X751745Y111922D02*
G54D64*
D03*
X282770Y18575D02*
G54D64*
D03*
X660067Y295279D02*
G54D64*
D03*
X659273Y211538D02*
G54D64*
D03*
X194468Y452165D02*
G54D55*
D03*
X222468Y452165D02*
G54D55*
D03*
X194865Y404143D02*
G54D55*
D03*
X222865Y404143D02*
G54D55*
D03*
X276621Y284684D02*
G54D55*
D03*
X304621Y284684D02*
G54D55*
D03*
M02*
